<?xml version="1.0" standalone="no"?>
<!DOCTYPE svg PUBLIC "-//W3C//DTD SVG 1.1//EN" "http://www.w3.org/Graphics/SVG/1.1/DTD/svg11.dtd" >
<svg xmlns="http://www.w3.org/2000/svg" xmlns:xlink="http://www.w3.org/1999/xlink" version="1.1">
<metadata>
Created by FontForge 20170731 at Wed Aug 29 10:07:17 2018
 By Aleksey,,,
Copyright (c) 2016 by FontfabricLLC. All rights reserved.
</metadata>
<defs>
<font id="UniNeue-Regular" horiz-adv-x="0" >
  <font-face 
    font-family="Uni Neue"
    font-weight="400"
    font-stretch="normal"
    units-per-em="1000"
    panose-1="0 0 0 0 0 0 0 0 0 0"
    ascent="750"
    descent="-250"
    x-height="517"
    cap-height="715"
    bbox="-607 -244 1045 979"
    underline-thickness="50"
    underline-position="-150"
    unicode-range="U+0020-25CA"
  />
<missing-glyph horiz-adv-x="225" 
 />
    <glyph glyph-name=".notdef" horiz-adv-x="225" 
 />
    <glyph glyph-name=".null" 
 />
    <glyph glyph-name="nonmarkingreturn" horiz-adv-x="333" 
 />
    <glyph glyph-name="space" unicode=" " horiz-adv-x="225" 
 />
    <glyph glyph-name="exclam" unicode="!" horiz-adv-x="248" 
d="M86 187l-6 342v175q0 11 12 11h65q11 0 11 -11v-175l-6 -342q0 -11 -11 -11h-53q-12 0 -12 11zM165.5 8.5q-16.5 -16.5 -41.5 -16.5t-41 16.5t-16 41.5t16 41.5t41 16.5t41.5 -16.5t16.5 -41.5t-16.5 -41.5z" />
    <glyph glyph-name="quotedbl" unicode="&#x22;" horiz-adv-x="329" 
d="M113 491h-43q-11 0 -11 12l10 201q0 11 12 11h58q11 0 11 -12l-24 -201q-2 -11 -13 -11zM252.5 494q-3.5 -3 -8.5 -3h-43q-6 0 -8.5 2.5t-2.5 9.5l9 201q0 11 13 11h58q12 0 10 -12l-24 -201q0 -5 -3.5 -8z" />
    <glyph glyph-name="numbersign" unicode="#" horiz-adv-x="727" 
d="M116.5 4q-2.5 4 -0.5 9l55 194h-133q-6 0 -8.5 3.5t-0.5 9.5l12 42q3 10 12 10h136l46 169h-133q-12 0 -9 13l12 42q3 10 13 10h135l57 199q3 10 12 10h50q6 0 9 -4t1 -9l-56 -196h158l57 199q3 10 12 10h50q6 0 9 -4t1 -9l-56 -196h131q6 0 8.5 -4t0.5 -10l-12 -41
q-3 -10 -12 -10h-134l-47 -169h131q6 0 8.5 -4t0.5 -10l-12 -41q-3 -10 -12 -10h-134l-57 -197q-1 -10 -12 -10h-50q-6 0 -8.5 4t-0.5 9l56 194h-158l-57 -197q-3 -10 -12 -10h-50q-6 0 -8.5 4zM419 272l47 169h-158l-47 -169h158z" />
    <glyph glyph-name="dollar" unicode="$" horiz-adv-x="584" 
d="M422.5 364.5q49.5 -19.5 84.5 -61.5t35 -113q0 -88 -59.5 -139t-154.5 -60v-78q0 -12 -12 -12h-47q-11 0 -11 12v77q-58 4 -108 27.5t-101 68.5q-9 7 -2 16l33 46q8 8 16 2q51 -41 98 -60.5t98 -20.5q70 0 118 31.5t48 91.5q0 43 -25 68.5t-61 38t-97 25.5
q-103 24 -165.5 68.5t-62.5 135.5q0 88 58.5 138t152.5 58v72q0 12 11 12h47q12 0 12 -12v-71q52 -5 97.5 -24t94.5 -57q8 -6 2 -15l-32 -46q-3 -5 -8 -5q-3 0 -8 3q-87 63 -186 66q-71 0 -114.5 -32t-43.5 -88q0 -38 21 -61.5t55.5 -37t91.5 -26.5q75 -18 124.5 -37.5z" />
    <glyph glyph-name="percent" unicode="%" horiz-adv-x="754" 
d="M266.5 382.5q-37.5 -32.5 -90.5 -32.5t-90.5 32.5t-37.5 90.5v123q0 60 37.5 92t90.5 32t90.5 -32t37.5 -92v-123q0 -58 -37.5 -90.5zM102 4.5q-2 4.5 1 9.5l464 687q6 7 14 7h52q7 0 9 -4.5t-1 -9.5l-464 -687q-6 -7 -14 -7h-52q-7 0 -9 4.5zM127.5 425
q19.5 -18 48.5 -18q28 0 47.5 18t19.5 53v111q0 36 -19.5 55t-47.5 19q-29 0 -48.5 -19t-19.5 -55v-111q0 -35 19.5 -53zM669.5 23.5q-37.5 -32.5 -90.5 -32.5q-52 0 -90 32.5t-38 90.5v123q0 60 37.5 92t90.5 32q54 0 91 -32t37 -92v-123q0 -58 -37.5 -90.5zM531.5 66
q19.5 -18 47.5 -18t47.5 18t19.5 53v111q0 36 -19.5 55t-47.5 19t-47.5 -19t-19.5 -55v-111q0 -35 19.5 -53z" />
    <glyph glyph-name="ampersand" unicode="&#x26;" horiz-adv-x="603" 
d="M349 12q-44 -23 -100 -23q-58 0 -105.5 24.5t-75 70t-27.5 104.5q0 67 36 115.5t102 89.5q-76 96 -76 172q0 46 23 82.5t63 57.5t91 21q75 0 121 -44.5t46 -113.5q0 -63 -39 -109t-114 -88l134 -165q28 47 46 92q5 11 14 6l49 -22q11 -4 6 -15q-24 -66 -62 -127l43 -52
l59 -74q3 -4 3 -7q0 -7 -10 -7h-74q-9 0 -14 7q-32 39 -57 70q-38 -42 -82 -65zM197 504q16 -31 49 -73q63 36 93 67t30 68q0 40 -23.5 64.5t-67.5 24.5t-70.5 -25.5t-26.5 -65.5q0 -29 16 -60zM159 99q38 -34 96 -34q40 0 70.5 18t57.5 55q-74 91 -155 193q-53 -31 -80 -65
t-27 -77q0 -56 38 -90z" />
    <glyph glyph-name="quotesingle" unicode="'" horiz-adv-x="198" 
d="M113 491h-43q-6 0 -8.5 2.5t-2.5 9.5l9 201q0 11 12 11h59q12 0 10 -12l-24 -201q-2 -11 -12 -11z" />
    <glyph glyph-name="parenleft" unicode="(" horiz-adv-x="286" 
d="M183 -108q-134 228 -134 464t134 464q4 8 14 8h60q7 0 9 -4t-1 -10q-64 -104 -99.5 -223t-35.5 -235t35.5 -235t99.5 -223q2 -4 2 -6q0 -8 -10 -8h-60q-10 0 -14 8z" />
    <glyph glyph-name="parenright" unicode=")" horiz-adv-x="286" 
d="M28 -116q-7 0 -9 4t1 10q64 104 99.5 223t35.5 235t-35.5 235t-99.5 223q-2 4 -2 6q0 8 10 8h60q10 0 14 -8q134 -228 134 -464t-134 -464q-4 -8 -14 -8h-60z" />
    <glyph glyph-name="asterisk" unicode="*" horiz-adv-x="457" 
d="M94 402q-1 4 2 8l72 100l-116 38q-5 1 -7.5 5t-0.5 9l15 49q5 12 14 8l118 -38v123q0 11 12 11h50q12 0 12 -11v-124l117 38l4 1q7 0 10 -8l16 -48l1 -4q0 -7 -8 -10l-118 -38l72 -100q3 -3 3 -6q0 -4 -5 -9l-41 -31q-3 -3 -6 -3q-6 0 -9 5l-73 100l-72 -99q-5 -8 -16 -3
l-41 30q-4 3 -5 7z" />
    <glyph glyph-name="plus" unicode="+" horiz-adv-x="579" 
d="M510 361v-54q0 -12 -11 -12h-170v-171q0 -5 -3.5 -8.5t-8.5 -3.5h-55q-12 0 -12 12v171h-170q-11 0 -11 12v54q0 11 11 11h170v171q0 12 12 12h55q12 0 12 -12v-171h170q11 0 11 -11z" />
    <glyph glyph-name="comma" unicode="," horiz-adv-x="215" 
d="M79 -117h-49q-12 0 -10 13l53 198q2 10 12 10h63q6 0 9 -4t1 -9l-66 -199q-1 -9 -13 -9z" />
    <glyph glyph-name="hyphen" unicode="-" horiz-adv-x="404" 
d="M66 274v54q0 11 11 11h250q11 0 11 -11v-54q0 -11 -11 -11h-250q-11 0 -11 11z" />
    <glyph glyph-name="period" unicode="." horiz-adv-x="211" 
d="M145.5 10.5q-15.5 -15.5 -39.5 -15.5q-25 0 -40 15.5t-15 39.5q0 25 15 40.5t40 15.5q24 0 39.5 -15.5t15.5 -40.5q0 -24 -15.5 -39.5z" />
    <glyph glyph-name="slash" unicode="/" horiz-adv-x="420" 
d="M96 0h-61q-6 0 -8.5 4t-0.5 9l287 693q5 9 13 9h60q6 0 8 -4t0 -9l-285 -693q-3 -9 -13 -9z" />
    <glyph glyph-name="zero" unicode="0" horiz-adv-x="610" 
d="M511 93.5q-33 -53.5 -87 -79t-118 -25.5t-118.5 25.5t-88 79t-33.5 131.5v267q0 78 33.5 130.5t88 78t118.5 25.5t118 -25.5t87 -78t33 -130.5v-267q0 -78 -33 -131.5zM194 106.5q45 -37.5 112 -37.5q66 0 110.5 37.5t44.5 115.5v267q0 81 -44 119t-111 38
q-68 0 -112.5 -38t-44.5 -119v-267q0 -78 45 -115.5z" />
    <glyph glyph-name="one" unicode="1" horiz-adv-x="358" 
d="M187 11v605l-123 -82q-2 -2 -7 -2q-6 0 -9 5l-28 46q-2 4 -2 6q0 5 5 10l169 112q7 4 15 4h51q12 0 12 -11v-693q0 -11 -12 -11h-59q-12 0 -12 11z" />
    <glyph glyph-name="two" unicode="2" horiz-adv-x="554" 
d="M40 11v41q0 9 6 14l195 205q86 90 126 147.5t40 113.5q0 48 -31.5 82t-95.5 34q-56 0 -97.5 -23.5t-78.5 -64.5q-3 -4 -8 -4q-4 0 -8 4l-32 44q-3 5 -3 8q0 5 3 8q94 106 223 106q95 0 153.5 -52t58.5 -141q0 -49 -20.5 -95t-56.5 -93t-99 -115q-74 -82 -147 -153h327
q11 0 11 -12v-54q0 -11 -11 -11h-444q-11 0 -11 11z" />
    <glyph glyph-name="three" unicode="3" horiz-adv-x="564" 
d="M484 99.5q-31 -52.5 -86 -81t-124 -28.5q-77 0 -132.5 25.5t-104.5 73.5q-4 6 -4 8q0 4 4 8l34 37q4 4 9 4t8 -4q45 -38 85 -56t101 -18q71 0 114 41t43 114q0 71 -43.5 109t-123.5 38q-28 0 -61 -6h-2q-8 0 -11 8l-13 27q-2 4 -2 6q0 4 4 10l128 139q56 62 82 84h-309
q-11 0 -11 12v54q0 11 11 11h407q11 0 11 -11v-39q0 -7 -5 -14l-206 -222l7 -1q61 1 111.5 -23.5t80 -71.5t29.5 -111q0 -70 -31 -122.5z" />
    <glyph glyph-name="four" unicode="4" horiz-adv-x="558" 
d="M367 11v156h-327q-12 0 -12 11v44q0 7 4 14l260 471q4 8 13 8h70q7 0 9 -4t-1 -10l-253 -458h237v153q0 11 11 11h60q12 0 12 -11v-153h67q11 0 11 -11v-54q0 -11 -11 -11h-67v-156q0 -11 -12 -11h-60q-11 0 -11 11z" />
    <glyph glyph-name="five" unicode="5" horiz-adv-x="576" 
d="M500 107q-29 -55 -83.5 -85.5t-128.5 -30.5q-135 0 -229 96q-4 6 -4 8q0 4 4 8l40 41q3 4 7 4t9 -5q39 -37 81 -55t94 -18q74 0 114.5 44t40.5 121q0 154 -152 154q-49 0 -84 -14t-64 -41q-7 -7 -15 -4l-48 17q-10 3 -10 13l13 344q0 11 12 11h384q12 0 12 -11v-56
q0 -11 -12 -11h-321l-8 -214q62 45 148 45q105 0 167 -60t62 -172q0 -74 -29 -129z" />
    <glyph glyph-name="six" unicode="6" horiz-adv-x="589" 
d="M312 456q107 0 168.5 -59.5t61.5 -168.5q0 -71 -30 -125t-84.5 -84t-123.5 -30t-123.5 29t-84.5 81.5t-30 121.5v273q0 74 32 126.5t85.5 79t118.5 26.5q58 0 111 -19t96 -54q4 -4 4 -8q0 -3 -3 -8l-32 -43q-6 -11 -16 -3q-33 27 -73.5 42t-85.5 15q-66 0 -109.5 -39.5
t-43.5 -110.5v-113q56 71 162 71zM192.5 109.5q42.5 -41.5 113.5 -41.5t111.5 42.5t40.5 116.5q0 73 -37.5 112t-111.5 39q-67 0 -113 -36.5t-46 -108.5v-12q0 -70 42.5 -111.5z" />
    <glyph glyph-name="seven" unicode="7" horiz-adv-x="522" 
d="M93.5 4q-2.5 4 0.5 10l300 621h-357q-11 0 -11 11v58q0 11 11 11h452q12 0 12 -11v-35q0 -7 -3 -13l-313 -648q-3 -8 -13 -8h-70q-6 0 -8.5 4z" />
    <glyph glyph-name="eight" unicode="8" horiz-adv-x="611" 
d="M487.5 47q-68.5 -58 -181.5 -58q-114 0 -182.5 58t-68.5 158q0 57 30.5 104t86.5 68q-48 21 -73 62t-25 96q0 53 29 96.5t82 69t121 25.5q67 0 120 -25.5t82 -69t29 -96.5q0 -55 -25 -96t-73 -62q56 -21 86.5 -68t30.5 -104q0 -100 -68.5 -158zM196 442q39 -33 110 -33
t109.5 33t38.5 90q0 54 -39.5 85t-108.5 31t-109 -30.5t-40 -85.5q0 -57 39 -90zM184 105.5q45 -38.5 122 -38.5t121.5 38.5t44.5 100.5q0 58 -45 93t-121 35q-77 0 -122 -35t-45 -93q0 -62 45 -100.5z" />
    <glyph glyph-name="nine" unicode="9" horiz-adv-x="589" 
d="M78 612q30 54 84 84t123 30t123.5 -29t84.5 -81.5t30 -121.5v-273q0 -74 -31.5 -126.5t-85 -79t-118.5 -26.5q-59 0 -112.5 23t-97.5 64q-4 4 -4 8q0 5 3 8l33 45q3 5 8 5q2 0 8 -4q72 -70 161 -70q65 0 109 39.5t44 109.5v112q-58 -70 -163 -70q-107 0 -168 59.5
t-61 168.5q0 71 30 125zM169.5 375.5q38.5 -38.5 114.5 -38.5q64 0 110 37.5t46 107.5v12q0 71 -42.5 112.5t-113.5 41.5t-112 -42.5t-41 -117.5q0 -74 38.5 -112.5z" />
    <glyph glyph-name="colon" unicode=":" horiz-adv-x="244" 
d="M162 425.5q-15 -15.5 -40 -15.5t-40 15.5t-15 40.5t15 40t40 15t40 -15t15 -40t-15 -40.5zM162 10q-15 -15 -40 -15t-40 15t-15 40t15 40.5t40 15.5t40 -15.5t15 -40.5t-15 -40z" />
    <glyph glyph-name="semicolon" unicode=";" horiz-adv-x="255" 
d="M172.5 425.5q-15.5 -15.5 -40.5 -15.5t-40 15.5t-15 40.5q0 24 15 39.5t40 15.5t40.5 -15.5t15.5 -39.5q0 -25 -15.5 -40.5zM40.5 -113.5q-2.5 3.5 -1.5 9.5l52 205q3 10 12 10h64q6 0 8.5 -4t0.5 -9l-65 -205q-3 -10 -13 -10h-49q-6 0 -8.5 3.5z" />
    <glyph glyph-name="less" unicode="&#x3c;" horiz-adv-x="579" 
d="M491.5 90.5q-4.5 -2.5 -9.5 0.5l-419 204q-8 5 -8 14v42q0 9 8 13l419 205q2 1 5 1q4 0 6.5 -3t2.5 -7v-66q0 -10 -9 -13l-329 -151l329 -151q9 -4 9 -14v-66q0 -6 -4.5 -8.5z" />
    <glyph glyph-name="equal" unicode="=" horiz-adv-x="579" 
d="M69 397v54q0 11 11 11h419q11 0 11 -11v-54q0 -12 -11 -12h-419q-11 0 -11 12zM69 214v54q0 12 11 12h419q11 0 11 -12v-54q0 -11 -11 -11h-419q-11 0 -11 11z" />
    <glyph glyph-name="greater" unicode="&#x3e;" horiz-adv-x="579" 
d="M91 89q-8 0 -8 10v66q0 10 9 14l329 151l-329 151q-9 3 -9 13v66q0 6 4 9t10 0l419 -205q8 -5 8 -13v-42q0 -8 -8 -14l-419 -204q-4 -2 -6 -2z" />
    <glyph glyph-name="question" unicode="?" horiz-adv-x="475" 
d="M174 187v59q0 35 12.5 60.5t31 43t50.5 41.5q30 23 47.5 39.5t29.5 40t12 54.5q0 54 -33 91t-101 37q-45 0 -80.5 -17t-66.5 -48q-6 -4 -9 -4q-4 0 -7 5l-31 44q-3 3 -3 7t4 8q32 33 83 55.5t112 22.5q60 0 108 -24t76 -69.5t28 -107.5q0 -43 -14 -74t-34 -51t-52 -45
q-41 -31 -61 -57t-20 -67v-44q0 -11 -12 -11h-59q-11 0 -11 11zM255.5 10.5q-15.5 -15.5 -40.5 -15.5t-40 15.5t-15 39.5q0 25 15 40.5t40 15.5t40.5 -15.5t15.5 -40.5q0 -24 -15.5 -39.5z" />
    <glyph glyph-name="at" unicode="@" horiz-adv-x="927" 
d="M531.5 -98.5q-61.5 -12.5 -112.5 -12.5q-118 0 -199 46.5t-121 129.5t-40 193v126q0 158 93.5 250t299.5 92q145 0 243 -46t161 -131q4 -7 4 -14v-278q0 -87 -39.5 -132t-107.5 -45q-39 0 -71 14.5t-49 40.5q-19 -26 -53.5 -41.5t-78.5 -15.5q-53 0 -95 24.5t-65.5 67
t-23.5 95.5v76q0 81 49.5 130.5t134.5 49.5q47 0 94.5 -10.5t75.5 -25.5q8 -4 8 -13v-248q0 -40 21 -60.5t57 -20.5q76 1 76 104v277q-59 67 -141.5 103.5t-197.5 36.5q-167 0 -246.5 -73.5t-79.5 -206.5v-126q0 -144 76.5 -224t216.5 -80q47 0 98 10t92 30q4 2 7 2
q5 0 7 -8l11 -40v-4q0 -8 -6 -10q-37 -20 -98.5 -32.5zM379.5 175.5q31.5 -31.5 81.5 -31.5q40 0 68.5 16t37.5 42v235q-13 7 -44 13.5t-62 6.5q-52 0 -82.5 -31.5t-30.5 -84.5v-74q0 -60 31.5 -91.5z" />
    <glyph glyph-name="A" unicode="A" horiz-adv-x="619" 
d="M9 13l249 693q3 9 12 9h79q10 0 13 -9l248 -693q1 -2 1 -5q0 -8 -10 -8h-67q-10 0 -13 9l-61 178h-300l-62 -178q-3 -9 -13 -9h-67q-12 0 -9 13zM434 266l-122 354h-4l-122 -354h248z" />
    <glyph glyph-name="B" unicode="B" horiz-adv-x="637" 
d="M535.5 438.5q-22.5 -38.5 -62.5 -57.5q55 -20 85 -65.5t30 -108.5q0 -98 -64.5 -152.5t-181.5 -54.5h-241q-12 0 -12 11v693q0 11 12 11h242q105 0 160 -50.5t55 -137.5q0 -50 -22.5 -88.5zM439 608.5q-33 29.5 -96 29.5h-169v-222h175q57 0 90 28t33 83q0 52 -33 81.5z
M460.5 109.5q41.5 32.5 41.5 97.5q0 61 -38.5 96.5t-114.5 35.5h-175v-262h169q76 0 117.5 32.5z" />
    <glyph glyph-name="C" unicode="C" horiz-adv-x="587" 
d="M450 8q-59 -19 -122 -19q-75 0 -134.5 28t-94 84t-34.5 135v242q0 80 34.5 136t93.5 84t133 28q57 0 112 -18t101 -52q8 -6 2 -15l-32 -47q-3 -5 -8 -5q-4 0 -9 3q-36 26 -79.5 40t-87.5 14q-84 0 -129.5 -45t-45.5 -123v-241q0 -78 46 -123t130 -45q49 0 97 16t87 46
q3 3 7 3q5 0 8 -6l33 -46q3 -4 3 -8t-6 -9q-46 -38 -105 -57z" />
    <glyph glyph-name="D" unicode="D" horiz-adv-x="670" 
d="M89 11v693q0 11 12 11h244q122 0 191 -67.5t69 -189.5v-205q0 -121 -69 -187t-191 -66h-244q-12 0 -12 11zM344 80q84 0 128.5 43.5t44.5 129.5v205q0 88 -44.5 133.5t-128.5 45.5h-169v-557h169z" />
    <glyph glyph-name="E" unicode="E" horiz-adv-x="579" 
d="M519 78q11 0 11 -11v-56q0 -11 -11 -11h-418q-12 0 -12 11v693q0 11 12 11h404q11 0 11 -11v-56q0 -11 -11 -11h-330v-234h307q11 0 11 -12v-55q0 -12 -11 -12h-307v-246h344z" />
    <glyph glyph-name="F" unicode="F" horiz-adv-x="559" 
d="M516 637h-342v-252h304q11 0 11 -11v-56q0 -11 -11 -11h-304v-296q0 -11 -11 -11h-62q-12 0 -12 11v693q0 11 12 11h415q12 0 12 -11v-56q0 -11 -12 -11z" />
    <glyph glyph-name="G" unicode="G" horiz-adv-x="646" 
d="M472.5 16q-63.5 -27 -139.5 -27q-75 0 -136 28.5t-96.5 84.5t-35.5 135v242q0 79 34.5 135t93.5 84t133 28q63 0 125 -18.5t112 -52.5q5 -3 5.5 -7.5t-2.5 -8.5l-34 -47q-5 -8 -15 -3q-86 57 -191 57q-81 0 -128.5 -44.5t-47.5 -124.5v-240q0 -80 50 -123.5t133 -43.5
q51 0 94.5 15t74.5 41v186h-164q-11 0 -11 11v56q0 11 11 11h237q11 0 11 -11v-276q0 -9 -4 -13q-46 -47 -109.5 -74z" />
    <glyph glyph-name="H" unicode="H" horiz-adv-x="682" 
d="M520 715h62q11 0 11 -11v-693q0 -11 -11 -11h-62q-12 0 -12 11v313h-334v-313q0 -11 -11 -11h-62q-12 0 -12 11v693q0 11 12 11h62q11 0 11 -11v-302h334v302q0 11 12 11z" />
    <glyph glyph-name="I" unicode="I" horiz-adv-x="263" 
d="M163 0h-62q-12 0 -12 11v693q0 11 12 11h62q11 0 11 -11v-693q0 -11 -11 -11z" />
    <glyph glyph-name="J" unicode="J" horiz-adv-x="506" 
d="M363.5 51.5q-57.5 -62.5 -151.5 -62.5q-58 0 -104.5 19.5t-92.5 58.5q-5 3 -5 8q0 4 3 8l28 46q3 6 8 6q2 0 8 -4q38 -30 74.5 -45.5t80.5 -15.5q60 0 92 39t32 120v475q0 11 12 11h62q11 0 11 -11v-476q0 -114 -57.5 -176.5z" />
    <glyph glyph-name="K" unicode="K" horiz-adv-x="614" 
d="M89 11v693q0 11 12 11h62q11 0 11 -11v-331l309 335q7 7 15 7h80q8 0 10 -4.5t-3 -9.5l-287 -308l307 -379q3 -4 3 -7q0 -7 -10 -7h-81q-10 0 -14 7l-262 326l-67 -69v-253q0 -11 -11 -11h-62q-12 0 -12 11z" />
    <glyph glyph-name="L" unicode="L" horiz-adv-x="512" 
d="M89 11v693q0 11 12 11h63q11 0 11 -11v-626h314q11 0 11 -11v-56q0 -11 -11 -11h-388q-12 0 -12 11z" />
    <glyph glyph-name="M" unicode="M" horiz-adv-x="853" 
d="M89 11v693q0 11 12 11h76q9 0 13 -8l155 -282q40 -74 80 -158h3q42 88 80 157l156 283q3 8 13 8h76q11 0 11 -11v-693q0 -11 -11 -11h-63q-11 0 -11 11v302q0 101 6 271l-2 1q-25 -50 -91 -176l-125 -232q-5 -8 -14 -8h-53q-10 0 -13 8l-125 232q-58 108 -91 176l-2 -1
l1 -49q4 -146 4 -222v-302q0 -11 -11 -11h-62q-12 0 -12 11z" />
    <glyph glyph-name="N" unicode="N" horiz-adv-x="704" 
d="M89 11v693q0 11 12 11h70q9 0 14 -8l265 -432l17 -28q46 -77 67 -118l3 1q-6 125 -6 271v303q0 11 11 11h62q11 0 11 -11v-693q0 -11 -11 -11h-70q-10 0 -14 7l-263 417q-50 81 -87 152l-2 -1q6 -158 6 -261v-303q0 -11 -12 -11h-61q-12 0 -12 11z" />
    <glyph glyph-name="O" unicode="O" horiz-adv-x="674" 
d="M577 112q-33 -59 -94.5 -91t-145.5 -32t-145.5 32t-94.5 91t-33 139v211q0 123 73 193.5t200 70.5t200 -70.5t73 -193.5v-211q0 -80 -33 -139zM199 118q49 -48 138 -48t137.5 48t48.5 133v211q0 88 -48.5 136.5t-137.5 48.5t-138 -48.5t-49 -136.5v-211q0 -85 49 -133z
" />
    <glyph glyph-name="P" unicode="P" horiz-adv-x="625" 
d="M524 653q65 -62 65 -172q0 -111 -65 -173t-183 -62h-167v-235q0 -11 -11 -11h-63q-11 0 -11 11v693q0 11 11 11h241q118 0 183 -62zM503 481q0 155 -171 155h-158v-311h158q171 0 171 156z" />
    <glyph glyph-name="Q" unicode="Q" horiz-adv-x="675" 
d="M570 -41q-3 0 -8 5l-64 67q-69 -42 -161 -42q-84 0 -145.5 32t-94.5 91.5t-33 138.5v211q0 123 73 193.5t200 70.5t200 -70.5t73 -193.5v-211q0 -105 -58 -172l61 -65q4 -4 4 -9q0 -4 -4 -7l-34 -34q-5 -5 -9 -5zM199 117.5q49 -48.5 138 -48.5q54 0 101 25l-91 95
q-4 6 -4 8q0 4 4 8l34 34q4 4 9 4t8 -4l93 -97q32 46 32 109v211q0 87 -48.5 136t-137.5 49t-138 -49t-49 -136v-211q0 -85 49 -133.5z" />
    <glyph glyph-name="R" unicode="R" horiz-adv-x="631" 
d="M494 7l-199 272h-121v-268q0 -11 -11 -11h-62q-12 0 -12 11v693q0 11 12 11h225q118 0 185 -58t67 -161q0 -85 -49.5 -140t-138.5 -70l203 -272q3 -4 3 -7q0 -7 -10 -7h-78q-10 0 -14 7zM174 356h153q164 0 164 140q0 141 -164 141h-153v-281z" />
    <glyph glyph-name="S" unicode="S" horiz-adv-x="606" 
d="M490 40.5q-74 -51.5 -188 -51.5q-72 0 -130.5 23t-119.5 72q-5 5 -5 8q0 4 3 8l34 47q3 4 7 5t8 -2q53 -40 102 -59.5t104 -20.5q74 0 123.5 31t49.5 91q0 40 -22 65t-61 40t-104 29q-108 24 -173.5 72t-65.5 139q0 94 72 141.5t183 47.5q66 0 120.5 -19t112.5 -61
q10 -6 3 -15l-33 -47q-3 -5 -8 -5q-4 0 -8 3q-90 62 -194 65q-73 0 -117.5 -29.5t-44.5 -82.5t43 -80t132 -47q79 -18 132 -40.5t86 -64.5t33 -109q0 -102 -74 -153.5z" />
    <glyph glyph-name="T" unicode="T" horiz-adv-x="561" 
d="M549 704v-56q0 -11 -12 -11h-214v-626q0 -11 -12 -11h-62q-12 0 -12 11v626h-214q-11 0 -11 11v56q0 11 11 11h514q12 0 12 -11z" />
    <glyph glyph-name="U" unicode="U" horiz-adv-x="691" 
d="M576 110.5q-32 -57.5 -92 -89.5t-139 -32t-138.5 32t-91.5 89.5t-32 133.5v460q0 11 12 11h64q11 0 11 -11v-454q0 -85 46 -133.5t129 -48.5q84 0 130 48.5t46 133.5v454q0 11 11 11h64q12 0 12 -11v-460q0 -76 -32 -133.5z" />
    <glyph glyph-name="V" unicode="V" horiz-adv-x="631" 
d="M259 9l-252 693q-1 2 -1 5q0 8 10 8h68q10 0 13 -9l145 -409q32 -88 71 -203h3q24 67 70 201l146 411q3 9 13 9h68q12 0 9 -13l-252 -693q-3 -9 -13 -9h-85q-10 0 -13 9z" />
    <glyph glyph-name="W" unicode="W" horiz-adv-x="951" 
d="M206 10l-193 692l-1 3q0 10 11 10h67q11 0 12 -10l104 -391q29 -109 50 -211h2q25 100 61 223l110 368q3 10 12 10h68q9 0 12 -10l111 -368q40 -139 61 -223h2q28 130 49 211l104 391q3 10 12 10h68q6 0 9 -4t1 -9l-194 -692q-3 -10 -12 -10h-73q-11 0 -12 10l-115 373
q-37 126 -55 211h-3q-24 -110 -55 -211l-115 -373q-3 -10 -12 -10h-73q-10 0 -13 10z" />
    <glyph glyph-name="X" unicode="X" horiz-adv-x="590" 
d="M571 7q0 -7 -9 -7h-77q-9 0 -14 8l-175 284l-176 -284q-5 -8 -14 -8h-77q-7 0 -9.5 4.5t1.5 9.5l225 345l-214 342q-2 4 -2 6q0 8 10 8h76q8 0 13 -8l167 -279l166 279q5 8 13 8h76q6 0 8.5 -4.5t-1.5 -9.5l-213 -342l224 -345q2 -2 2 -7z" />
    <glyph glyph-name="Y" unicode="Y" horiz-adv-x="568" 
d="M241 11v261l-235 429q-2 4 -2 6q0 8 10 8h72q10 0 13 -8l185 -357l184 357q3 8 13 8h72q7 0 9 -4t-1 -10l-234 -431v-259q0 -11 -12 -11h-63q-11 0 -11 11z" />
    <glyph glyph-name="Z" unicode="Z" horiz-adv-x="588" 
d="M36 11v39q0 9 4 14l388 573h-364q-12 0 -12 11v56q0 11 12 11h467q11 0 11 -11v-38q0 -8 -4 -15l-387 -573h389q11 0 11 -11v-56q0 -11 -11 -11h-493q-11 0 -11 11z" />
    <glyph glyph-name="bracketleft" unicode="[" horiz-adv-x="285" 
d="M240 -42q12 0 12 -11v-53q0 -11 -12 -11h-146q-12 0 -12 11v923q0 11 12 11h146q12 0 12 -11v-53q0 -11 -12 -11h-77v-795h77z" />
    <glyph glyph-name="backslash" unicode="\" horiz-adv-x="420" 
d="M26 702q-1 2 -1 5q0 8 9 8h60q9 0 13 -9l287 -693q1 -2 1 -5t-3 -5.5t-7 -2.5h-61q-10 0 -13 9z" />
    <glyph glyph-name="bracketright" unicode="]" horiz-adv-x="285" 
d="M122 753h-77q-12 0 -12 11v53q0 11 12 11h146q12 0 12 -11v-923q0 -11 -12 -11h-146q-12 0 -12 11v53q0 11 12 11h77v795z" />
    <glyph glyph-name="asciicircum" unicode="^" horiz-adv-x="579" 
d="M44 569q-3 2 -3 4t4 8l203 234q6 7 14 7h55q8 0 14 -7l203 -234q4 -4 4 -8q0 -6 -10 -6h-75q-10 0 -14 6l-149 176l-150 -176q-5 -6 -13 -6h-76q-4 0 -7 2z" />
    <glyph glyph-name="underscore" unicode="_" horiz-adv-x="574" 
d="M527 -88h-480q-11 0 -11 11v54q0 12 11 12h480q11 0 11 -12v-54q0 -11 -11 -11z" />
    <glyph glyph-name="grave" unicode="`" horiz-adv-x="214" 
d="M106 597q-9 0 -14 7l-96 133q-3 5 -3 8q0 6 9 6h63q9 0 14 -7l81 -133q2 -4 2 -6q0 -8 -11 -8h-45z" />
    <glyph glyph-name="a" unicode="a" horiz-adv-x="511" 
d="M145.5 514.5q48.5 13.5 104.5 13.5q94 0 146.5 -49.5t52.5 -144.5v-300q0 -10 -9 -13q-38 -14 -89 -23t-104 -9q-93 0 -154 40t-61 124q0 77 58 118t157 41q52 0 120 -12v32q0 62 -28 92t-92 30q-40 0 -77 -10t-65 -27q-2 -2 -7 -2t-8 5l-29 42q-5 9 0 14
q36 25 84.5 38.5zM150.5 85.5q36.5 -23.5 96.5 -23.5t120 18v150q-64 12 -120 12q-67 0 -100 -23.5t-33 -65.5q0 -44 36.5 -67.5z" />
    <glyph glyph-name="b" unicode="b" horiz-adv-x="543" 
d="M276 528q97 0 157 -56.5t60 -155.5v-111q0 -109 -60.5 -162.5t-162.5 -53.5q-48 0 -99 9.5t-94 25.5q-9 4 -9 13v667q0 11 11 11h59q12 0 12 -11v-207q60 31 126 31zM374 96q36 34 36 109v111q0 139 -141 139q-67 0 -119 -36v-338q49 -19 118 -19q70 0 106 34z" />
    <glyph glyph-name="c" unicode="c" horiz-adv-x="470" 
d="M359 3.5q-43 -14.5 -94 -14.5q-65 0 -113.5 24.5t-74.5 68.5t-26 100v152q0 57 26 101t74.5 68.5t112.5 24.5q87 0 163 -50q6 -4 6 -9q0 -3 -3 -8l-26 -41q-7 -9 -16 -3q-57 37 -122 37q-63 0 -98 -33t-35 -87v-152q0 -55 35 -87.5t97 -32.5q69 0 134 44q5 3 8 3
q5 0 8 -5l29 -41q3 -4 3 -8q0 -5 -5 -8q-40 -29 -83 -43.5z" />
    <glyph glyph-name="d" unicode="d" horiz-adv-x="543" 
d="M405 715h59q11 0 11 -11v-667q0 -9 -9 -13q-43 -16 -94 -25.5t-99 -9.5q-102 0 -162.5 53.5t-60.5 162.5v111q0 99 60 155.5t157 56.5q66 0 126 -31v207q0 11 12 11zM169 95q36 -34 106 -34q69 0 118 19v339q-52 36 -119 36q-141 0 -141 -139v-111q0 -76 36 -110z" />
    <glyph glyph-name="e" unicode="e" horiz-adv-x="518" 
d="M461 219h-327v-42q0 -55 36.5 -85t93.5 -30q47 0 83.5 15t69.5 41q2 2 7 2q7 0 9 -5l29 -38q3 -4 3 -7q0 -4 -5 -9q-86 -72 -198 -72q-56 0 -104 21.5t-77.5 64t-29.5 102.5v152q0 66 29 110.5t77.5 66.5t105.5 22t104.5 -22t76 -66.5t28.5 -110.5v-98q0 -12 -11 -12z
M356.5 422q-35.5 32 -93.5 32q-59 0 -94 -31.5t-35 -93.5v-42h258v42q0 61 -35.5 93z" />
    <glyph glyph-name="f" unicode="f" horiz-adv-x="317" 
d="M248 654q-47 0 -72 -28.5t-25 -80.5v-33h138q11 0 11 -11v-50q0 -12 -11 -12h-138v-428q0 -11 -12 -11h-59q-11 0 -11 11v533q0 87 47 134.5t121 47.5q33 0 60 -3q11 -1 11 -13v-48q0 -11 -10 -11q-22 3 -50 3z" />
    <glyph glyph-name="g" unicode="g" horiz-adv-x="543" 
d="M423.5 -144q-51.5 -56 -159.5 -56q-58 0 -105 17.5t-88 51.5q-4 3 -4 7t3 9l29 43q3 5 8 5q3 0 8 -3q70 -56 149 -56q68 0 99.5 35.5t29.5 111.5v24q-28 -13 -62 -21t-66 -8q-95 0 -155 52t-60 152v100q0 107 61.5 157.5t162.5 50.5q51 0 101.5 -10.5t90.5 -28.5
q9 -3 9 -13v-462q0 -102 -51.5 -158zM170 121q37 -31 101 -31q35 0 68 8t54 22v317q-21 7 -55.5 12t-62.5 5q-68 0 -105 -31.5t-37 -102.5v-100q0 -68 37 -99z" />
    <glyph glyph-name="h" unicode="h" horiz-adv-x="558" 
d="M276 528q99 0 158.5 -53.5t59.5 -164.5v-299q0 -11 -12 -11h-59q-11 0 -11 11v296q0 78 -35.5 112.5t-105.5 34.5q-33 0 -64.5 -7t-55.5 -19v-417q0 -11 -12 -11h-59q-11 0 -11 11v693q0 11 11 11h59q12 0 12 -11v-201q58 25 125 25z" />
    <glyph glyph-name="i" unicode="i" horiz-adv-x="220" 
d="M146 627q-14 -14 -35 -14t-35.5 14t-14.5 35t14.5 35t35.5 14t35 -13.5t14 -35.5q0 -21 -14 -35zM69 11v494q0 12 12 12h59q11 0 11 -12v-494q0 -11 -11 -11h-59q-12 0 -12 11z" />
    <glyph glyph-name="j" unicode="j" horiz-adv-x="228" 
d="M154 627q-14 -14 -35 -14t-35.5 14t-14.5 35t14.5 35t35.5 14t35 -13.5t14 -35.5q0 -21 -14 -35zM120 -154q-39 -47 -111 -47q-27 0 -49 3q-11 1 -11 13v50q0 12 12 12q21 -3 39 -3q39 0 58 25t19 84v522q0 12 12 12h59q11 0 11 -12v-522q0 -90 -39 -137z" />
    <glyph glyph-name="k" unicode="k" horiz-adv-x="495" 
d="M392 7l-190 231l-51 -49v-178q0 -11 -12 -11h-59q-11 0 -11 11v693q0 11 11 11h59q12 0 12 -11v-414l226 221q5 6 14 6h73q9 0 9 -6q0 -4 -4 -8l-212 -209l230 -280q3 -4 3 -8q0 -6 -9 -6h-74q-9 0 -15 7z" />
    <glyph glyph-name="l" unicode="l" horiz-adv-x="290" 
d="M217 -11q-72 0 -111.5 47.5t-39.5 136.5v531q0 11 12 11h59q11 0 11 -11v-532q0 -57 19.5 -82.5t58.5 -25.5q21 0 45 3q12 0 12 -11v-51q0 -11 -10 -13q-25 -3 -56 -3z" />
    <glyph glyph-name="m" unicode="m" horiz-adv-x="817" 
d="M465.5 516q36.5 12 80.5 12q94 0 150.5 -53.5t56.5 -150.5v-313q0 -11 -11 -11h-59q-12 0 -12 11v315q0 61 -32 94.5t-95 33.5q-61 0 -110 -34q19 -41 19 -95v-314q0 -11 -11 -11h-60q-11 0 -11 11v315q0 128 -120 128q-51 0 -101 -18v-425q0 -11 -12 -11h-59
q-11 0 -11 11v464q0 10 9 14q86 39 172 39q88 0 143 -49q37 25 73.5 37z" />
    <glyph glyph-name="n" unicode="n" horiz-adv-x="557" 
d="M68 11v464q0 10 8 14q93 39 192 39q105 0 165 -53t60 -163v-301q0 -11 -12 -11h-59q-11 0 -11 11v299q0 76 -36.5 110t-106.5 34q-62 0 -118 -18v-425q0 -11 -12 -11h-59q-11 0 -11 11z" />
    <glyph glyph-name="o" unicode="o" horiz-adv-x="540" 
d="M430.5 42.5q-59.5 -53.5 -160.5 -53.5q-67 0 -116.5 24.5t-76.5 69t-27 102.5v144q0 58 27 103.5t77 70.5t116 25q67 0 116.5 -25t76.5 -70.5t27 -103.5v-144q0 -89 -59.5 -142.5zM168.5 95q35.5 -33 101.5 -33t102 33t36 90v144q0 58 -36 91.5t-102 33.5t-101.5 -33.5
t-35.5 -91.5v-144q0 -57 35.5 -90z" />
    <glyph glyph-name="p" unicode="p" horiz-adv-x="543" 
d="M170.5 518.5q51.5 9.5 99.5 9.5q103 0 163 -53.5t60 -163.5v-110q0 -99 -60 -155.5t-159 -56.5q-69 0 -124 31v-199q0 -11 -12 -11h-59q-11 0 -11 11v658q0 10 8 13q43 17 94.5 26.5zM410 201v110q0 76 -36.5 110.5t-105.5 34.5q-70 0 -118 -20v-338q52 -36 119 -36
q141 0 141 139z" />
    <glyph glyph-name="q" unicode="q" horiz-adv-x="543" 
d="M110 474.5q60 53.5 163 53.5q47 0 98.5 -9.5t94.5 -26.5q9 -3 9 -13v-658q0 -11 -11 -11h-59q-12 0 -12 11v199q-57 -31 -124 -31q-99 0 -159 56.5t-60 155.5v110q0 110 60 163.5zM274 62q67 0 119 36v339q-49 19 -118 19t-105.5 -34.5t-36.5 -110.5v-110
q0 -139 141 -139z" />
    <glyph glyph-name="r" unicode="r" horiz-adv-x="377" 
d="M68 11v467q0 10 8 13q37 18 81.5 27.5t89.5 9.5t103 -8q10 -1 10 -13v-49q0 -13 -12 -10q-49 7 -90 7q-59 0 -108 -20v-424q0 -11 -12 -11h-59q-11 0 -11 11z" />
    <glyph glyph-name="s" unicode="s" horiz-adv-x="475" 
d="M385 30.5q-56 -41.5 -147 -41.5q-111 0 -198 64q-8 5 -3 16l27 46q3 6 8 6q3 0 8 -3q75 -56 160 -56q52 0 85 21t33 59q0 37 -30.5 53t-87.5 27q-52 11 -92.5 26t-71.5 47.5t-31 85.5q0 72 57.5 109.5t139.5 37.5q91 0 174 -47q5 -2 6 -6t-2 -9l-27 -45q-2 -5 -6.5 -6
t-8.5 2q-69 37 -140 37q-52 0 -82 -19.5t-30 -53.5q0 -37 32.5 -54t97.5 -30q55 -11 92.5 -24.5t65 -44t27.5 -82.5q0 -74 -56 -115.5z" />
    <glyph glyph-name="t" unicode="t" horiz-adv-x="321" 
d="M173 92.5q25 -27.5 71 -27.5l48 2q12 0 12 -11v-53q0 -11 -10 -12l-54 -2q-79 0 -126.5 44t-47.5 133v466q0 12 12 12h52q9 0 11 -11l7 -121h130q11 0 11 -11v-50q0 -12 -11 -12h-130v-269q0 -50 25 -77.5z" />
    <glyph glyph-name="u" unicode="u" horiz-adv-x="551" 
d="M483 505v-463q0 -11 -8 -14q-87 -39 -189 -39q-103 0 -162 53t-59 163v300q0 12 12 12h59q11 0 11 -12v-298q0 -76 35.5 -110.5t103.5 -34.5q61 0 115 19v424q0 12 12 12h59q11 0 11 -12z" />
    <glyph glyph-name="v" unicode="v" horiz-adv-x="500" 
d="M199 9l-183 494q-1 2 -1 5q0 4 3 6.5t7 2.5h64q9 0 13 -9l99 -285q11 -28 17 -50q26 -73 31 -86h1q20 61 47 136l100 285q1 4 4.5 6.5t8.5 2.5h64q6 0 8.5 -4t0.5 -10l-184 -494q-4 -9 -14 -9h-73q-8 0 -13 9z" />
    <glyph glyph-name="w" unicode="w" horiz-adv-x="756" 
d="M167 10l-149 493l-1 5q0 4 3 6.5t7 2.5h62q10 0 13 -10l66 -237l45 -177h2q28 116 42 162l76 243q3 10 12 10h66q9 0 12 -10l76 -243q19 -61 43 -162h1l45 177l67 237q1 10 12 10h62q6 0 8.5 -4t0.5 -10l-148 -493q-3 -10 -13 -10h-70q-11 0 -12 10l-84 272
q-16 54 -31 125h-3q-17 -69 -32 -125l-84 -272q-1 -10 -12 -10h-70q-11 0 -12 10z" />
    <glyph glyph-name="x" unicode="x" horiz-adv-x="487" 
d="M470 7q0 -7 -9 -7h-74q-9 0 -13 7l-130 197l-130 -197q-4 -7 -14 -7h-74q-7 0 -9 4t2 10l174 247l-163 242q-2 2 -2 7q0 7 9 7h70q8 0 14 -8l123 -190l123 190q6 8 13 8h70q7 0 9.5 -4.5t-1.5 -9.5l-164 -242l174 -247q2 -3 2 -7z" />
    <glyph glyph-name="y" unicode="y" horiz-adv-x="551" 
d="M411 517h59q12 0 12 -12v-491q0 -103 -52 -158t-159 -56q-59 0 -105.5 17.5t-87.5 51.5q-4 4 -4 8t3 9l30 41q7 10 16 3q72 -55 148 -56q66 1 98.5 35.5t30.5 109.5v23q-62 -26 -124 -26q-56 0 -104.5 22.5t-78 67t-29.5 109.5v290q0 12 11 12h59q12 0 12 -12v-286
q0 -65 38.5 -96t101.5 -31q31 0 61 7t53 20v386q0 12 11 12z" />
    <glyph glyph-name="z" unicode="z" horiz-adv-x="467" 
d="M31 11v30q0 9 5 14l278 388h-257q-11 0 -11 12v50q0 12 11 12h359q12 0 12 -12v-27q0 -7 -5 -14l-280 -391h279q11 0 11 -11v-51q0 -11 -11 -11h-380q-11 0 -11 11z" />
    <glyph glyph-name="braceleft" unicode="{" horiz-adv-x="297" 
d="M136 -87q-28 30 -28 98v199q0 47 -13.5 74t-46.5 33q-11 2 -11 12v54q0 10 11 12q33 6 46.5 33t13.5 74v199q0 68 28 98t88 30h28q12 0 12 -11v-53q0 -11 -12 -11h-22q-24 -1 -35 -14.5t-11 -43.5v-208q0 -50 -20.5 -86t-52.5 -46q32 -10 52.5 -46t20.5 -86v-208
q0 -31 11.5 -44t35.5 -14h21q12 0 12 -11v-53q0 -11 -12 -11h-27q-61 0 -89 30z" />
    <glyph glyph-name="bar" unicode="|" horiz-adv-x="241" 
d="M82 -128v978q0 11 12 11h54q11 0 11 -11v-978q0 -11 -11 -11h-54q-12 0 -12 11z" />
    <glyph glyph-name="braceright" unicode="}" horiz-adv-x="297" 
d="M45 -117q-12 0 -12 11v53q0 11 12 11h21q24 1 35.5 14t11.5 44v208q0 50 20.5 86t52.5 46q-32 10 -52.5 46t-20.5 86v208q0 30 -11 43.5t-35 14.5h-22q-12 0 -12 11v53q0 11 12 11h28q60 0 88 -30t28 -98v-199q0 -47 13.5 -74t46.5 -33q11 -2 11 -12v-54q0 -10 -11 -12
q-33 -6 -46.5 -33t-13.5 -74v-199q0 -68 -28 -98t-89 -30h-27z" />
    <glyph glyph-name="asciitilde" unicode="~" horiz-adv-x="579" 
d="M454 291.5q-28 -14.5 -69 -14.5q-20 0 -39.5 5t-37 11.5t-24.5 8.5q-54 21 -81 21q-46 0 -74 -26q-8 -8 -16 -2l-36 31q-4 3 -5 7t3 8q21 28 49 41.5t69 13.5q23 0 45.5 -6.5t55.5 -18.5q53 -21 81 -21q22 0 41.5 7t33.5 20q4 4 8 4t8 -4l36 -29q8 -8 3 -15
q-23 -27 -51 -41.5z" />
    <glyph glyph-name="exclamdown" unicode="&#xa1;" horiz-adv-x="238" 
d="M77.5 512.5q16.5 16.5 41.5 16.5t41 -16.5t16 -41.5t-16 -41.5t-41 -16.5t-41.5 16.5t-16.5 41.5t16.5 41.5zM157 334l6 -342v-175q0 -11 -12 -11h-65q-11 0 -11 11v175l6 342q0 11 11 11h53q12 0 12 -11z" />
    <glyph glyph-name="cent" unicode="&#xa2;" horiz-adv-x="499" 
d="M455 56q0 -6 -5 -9q-70 -52 -158 -58v-71q0 -11 -11 -11h-36q-11 0 -11 11v73q-81 10 -127.5 62t-46.5 129v152q0 77 46.5 129t127.5 62v74q0 11 11 11h36q11 0 11 -11v-72q76 -4 144 -49q6 -4 6 -9q0 -3 -3 -8l-26 -41q-6 -9 -16 -3q-57 37 -122 37q-63 0 -98 -33
t-35 -87v-152q0 -55 35 -87.5t97 -32.5q70 0 134 45q5 3 8 3q5 0 8 -6l29 -41q2 -2 2 -7z" />
    <glyph glyph-name="sterling" unicode="&#xa3;" horiz-adv-x="549" 
d="M49 11v48q0 5 3 8t8 3q63 8 63 105v166h-63q-11 0 -11 11v47q0 12 11 12h63v125q0 55 24 98.5t68 67.5t103 24q106 0 174 -58q5 -5 5 -8t-3 -8l-27 -38q-6 -11 -16 -3q-28 21 -62.5 32.5t-70.5 11.5q-58 0 -90 -32.5t-32 -86.5v-125h196q12 0 12 -12v-47q0 -11 -12 -11
h-196v-166q0 -78 -40 -105h336q5 0 8.5 -3.5t3.5 -8.5v-47q0 -11 -12 -11h-432q-11 0 -11 11z" />
    <glyph glyph-name="currency" unicode="&#xa4;" horiz-adv-x="638" 
d="M319 105q-85 0 -146 44l-51 -50q-4 -4 -8 -4q-2 0 -8 4l-33 33q-4 3 -4 8q0 4 4 8l50 51q-44 61 -44 147q0 84 44 145l-50 50q-4 4 -4 8q0 5 4 9l33 33q4 4 8 4q5 0 8 -4l51 -51q62 46 146 46t146 -46l50 51q4 4 9 4q4 0 8 -4l33 -33q4 -3 4 -8t-4 -9l-50 -50
q44 -61 44 -145t-44 -147l50 -51q4 -4 4 -8t-4 -8l-33 -33q-4 -4 -9 -4q-4 0 -8 4l-50 50q-61 -44 -146 -44zM196.5 221.5q47.5 -47.5 122.5 -47.5q49 0 87.5 21.5t60.5 60.5t22 88t-22 88t-61 61.5t-87 22.5q-49 0 -88 -22t-60.5 -60.5t-21.5 -87.5q0 -77 47.5 -124.5z" />
    <glyph glyph-name="yen" unicode="&#xa5;" horiz-adv-x="587" 
d="M559.5 711q2.5 -4 -1.5 -10l-198 -379h101q12 0 12 -12v-40q0 -11 -12 -11h-127v-67h127q12 0 12 -11v-40q0 -11 -12 -11h-127v-119q0 -11 -11 -11h-60q-12 0 -12 11v119h-127q-12 0 -12 11v40q0 11 12 11h127v67h-127q-12 0 -12 11v40q0 12 12 12h102l-200 379
q-2 4 -2 6q0 8 11 8h69q8 0 13 -8l176 -357l175 357q3 8 14 8h68q7 0 9.5 -4z" />
    <glyph glyph-name="brokenbar" unicode="&#xa6;" horiz-adv-x="243" 
d="M83 436v414q0 11 12 11h54q11 0 11 -11v-414q0 -11 -11 -11h-54q-12 0 -12 11zM83 -128v414q0 11 12 11h54q11 0 11 -11v-414q0 -11 -11 -11h-54q-12 0 -12 11z" />
    <glyph glyph-name="section" unicode="&#xa7;" horiz-adv-x="509" 
d="M419.5 -102.5q-25.5 -40.5 -68.5 -61.5t-96 -21q-56 0 -107.5 23.5t-87.5 63.5q-6 10 0 16l32 41q4 5 8 5t7 -4q67 -69 147 -69q53 0 82.5 27.5t29.5 69.5q0 32 -18 53.5t-45.5 35t-74.5 30.5q-57 21 -92.5 39.5t-60.5 52t-25 86.5q0 104 110 142q-83 55 -83 141
q0 53 27 88.5t69.5 52.5t91.5 17q79 0 152 -48q11 -6 3 -15l-27 -40q-3 -6 -8 -6q-4 0 -8 3q-56 33 -112 33q-51 0 -79.5 -22.5t-28.5 -62.5q0 -31 17.5 -52.5t44 -35t71.5 -31.5q57 -23 91.5 -42t59 -54t24.5 -88q0 -50 -23.5 -86.5t-68.5 -53.5q72 -46 72 -132
q0 -55 -25.5 -95.5zM171 216q41 -26 136 -54q36 8 58 34t22 64q0 31 -16.5 51.5t-47 36t-92.5 40.5q-48 -9 -74.5 -34.5t-26.5 -63.5q0 -48 41 -74z" />
    <glyph glyph-name="dieresis" unicode="&#xa8;" horiz-adv-x="274" 
d="M84 627.5q-13 -12.5 -34 -12.5t-34 13t-13 34q0 22 13 35t34 13t34 -13t13 -35t-13 -34.5zM276 628q-13 -13 -34 -13t-34.5 13t-13.5 34q0 22 13.5 35t34.5 13t34 -13t13 -35q0 -21 -13 -34z" />
    <glyph glyph-name="copyright" unicode="&#xa9;" horiz-adv-x="831" 
d="M730 160q-48 -83 -130 -127t-183 -44t-184 44t-131.5 127t-48.5 196q0 114 48.5 197.5t131.5 128t184 44.5t183 -44.5t130 -128t48 -197.5q0 -113 -48 -196zM137 178q43 -74 116 -112t164 -38q90 0 162.5 38t115 112t42.5 178q0 106 -42.5 180.5t-115 112.5t-162.5 38
t-163.5 -38t-116.5 -113t-43 -180q0 -104 43 -178zM491.5 169.5q-34.5 -13.5 -75.5 -13.5q-62 1 -105 37.5t-43 99.5v129q0 63 42 99.5t104 36.5q38 0 72.5 -15t58.5 -39q3 -3 3 -8q0 -3 -3 -8l-22 -28q-5 -5 -8 -5q-2 0 -8 4q-39 41 -91 41q-37 -1 -62 -22t-25 -55v-131
q0 -35 25 -56t62 -21q58 0 101 36q4 4 8 4t7 -5l18 -27q6 -9 0 -15q-24 -25 -58.5 -38.5z" />
    <glyph glyph-name="guillemotleft" unicode="&#xab;" horiz-adv-x="515" 
d="M178 78l-138 205l-2 8q0 2 2 8l138 205q4 7 14 7h64q7 0 9 -4t-2 -10l-140 -206l140 -206q2 -3 2 -7q0 -7 -9 -7h-64q-10 0 -14 7zM384 78l-138 205l-2 8q0 2 2 8l138 205q4 7 14 7h64q7 0 9 -4t-2 -10l-140 -206l140 -206q2 -3 2 -7q0 -7 -9 -7h-64q-10 0 -14 7z" />
    <glyph glyph-name="logicalnot" unicode="&#xac;" horiz-adv-x="579" 
d="M429 195v139h-354q-11 0 -11 11v54q0 12 11 12h419q11 0 11 -12v-204q0 -11 -11 -11h-54q-11 0 -11 11z" />
    <glyph glyph-name="registered" unicode="&#xae;" horiz-adv-x="518" 
d="M439 407q-28 -47 -75 -72t-105 -25t-105 25t-75 72t-28 111t28 111t75 72t105 25t105 -25t75 -72t28 -111t-28 -111zM134.5 390q49.5 -46 125.5 -46q74 0 123.5 46t49.5 128q0 83 -49 129t-124 46q-76 0 -125.5 -46t-49.5 -129q0 -82 49.5 -128zM191 432v178q0 12 11 12
h67q33 0 53 -16t20 -47q0 -53 -53 -61l50 -64q3 -4 3 -8q0 -6 -9 -6h-13q-9 0 -14 8l-51 68h-33v-64q0 -12 -11 -12h-9q-11 0 -11 12zM269 526q41 0 41 33q0 16 -11 24.5t-30 8.5h-47v-66h47z" />
    <glyph glyph-name="macron" unicode="&#xaf;" horiz-adv-x="286" 
d="M11 686h252q11 0 11 -12v-43q0 -11 -11 -11h-252q-11 0 -11 11v43q0 12 11 12z" />
    <glyph glyph-name="degree" unicode="&#xb0;" horiz-adv-x="362" 
d="M279.5 491.5q-38.5 -37.5 -97.5 -37.5q-60 0 -98.5 36.5t-38.5 99.5t38 99.5t99 36.5q59 0 97.5 -36.5t38.5 -99.5q0 -61 -38.5 -98.5zM124.5 528.5q22.5 -21.5 57.5 -21.5t57 21.5t22 61.5q0 39 -22 61t-57 22t-57.5 -22t-22.5 -61q0 -40 22.5 -61.5z" />
    <glyph glyph-name="plusminus" unicode="&#xb1;" horiz-adv-x="579" 
d="M250 202v159h-170q-11 0 -11 11v54q0 12 11 12h170v158q0 12 12 12h55q5 0 8.5 -3.5t3.5 -8.5v-158h170q11 0 11 -12v-54q0 -11 -11 -11h-170v-159q0 -11 -12 -11h-55q-12 0 -12 11zM69 60v55q0 11 11 11h419q11 0 11 -11v-55q0 -11 -11 -11h-419q-11 0 -11 11z" />
    <glyph glyph-name="two.sups" unicode="&#xb2;" horiz-adv-x="319" 
d="M27 421v30q0 9 5 14l106 103q44 46 63.5 73.5t19.5 55.5q0 24 -16 37t-46 13q-48 0 -85 -39q-4 -4 -8 -4t-9 5l-18 25q-3 5 -3 8q0 5 3 8q53 53 123 53q55 0 86.5 -29t31.5 -76q0 -42 -24.5 -80t-82.5 -94l-25 -24l-35 -33h163q12 0 12 -11v-35q0 -11 -12 -11h-238
q-11 0 -11 11z" />
    <glyph glyph-name="three.sups" unicode="&#xb3;" horiz-adv-x="321" 
d="M252 440.5q-37 -35.5 -92 -35.5q-44 0 -76 15t-59 41q-7 8 0 15l19 24q5 5 8 5q2 0 8 -4q38 -40 97 -40q34 0 54.5 21t20.5 56q0 30 -20.5 49t-56.5 19q-19 0 -34 -3h-3q-8 0 -11 8l-6 13q-1 2 -1 6q0 6 4 10l71 80l24 25h-146q-11 0 -11 11v31q0 11 11 11h216
q11 0 11 -11v-19q0 -7 -6 -13l-100 -111h12q46 0 74.5 -32t28.5 -80q0 -56 -37 -91.5z" />
    <glyph glyph-name="acute" unicode="&#xb4;" horiz-adv-x="239" 
d="M6 601q-3 4 1 10l81 133q5 7 14 7h63q9 0 9 -6q0 -3 -3 -8l-96 -133q-5 -7 -14 -7h-45q-7 0 -10 4z" />
    <glyph glyph-name="paragraph" unicode="&#xb6;" horiz-adv-x="642" 
d="M242 -128v406q-67 0 -115.5 30.5t-73.5 80t-25 107.5q0 59 25.5 109t75.5 80t120 30h294q11 0 11 -11v-832q0 -11 -11 -11h-54q-12 0 -12 11v767h-158v-767q0 -11 -11 -11h-54q-12 0 -12 11z" />
    <glyph glyph-name="periodcentered" unicode="&#xb7;" horiz-adv-x="236" 
d="M157.5 269.5q-15.5 -15.5 -39.5 -15.5q-25 0 -40 15.5t-15 39.5q0 25 15 40.5t40 15.5q24 0 39.5 -15.5t15.5 -40.5q0 -24 -15.5 -39.5z" />
    <glyph glyph-name="cedilla" unicode="&#xb8;" horiz-adv-x="179" 
d="M161.5 -183.5q-31.5 -21.5 -84.5 -21.5q-31 0 -58 9q-9 3 -9 13v24q0 12 13 10q22 -7 45 -7q27 0 43.5 9.5t16.5 29.5q0 36 -63 37q-10 0 -14 8q-2 4 1 11l23 56q3 9 13 9h27q6 0 8.5 -4t0.5 -9l-17 -41q39 -2 62.5 -21.5t23.5 -50.5q0 -40 -31.5 -61.5z" />
    <glyph glyph-name="one.sups" unicode="&#xb9;" horiz-adv-x="211" 
d="M100 421v307l-50 -35q-3 -3 -7 -3q-5 0 -8 6l-17 24q-2 2 -2 6q0 5 5 9l82 58q7 5 14 5h30q11 0 11 -11v-366q0 -11 -11 -11h-36q-11 0 -11 11z" />
    <glyph glyph-name="guillemotright" unicode="&#xbb;" horiz-adv-x="515" 
d="M52 71q-7 0 -9 4t2 10l140 206l-140 206q-2 3 -2 7q0 7 9 7h64q10 0 14 -7l138 -205q2 -3 2 -8t-2 -8l-138 -205q-4 -7 -14 -7h-64zM258 71q-7 0 -9 4t2 10l140 206l-140 206q-2 3 -2 7q0 7 9 7h64q10 0 14 -7l138 -205q2 -3 2 -8t-2 -8l-138 -205q-4 -7 -14 -7h-64z" />
    <glyph glyph-name="onequarter" unicode="&#xbc;" horiz-adv-x="812" 
d="M113 338v307l-50 -35q-3 -3 -7 -3q-5 0 -8 6l-17 23q-2 2 -2 7t5 9l82 58q7 5 14 5h30q11 0 11 -12v-365q0 -11 -11 -11h-36q-11 0 -11 11zM122 0h-41q-7 0 -9 4.5t1 9.5l529 694q4 7 14 7h41q7 0 9 -4.5t-2 -9.5l-528 -694q-4 -7 -14 -7zM685 11v73h-174q-11 0 -11 11
v22q0 7 3 14l138 249q5 8 13 8h37q7 0 9 -4t-1 -10l-129 -233h115v72q0 12 11 12h36q11 0 11 -12v-72h29q12 0 12 -12v-34q0 -11 -12 -11h-29v-73q0 -11 -11 -11h-36q-11 0 -11 11z" />
    <glyph glyph-name="onehalf" unicode="&#xbd;" horiz-adv-x="841" 
d="M113 338v307l-50 -35q-3 -3 -7 -3q-5 0 -8 6l-17 23q-2 2 -2 7t5 9l82 58q7 5 14 5h30q11 0 11 -12v-365q0 -11 -11 -11h-36q-11 0 -11 11zM122 0h-41q-7 0 -9 4.5t1 9.5l529 694q4 7 14 7h41q7 0 9 -4.5t-2 -9.5l-528 -694q-4 -7 -14 -7zM540 11v30q0 9 5 14l106 103
q44 46 63.5 73.5t19.5 55.5q0 24 -16 37t-46 13q-48 0 -85 -39q-4 -4 -8 -4t-9 5l-18 25q-3 5 -3 8q0 5 3 8q53 53 123 53q55 0 86.5 -29t31.5 -76q0 -42 -24.5 -80t-82.5 -94l-25 -24l-35 -33h163q12 0 12 -11v-35q0 -11 -12 -11h-238q-11 0 -11 11z" />
    <glyph glyph-name="threequarters" unicode="&#xbe;" horiz-adv-x="852" 
d="M264 357.5q-37 -35.5 -92 -35.5q-44 0 -76 15t-59 41q-7 8 0 15l19 24q5 5 8 5q2 0 8 -4q38 -40 97 -40q34 0 54.5 21t20.5 56q0 30 -20.5 49t-56.5 19q-19 0 -34 -3h-3q-8 0 -11 8l-6 13q-1 2 -1 6q0 6 4 10l71 80l24 25h-146q-11 0 -11 11v31q0 11 11 11h216
q11 0 11 -11v-19q0 -7 -6 -13l-100 -111h12q46 0 74.5 -32t28.5 -80q0 -56 -37 -91.5zM189 0h-41q-7 0 -9 4.5t1 9.5l529 694q4 7 14 7h41q7 0 9 -4.5t-2 -9.5l-528 -694q-4 -7 -14 -7zM723 11v73h-174q-11 0 -11 11v22q0 7 3 14l138 249q5 8 13 8h37q7 0 9 -4t-1 -10
l-129 -233h115v72q0 12 11 12h36q11 0 11 -12v-72h29q12 0 12 -12v-34q0 -11 -12 -11h-29v-73q0 -11 -11 -11h-36q-11 0 -11 11z" />
    <glyph glyph-name="questiondown" unicode="&#xbf;" horiz-adv-x="470" 
d="M216.5 514.5q15.5 15.5 40.5 15.5t40 -15.5t15 -39.5q0 -25 -15 -40.5t-40 -15.5t-40.5 15.5t-15.5 40.5q0 24 15.5 39.5zM298 338v-59q0 -35 -12.5 -60.5t-31 -43t-50.5 -41.5q-30 -23 -47.5 -39.5t-29.5 -40t-12 -54.5q0 -54 33 -91t101 -37q45 0 80.5 17t66.5 48
q6 4 9 4q4 0 7 -5l31 -44q3 -3 3 -7t-4 -8q-32 -33 -83 -55.5t-112 -22.5q-60 0 -108 24t-76 69.5t-28 107.5q0 43 14 74t34 51t52 45q41 31 61 57t20 67v44q0 11 12 11h59q11 0 11 -11z" />
    <glyph glyph-name="Agrave" unicode="&#xc0;" horiz-adv-x="619" 
d="M158 925q-4 4 -4 7q0 7 10 7h70q9 0 13 -7l105 -133q2 -3 2 -7q0 -7 -9 -7h-52q-8 0 -14 7zM9 13l249 693q3 9 12 9h79q10 0 13 -9l248 -693q1 -2 1 -5q0 -8 -10 -8h-67q-10 0 -13 9l-61 178h-300l-62 -178q-3 -9 -13 -9h-67q-12 0 -9 13zM434 266l-122 354h-4l-122 -354
h248z" />
    <glyph glyph-name="Aacute" unicode="&#xc1;" horiz-adv-x="619" 
d="M9 13l249 693q3 9 12 9h79q10 0 13 -9l248 -693q1 -2 1 -5q0 -8 -10 -8h-67q-10 0 -13 9l-61 178h-300l-62 -178q-3 -9 -13 -9h-67q-12 0 -9 13zM434 266l-122 354h-4l-122 -354h248zM317 785h-52q-7 0 -9 4t2 10l105 133q4 7 13 7h70q7 0 9 -4.5t-3 -9.5l-121 -133
q-6 -7 -14 -7z" />
    <glyph glyph-name="Acircumflex" unicode="&#xc2;" horiz-adv-x="619" 
d="M9 13l249 693q3 9 12 9h79q10 0 13 -9l248 -693q1 -2 1 -5q0 -8 -10 -8h-67q-10 0 -13 9l-61 178h-300l-62 -178q-3 -9 -13 -9h-67q-12 0 -9 13zM434 266l-122 354h-4l-122 -354h248zM144 791q0 4 3 8l123 133q6 7 14 7h52q7 0 14 -7l123 -133q3 -4 3 -8q0 -6 -9 -6h-59
q-8 0 -14 7l-84 86l-84 -86q-6 -7 -14 -7h-59q-9 0 -9 6z" />
    <glyph glyph-name="Atilde" unicode="&#xc3;" horiz-adv-x="619" 
d="M9 13l249 693q3 9 12 9h79q10 0 13 -9l248 -693q1 -2 1 -5q0 -8 -10 -8h-67q-10 0 -13 9l-61 178h-300l-62 -178q-3 -9 -13 -9h-67q-12 0 -9 13zM434 266l-122 354h-4l-122 -354h248zM433.5 830.5q-22.5 -22.5 -52.5 -22.5q-27 0 -71 24q-4 2 -17 9.5t-24 11t-20 3.5
q-14 0 -23.5 -9t-17.5 -25q-4 -9 -15 -5l-33 19q-9 5 -6 15q11 28 32.5 49t51.5 21q18 0 35 -6.5t38 -18.5l17 -8.5t24.5 -10.5t20.5 -4q13 0 20.5 7.5t17.5 26.5q6 10 15 5l34 -18q8 -4 6 -13q-10 -28 -32.5 -50.5z" />
    <glyph glyph-name="Adieresis" unicode="&#xc4;" horiz-adv-x="619" 
d="M9 13l249 693q3 9 12 9h79q10 0 13 -9l248 -693q1 -2 1 -5q0 -8 -10 -8h-67q-10 0 -13 9l-61 178h-300l-62 -178q-3 -9 -13 -9h-67q-12 0 -9 13zM434 266l-122 354h-4l-122 -354h248zM243 811.5q-14 -13.5 -35 -13.5q-22 0 -35.5 13.5t-13.5 35.5t13.5 36t35.5 14
q21 0 35 -14t14 -36t-14 -35.5zM447 811.5q-14 -13.5 -36 -13.5t-35.5 13.5t-13.5 35.5t13.5 36t35.5 14t36 -14t14 -36t-14 -35.5z" />
    <glyph glyph-name="Aring" unicode="&#xc5;" horiz-adv-x="619" 
d="M9 13l249 693q3 9 12 9h79q10 0 13 -9l248 -693q1 -2 1 -5q0 -8 -10 -8h-67q-10 0 -13 9l-61 178h-300l-62 -178q-3 -9 -13 -9h-67q-12 0 -9 13zM434 266l-122 354h-4l-122 -354h248zM388 798q-30 -28 -77 -28q-48 0 -79 28.5t-31 75.5t30.5 76t79.5 29q47 0 77 -29
t30 -76q0 -48 -30 -76zM268 834q16 -15 43 -15q26 0 41 14.5t15 40.5t-15 41t-41 15q-27 0 -43 -15t-16 -41q0 -25 16 -40z" />
    <glyph glyph-name="AE" unicode="&#xc6;" horiz-adv-x="865" 
d="M803 78q11 0 11 -11v-56q0 -11 -11 -11h-386q-12 0 -12 11v177h-220l-90 -180q-3 -8 -13 -8h-69q-6 0 -8.5 4t0.5 10l348 693q3 8 13 8h425q12 0 12 -11v-56q0 -11 -12 -11h-301v-237h280q11 0 11 -11v-56q0 -11 -11 -11h-280v-244h313zM405 267v370l-184 -370h184z" />
    <glyph glyph-name="Ccedilla" unicode="&#xc7;" horiz-adv-x="587" 
d="M389 -184.5q-32 -22.5 -86 -22.5q-32 0 -59 9q-9 3 -9 13v25q0 6 3.5 8.5t9.5 1.5q22 -7 46 -7q59 0 59 41q0 34 -64 35q-10 0 -14 8q-2 4 1 11l21 52q-103 8 -167.5 71.5t-64.5 174.5v242q0 80 34.5 136t93.5 84t133 28q57 0 112 -18t101 -52q8 -6 2 -15l-32 -47
q-3 -5 -8 -5q-4 0 -9 3q-36 26 -79.5 40t-87.5 14q-84 0 -129.5 -45t-45.5 -123v-241q0 -78 46 -123.5t130 -45.5q49 0 97 16t87 47q3 3 7 3q5 0 8 -6l33 -46q3 -4 3 -8t-6 -9q-43 -35 -96 -54t-110 -22l-16 -40q40 -2 64 -21t24 -49q0 -41 -32 -63.5z" />
    <glyph glyph-name="Egrave" unicode="&#xc8;" horiz-adv-x="579" 
d="M172 925q-4 4 -4 7q0 7 10 7h70q9 0 13 -7l105 -133q2 -3 2 -7q0 -7 -9 -7h-52q-8 0 -14 7zM519 78q11 0 11 -11v-56q0 -11 -11 -11h-418q-12 0 -12 11v693q0 11 12 11h404q11 0 11 -11v-56q0 -11 -11 -11h-330v-234h307q11 0 11 -12v-55q0 -12 -11 -12h-307v-246h344z
" />
    <glyph glyph-name="Eacute" unicode="&#xc9;" horiz-adv-x="579" 
d="M519 78q11 0 11 -11v-56q0 -11 -11 -11h-418q-12 0 -12 11v693q0 11 12 11h404q11 0 11 -11v-56q0 -11 -11 -11h-330v-234h307q11 0 11 -12v-55q0 -12 -11 -12h-307v-246h344zM301 785h-52q-7 0 -9 4t2 10l105 133q4 7 13 7h70q7 0 9 -4.5t-3 -9.5l-121 -133
q-6 -7 -14 -7z" />
    <glyph glyph-name="Ecircumflex" unicode="&#xca;" horiz-adv-x="579" 
d="M519 78q11 0 11 -11v-56q0 -11 -11 -11h-418q-12 0 -12 11v693q0 11 12 11h404q11 0 11 -11v-56q0 -11 -11 -11h-330v-234h307q11 0 11 -12v-55q0 -12 -11 -12h-307v-246h344zM147 791q0 4 3 8l123 133q6 7 14 7h52q7 0 14 -7l123 -133q3 -4 3 -8q0 -6 -9 -6h-59
q-8 0 -14 7l-84 86l-84 -86q-6 -7 -14 -7h-59q-9 0 -9 6z" />
    <glyph glyph-name="Edieresis" unicode="&#xcb;" horiz-adv-x="579" 
d="M519 78q11 0 11 -11v-56q0 -11 -11 -11h-418q-12 0 -12 11v693q0 11 12 11h404q11 0 11 -11v-56q0 -11 -11 -11h-330v-234h307q11 0 11 -12v-55q0 -12 -11 -12h-307v-246h344zM240 811.5q-14 -13.5 -35 -13.5q-22 0 -35.5 13.5t-13.5 35.5t13.5 36t35.5 14q21 0 35 -14
t14 -36t-14 -35.5zM444 811.5q-14 -13.5 -36 -13.5t-35.5 13.5t-13.5 35.5t13.5 36t35.5 14t36 -14t14 -36t-14 -35.5z" />
    <glyph glyph-name="Igrave" unicode="&#xcc;" horiz-adv-x="263" 
d="M-18 925q-4 4 -4 7q0 7 10 7h70q9 0 13 -7l105 -133q2 -3 2 -7q0 -7 -9 -7h-52q-8 0 -14 7zM163 0h-62q-12 0 -12 11v693q0 11 12 11h62q11 0 11 -11v-693q0 -11 -11 -11z" />
    <glyph glyph-name="Iacute" unicode="&#xcd;" horiz-adv-x="263" 
d="M162 0h-62q-12 0 -12 11v693q0 11 12 11h62q11 0 11 -11v-693q0 -11 -11 -11zM138 785h-52q-7 0 -9 4t2 10l105 133q4 7 13 7h70q7 0 9 -4.5t-3 -9.5l-121 -133q-6 -7 -14 -7z" />
    <glyph glyph-name="Icircumflex" unicode="&#xce;" horiz-adv-x="263" 
d="M-9 789q-2 4 2 10l99 132q5 8 14 8h47q9 0 14 -8l102 -132q3 -4 3 -7q0 -7 -10 -7h-54q-8 0 -14 7l-65 86l-62 -86q-4 -7 -13 -7h-54q-7 0 -9 4zM163 0h-62q-12 0 -12 11v693q0 11 12 11h62q11 0 11 -11v-693q0 -11 -11 -11z" />
    <glyph glyph-name="Idieresis" unicode="&#xcf;" horiz-adv-x="263" 
d="M78 821.5q-14 -13.5 -35 -13.5t-35 13.5t-14 35.5t14 36t35 14t35 -14t14 -36t-14 -35.5zM255 821.5q-14 -13.5 -36 -13.5t-35.5 13.5t-13.5 35.5t13.5 36t35.5 14t36 -14t14 -36t-14 -35.5zM89 11v693q0 11 11 11h62q12 0 12 -11v-693q0 -11 -12 -11h-62q-11 0 -11 11z
" />
    <glyph glyph-name="Eth" unicode="&#xd0;" horiz-adv-x="679" 
d="M545 647.5q69 -67.5 69 -189.5v-205q0 -121 -69 -187t-191 -66h-244q-12 0 -12 11v330h-76q-11 0 -11 11v37q0 11 11 11h76v304q0 11 12 11h244q122 0 191 -67.5zM481.5 123.5q44.5 43.5 44.5 129.5v205q0 88 -44.5 133.5t-128.5 45.5h-169v-237h167q11 0 11 -11v-37
q0 -11 -11 -11h-167v-261h169q84 0 128.5 43.5z" />
    <glyph glyph-name="Ntilde" unicode="&#xd1;" horiz-adv-x="704" 
d="M89 11v693q0 11 12 11h70q9 0 14 -8l265 -432l17 -28q46 -77 67 -118l3 1q-6 125 -6 271v303q0 11 11 11h62q11 0 11 -11v-693q0 -11 -11 -11h-70q-10 0 -14 7l-263 417q-50 81 -87 152l-2 -1q6 -158 6 -261v-303q0 -11 -12 -11h-61q-12 0 -12 11zM476.5 830.5
q-22.5 -22.5 -52.5 -22.5q-27 0 -71 24q-4 2 -17 9.5t-24 11t-20 3.5q-14 0 -23.5 -9t-17.5 -25q-4 -9 -15 -5l-33 19q-9 5 -6 15q11 28 32.5 49t51.5 21q18 0 35 -6.5t38 -18.5l17 -8.5t24.5 -10.5t20.5 -4q13 0 20.5 7.5t17.5 26.5q6 10 15 5l34 -18q8 -4 6 -13
q-10 -28 -32.5 -50.5z" />
    <glyph glyph-name="Ograve" unicode="&#xd2;" horiz-adv-x="674" 
d="M199 925q-4 4 -4 7q0 7 10 7h70q9 0 13 -7l105 -133q2 -3 2 -7q0 -7 -9 -7h-52q-8 0 -14 7zM577 112q-33 -59 -94.5 -91t-145.5 -32t-145.5 32t-94.5 91t-33 139v211q0 123 73 193.5t200 70.5t200 -70.5t73 -193.5v-211q0 -80 -33 -139zM199 118q49 -48 138 -48t137.5 48
t48.5 133v211q0 88 -48.5 136.5t-137.5 48.5t-138 -48.5t-49 -136.5v-211q0 -85 49 -133z" />
    <glyph glyph-name="Oacute" unicode="&#xd3;" horiz-adv-x="674" 
d="M577 112q-33 -59 -94.5 -91t-145.5 -32t-145.5 32t-94.5 91t-33 139v211q0 123 73 193.5t200 70.5t200 -70.5t73 -193.5v-211q0 -80 -33 -139zM199 118q49 -48 138 -48t137.5 48t48.5 133v211q0 88 -48.5 136.5t-137.5 48.5t-138 -48.5t-49 -136.5v-211q0 -85 49 -133z
M331 785h-52q-7 0 -9 4t2 10l105 133q4 7 13 7h70q7 0 9 -4.5t-3 -9.5l-121 -133q-6 -7 -14 -7z" />
    <glyph glyph-name="Ocircumflex" unicode="&#xd4;" horiz-adv-x="674" 
d="M577 112q-33 -59 -94.5 -91t-145.5 -32t-145.5 32t-94.5 91t-33 139v211q0 123 73 193.5t200 70.5t200 -70.5t73 -193.5v-211q0 -80 -33 -139zM199 118q49 -48 138 -48t137.5 48t48.5 133v211q0 88 -48.5 136.5t-137.5 48.5t-138 -48.5t-49 -136.5v-211q0 -85 49 -133z
M171 791q0 4 3 8l123 133q6 7 14 7h52q7 0 14 -7l123 -133q3 -4 3 -8q0 -6 -9 -6h-59q-8 0 -14 7l-84 86l-84 -86q-6 -7 -14 -7h-59q-9 0 -9 6z" />
    <glyph glyph-name="Otilde" unicode="&#xd5;" horiz-adv-x="674" 
d="M577 112q-33 -59 -94.5 -91t-145.5 -32t-145.5 32t-94.5 91t-33 139v211q0 123 73 193.5t200 70.5t200 -70.5t73 -193.5v-211q0 -80 -33 -139zM199 118q49 -48 138 -48t137.5 48t48.5 133v211q0 88 -48.5 136.5t-137.5 48.5t-138 -48.5t-49 -136.5v-211q0 -85 49 -133z
M460.5 830.5q-22.5 -22.5 -52.5 -22.5q-27 0 -71 24q-4 2 -17 9.5t-24 11t-20 3.5q-14 0 -23.5 -9t-17.5 -25q-4 -9 -15 -5l-33 19q-9 5 -6 15q11 28 32.5 49t51.5 21q18 0 35 -6.5t38 -18.5l17 -8.5t24.5 -10.5t20.5 -4q13 0 20.5 7.5t17.5 26.5q6 10 15 5l34 -18
q8 -4 6 -13q-10 -28 -32.5 -50.5z" />
    <glyph glyph-name="Odieresis" unicode="&#xd6;" horiz-adv-x="674" 
d="M577 112q-33 -59 -94.5 -91t-145.5 -32t-145.5 32t-94.5 91t-33 139v211q0 123 73 193.5t200 70.5t200 -70.5t73 -193.5v-211q0 -80 -33 -139zM199 118q49 -48 138 -48t137.5 48t48.5 133v211q0 88 -48.5 136.5t-137.5 48.5t-138 -48.5t-49 -136.5v-211q0 -85 49 -133z
M270 811.5q-14 -13.5 -35 -13.5q-22 0 -35.5 13.5t-13.5 35.5t13.5 36t35.5 14q21 0 35 -14t14 -36t-14 -35.5zM474 811.5q-14 -13.5 -36 -13.5t-35.5 13.5t-13.5 35.5t13.5 36t35.5 14t36 -14t14 -36t-14 -35.5z" />
    <glyph glyph-name="multiply" unicode="&#xd7;" horiz-adv-x="579" 
d="M120 109q-3 0 -9 4l-38 38q-4 6 -4 8q0 4 4 8l163 164l-163 162q-4 4 -4 9q0 4 4 8l38 38q4 4 8 4q5 0 9 -4l162 -163l163 163q4 4 8 4q5 0 8 -4l38 -38q4 -3 4 -8t-4 -9l-162 -162l162 -164q4 -3 4 -8q0 -4 -4 -8l-38 -38q-3 -4 -8 -4q-4 0 -8 4l-163 163l-162 -163
q-4 -4 -8 -4z" />
    <glyph glyph-name="Oslash" unicode="&#xd8;" horiz-adv-x="688" 
d="M102 -50q-2 4 1 10l47 90q-86 71 -86 200v212q0 81 33.5 140.5t97 91.5t149.5 32q83 0 144 -29l31 59q4 8 13 8h50q7 0 9.5 -4t-1.5 -10l-47 -89q40 -34 60.5 -85t20.5 -114v-212q0 -80 -33.5 -138.5t-97 -90.5t-149.5 -32q-75 0 -137 27l-33 -62q-1 -4 -5 -6t-8 -2h-50
q-7 0 -9 4zM193 132l256 490q-44 23 -105 23q-91 0 -141 -48t-50 -135v-212q0 -72 40 -118zM344 71q91 0 141 47.5t50 131.5v212q0 71 -36 114l-253 -485q42 -20 98 -20z" />
    <glyph glyph-name="Ugrave" unicode="&#xd9;" horiz-adv-x="691" 
d="M194 925q-4 4 -4 7q0 7 10 7h70q9 0 13 -7l105 -133q2 -3 2 -7q0 -7 -9 -7h-52q-8 0 -14 7zM576 110.5q-32 -57.5 -92 -89.5t-139 -32t-138.5 32t-91.5 89.5t-32 133.5v460q0 11 12 11h64q11 0 11 -11v-454q0 -85 46 -133.5t129 -48.5q84 0 130 48.5t46 133.5v454
q0 11 11 11h64q12 0 12 -11v-460q0 -76 -32 -133.5z" />
    <glyph glyph-name="Uacute" unicode="&#xda;" horiz-adv-x="691" 
d="M576 110.5q-32 -57.5 -92 -89.5t-139 -32t-138.5 32t-91.5 89.5t-32 133.5v460q0 11 12 11h64q11 0 11 -11v-454q0 -85 46 -133.5t129 -48.5q84 0 130 48.5t46 133.5v454q0 11 11 11h64q12 0 12 -11v-460q0 -76 -32 -133.5zM353 785h-52q-7 0 -9 4t2 10l105 133q4 7 13 7
h70q7 0 9 -4.5t-3 -9.5l-121 -133q-6 -7 -14 -7z" />
    <glyph glyph-name="Ucircumflex" unicode="&#xdb;" horiz-adv-x="691" 
d="M576 110.5q-32 -57.5 -92 -89.5t-139 -32t-138.5 32t-91.5 89.5t-32 133.5v460q0 11 12 11h64q11 0 11 -11v-454q0 -85 46 -133.5t129 -48.5q84 0 130 48.5t46 133.5v454q0 11 11 11h64q12 0 12 -11v-460q0 -76 -32 -133.5zM180 791q0 4 3 8l123 133q6 7 14 7h52
q7 0 14 -7l123 -133q3 -4 3 -8q0 -6 -9 -6h-59q-8 0 -14 7l-84 86l-84 -86q-6 -7 -14 -7h-59q-9 0 -9 6z" />
    <glyph glyph-name="Udieresis" unicode="&#xdc;" horiz-adv-x="691" 
d="M576 110.5q-32 -57.5 -92 -89.5t-139 -32t-138.5 32t-91.5 89.5t-32 133.5v460q0 11 12 11h64q11 0 11 -11v-454q0 -85 46 -133.5t129 -48.5q84 0 130 48.5t46 133.5v454q0 11 11 11h64q12 0 12 -11v-460q0 -76 -32 -133.5zM279 811.5q-14 -13.5 -35 -13.5
q-22 0 -35.5 13.5t-13.5 35.5t13.5 36t35.5 14q21 0 35 -14t14 -36t-14 -35.5zM483 811.5q-14 -13.5 -36 -13.5t-35.5 13.5t-13.5 35.5t13.5 36t35.5 14t36 -14t14 -36t-14 -35.5z" />
    <glyph glyph-name="Yacute" unicode="&#xdd;" horiz-adv-x="568" 
d="M241 11v261l-235 429q-2 4 -2 6q0 8 10 8h72q10 0 13 -8l185 -357l184 357q3 8 13 8h72q7 0 9 -4t-1 -10l-234 -431v-259q0 -11 -12 -11h-63q-11 0 -11 11zM284 785h-52q-7 0 -9 4t2 10l105 133q4 7 13 7h70q7 0 9 -4.5t-3 -9.5l-121 -133q-6 -7 -14 -7z" />
    <glyph glyph-name="Thorn" unicode="&#xde;" horiz-adv-x="642" 
d="M89 11v693q0 11 12 11h64q11 0 11 -11v-99h166q118 0 184.5 -61.5t66.5 -170.5q0 -110 -66.5 -171.5t-184.5 -61.5h-166v-129q0 -11 -11 -11h-64q-12 0 -12 11zM340 221q164 0 164 152q0 75 -42 113t-122 38h-164v-303h164z" />
    <glyph glyph-name="germandbls" unicode="&#xdf;" horiz-adv-x="558" 
d="M465 439q-21 -40 -64 -59q57 -23 85.5 -68t28.5 -107q0 -64 -28.5 -111t-77.5 -72t-110 -25q-50 0 -97 16q-9 5 -9 13v55q0 6 3.5 8.5t9.5 0.5q39 -13 84 -13q63 0 102.5 34.5t39.5 96.5q0 61 -35 95t-101 34h-88q-11 0 -11 12v51q0 12 11 12h85q52 0 81.5 33t29.5 84
q0 62 -32.5 94t-95.5 32q-125 0 -125 -136v-508q0 -11 -12 -11h-59q-11 0 -11 11v508q0 100 57.5 153.5t149.5 53.5q94 0 152 -51t58 -146q0 -50 -21 -90z" />
    <glyph glyph-name="agrave" unicode="&#xe0;" horiz-adv-x="511" 
d="M249 597q-9 0 -14 7l-96 133q-3 5 -3 8q0 6 9 6h63q9 0 14 -7l81 -133q2 -4 2 -6q0 -8 -11 -8h-45zM145.5 514.5q48.5 13.5 104.5 13.5q94 0 146.5 -49.5t52.5 -144.5v-300q0 -10 -9 -13q-38 -14 -89 -23t-104 -9q-93 0 -154 40t-61 124q0 77 58 118t157 41q52 0 120 -12
v32q0 62 -28 92t-92 30q-40 0 -77 -10t-65 -27q-2 -2 -7 -2t-8 5l-29 42q-5 9 0 14q36 25 84.5 38.5zM150.5 85.5q36.5 -23.5 96.5 -23.5t120 18v150q-64 12 -120 12q-67 0 -100 -23.5t-33 -65.5q0 -44 36.5 -67.5z" />
    <glyph glyph-name="aacute" unicode="&#xe1;" horiz-adv-x="511" 
d="M145.5 514.5q48.5 13.5 104.5 13.5q94 0 146.5 -49.5t52.5 -144.5v-300q0 -10 -9 -13q-38 -14 -89 -23t-104 -9q-93 0 -154 40t-61 124q0 77 58 118t157 41q52 0 120 -12v32q0 62 -28 92t-92 30q-40 0 -77 -10t-65 -27q-2 -2 -7 -2t-8 5l-29 42q-5 9 0 14
q36 25 84.5 38.5zM150.5 85.5q36.5 -23.5 96.5 -23.5t120 18v150q-64 12 -120 12q-67 0 -100 -23.5t-33 -65.5q0 -44 36.5 -67.5zM195 601q-3 4 1 10l81 133q5 7 14 7h63q9 0 9 -6q0 -3 -3 -8l-96 -133q-5 -7 -14 -7h-45q-7 0 -10 4z" />
    <glyph glyph-name="acircumflex" unicode="&#xe2;" horiz-adv-x="511" 
d="M145.5 514.5q48.5 13.5 104.5 13.5q94 0 146.5 -49.5t52.5 -144.5v-300q0 -10 -9 -13q-38 -14 -89 -23t-104 -9q-93 0 -154 40t-61 124q0 77 58 118t157 41q52 0 120 -12v32q0 62 -28 92t-92 30q-40 0 -77 -10t-65 -27q-2 -2 -7 -2t-8 5l-29 42q-5 9 0 14
q36 25 84.5 38.5zM150.5 85.5q36.5 -23.5 96.5 -23.5t120 18v150q-64 12 -120 12q-67 0 -100 -23.5t-33 -65.5q0 -44 36.5 -67.5zM103 604q0 3 3 7l113 133q7 7 14 7h43q9 0 14 -7l112 -133q4 -4 4 -8q0 -6 -9 -6h-52q-9 0 -14 7l-76 91l-78 -91q-7 -7 -14 -7h-50
q-10 0 -10 7z" />
    <glyph glyph-name="atilde" unicode="&#xe3;" horiz-adv-x="511" 
d="M145.5 514.5q48.5 13.5 104.5 13.5q94 0 146.5 -49.5t52.5 -144.5v-300q0 -10 -9 -13q-38 -14 -89 -23t-104 -9q-93 0 -154 40t-61 124q0 77 58 118t157 41q52 0 120 -12v32q0 62 -28 92t-92 30q-40 0 -77 -10t-65 -27q-2 -2 -7 -2t-8 5l-29 42q-5 9 0 14
q36 25 84.5 38.5zM150.5 85.5q36.5 -23.5 96.5 -23.5t120 18v150q-64 12 -120 12q-67 0 -100 -23.5t-33 -65.5q0 -44 36.5 -67.5zM376 629.5q-23 -22.5 -53 -22.5q-25 0 -71 24q-4 2 -17 9.5t-23.5 11t-19.5 3.5q-26 0 -41 -34q-5 -9 -16 -5l-33 19q-10 6 -5 15q11 28 33 49
t51 21t73 -25q22 -12 35.5 -17.5t25.5 -5.5q13 0 21 7.5t18 26.5q5 11 15 5l33 -18q9 -5 6 -13q-9 -28 -32 -50.5z" />
    <glyph glyph-name="adieresis" unicode="&#xe4;" horiz-adv-x="511" 
d="M145.5 514.5q48.5 13.5 104.5 13.5q94 0 146.5 -49.5t52.5 -144.5v-300q0 -10 -9 -13q-38 -14 -89 -23t-104 -9q-93 0 -154 40t-61 124q0 77 58 118t157 41q52 0 120 -12v32q0 62 -28 92t-92 30q-40 0 -77 -10t-65 -27q-2 -2 -7 -2t-8 5l-29 42q-5 9 0 14
q36 25 84.5 38.5zM150.5 85.5q36.5 -23.5 96.5 -23.5t120 18v150q-64 12 -120 12q-67 0 -100 -23.5t-33 -65.5q0 -44 36.5 -67.5zM188 627.5q-13 -12.5 -34 -12.5t-34 13t-13 34q0 22 13 35t34 13t34 -13t13 -35t-13 -34.5zM380 628q-13 -13 -34 -13t-34.5 13t-13.5 34
q0 22 13.5 35t34.5 13t34 -13t13 -35q0 -21 -13 -34z" />
    <glyph glyph-name="aring" unicode="&#xe5;" horiz-adv-x="511" 
d="M145.5 514.5q48.5 13.5 104.5 13.5q94 0 146.5 -49.5t52.5 -144.5v-300q0 -10 -9 -13q-38 -14 -89 -23t-104 -9q-93 0 -154 40t-61 124q0 77 58 118t157 41q52 0 120 -12v32q0 62 -28 92t-92 30q-40 0 -77 -10t-65 -27q-2 -2 -7 -2t-8 5l-29 42q-5 9 0 14
q36 25 84.5 38.5zM150.5 85.5q36.5 -23.5 96.5 -23.5t120 18v150q-64 12 -120 12q-67 0 -100 -23.5t-33 -65.5q0 -44 36.5 -67.5zM329.5 610.5q-29.5 -27.5 -75.5 -27.5q-48 0 -78.5 28t-30.5 75q0 46 30.5 74t78.5 28q46 0 75.5 -28t29.5 -75t-29.5 -74.5zM211 646
q16 -15 42 -15q25 0 40.5 15t15.5 39q0 25 -15.5 40t-40.5 15q-26 0 -42 -15t-16 -40q0 -24 16 -39z" />
    <glyph glyph-name="ae" unicode="&#xe6;" horiz-adv-x="820" 
d="M421 41q-31 -23 -79 -37.5t-99 -14.5q-56 0 -104 18t-77.5 55t-29.5 91q0 76 58 116t151 40q52 0 120 -10v46q0 54 -30.5 81t-88.5 27q-76 0 -143 -37q-6 -2 -7 -2q-5 0 -9 6l-24 40q-2 4 -2 7q0 6 5 9q36 23 83.5 37t98.5 14q55 0 93.5 -19.5t67.5 -58.5q28 38 71 58
t96 20q54 0 100 -21t74 -63.5t28 -103.5v-101q0 -12 -12 -12h-320v-50q0 -55 32.5 -83.5t90.5 -28.5q91 0 152 56q6 4 8 4q3 0 8 -5l31 -40q3 -3 3 -8q0 -4 -4 -7q-36 -35 -88 -55t-111 -20q-84 0 -143 52zM695 293v40q0 58 -35 89t-91 31q-57 0 -92 -31t-35 -91v-38h253z
M151 86q36 -24 90 -24q37 0 73 10.5t61 26.5q-14 31 -14 71v61q-64 10 -113 10q-66 0 -99.5 -23t-33.5 -64q0 -44 36 -68z" />
    <glyph glyph-name="ccedilla" unicode="&#xe7;" horiz-adv-x="470" 
d="M286 -10l-16 -40q39 -2 62.5 -21.5t23.5 -50.5q0 -40 -31.5 -61.5t-84.5 -21.5q-31 0 -58 9q-9 3 -9 13v24q0 12 13 10q22 -7 45 -7q27 0 43.5 9.5t16.5 29.5q0 36 -63 37q-10 0 -14 8q-2 4 1 11l21 52q-86 7 -135.5 59t-49.5 132v152q0 57 26 101t74.5 68.5t112.5 24.5
q87 0 163 -50q6 -4 6 -9q0 -3 -3 -8l-26 -41q-7 -9 -16 -3q-57 37 -122 37q-63 0 -98 -33t-35 -87v-152q0 -55 35 -87.5t97 -32.5q69 0 134 44q5 3 8 3q5 0 8 -5l29 -41q3 -4 3 -8q0 -5 -5 -8q-73 -53 -156 -57z" />
    <glyph glyph-name="egrave" unicode="&#xe8;" horiz-adv-x="518" 
d="M260 597q-9 0 -14 7l-96 133q-3 5 -3 8q0 6 9 6h63q9 0 14 -7l81 -133q2 -4 2 -6q0 -8 -11 -8h-45zM461 219h-327v-42q0 -55 36.5 -85t93.5 -30q47 0 83.5 15t69.5 41q2 2 7 2q7 0 9 -5l29 -38q3 -4 3 -7q0 -4 -5 -9q-86 -72 -198 -72q-56 0 -104 21.5t-77.5 64
t-29.5 102.5v152q0 66 29 110.5t77.5 66.5t105.5 22t104.5 -22t76 -66.5t28.5 -110.5v-98q0 -12 -11 -12zM356.5 422q-35.5 32 -93.5 32q-59 0 -94 -31.5t-35 -93.5v-42h258v42q0 61 -35.5 93z" />
    <glyph glyph-name="eacute" unicode="&#xe9;" horiz-adv-x="518" 
d="M461 219h-327v-42q0 -55 36.5 -85t93.5 -30q47 0 83.5 15t69.5 41q2 2 7 2q7 0 9 -5l29 -38q3 -4 3 -7q0 -4 -5 -9q-86 -72 -198 -72q-56 0 -104 21.5t-77.5 64t-29.5 102.5v152q0 66 29 110.5t77.5 66.5t105.5 22t104.5 -22t76 -66.5t28.5 -110.5v-98q0 -12 -11 -12z
M356.5 422q-35.5 32 -93.5 32q-59 0 -94 -31.5t-35 -93.5v-42h258v42q0 61 -35.5 93zM199 601q-3 4 1 10l81 133q5 7 14 7h63q9 0 9 -6q0 -3 -3 -8l-96 -133q-5 -7 -14 -7h-45q-7 0 -10 4z" />
    <glyph glyph-name="ecircumflex" unicode="&#xea;" horiz-adv-x="518" 
d="M461 219h-327v-42q0 -55 36.5 -85t93.5 -30q47 0 83.5 15t69.5 41q2 2 7 2q7 0 9 -5l29 -38q3 -4 3 -7q0 -4 -5 -9q-86 -72 -198 -72q-56 0 -104 21.5t-77.5 64t-29.5 102.5v152q0 66 29 110.5t77.5 66.5t105.5 22t104.5 -22t76 -66.5t28.5 -110.5v-98q0 -12 -11 -12z
M356.5 422q-35.5 32 -93.5 32q-59 0 -94 -31.5t-35 -93.5v-42h258v42q0 61 -35.5 93zM111 604q0 3 3 7l113 133q7 7 14 7h43q9 0 14 -7l112 -133q4 -4 4 -8q0 -6 -9 -6h-52q-9 0 -14 7l-76 91l-78 -91q-7 -7 -14 -7h-50q-10 0 -10 7z" />
    <glyph glyph-name="edieresis" unicode="&#xeb;" horiz-adv-x="518" 
d="M461 219h-327v-42q0 -55 36.5 -85t93.5 -30q47 0 83.5 15t69.5 41q2 2 7 2q7 0 9 -5l29 -38q3 -4 3 -7q0 -4 -5 -9q-86 -72 -198 -72q-56 0 -104 21.5t-77.5 64t-29.5 102.5v152q0 66 29 110.5t77.5 66.5t105.5 22t104.5 -22t76 -66.5t28.5 -110.5v-98q0 -12 -11 -12z
M356.5 422q-35.5 32 -93.5 32q-59 0 -94 -31.5t-35 -93.5v-42h258v42q0 61 -35.5 93zM199 627.5q-13 -12.5 -34 -12.5t-34 13t-13 34q0 22 13 35t34 13t34 -13t13 -35t-13 -34.5zM391 628q-13 -13 -34 -13t-34.5 13t-13.5 34q0 22 13.5 35t34.5 13t34 -13t13 -35
q0 -21 -13 -34z" />
    <glyph glyph-name="igrave" unicode="&#xec;" horiz-adv-x="220" 
d="M106 597q-9 0 -14 7l-96 133q-3 5 -3 8q0 6 9 6h63q9 0 14 -7l81 -133q2 -4 2 -6q0 -8 -11 -8h-45zM69 11v494q0 12 11 12h59q12 0 12 -12v-494q0 -11 -12 -11h-59q-11 0 -11 11z" />
    <glyph glyph-name="iacute" unicode="&#xed;" horiz-adv-x="220" 
d="M69 11v494q0 12 11 12h59q12 0 12 -12v-494q0 -11 -12 -11h-59q-11 0 -11 11zM56 601q-3 4 1 10l81 133q5 7 14 7h63q9 0 9 -6q0 -3 -3 -8l-96 -133q-5 -7 -14 -7h-45q-7 0 -10 4z" />
    <glyph glyph-name="icircumflex" unicode="&#xee;" horiz-adv-x="220" 
d="M-22 601.5q-2 4.5 1 9.5l95 133q5 7 14 7h44q7 0 14 -7l95 -133q2 -2 2 -7q0 -7 -9 -7h-50q-9 0 -14 7l-60 93l-60 -92q-5 -8 -14 -8h-49q-7 0 -9 4.5zM69 11v494q0 12 11 12h59q12 0 12 -12v-494q0 -11 -12 -11h-59q-11 0 -11 11z" />
    <glyph glyph-name="idieresis" unicode="&#xef;" horiz-adv-x="220" 
d="M73 629q-13 -13 -33 -13q-19 0 -32.5 13.5t-13.5 32.5q0 20 13 33.5t33 13.5t33 -13.5t13 -33.5t-13 -33zM211.5 629q-13.5 -13 -33.5 -13t-33 13t-13 33t13 33.5t33 13.5t33.5 -13.5t13.5 -33.5t-13.5 -33zM69 11v494q0 12 11 12h59q12 0 12 -12v-494q0 -11 -12 -11h-59
q-11 0 -11 11z" />
    <glyph glyph-name="eth" unicode="&#xf0;" horiz-adv-x="550" 
d="M459 527q28 -68 29 -157v-185q0 -88 -59.5 -142t-159.5 -54t-159.5 54t-59.5 142v114q0 58 26.5 102.5t75 69.5t111.5 25q46 0 83 -15t62 -42q-10 97 -88 158l-97 -71q-5 -3 -7 -3q-4 0 -9 6l-16 22q-2 2 -2 6q0 6 5 10l81 60q-58 30 -124 36q-12 0 -11 12v47q2 11 12 11
q107 -8 186 -59l72 53q5 3 8 3q6 0 9 -6l16 -22q2 -2 2 -7q0 -6 -5 -10l-59 -44q50 -46 78 -114zM168 95q35 -33 101 -33t101 33t36 90v114q1 58 -35 91.5t-102 33.5t-101 -33.5t-35 -91.5v-114q0 -57 35 -90z" />
    <glyph glyph-name="ntilde" unicode="&#xf1;" horiz-adv-x="557" 
d="M68 11v464q0 10 8 14q93 39 192 39q105 0 165 -53t60 -163v-301q0 -11 -12 -11h-59q-11 0 -11 11v299q0 76 -36.5 110t-106.5 34q-62 0 -118 -18v-425q0 -11 -12 -11h-59q-11 0 -11 11zM391 629.5q-23 -22.5 -53 -22.5q-25 0 -71 24q-4 2 -17 9.5t-23.5 11t-19.5 3.5
q-26 0 -41 -34q-5 -9 -16 -5l-33 19q-10 6 -5 15q11 28 33 49t51 21t73 -25q22 -12 35.5 -17.5t25.5 -5.5q13 0 21 7.5t18 26.5q5 11 15 5l33 -18q9 -5 6 -13q-9 -28 -32 -50.5z" />
    <glyph glyph-name="ograve" unicode="&#xf2;" horiz-adv-x="540" 
d="M269 597q-9 0 -14 7l-96 133q-3 5 -3 8q0 6 9 6h63q9 0 14 -7l81 -133q2 -4 2 -6q0 -8 -11 -8h-45zM430.5 42.5q-59.5 -53.5 -160.5 -53.5q-67 0 -116.5 24.5t-76.5 69t-27 102.5v144q0 58 27 103.5t77 70.5t116 25q67 0 116.5 -25t76.5 -70.5t27 -103.5v-144
q0 -89 -59.5 -142.5zM168.5 95q35.5 -33 101.5 -33t102 33t36 90v144q0 58 -36 91.5t-102 33.5t-101.5 -33.5t-35.5 -91.5v-144q0 -57 35.5 -90z" />
    <glyph glyph-name="oacute" unicode="&#xf3;" horiz-adv-x="540" 
d="M430.5 42.5q-59.5 -53.5 -160.5 -53.5q-67 0 -116.5 24.5t-76.5 69t-27 102.5v144q0 58 27 103.5t77 70.5t116 25q67 0 116.5 -25t76.5 -70.5t27 -103.5v-144q0 -89 -59.5 -142.5zM168.5 95q35.5 -33 101.5 -33t102 33t36 90v144q0 58 -36 91.5t-102 33.5t-101.5 -33.5
t-35.5 -91.5v-144q0 -57 35.5 -90zM208 601q-3 4 1 10l81 133q5 7 14 7h63q9 0 9 -6q0 -3 -3 -8l-96 -133q-5 -7 -14 -7h-45q-7 0 -10 4z" />
    <glyph glyph-name="ocircumflex" unicode="&#xf4;" horiz-adv-x="540" 
d="M430.5 42.5q-59.5 -53.5 -160.5 -53.5q-67 0 -116.5 24.5t-76.5 69t-27 102.5v144q0 58 27 103.5t77 70.5t116 25q67 0 116.5 -25t76.5 -70.5t27 -103.5v-144q0 -89 -59.5 -142.5zM168.5 95q35.5 -33 101.5 -33t102 33t36 90v144q0 58 -36 91.5t-102 33.5t-101.5 -33.5
t-35.5 -91.5v-144q0 -57 35.5 -90zM118 604q0 3 3 7l113 133q7 7 14 7h43q9 0 14 -7l112 -133q4 -4 4 -8q0 -6 -9 -6h-52q-9 0 -14 7l-76 91l-78 -91q-7 -7 -14 -7h-50q-10 0 -10 7z" />
    <glyph glyph-name="otilde" unicode="&#xf5;" horiz-adv-x="540" 
d="M430.5 42.5q-59.5 -53.5 -160.5 -53.5q-67 0 -116.5 24.5t-76.5 69t-27 102.5v144q0 58 27 103.5t77 70.5t116 25q67 0 116.5 -25t76.5 -70.5t27 -103.5v-144q0 -89 -59.5 -142.5zM168.5 95q35.5 -33 101.5 -33t102 33t36 90v144q0 58 -36 91.5t-102 33.5t-101.5 -33.5
t-35.5 -91.5v-144q0 -57 35.5 -90zM393 629.5q-23 -22.5 -53 -22.5q-25 0 -71 24q-4 2 -17 9.5t-23.5 11t-19.5 3.5q-26 0 -41 -34q-5 -9 -16 -5l-33 19q-10 6 -5 15q11 28 33 49t51 21t73 -25q22 -12 35.5 -17.5t25.5 -5.5q13 0 21 7.5t18 26.5q5 11 15 5l33 -18
q9 -5 6 -13q-9 -28 -32 -50.5z" />
    <glyph glyph-name="odieresis" unicode="&#xf6;" horiz-adv-x="540" 
d="M430.5 42.5q-59.5 -53.5 -160.5 -53.5q-67 0 -116.5 24.5t-76.5 69t-27 102.5v144q0 58 27 103.5t77 70.5t116 25q67 0 116.5 -25t76.5 -70.5t27 -103.5v-144q0 -89 -59.5 -142.5zM168.5 95q35.5 -33 101.5 -33t102 33t36 90v144q0 58 -36 91.5t-102 33.5t-101.5 -33.5
t-35.5 -91.5v-144q0 -57 35.5 -90zM208 627.5q-13 -12.5 -34 -12.5t-34 13t-13 34q0 22 13 35t34 13t34 -13t13 -35t-13 -34.5zM400 628q-13 -13 -34 -13t-34.5 13t-13.5 34q0 22 13.5 35t34.5 13t34 -13t13 -35q0 -21 -13 -34z" />
    <glyph glyph-name="divide" unicode="&#xf7;" horiz-adv-x="579" 
d="M330.5 465.5q-15.5 -15.5 -40.5 -15.5t-40 15.5t-15 39.5q0 25 15 40.5t40 15.5t40.5 -15.5t15.5 -40.5q0 -24 -15.5 -39.5zM69 307v55q0 11 11 11h419q11 0 11 -11v-55q0 -11 -11 -11h-419q-11 0 -11 11zM330.5 117.5q-15.5 -15.5 -40.5 -15.5t-40 15.5t-15 40.5
t15 40.5t40 15.5t40.5 -15.5t15.5 -40.5t-15.5 -40.5z" />
    <glyph glyph-name="oslash" unicode="&#xf8;" horiz-adv-x="540" 
d="M55 -53q-2 4 1 10l51 88q-57 54 -57 140v144q0 58 27 103.5t76.5 70.5t116.5 25q61 0 104 -21l39 66q5 8 14 8h50q7 0 9 -4t-1 -10l-55 -94q29 -26 44.5 -63t15.5 -81v-144q0 -89 -59.5 -142.5t-160.5 -53.5q-64 0 -108 22l-35 -60q-5 -8 -13 -8h-50q-7 0 -9 4zM150 122
l187 318q-28 14 -67 14q-66 0 -101.5 -33.5t-35.5 -91.5v-144q0 -37 17 -63zM371.5 95q35.5 33 35.5 90v144q0 40 -20 68l-187 -320q32 -15 70 -15q66 0 101.5 33z" />
    <glyph glyph-name="ugrave" unicode="&#xf9;" horiz-adv-x="551" 
d="M276 597q-9 0 -14 7l-96 133q-3 5 -3 8q0 6 9 6h63q9 0 14 -7l81 -133q2 -4 2 -6q0 -8 -11 -8h-45zM483 505v-463q0 -11 -8 -14q-87 -39 -189 -39q-103 0 -162 53t-59 163v300q0 12 12 12h59q11 0 11 -12v-298q0 -76 35.5 -110.5t103.5 -34.5q61 0 115 19v424q0 12 12 12
h59q11 0 11 -12z" />
    <glyph glyph-name="uacute" unicode="&#xfa;" horiz-adv-x="551" 
d="M483 505v-463q0 -11 -8 -14q-87 -39 -189 -39q-103 0 -162 53t-59 163v300q0 12 12 12h59q11 0 11 -12v-298q0 -76 35.5 -110.5t103.5 -34.5q61 0 115 19v424q0 12 12 12h59q11 0 11 -12zM213 601q-3 4 1 10l81 133q5 7 14 7h63q9 0 9 -6q0 -3 -3 -8l-96 -133
q-5 -7 -14 -7h-45q-7 0 -10 4z" />
    <glyph glyph-name="ucircumflex" unicode="&#xfb;" horiz-adv-x="551" 
d="M483 505v-463q0 -11 -8 -14q-87 -39 -189 -39q-103 0 -162 53t-59 163v300q0 12 12 12h59q11 0 11 -12v-298q0 -76 35.5 -110.5t103.5 -34.5q61 0 115 19v424q0 12 12 12h59q11 0 11 -12zM125 604q0 3 3 7l113 133q7 7 14 7h43q9 0 14 -7l112 -133q4 -4 4 -8q0 -6 -9 -6
h-52q-9 0 -14 7l-76 91l-78 -91q-7 -7 -14 -7h-50q-10 0 -10 7z" />
    <glyph glyph-name="udieresis" unicode="&#xfc;" horiz-adv-x="551" 
d="M483 505v-463q0 -11 -8 -14q-87 -39 -189 -39q-103 0 -162 53t-59 163v300q0 12 12 12h59q11 0 11 -12v-298q0 -76 35.5 -110.5t103.5 -34.5q61 0 115 19v424q0 12 12 12h59q11 0 11 -12zM215 627.5q-13 -12.5 -34 -12.5t-34 13t-13 34q0 22 13 35t34 13t34 -13t13 -35
t-13 -34.5zM407 628q-13 -13 -34 -13t-34.5 13t-13.5 34q0 22 13.5 35t34.5 13t34 -13t13 -35q0 -21 -13 -34z" />
    <glyph glyph-name="yacute" unicode="&#xfd;" horiz-adv-x="551" 
d="M411 517h59q12 0 12 -12v-491q0 -103 -52 -158t-159 -56q-59 0 -105.5 17.5t-87.5 51.5q-4 4 -4 8t3 9l30 41q7 10 16 3q72 -55 148 -56q66 1 98.5 35.5t30.5 109.5v23q-62 -26 -124 -26q-56 0 -104.5 22.5t-78 67t-29.5 109.5v290q0 12 11 12h59q12 0 12 -12v-286
q0 -65 38.5 -96t101.5 -31q31 0 61 7t53 20v386q0 12 11 12zM214 601q-3 4 1 10l81 133q5 7 14 7h63q9 0 9 -6q0 -3 -3 -8l-96 -133q-5 -7 -14 -7h-45q-7 0 -10 4z" />
    <glyph glyph-name="thorn" unicode="&#xfe;" horiz-adv-x="544" 
d="M275 528q95 0 156.5 -50t61.5 -151v-139q0 -64 -29.5 -109t-79.5 -67.5t-110 -22.5q-67 0 -123 28v-195q0 -12 -12 -12h-59q-11 0 -11 12v882q0 11 11 11h59q12 0 12 -11v-201q58 25 124 25zM370 93q40 31 40 96v136q0 68 -39.5 99t-103.5 31q-30 0 -61.5 -7t-54.5 -18
v-340q24 -13 55.5 -20.5t61.5 -7.5q62 0 102 31z" />
    <glyph glyph-name="ydieresis" unicode="&#xff;" horiz-adv-x="551" 
d="M411 517h59q12 0 12 -12v-491q0 -103 -52 -158t-159 -56q-59 0 -105.5 17.5t-87.5 51.5q-4 4 -4 8t3 9l30 41q7 10 16 3q72 -55 148 -56q66 1 98.5 35.5t30.5 109.5v23q-62 -26 -124 -26q-56 0 -104.5 22.5t-78 67t-29.5 109.5v290q0 12 11 12h59q12 0 12 -12v-286
q0 -65 38.5 -96t101.5 -31q31 0 61 7t53 20v386q0 12 11 12zM212 627.5q-13 -12.5 -34 -12.5t-34 13t-13 34q0 22 13 35t34 13t34 -13t13 -35t-13 -34.5zM404 628q-13 -13 -34 -13t-34.5 13t-13.5 34q0 22 13.5 35t34.5 13t34 -13t13 -35q0 -21 -13 -34z" />
    <glyph glyph-name="Amacron" unicode="&#x100;" horiz-adv-x="619" 
d="M9 13l249 693q3 9 12 9h79q10 0 13 -9l248 -693q1 -2 1 -5q0 -8 -10 -8h-67q-10 0 -13 9l-61 178h-300l-62 -178q-3 -9 -13 -9h-67q-12 0 -9 13zM434 266l-122 354h-4l-122 -354h248zM162 822v45q0 12 11 12h272q11 0 11 -12v-45q0 -11 -11 -11h-272q-11 0 -11 11z" />
    <glyph glyph-name="amacron" unicode="&#x101;" horiz-adv-x="511" 
d="M145.5 514.5q48.5 13.5 104.5 13.5q94 0 146.5 -49.5t52.5 -144.5v-300q0 -10 -9 -13q-38 -14 -89 -23t-104 -9q-93 0 -154 40t-61 124q0 77 58 118t157 41q52 0 120 -12v32q0 62 -28 92t-92 30q-40 0 -77 -10t-65 -27q-2 -2 -7 -2t-8 5l-29 42q-5 9 0 14
q36 25 84.5 38.5zM150.5 85.5q36.5 -23.5 96.5 -23.5t120 18v150q-64 12 -120 12q-67 0 -100 -23.5t-33 -65.5q0 -44 36.5 -67.5zM129 686h252q11 0 11 -12v-43q0 -11 -11 -11h-252q-11 0 -11 11v43q0 12 11 12z" />
    <glyph glyph-name="Abreve" unicode="&#x102;" horiz-adv-x="619" 
d="M9 13l249 693q3 9 12 9h79q10 0 13 -9l248 -693q1 -2 1 -5q0 -8 -10 -8h-67q-10 0 -13 9l-61 178h-300l-62 -178q-3 -9 -13 -9h-67q-12 0 -9 13zM434 266l-122 354h-4l-122 -354h248zM423 809.5q-42 -37.5 -113 -37.5q-70 0 -112 37.5t-51 99.5v2q0 8 10 11l44 11h3
q7 0 10 -9q14 -84 96 -84q41 0 65.5 22t30.5 62q3 10 13 9l44 -11q11 -3 10 -12q-8 -63 -50 -100.5z" />
    <glyph glyph-name="abreve" unicode="&#x103;" horiz-adv-x="511" 
d="M145.5 514.5q48.5 13.5 104.5 13.5q94 0 146.5 -49.5t52.5 -144.5v-300q0 -10 -9 -13q-38 -14 -89 -23t-104 -9q-93 0 -154 40t-61 124q0 77 58 118t157 41q52 0 120 -12v32q0 62 -28 92t-92 30q-40 0 -77 -10t-65 -27q-2 -2 -7 -2t-8 5l-29 42q-5 9 0 14
q36 25 84.5 38.5zM150.5 85.5q36.5 -23.5 96.5 -23.5t120 18v150q-64 12 -120 12q-67 0 -100 -23.5t-33 -65.5q0 -44 36.5 -67.5zM357.5 634q-40.5 -37 -107.5 -37q-66 0 -105.5 36.5t-47.5 97.5v2q0 4 3 7t7 4l40 5h2q8 0 11 -9q14 -80 90 -80q78 0 92 80q1 10 13 9l39 -5
q12 -2 11 -12q-7 -61 -47.5 -98z" />
    <glyph glyph-name="Aogonek" unicode="&#x104;" horiz-adv-x="619" 
d="M544 -200q-44 0 -70 22t-26 60q0 33 24 65.5t64 53.5h-3q-10 4 -15 17l-58 170h-300l-62 -179q-3 -9 -13 -9h-67q-12 0 -9 13l249 693q3 9 12 9h79q10 0 13 -9l248 -693q1 -2 1 -6q0 -7 -7 -8q-38 -18 -60.5 -44.5t-22.5 -49.5q0 -18 10 -25.5t30 -7.5q29 0 50 8q2 1 5 1
q8 0 9 -8l9 -42v-3q0 -7 -7 -11q-39 -17 -83 -17zM434 265l-122 355h-4l-122 -355h248z" />
    <glyph glyph-name="aogonek" unicode="&#x105;" horiz-adv-x="512" 
d="M440 22q-50 -21 -83 -55t-33 -62q0 -17 10 -25t33 -8q28 0 47 8q2 1 5 1q8 0 9 -9l9 -39l1 -5q0 -6 -8 -9q-38 -18 -81 -18q-93 0 -93 82q0 28 20.5 60t54.5 55q-39 -9 -85 -9q-93 0 -153.5 39.5t-60.5 126.5q0 77 58 117t156 40q51 0 121 -12v37q0 59 -28.5 88t-92.5 29
q-41 0 -77.5 -10t-64.5 -27q-2 -2 -7 -2t-8 5l-29 42q-2 3 -2 8q0 6 5 8q77 50 187 50q93 0 146 -48.5t53 -139.5v-304q0 -9 -9 -14zM149.5 85.5q35.5 -23.5 96.5 -23.5q62 0 121 17v153q-53 10 -121 10q-67 0 -99.5 -22.5t-32.5 -64.5q0 -46 35.5 -69.5z" />
    <glyph glyph-name="Cacute" unicode="&#x106;" horiz-adv-x="587" 
d="M450 8q-59 -19 -122 -19q-75 0 -134.5 28t-94 84t-34.5 135v242q0 80 34.5 136t93.5 84t133 28q57 0 112 -18t101 -52q8 -6 2 -15l-32 -47q-3 -5 -8 -5q-4 0 -9 3q-36 26 -79.5 40t-87.5 14q-84 0 -129.5 -45t-45.5 -123v-241q0 -78 46 -123t130 -45q49 0 97 16t87 46
q3 3 7 3q5 0 8 -6l33 -46q3 -4 3 -8t-6 -9q-46 -38 -105 -57zM330 785h-52q-7 0 -9 4t2 10l105 133q4 7 13 7h70q7 0 9 -4.5t-3 -9.5l-121 -133q-6 -7 -14 -7z" />
    <glyph glyph-name="cacute" unicode="&#x107;" horiz-adv-x="470" 
d="M359 3.5q-43 -14.5 -94 -14.5q-65 0 -113.5 24.5t-74.5 68.5t-26 100v152q0 57 26 101t74.5 68.5t112.5 24.5q87 0 163 -50q6 -4 6 -9q0 -3 -3 -8l-26 -41q-7 -9 -16 -3q-57 37 -122 37q-63 0 -98 -33t-35 -87v-152q0 -55 35 -87.5t97 -32.5q69 0 134 44q5 3 8 3
q5 0 8 -5l29 -41q3 -4 3 -8q0 -5 -5 -8q-40 -29 -83 -43.5zM193 601q-3 4 1 10l81 133q5 7 14 7h63q9 0 9 -6q0 -3 -3 -8l-96 -133q-5 -7 -14 -7h-45q-7 0 -10 4z" />
    <glyph glyph-name="Cdotaccent" unicode="&#x10a;" horiz-adv-x="587" 
d="M450 8q-59 -19 -122 -19q-75 0 -134.5 28t-94 84t-34.5 135v242q0 80 34.5 136t93.5 84t133 28q57 0 112 -18t101 -52q8 -6 2 -15l-32 -47q-3 -5 -8 -5q-4 0 -9 3q-36 26 -79.5 40t-87.5 14q-84 0 -129.5 -45t-45.5 -123v-241q0 -78 46 -123t130 -45q49 0 97 16t87 46
q3 3 7 3q5 0 8 -6l33 -46q3 -4 3 -8t-6 -9q-46 -38 -105 -57zM362 813q-16 -16 -39 -16t-39 16.5t-16 38.5q0 23 16 39t39 16t39 -16t16 -39t-16 -39z" />
    <glyph glyph-name="cdotaccent" unicode="&#x10b;" horiz-adv-x="470" 
d="M359 3.5q-43 -14.5 -94 -14.5q-65 0 -113.5 24.5t-74.5 68.5t-26 100v152q0 57 26 101t74.5 68.5t112.5 24.5q87 0 163 -50q6 -4 6 -9q0 -3 -3 -8l-26 -41q-7 -9 -16 -3q-57 37 -122 37q-63 0 -98 -33t-35 -87v-152q0 -55 35 -87.5t97 -32.5q69 0 134 44q5 3 8 3
q5 0 8 -5l29 -41q3 -4 3 -8q0 -5 -5 -8q-40 -29 -83 -43.5zM291 626.5q-14 -14.5 -36 -14.5q-21 0 -35.5 14.5t-14.5 35.5q0 22 14.5 36t35.5 14q22 0 36 -14t14 -36q0 -21 -14 -35.5z" />
    <glyph glyph-name="Ccaron" unicode="&#x10c;" horiz-adv-x="587" 
d="M225 939q8 0 14 -7l84 -86l84 86q6 7 14 7h59q9 0 9 -6q0 -3 -3 -8l-123 -133q-7 -7 -14 -7h-52q-8 0 -14 7l-123 133q-3 5 -3 8q0 6 9 6h59zM450 8q-59 -19 -122 -19q-75 0 -134.5 28t-94 84t-34.5 135v242q0 80 34.5 136t93.5 84t133 28q57 0 112 -18t101 -52
q8 -6 2 -15l-32 -47q-3 -5 -8 -5q-4 0 -9 3q-36 26 -79.5 40t-87.5 14q-84 0 -129.5 -45t-45.5 -123v-241q0 -78 46 -123t130 -45q49 0 97 16t87 46q3 3 7 3q5 0 8 -6l33 -46q3 -4 3 -8t-6 -9q-46 -38 -105 -57z" />
    <glyph glyph-name="ccaron" unicode="&#x10d;" horiz-adv-x="470" 
d="M168 751q7 0 14 -7l78 -91l76 91q5 7 14 7h52q9 0 9 -6q0 -4 -4 -8l-112 -133q-5 -7 -14 -7h-43q-7 0 -14 7l-113 133q-3 5 -3 7q0 7 10 7h50zM359 3.5q-43 -14.5 -94 -14.5q-65 0 -113.5 24.5t-74.5 68.5t-26 100v152q0 57 26 101t74.5 68.5t112.5 24.5q87 0 163 -50
q6 -4 6 -9q0 -3 -3 -8l-26 -41q-7 -9 -16 -3q-57 37 -122 37q-63 0 -98 -33t-35 -87v-152q0 -55 35 -87.5t97 -32.5q69 0 134 44q5 3 8 3q5 0 8 -5l29 -41q3 -4 3 -8q0 -5 -5 -8q-40 -29 -83 -43.5z" />
    <glyph glyph-name="Dcaron" unicode="&#x10e;" horiz-adv-x="670" 
d="M232 939q8 0 14 -7l84 -86l84 86q6 7 14 7h59q9 0 9 -6q0 -3 -3 -8l-123 -133q-7 -7 -14 -7h-52q-8 0 -14 7l-123 133q-3 5 -3 8q0 6 9 6h59zM89 11v693q0 11 12 11h244q122 0 191 -67.5t69 -189.5v-205q0 -121 -69 -187t-191 -66h-244q-12 0 -12 11zM344 80
q84 0 128.5 43.5t44.5 129.5v205q0 88 -44.5 133.5t-128.5 45.5h-169v-557h169z" />
    <glyph glyph-name="dcaron" unicode="&#x10f;" horiz-adv-x="563" 
d="M393 497v207q0 11 12 11h59q11 0 11 -11v-667q0 -9 -9 -13q-43 -16 -94 -25.5t-99 -9.5q-102 0 -162.5 53.5t-60.5 162.5v111q0 99 60 155.5t157 56.5q66 0 126 -31zM570 715h51q12 0 9 -13l-49 -145q-3 -9 -13 -9h-36q-12 0 -10 12l35 145q3 10 13 10zM169 95
q36 -34 106 -34q69 0 118 19v339q-52 36 -119 36q-141 0 -141 -139v-111q0 -76 36 -110z" />
    <glyph glyph-name="Dcroat" unicode="&#x110;" horiz-adv-x="679" 
d="M545 647.5q69 -67.5 69 -189.5v-205q0 -121 -69 -187t-191 -66h-244q-12 0 -12 11v330h-76q-11 0 -11 11v37q0 11 11 11h76v304q0 11 12 11h244q122 0 191 -67.5zM481.5 123.5q44.5 43.5 44.5 129.5v205q0 88 -44.5 133.5t-128.5 45.5h-169v-237h167q11 0 11 -11v-37
q0 -11 -11 -11h-167v-261h169q84 0 128.5 43.5z" />
    <glyph glyph-name="dcroat" unicode="&#x111;" horiz-adv-x="543" 
d="M555 631v-34q0 -11 -12 -11h-68v-549q0 -9 -9 -13q-43 -16 -94 -25.5t-99 -9.5q-102 0 -162.5 53.5t-60.5 162.5v99q0 99 60 156t157 57q67 0 126 -32v101h-139q-11 0 -11 11v34q0 12 11 12h139v61q0 11 12 11h59q11 0 11 -11v-61h68q12 0 12 -12zM169 95q36 -34 106 -34
q69 0 118 19v327q-52 36 -119 36q-141 0 -141 -139v-99q0 -76 36 -110z" />
    <glyph glyph-name="Emacron" unicode="&#x112;" horiz-adv-x="579" 
d="M519 78q11 0 11 -11v-56q0 -11 -11 -11h-418q-12 0 -12 11v693q0 11 12 11h404q11 0 11 -11v-56q0 -11 -11 -11h-330v-234h307q11 0 11 -12v-55q0 -12 -11 -12h-307v-246h344zM158 822v45q0 12 11 12h272q11 0 11 -12v-45q0 -11 -11 -11h-272q-11 0 -11 11z" />
    <glyph glyph-name="emacron" unicode="&#x113;" horiz-adv-x="518" 
d="M461 219h-327v-42q0 -55 36.5 -85t93.5 -30q47 0 83.5 15t69.5 41q2 2 7 2q7 0 9 -5l29 -38q3 -4 3 -7q0 -4 -5 -9q-86 -72 -198 -72q-56 0 -104 21.5t-77.5 64t-29.5 102.5v152q0 66 29 110.5t77.5 66.5t105.5 22t104.5 -22t76 -66.5t28.5 -110.5v-98q0 -12 -11 -12z
M356.5 422q-35.5 32 -93.5 32q-59 0 -94 -31.5t-35 -93.5v-42h258v42q0 61 -35.5 93zM135 686h252q11 0 11 -12v-43q0 -11 -11 -11h-252q-11 0 -11 11v43q0 12 11 12z" />
    <glyph glyph-name="Edotaccent" unicode="&#x116;" horiz-adv-x="579" 
d="M519 78q11 0 11 -11v-56q0 -11 -11 -11h-418q-12 0 -12 11v693q0 11 12 11h404q11 0 11 -11v-56q0 -11 -11 -11h-330v-234h307q11 0 11 -12v-55q0 -12 -11 -12h-307v-246h344zM345 813q-16 -16 -39 -16t-39 16.5t-16 38.5q0 23 16 39t39 16t39 -16t16 -39t-16 -39z" />
    <glyph glyph-name="edotaccent" unicode="&#x117;" horiz-adv-x="518" 
d="M461 219h-327v-42q0 -55 36.5 -85t93.5 -30q47 0 83.5 15t69.5 41q2 2 7 2q7 0 9 -5l29 -38q3 -4 3 -7q0 -4 -5 -9q-86 -72 -198 -72q-56 0 -104 21.5t-77.5 64t-29.5 102.5v152q0 66 29 110.5t77.5 66.5t105.5 22t104.5 -22t76 -66.5t28.5 -110.5v-98q0 -12 -11 -12z
M356.5 422q-35.5 32 -93.5 32q-59 0 -94 -31.5t-35 -93.5v-42h258v42q0 61 -35.5 93zM297 626.5q-14 -14.5 -36 -14.5q-21 0 -35.5 14.5t-14.5 35.5q0 22 14.5 36t35.5 14q22 0 36 -14t14 -36q0 -21 -14 -35.5z" />
    <glyph glyph-name="Eogonek" unicode="&#x118;" horiz-adv-x="578" 
d="M532 -120q2 1 5 1q8 0 9 -8l9 -42l1 -4q0 -7 -8 -10q-39 -17 -82 -17q-45 0 -70.5 22t-25.5 60q0 33 24 65t64 53h-357q-12 0 -12 11v693q0 11 12 11h403q11 0 11 -11v-56q0 -11 -11 -11h-330v-235h307q12 0 12 -11v-56q0 -11 -12 -11h-307v-246h344q12 0 12 -11v-57
q0 -9 -9 -14q-34 -18 -56.5 -42.5t-22.5 -49.5q0 -32 42 -32q27 0 48 8z" />
    <glyph glyph-name="eogonek" unicode="&#x119;" horiz-adv-x="515" 
d="M321 -201q-42 0 -66.5 20.5t-24.5 60.5q0 56 68 114q-12 -5 -33 -5q-57 0 -106 21.5t-78.5 63.5t-29.5 102v157q0 64 29 108t77 65.5t105 21.5q89 0 148 -50t59 -145v-102q0 -11 -11 -11h-324v-43q0 -55 35.5 -85t93.5 -30q45 0 84.5 15t66.5 40q5 3 7 3q4 0 9 -5l29 -38
q3 -4 3 -8t-4 -8q-16 -14 -69 -46q-42 -28 -66 -58t-24 -52q0 -35 38 -35q23 0 44 11q2 1 5 1q7 0 10 -7l15 -40q1 -2 1 -5q0 -6 -6 -9q-39 -22 -85 -22zM391 288v45q0 60 -37 91t-95 31q-56 0 -90.5 -31t-34.5 -93v-43h257z" />
    <glyph glyph-name="Ecaron" unicode="&#x11a;" horiz-adv-x="579" 
d="M208 939q8 0 14 -7l84 -86l84 86q6 7 14 7h59q9 0 9 -6q0 -3 -3 -8l-123 -133q-7 -7 -14 -7h-52q-8 0 -14 7l-123 133q-3 5 -3 8q0 6 9 6h59zM519 78q11 0 11 -11v-56q0 -11 -11 -11h-418q-12 0 -12 11v693q0 11 12 11h404q11 0 11 -11v-56q0 -11 -11 -11h-330v-234h307
q11 0 11 -12v-55q0 -12 -11 -12h-307v-246h344z" />
    <glyph glyph-name="ecaron" unicode="&#x11b;" horiz-adv-x="518" 
d="M174 751q7 0 14 -7l78 -91l76 91q5 7 14 7h52q9 0 9 -6q0 -4 -4 -8l-112 -133q-5 -7 -14 -7h-43q-7 0 -14 7l-113 133q-3 5 -3 7q0 7 10 7h50zM461 219h-327v-42q0 -55 36.5 -85t93.5 -30q47 0 83.5 15t69.5 41q2 2 7 2q7 0 9 -5l29 -38q3 -4 3 -7q0 -4 -5 -9
q-86 -72 -198 -72q-56 0 -104 21.5t-77.5 64t-29.5 102.5v152q0 66 29 110.5t77.5 66.5t105.5 22t104.5 -22t76 -66.5t28.5 -110.5v-98q0 -12 -11 -12zM356.5 422q-35.5 32 -93.5 32q-59 0 -94 -31.5t-35 -93.5v-42h258v42q0 61 -35.5 93z" />
    <glyph glyph-name="Gbreve" unicode="&#x11e;" horiz-adv-x="646" 
d="M472.5 16q-63.5 -27 -139.5 -27q-75 0 -136 28.5t-96.5 84.5t-35.5 135v242q0 79 34.5 135t93.5 84t133 28q63 0 125 -18.5t112 -52.5q5 -3 5.5 -7.5t-2.5 -8.5l-34 -47q-5 -8 -15 -3q-86 57 -191 57q-81 0 -128.5 -44.5t-47.5 -124.5v-240q0 -80 50 -123.5t133 -43.5
q51 0 94.5 15t74.5 41v186h-164q-11 0 -11 11v56q0 11 11 11h237q11 0 11 -11v-276q0 -9 -4 -13q-46 -47 -109.5 -74zM439 809.5q-42 -37.5 -113 -37.5q-70 0 -112 37.5t-51 99.5v2q0 8 10 11l44 11h3q7 0 10 -9q14 -84 96 -84q41 0 65.5 22t30.5 62q3 10 13 9l44 -11
q11 -3 10 -12q-8 -63 -50 -100.5z" />
    <glyph glyph-name="gbreve" unicode="&#x11f;" horiz-adv-x="543" 
d="M423.5 -144q-51.5 -56 -159.5 -56q-58 0 -105 17.5t-88 51.5q-4 3 -4 7t3 9l29 43q3 5 8 5q3 0 8 -3q70 -56 149 -56q68 0 99.5 35.5t29.5 111.5v24q-28 -13 -62 -21t-66 -8q-95 0 -155 52t-60 152v100q0 107 61.5 157.5t162.5 50.5q51 0 101.5 -10.5t90.5 -28.5
q9 -3 9 -13v-462q0 -102 -51.5 -158zM170 121q37 -31 101 -31q35 0 68 8t54 22v317q-21 7 -55.5 12t-62.5 5q-68 0 -105 -31.5t-37 -102.5v-100q0 -68 37 -99zM379.5 634q-40.5 -37 -107.5 -37q-66 0 -105.5 36.5t-47.5 97.5v2q0 4 3 7t7 4l40 5h2q8 0 11 -9q14 -80 90 -80
q78 0 92 80q1 10 13 9l39 -5q12 -2 11 -12q-7 -61 -47.5 -98z" />
    <glyph glyph-name="Gdotaccent" unicode="&#x120;" horiz-adv-x="646" 
d="M472.5 16q-63.5 -27 -139.5 -27q-75 0 -136 28.5t-96.5 84.5t-35.5 135v242q0 79 34.5 135t93.5 84t133 28q63 0 125 -18.5t112 -52.5q5 -3 5.5 -7.5t-2.5 -8.5l-34 -47q-5 -8 -15 -3q-86 57 -191 57q-81 0 -128.5 -44.5t-47.5 -124.5v-240q0 -80 50 -123.5t133 -43.5
q51 0 94.5 15t74.5 41v186h-164q-11 0 -11 11v56q0 11 11 11h237q11 0 11 -11v-276q0 -9 -4 -13q-46 -47 -109.5 -74zM365 813q-16 -16 -39 -16t-39 16.5t-16 38.5q0 23 16 39t39 16t39 -16t16 -39t-16 -39z" />
    <glyph glyph-name="gdotaccent" unicode="&#x121;" horiz-adv-x="543" 
d="M423.5 -144q-51.5 -56 -159.5 -56q-58 0 -105 17.5t-88 51.5q-4 3 -4 7t3 9l29 43q3 5 8 5q3 0 8 -3q70 -56 149 -56q68 0 99.5 35.5t29.5 111.5v24q-28 -13 -62 -21t-66 -8q-95 0 -155 52t-60 152v100q0 107 61.5 157.5t162.5 50.5q51 0 101.5 -10.5t90.5 -28.5
q9 -3 9 -13v-462q0 -102 -51.5 -158zM170 121q37 -31 101 -31q35 0 68 8t54 22v317q-21 7 -55.5 12t-62.5 5q-68 0 -105 -31.5t-37 -102.5v-100q0 -68 37 -99zM308 626.5q-14 -14.5 -36 -14.5q-21 0 -35.5 14.5t-14.5 35.5q0 22 14.5 36t35.5 14q22 0 36 -14t14 -36
q0 -21 -14 -35.5z" />
    <glyph glyph-name="uni0122" unicode="&#x122;" horiz-adv-x="646" 
d="M472.5 16q-63.5 -27 -139.5 -27q-75 0 -136 28.5t-96.5 84.5t-35.5 135v242q0 79 34.5 135t93.5 84t133 28q63 0 125 -18.5t112 -52.5q5 -3 5.5 -7.5t-2.5 -8.5l-34 -47q-5 -8 -15 -3q-86 57 -191 57q-81 0 -128.5 -44.5t-47.5 -124.5v-240q0 -80 50 -123.5t133 -43.5
q51 0 94.5 15t74.5 41v186h-164q-11 0 -11 11v56q0 11 11 11h237q11 0 11 -11v-276q0 -9 -4 -13q-46 -47 -109.5 -74zM249 -232l37 146q3 10 13 10h54q6 0 8.5 -3.5t1.5 -9.5l-52 -146q-3 -9 -13 -9h-38q-14 0 -11 12z" />
    <glyph glyph-name="uni0123" unicode="&#x123;" horiz-adv-x="543" 
d="M423.5 -144q-51.5 -56 -159.5 -56q-58 0 -105 17.5t-88 51.5q-4 3 -4 7t3 9l29 43q3 5 8 5q3 0 8 -3q70 -56 149 -56q68 0 99.5 35.5t29.5 111.5v24q-28 -13 -62 -21t-66 -8q-95 0 -155 52t-60 152v100q0 107 61.5 157.5t162.5 50.5q51 0 101.5 -10.5t90.5 -28.5
q9 -3 9 -13v-462q0 -102 -51.5 -158zM170 121q37 -31 101 -31q35 0 68 8t54 22v317q-21 7 -55.5 12t-62.5 5q-68 0 -105 -31.5t-37 -102.5v-100q0 -68 37 -99zM221 601q-3 4 0 9l55 137q3 9 13 9h38q6 0 8.5 -3.5t0.5 -9.5l-39 -136q-3 -10 -12 -10h-55q-6 0 -9 4z" />
    <glyph glyph-name="Hbar" unicode="&#x126;" horiz-adv-x="692" 
d="M669 602v-36q0 -12 -12 -12h-59v-543q0 -11 -11 -11h-63q-11 0 -11 11v313h-334v-313q0 -11 -11 -11h-62q-12 0 -12 11v543h-59q-11 0 -11 12v36q0 12 11 12h59v90q0 11 12 11h62q11 0 11 -11v-90h334v90q0 11 11 11h63q11 0 11 -11v-90h59q12 0 12 -12zM513 554h-334
v-153h334v153z" />
    <glyph glyph-name="hbar" unicode="&#x127;" horiz-adv-x="558" 
d="M277 516q99 0 158 -53.5t59 -164.5v-287q0 -11 -11 -11h-59q-12 0 -12 11v284q0 78 -35.5 112.5t-104.5 34.5q-64 0 -121 -26v-405q0 -11 -11 -11h-59q-12 0 -12 11v575h-68q-11 0 -11 11v34q0 12 11 12h68v61q0 11 12 11h59q11 0 11 -11v-61h140q11 0 11 -12v-34
q0 -11 -11 -11h-140v-95q60 25 126 25z" />
    <glyph glyph-name="Imacron" unicode="&#x12a;" horiz-adv-x="264" 
d="M15 893h234q11 0 11 -11v-44q0 -11 -11 -11h-234q-11 0 -11 11v44q0 11 11 11zM163 0h-62q-12 0 -12 11v693q0 11 12 11h62q12 0 12 -11v-693q0 -11 -12 -11z" />
    <glyph glyph-name="imacron" unicode="&#x12b;" horiz-adv-x="220" 
d="M3 630v43q0 11 11 11h193q11 0 11 -11v-43q0 -12 -11 -12h-193q-11 0 -11 12zM69 11v494q0 5 3.5 8.5t8.5 3.5h59q11 0 11 -12v-494q0 -11 -11 -11h-59q-12 0 -12 11z" />
    <glyph glyph-name="Iogonek" unicode="&#x12e;" horiz-adv-x="263" 
d="M198 -120l5 1q6 0 9 -9l9 -42l1 -4q0 -7 -8 -10q-38 -16 -80 -16q-45 0 -71 22t-26 62q0 32 16 62.5t44 54.5q-8 2 -8 13v690q0 11 11 11h63q11 0 11 -11v-693q0 -10 -9 -12q-25 -18 -40.5 -44t-15.5 -48q0 -35 42 -35q27 0 47 8z" />
    <glyph glyph-name="iogonek" unicode="&#x12f;" horiz-adv-x="220" 
d="M146 627q-14 -14 -35 -14t-35.5 14t-14.5 35q0 22 14.5 36t35.5 14t35 -14t14 -36q0 -21 -14 -35zM113 -199q-47 0 -72.5 22.5t-25.5 67.5q0 28 18.5 57.5t48.5 52.5h-3q-10 2 -10 12v492q0 5 3.5 8.5t8.5 3.5h59q11 0 11 -12v-494q0 -11 -11 -12q-29 -22 -43 -45
t-14 -43q0 -39 46 -39q28 0 55 11q2 1 6 1q6 0 7 -8l11 -40q1 -2 1 -5q0 -7 -7 -10q-40 -20 -89 -20z" />
    <glyph glyph-name="Idotaccent" unicode="&#x130;" horiz-adv-x="263" 
d="M163 0h-62q-12 0 -12 11v693q0 11 12 11h62q11 0 11 -11v-693q0 -11 -11 -11zM171 813q-16 -16 -39 -16t-39 16.5t-16 38.5q0 23 16 39t39 16t39 -16t16 -39t-16 -39z" />
    <glyph glyph-name="dotlessi" unicode="&#x131;" horiz-adv-x="220" 
d="M69 11v494q0 12 11 12h59q12 0 12 -12v-494q0 -11 -12 -11h-59q-11 0 -11 11z" />
    <glyph glyph-name="IJ" unicode="&#x132;" horiz-adv-x="776" 
d="M163 0h-62q-12 0 -12 11v693q0 11 12 11h62q11 0 11 -11v-693q0 -11 -11 -11zM634.5 51.5q-57.5 -62.5 -151.5 -62.5q-58 0 -104.5 19.5t-92.5 58.5q-5 3 -5 8q0 4 3 8l28 46q3 6 8 6q2 0 8 -4q38 -30 74.5 -45.5t80.5 -15.5q60 0 92 39t32 120v475q0 11 12 11h62
q11 0 11 -11v-476q0 -114 -57.5 -176.5z" />
    <glyph glyph-name="ij" unicode="&#x133;" horiz-adv-x="500" 
d="M146 627q-14 -14 -35 -14t-35.5 14t-14.5 35t14.5 35t35.5 14t35 -13.5t14 -35.5q0 -21 -14 -35zM69 11v494q0 12 12 12h59q11 0 11 -12v-494q0 -11 -11 -11h-59q-12 0 -12 11zM426 627q-14 -14 -35 -14t-35.5 14t-14.5 35t14.5 35t35.5 14t35 -13.5t14 -35.5
q0 -21 -14 -35zM392 -154q-39 -47 -111 -47q-27 0 -49 3q-11 1 -11 13v50q0 12 12 12q21 -3 39 -3q39 0 58 25t19 84v522q0 12 12 12h59q11 0 11 -12v-522q0 -90 -39 -137z" />
    <glyph glyph-name="uni0136" unicode="&#x136;" horiz-adv-x="614" 
d="M89 11v693q0 11 12 11h62q11 0 11 -11v-331l309 335q7 7 15 7h80q8 0 10 -4.5t-3 -9.5l-287 -308l307 -379q3 -4 3 -7q0 -7 -10 -7h-81q-10 0 -14 7l-262 326l-67 -69v-253q0 -11 -11 -11h-62q-12 0 -12 11zM240 -232l37 146q3 10 13 10h54q6 0 8.5 -3.5t1.5 -9.5
l-52 -146q-3 -9 -13 -9h-38q-14 0 -11 12z" />
    <glyph glyph-name="uni0137" unicode="&#x137;" horiz-adv-x="495" 
d="M392 7l-190 231l-51 -49v-178q0 -11 -12 -11h-59q-11 0 -11 11v693q0 11 11 11h59q12 0 12 -11v-414l226 221q5 6 14 6h73q9 0 9 -6q0 -4 -4 -8l-212 -209l230 -280q3 -4 3 -8q0 -6 -9 -6h-74q-9 0 -15 7zM197 -224l34 139q3 10 13 10h51q12 0 9 -13l-48 -139
q-3 -9 -13 -9h-36q-13 0 -10 12z" />
    <glyph glyph-name="Lacute" unicode="&#x139;" horiz-adv-x="512" 
d="M88 11v693q0 11 12 11h63q11 0 11 -11v-626h314q11 0 11 -11v-56q0 -11 -11 -11h-388q-12 0 -12 11zM147 785h-52q-7 0 -9 4t2 10l105 133q4 7 13 7h70q7 0 9 -4.5t-3 -9.5l-121 -133q-6 -7 -14 -7z" />
    <glyph glyph-name="lacute" unicode="&#x13a;" horiz-adv-x="290" 
d="M217 -11q-72 0 -111.5 47.5t-39.5 136.5v531q0 11 12 11h59q11 0 11 -11v-532q0 -57 19.5 -82.5t58.5 -25.5q21 0 45 3q12 0 12 -11v-51q0 -11 -10 -13q-25 -3 -56 -3zM127 785h-52q-7 0 -9 4t2 10l105 133q4 7 13 7h70q7 0 9 -4.5t-3 -9.5l-121 -133q-6 -7 -14 -7z" />
    <glyph glyph-name="uni013B" unicode="&#x13b;" horiz-adv-x="512" 
d="M89 11v693q0 11 12 11h63q11 0 11 -11v-626h314q11 0 11 -11v-56q0 -11 -11 -11h-388q-12 0 -12 11zM188 -232l37 146q3 10 13 10h54q6 0 8.5 -3.5t1.5 -9.5l-52 -146q-3 -9 -13 -9h-38q-14 0 -11 12z" />
    <glyph glyph-name="uni013C" unicode="&#x13c;" horiz-adv-x="290" 
d="M217 -11q-72 0 -111.5 47.5t-39.5 136.5v531q0 11 12 11h59q11 0 11 -11v-532q0 -57 19.5 -82.5t58.5 -25.5q21 0 45 3q12 0 12 -11v-51q0 -11 -10 -13q-25 -3 -56 -3zM126 -224l34 139q3 10 13 10h51q12 0 9 -13l-48 -139q-3 -9 -13 -9h-36q-13 0 -10 12z" />
    <glyph glyph-name="Lcaron" unicode="&#x13d;" horiz-adv-x="512" 
d="M89 11v693q0 11 12 11h63q11 0 11 -11v-626h314q11 0 11 -11v-56q0 -11 -11 -11h-388q-12 0 -12 11zM289 542q-3 4 -1 9l41 154q1 10 12 10h55q6 0 9 -4t1 -9l-51 -155q-1 -4 -4.5 -6.5t-7.5 -2.5h-45q-6 0 -9 4z" />
    <glyph glyph-name="lcaron" unicode="&#x13e;" horiz-adv-x="303" 
d="M217 -11q-73 0 -112 47t-39 137v531q0 11 11 11h59q12 0 12 -11v-532q0 -57 19 -82.5t58 -25.5q20 0 41 3q13 0 13 -11v-51q0 -11 -10 -13q-25 -3 -52 -3zM213 560q-3 4 -1 9l36 136q3 10 13 10h51q6 0 8.5 -4t0.5 -9l-49 -137q-4 -9 -12 -9h-38q-6 0 -9 4z" />
    <glyph glyph-name="Ldot" unicode="&#x13f;" horiz-adv-x="512" 
d="M89 11v693q0 11 12 11h63q11 0 11 -11v-626h314q11 0 11 -11v-56q0 -11 -11 -11h-388q-12 0 -12 11zM377.5 311.5q-15.5 -15.5 -39.5 -15.5q-25 0 -40 15.5t-15 39.5q0 25 15 40.5t40 15.5q24 0 39.5 -15.5t15.5 -40.5q0 -24 -15.5 -39.5z" />
    <glyph glyph-name="ldot" unicode="&#x140;" horiz-adv-x="314" 
d="M217 -11q-73 0 -112 47t-39 137v531q0 11 11 11h59q12 0 12 -11v-532q0 -57 19 -82.5t58 -25.5q20 0 41 3q13 0 13 -11v-51q0 -11 -10 -13q-25 -3 -52 -3zM298 326.5q-14 -14.5 -36 -14.5q-23 0 -37.5 14.5t-14.5 36.5q0 23 14.5 37t37.5 14q22 0 36 -14t14 -37
q0 -22 -14 -36.5z" />
    <glyph glyph-name="Lslash" unicode="&#x141;" horiz-adv-x="530" 
d="M507 78q11 0 11 -11v-56q0 -11 -11 -11h-388q-11 0 -11 11v269l-82 -53q-3 -2 -7 -2q-7 0 -7 9v54q0 8 7 14l89 57v345q0 11 11 11h62q12 0 12 -11v-290l135 88q3 2 7 2q7 0 7 -9v-54q0 -8 -7 -14l-142 -92v-257h314z" />
    <glyph glyph-name="lslash" unicode="&#x142;" horiz-adv-x="357" 
d="M255 -11q-73 0 -112 47t-39 137v89l-64 -45q-3 -3 -7 -3q-7 0 -7 10v53q0 8 7 14l71 50v363q0 11 11 11h59q12 0 12 -11v-305l112 80q3 3 6 3q7 0 7 -10v-53q0 -7 -7 -13l-118 -85v-149q0 -57 19 -82.5t58 -25.5q20 0 41 3q12 0 12 -11v-51q0 -12 -10 -13q-24 -3 -51 -3z
" />
    <glyph glyph-name="Nacute" unicode="&#x143;" horiz-adv-x="704" 
d="M89 11v693q0 11 12 11h70q9 0 14 -8l265 -432l17 -28q46 -77 67 -118l3 1q-6 125 -6 271v303q0 11 11 11h62q11 0 11 -11v-693q0 -11 -11 -11h-70q-10 0 -14 7l-263 417q-50 81 -87 152l-2 -1q6 -158 6 -261v-303q0 -11 -12 -11h-61q-12 0 -12 11zM355 785h-52q-7 0 -9 4
t2 10l105 133q4 7 13 7h70q7 0 9 -4.5t-3 -9.5l-121 -133q-6 -7 -14 -7z" />
    <glyph glyph-name="nacute" unicode="&#x144;" horiz-adv-x="557" 
d="M68 11v464q0 10 8 14q93 39 192 39q105 0 165 -53t60 -163v-301q0 -11 -12 -11h-59q-11 0 -11 11v299q0 76 -36.5 110t-106.5 34q-62 0 -118 -18v-425q0 -11 -12 -11h-59q-11 0 -11 11zM207 601q-3 4 1 10l81 133q5 7 14 7h63q9 0 9 -6q0 -3 -3 -8l-96 -133q-5 -7 -14 -7
h-45q-7 0 -10 4z" />
    <glyph glyph-name="uni0145" unicode="&#x145;" horiz-adv-x="704" 
d="M89 11v693q0 11 12 11h70q9 0 14 -8l265 -432l17 -28q46 -77 67 -118l3 1q-6 125 -6 271v303q0 11 11 11h62q11 0 11 -11v-693q0 -11 -11 -11h-70q-10 0 -14 7l-263 417q-50 81 -87 152l-2 -1q6 -158 6 -261v-303q0 -11 -12 -11h-61q-12 0 -12 11zM282 -232l37 146
q3 10 13 10h54q6 0 8.5 -3.5t1.5 -9.5l-52 -146q-3 -9 -13 -9h-38q-14 0 -11 12z" />
    <glyph glyph-name="uni0146" unicode="&#x146;" horiz-adv-x="557" 
d="M68 11v464q0 10 8 14q93 39 192 39q105 0 165 -53t60 -163v-301q0 -11 -12 -11h-59q-11 0 -11 11v299q0 76 -36.5 110t-106.5 34q-62 0 -118 -18v-425q0 -11 -12 -11h-59q-11 0 -11 11zM214 -224l34 139q3 10 13 10h51q12 0 9 -13l-48 -139q-3 -9 -13 -9h-36
q-13 0 -10 12z" />
    <glyph glyph-name="Ncaron" unicode="&#x147;" horiz-adv-x="704" 
d="M255 939q8 0 14 -7l84 -86l84 86q6 7 14 7h59q9 0 9 -6q0 -3 -3 -8l-123 -133q-7 -7 -14 -7h-52q-8 0 -14 7l-123 133q-3 5 -3 8q0 6 9 6h59zM89 11v693q0 11 12 11h70q9 0 14 -8l265 -432l17 -28q46 -77 67 -118l3 1q-6 125 -6 271v303q0 11 11 11h62q11 0 11 -11v-693
q0 -11 -11 -11h-70q-10 0 -14 7l-263 417q-50 81 -87 152l-2 -1q6 -158 6 -261v-303q0 -11 -12 -11h-61q-12 0 -12 11z" />
    <glyph glyph-name="ncaron" unicode="&#x148;" horiz-adv-x="557" 
d="M180 751q7 0 14 -7l78 -91l76 91q5 7 14 7h52q9 0 9 -6q0 -4 -4 -8l-112 -133q-5 -7 -14 -7h-43q-7 0 -14 7l-113 133q-3 5 -3 7q0 7 10 7h50zM68 11v464q0 10 8 14q93 39 192 39q105 0 165 -53t60 -163v-301q0 -11 -12 -11h-59q-11 0 -11 11v299q0 76 -36.5 110
t-106.5 34q-62 0 -118 -18v-425q0 -11 -12 -11h-59q-11 0 -11 11z" />
    <glyph glyph-name="Eng" unicode="&#x14a;" horiz-adv-x="704" 
d="M542 715h62q11 0 11 -11v-710q0 -103 -36 -149t-113 -46q-23 0 -44 3q-11 1 -11 12v53q0 11 12 11l34 -2q41 0 58 27.5t18 89.5l-268 420q-46 71 -95 163l-2 -2q6 -142 6 -227v-336q0 -11 -12 -11h-61q-12 0 -12 11v693q0 11 12 11h70q9 0 14 -8l253 -415
q61 -100 96 -163l3 2q-6 113 -6 240v333q0 11 11 11z" />
    <glyph glyph-name="eng" unicode="&#x14b;" horiz-adv-x="557" 
d="M455.5 -154.5q-37.5 -45.5 -110.5 -45.5q-26 0 -46 4q-11 1 -11 12v51q0 11 12 11q21 -3 36 -3q75 0 75 114v321q0 76 -36.5 110t-106.5 34q-31 0 -63 -5t-55 -13v-425q0 -11 -12 -11h-59q-11 0 -11 11v464q0 9 7 13q91 40 193 40q105 0 165 -53t60 -163v-323
q0 -98 -37.5 -143.5z" />
    <glyph glyph-name="Omacron" unicode="&#x14c;" horiz-adv-x="674" 
d="M577 112q-33 -59 -94.5 -91t-145.5 -32t-145.5 32t-94.5 91t-33 139v211q0 123 73 193.5t200 70.5t200 -70.5t73 -193.5v-211q0 -80 -33 -139zM199 118q49 -48 138 -48t137.5 48t48.5 133v211q0 88 -48.5 136.5t-137.5 48.5t-138 -48.5t-49 -136.5v-211q0 -85 49 -133z
M189 822v45q0 12 11 12h272q11 0 11 -12v-45q0 -11 -11 -11h-272q-11 0 -11 11z" />
    <glyph glyph-name="omacron" unicode="&#x14d;" horiz-adv-x="540" 
d="M430.5 42.5q-59.5 -53.5 -160.5 -53.5q-67 0 -116.5 24.5t-76.5 69t-27 102.5v144q0 58 27 103.5t77 70.5t116 25q67 0 116.5 -25t76.5 -70.5t27 -103.5v-144q0 -89 -59.5 -142.5zM168.5 95q35.5 -33 101.5 -33t102 33t36 90v144q0 58 -36 91.5t-102 33.5t-101.5 -33.5
t-35.5 -91.5v-144q0 -57 35.5 -90zM144 686h252q11 0 11 -12v-43q0 -11 -11 -11h-252q-11 0 -11 11v43q0 12 11 12z" />
    <glyph glyph-name="Ohungarumlaut" unicode="&#x150;" horiz-adv-x="674" 
d="M577 112q-33 -59 -94.5 -91t-145.5 -32t-145.5 32t-94.5 91t-33 139v211q0 123 73 193.5t200 70.5t200 -70.5t73 -193.5v-211q0 -80 -33 -139zM199 118q49 -48 138 -48t137.5 48t48.5 133v211q0 88 -48.5 136.5t-137.5 48.5t-138 -48.5t-49 -136.5v-211q0 -85 49 -133z
M189 789q-2 4 2 10l102 132q5 8 14 8h67q7 0 9.5 -4.5t-2.5 -9.5l-116 -133q-6 -7 -14 -7h-53q-7 0 -9 4zM373 789.5q-2 4.5 2 9.5l107 133q5 7 14 7h68q7 0 9 -4.5t-3 -9.5l-122 -134q-5 -6 -14 -6h-52q-7 0 -9 4.5z" />
    <glyph glyph-name="ohungarumlaut" unicode="&#x151;" horiz-adv-x="540" 
d="M430.5 42.5q-59.5 -53.5 -160.5 -53.5q-67 0 -116.5 24.5t-76.5 69t-27 102.5v144q0 58 27 103.5t77 70.5t116 25q67 0 116.5 -25t76.5 -70.5t27 -103.5v-144q0 -89 -59.5 -142.5zM168.5 95q35.5 -33 101.5 -33t102 33t36 90v144q0 58 -36 91.5t-102 33.5t-101.5 -33.5
t-35.5 -91.5v-144q0 -57 35.5 -90zM153.5 601q-2.5 4 0.5 10l72 132q6 8 14 8h50q7 0 9 -4t-2 -10l-84 -133q-6 -7 -14 -7h-36q-7 0 -9.5 4zM298 601q-2 4 1 10l79 133q5 7 14 7h50q7 0 9.5 -4t-1.5 -10l-93 -133q-5 -7 -14 -7h-36q-7 0 -9 4z" />
    <glyph glyph-name="OE" unicode="&#x152;" horiz-adv-x="979" 
d="M504 11v52q-32 -36 -77.5 -55t-96.5 -19q-73 0 -133.5 29t-96.5 87.5t-36 143.5v217q0 85 36 143.5t96.5 87.5t133.5 29q51 0 96.5 -20t77.5 -56v54q0 11 12 11h388q11 0 11 -11v-58q0 -12 -11 -12h-313v-233h290q12 0 12 -11v-58q0 -11 -12 -11h-290v-240h327
q12 0 12 -12v-58q0 -11 -12 -11h-402q-12 0 -12 11zM202 113.5q50 -46.5 128 -46.5q75 0 124 46t49 133v223q0 89 -48.5 134t-124.5 45q-79 0 -128.5 -45.5t-49.5 -136.5v-217q0 -89 50 -135.5z" />
    <glyph glyph-name="oe" unicode="&#x153;" horiz-adv-x="874" 
d="M520 9.5q-46 20.5 -73 58.5q-28 -38 -73 -58.5t-104 -20.5q-67 0 -116.5 24.5t-76.5 69t-27 102.5v144q0 58 27 103.5t77 70.5t116 25q58 0 103.5 -21.5t74.5 -60.5q28 40 73 61t98 21q57 0 104.5 -22t76 -66.5t28.5 -110.5v-98q0 -12 -11 -12h-327v-42q0 -54 36.5 -84
t93.5 -30q47 0 83 15.5t69 41.5q2 2 7 2q7 0 9 -5l31 -39q3 -4 3 -8t-5 -9q-88 -72 -199 -72q-52 0 -98 20.5zM168.5 95q35.5 -33 101.5 -33q67 0 102.5 32.5t35.5 90.5v144q0 58 -36 91.5t-102 33.5t-101.5 -33.5t-35.5 -91.5v-144q0 -57 35.5 -90zM748 287v42
q0 61 -35.5 93t-93.5 32q-59 0 -94 -31.5t-35 -93.5v-42h258z" />
    <glyph glyph-name="Racute" unicode="&#x154;" horiz-adv-x="631" 
d="M494 7l-199 272h-121v-268q0 -11 -11 -11h-62q-12 0 -12 11v693q0 11 12 11h225q118 0 185 -58t67 -161q0 -85 -49.5 -140t-138.5 -70l203 -272q3 -4 3 -7q0 -7 -10 -7h-78q-10 0 -14 7zM174 356h153q164 0 164 140q0 141 -164 141h-153v-281zM315 785h-52q-7 0 -9 4
t2 10l105 133q4 7 13 7h70q7 0 9 -4.5t-3 -9.5l-121 -133q-6 -7 -14 -7z" />
    <glyph glyph-name="racute" unicode="&#x155;" horiz-adv-x="377" 
d="M68 11v467q0 10 8 13q37 18 81.5 27.5t89.5 9.5t103 -8q10 -1 10 -13v-49q0 -13 -12 -10q-49 7 -90 7q-59 0 -108 -20v-424q0 -11 -12 -11h-59q-11 0 -11 11zM159 601q-3 4 1 10l81 133q5 7 14 7h63q9 0 9 -6q0 -3 -3 -8l-96 -133q-5 -7 -14 -7h-45q-7 0 -10 4z" />
    <glyph glyph-name="uni0156" unicode="&#x156;" horiz-adv-x="631" 
d="M494 7l-199 272h-121v-268q0 -11 -11 -11h-62q-12 0 -12 11v693q0 11 12 11h225q118 0 185 -58t67 -161q0 -85 -49.5 -140t-138.5 -70l203 -272q3 -4 3 -7q0 -7 -10 -7h-78q-10 0 -14 7zM174 356h153q164 0 164 140q0 141 -164 141h-153v-281zM246 -232l37 146
q3 10 13 10h54q6 0 8.5 -3.5t1.5 -9.5l-52 -146q-3 -9 -13 -9h-38q-14 0 -11 12z" />
    <glyph glyph-name="uni0157" unicode="&#x157;" horiz-adv-x="377" 
d="M68 11v467q0 10 8 13q37 18 81.5 27.5t89.5 9.5t103 -8q10 -1 10 -13v-49q0 -13 -12 -10q-49 7 -90 7q-59 0 -108 -20v-424q0 -11 -12 -11h-59q-11 0 -11 11zM51 -224l34 139q3 10 13 10h51q12 0 9 -13l-48 -139q-3 -9 -13 -9h-36q-13 0 -10 12z" />
    <glyph glyph-name="Rcaron" unicode="&#x158;" horiz-adv-x="631" 
d="M210 939q8 0 14 -7l84 -86l84 86q6 7 14 7h59q9 0 9 -6q0 -3 -3 -8l-123 -133q-7 -7 -14 -7h-52q-8 0 -14 7l-123 133q-3 5 -3 8q0 6 9 6h59zM494 7l-199 272h-121v-268q0 -11 -11 -11h-62q-12 0 -12 11v693q0 11 12 11h225q118 0 185 -58t67 -161q0 -85 -49.5 -140
t-138.5 -70l203 -272q3 -4 3 -7q0 -7 -10 -7h-78q-10 0 -14 7zM174 356h153q164 0 164 140q0 141 -164 141h-153v-281z" />
    <glyph glyph-name="rcaron" unicode="&#x159;" horiz-adv-x="377" 
d="M124 751q7 0 14 -7l78 -91l76 91q5 7 14 7h52q9 0 9 -6q0 -4 -4 -8l-112 -133q-5 -7 -14 -7h-43q-7 0 -14 7l-113 133q-3 5 -3 7q0 7 10 7h50zM68 11v467q0 10 8 13q37 18 81.5 27.5t89.5 9.5t103 -8q10 -1 10 -13v-49q0 -13 -12 -10q-49 7 -90 7q-59 0 -108 -20v-424
q0 -11 -12 -11h-59q-11 0 -11 11z" />
    <glyph glyph-name="Sacute" unicode="&#x15a;" horiz-adv-x="606" 
d="M490 40.5q-74 -51.5 -188 -51.5q-72 0 -130.5 23t-119.5 72q-5 5 -5 8q0 4 3 8l34 47q3 4 7 5t8 -2q53 -40 102 -59.5t104 -20.5q74 0 123.5 31t49.5 91q0 40 -22 65t-61 40t-104 29q-108 24 -173.5 72t-65.5 139q0 94 72 141.5t183 47.5q66 0 120.5 -19t112.5 -61
q10 -6 3 -15l-33 -47q-3 -5 -8 -5q-4 0 -8 3q-90 62 -194 65q-73 0 -117.5 -29.5t-44.5 -82.5t43 -80t132 -47q79 -18 132 -40.5t86 -64.5t33 -109q0 -102 -74 -153.5zM302 785h-52q-7 0 -9 4t2 10l105 133q4 7 13 7h70q7 0 9 -4.5t-3 -9.5l-121 -133q-6 -7 -14 -7z" />
    <glyph glyph-name="sacute" unicode="&#x15b;" horiz-adv-x="475" 
d="M385 30.5q-56 -41.5 -147 -41.5q-111 0 -198 64q-8 5 -3 16l27 46q3 6 8 6q3 0 8 -3q75 -56 160 -56q52 0 85 21t33 59q0 37 -30.5 53t-87.5 27q-52 11 -92.5 26t-71.5 47.5t-31 85.5q0 72 57.5 109.5t139.5 37.5q91 0 174 -47q5 -2 6 -6t-2 -9l-27 -45q-2 -5 -6.5 -6
t-8.5 2q-69 37 -140 37q-52 0 -82 -19.5t-30 -53.5q0 -37 32.5 -54t97.5 -30q55 -11 92.5 -24.5t65 -44t27.5 -82.5q0 -74 -56 -115.5zM172 601q-3 4 1 10l81 133q5 7 14 7h63q9 0 9 -6q0 -3 -3 -8l-96 -133q-5 -7 -14 -7h-45q-7 0 -10 4z" />
    <glyph glyph-name="Scedilla" unicode="&#x15e;" horiz-adv-x="606" 
d="M381 -184.5q-32 -22.5 -86 -22.5q-32 0 -59 9q-9 3 -9 13v25q0 6 3.5 8.5t9.5 1.5q22 -7 46 -7q59 0 59 41q0 34 -64 35q-10 0 -14 8q-2 4 1 11l21 52q-68 2 -124 24.5t-113 69.5q-5 5 -5 8q0 4 3 8l34 47q3 4 7 5t8 -2q53 -40 102 -59t104 -20q74 0 123.5 30.5
t49.5 90.5q0 40 -22 65t-61 40t-104 29q-108 24 -173.5 72t-65.5 139q0 94 72 141.5t183 47.5q66 0 120.5 -19t112.5 -61q10 -6 3 -15l-33 -47q-3 -5 -8 -5q-4 0 -8 3q-90 62 -194 65q-73 0 -117.5 -29.5t-44.5 -82.5t43 -80t132 -47q79 -18 132 -40.5t86 -64.5t33 -109
q0 -92 -61.5 -142.5t-160.5 -59.5v-2l-17 -41q40 -2 64 -21t24 -49q0 -41 -32 -63.5z" />
    <glyph glyph-name="scedilla" unicode="&#x15f;" horiz-adv-x="475" 
d="M312.5 -183.5q-31.5 -21.5 -84.5 -21.5q-31 0 -58 9q-9 3 -9 13v24q0 12 13 10q22 -7 45 -7q27 0 43.5 9.5t16.5 29.5q0 36 -63 37q-10 0 -14 8q-2 4 1 11l20 50q-102 5 -183 64q-8 5 -3 16l27 46q3 6 8 6q3 0 8 -3q75 -56 160 -56q52 0 85 21t33 59q0 37 -30.5 53
t-87.5 27q-52 11 -92.5 26t-71.5 47.5t-31 85.5q0 72 57.5 109.5t139.5 37.5q91 0 174 -47q5 -2 6 -6t-2 -9l-27 -45q-2 -5 -6.5 -6t-8.5 2q-69 37 -140 37q-52 0 -82 -19.5t-30 -53.5q0 -37 32.5 -54t97.5 -30q55 -11 92.5 -24.5t65 -44t27.5 -82.5q0 -66 -45.5 -106.5
t-120.5 -48.5l-17 -41q39 -2 62.5 -21.5t23.5 -50.5q0 -40 -31.5 -61.5z" />
    <glyph glyph-name="Scaron" unicode="&#x160;" horiz-adv-x="606" 
d="M204 939q8 0 14 -7l84 -86l84 86q6 7 14 7h59q9 0 9 -6q0 -3 -3 -8l-123 -133q-7 -7 -14 -7h-52q-8 0 -14 7l-123 133q-3 5 -3 8q0 6 9 6h59zM490 40.5q-74 -51.5 -188 -51.5q-72 0 -130.5 23t-119.5 72q-5 5 -5 8q0 4 3 8l34 47q3 4 7 5t8 -2q53 -40 102 -59.5
t104 -20.5q74 0 123.5 31t49.5 91q0 40 -22 65t-61 40t-104 29q-108 24 -173.5 72t-65.5 139q0 94 72 141.5t183 47.5q66 0 120.5 -19t112.5 -61q10 -6 3 -15l-33 -47q-3 -5 -8 -5q-4 0 -8 3q-90 62 -194 65q-73 0 -117.5 -29.5t-44.5 -82.5t43 -80t132 -47
q79 -18 132 -40.5t86 -64.5t33 -109q0 -102 -74 -153.5z" />
    <glyph glyph-name="scaron" unicode="&#x161;" horiz-adv-x="475" 
d="M147 751q7 0 14 -7l78 -91l76 91q5 7 14 7h52q9 0 9 -6q0 -4 -4 -8l-112 -133q-5 -7 -14 -7h-43q-7 0 -14 7l-113 133q-3 5 -3 7q0 7 10 7h50zM385 30.5q-56 -41.5 -147 -41.5q-111 0 -198 64q-8 5 -3 16l27 46q3 6 8 6q3 0 8 -3q75 -56 160 -56q52 0 85 21t33 59
q0 37 -30.5 53t-87.5 27q-52 11 -92.5 26t-71.5 47.5t-31 85.5q0 72 57.5 109.5t139.5 37.5q91 0 174 -47q5 -2 6 -6t-2 -9l-27 -45q-2 -5 -6.5 -6t-8.5 2q-69 37 -140 37q-52 0 -82 -19.5t-30 -53.5q0 -37 32.5 -54t97.5 -30q55 -11 92.5 -24.5t65 -44t27.5 -82.5
q0 -74 -56 -115.5z" />
    <glyph glyph-name="uni0162" unicode="&#x162;" horiz-adv-x="561" 
d="M209 -232l37 146q3 10 13 10h54q6 0 8.5 -3.5t1.5 -9.5l-52 -146q-3 -9 -13 -9h-38q-14 0 -11 12zM549 704v-56q0 -11 -12 -11h-214v-626q0 -11 -12 -11h-62q-12 0 -12 11v626h-214q-11 0 -11 11v56q0 11 11 11h514q12 0 12 -11z" />
    <glyph glyph-name="uni0163" unicode="&#x163;" horiz-adv-x="321" 
d="M130 -224l34 139q3 10 13 10h51q12 0 9 -13l-48 -139q-3 -9 -13 -9h-36q-13 0 -10 12zM173 92.5q25 -27.5 71 -27.5l48 2q12 0 12 -11v-53q0 -11 -10 -12l-54 -2q-79 0 -126.5 44t-47.5 133v466q0 12 12 12h52q9 0 11 -11l7 -121h130q11 0 11 -11v-50q0 -12 -11 -12h-130
v-269q0 -50 25 -77.5z" />
    <glyph glyph-name="Tcaron" unicode="&#x164;" horiz-adv-x="561" 
d="M182 939q8 0 14 -7l84 -86l84 86q6 7 14 7h59q9 0 9 -6q0 -3 -3 -8l-123 -133q-7 -7 -14 -7h-52q-8 0 -14 7l-123 133q-3 5 -3 8q0 6 9 6h59zM549 704v-56q0 -11 -12 -11h-214v-626q0 -11 -12 -11h-62q-12 0 -12 11v626h-214q-11 0 -11 11v56q0 11 11 11h514q12 0 12 -11
z" />
    <glyph glyph-name="tcaron" unicode="&#x165;" horiz-adv-x="321" 
d="M213 601l35 135q1 10 13 10h50q6 0 8.5 -3.5t0.5 -9.5l-48 -135q-4 -9 -13 -9h-36q-13 0 -10 12zM240 -11q-79 0 -126.5 44t-47.5 133v466q0 12 12 12h52q9 0 11 -11l7 -121h130q11 0 11 -11v-50q0 -12 -11 -12h-130v-269q0 -50 25 -77.5t71 -27.5l48 2q12 0 12 -11v-53
q0 -10 -11 -12z" />
    <glyph glyph-name="Tbar" unicode="&#x166;" horiz-adv-x="571" 
d="M242 11v297h-118q-11 0 -11 11v36q0 12 11 12h118v270h-212q-11 0 -11 11v56q0 11 11 11h511q11 0 11 -11v-56q0 -11 -11 -11h-213v-270h117q12 0 12 -12v-36q0 -11 -12 -11h-117v-297q0 -11 -12 -11h-63q-11 0 -11 11z" />
    <glyph glyph-name="tbar" unicode="&#x167;" horiz-adv-x="326" 
d="M244 -11q-78 0 -125.5 44.5t-47.5 132.5v84h-43q-12 0 -12 11v34q0 11 12 11h43v326q0 12 11 12h52q11 0 11 -11l7 -121h130q12 0 12 -11v-50q0 -12 -12 -12h-129v-133h85q11 0 11 -11v-34q0 -11 -11 -11h-85v-80q0 -50 24.5 -77.5t70.5 -27.5l49 2q12 0 12 -11v-53
q0 -10 -11 -12z" />
    <glyph glyph-name="Umacron" unicode="&#x16a;" horiz-adv-x="691" 
d="M576 110.5q-32 -57.5 -92 -89.5t-139 -32t-138.5 32t-91.5 89.5t-32 133.5v460q0 11 12 11h64q11 0 11 -11v-454q0 -85 46 -133.5t129 -48.5q84 0 130 48.5t46 133.5v454q0 11 11 11h64q12 0 12 -11v-460q0 -76 -32 -133.5zM198 822v45q0 12 11 12h272q11 0 11 -12v-45
q0 -11 -11 -11h-272q-11 0 -11 11z" />
    <glyph glyph-name="umacron" unicode="&#x16b;" horiz-adv-x="551" 
d="M483 505v-463q0 -11 -8 -14q-87 -39 -189 -39q-103 0 -162 53t-59 163v300q0 12 12 12h59q11 0 11 -12v-298q0 -76 35.5 -110.5t103.5 -34.5q61 0 115 19v424q0 12 12 12h59q11 0 11 -12zM152 686h252q11 0 11 -12v-43q0 -11 -11 -11h-252q-11 0 -11 11v43q0 12 11 12z
" />
    <glyph glyph-name="Uring" unicode="&#x16e;" horiz-adv-x="691" 
d="M576 110.5q-32 -57.5 -92 -89.5t-139 -32t-138.5 32t-91.5 89.5t-32 133.5v460q0 11 12 11h64q11 0 11 -11v-454q0 -85 46 -133.5t129 -48.5q84 0 130 48.5t46 133.5v454q0 11 11 11h64q12 0 12 -11v-460q0 -76 -32 -133.5zM424 798q-30 -28 -77 -28q-48 0 -79 28.5
t-31 75.5t30.5 76t79.5 29q47 0 77 -29t30 -76q0 -48 -30 -76zM304 834q16 -15 43 -15q26 0 41 14.5t15 40.5t-15 41t-41 15q-27 0 -43 -15t-16 -41q0 -25 16 -40z" />
    <glyph glyph-name="uring" unicode="&#x16f;" horiz-adv-x="551" 
d="M483 505v-463q0 -11 -8 -14q-87 -39 -189 -39q-103 0 -162 53t-59 163v300q0 12 12 12h59q11 0 11 -12v-298q0 -76 35.5 -110.5t103.5 -34.5q61 0 115 19v424q0 12 12 12h59q11 0 11 -12zM353.5 610.5q-29.5 -27.5 -75.5 -27.5q-48 0 -78.5 28t-30.5 75q0 46 30.5 74
t78.5 28q46 0 75.5 -28t29.5 -75t-29.5 -74.5zM235 646q16 -15 42 -15q25 0 40.5 15t15.5 39q0 25 -15.5 40t-40.5 15q-26 0 -42 -15t-16 -40q0 -24 16 -39z" />
    <glyph glyph-name="Uhungarumlaut" unicode="&#x170;" horiz-adv-x="691" 
d="M576 110.5q-32 -57.5 -92 -89.5t-139 -32t-138.5 32t-91.5 89.5t-32 133.5v460q0 11 12 11h64q11 0 11 -11v-454q0 -85 46 -133.5t129 -48.5q84 0 130 48.5t46 133.5v454q0 11 11 11h64q12 0 12 -11v-460q0 -76 -32 -133.5zM194 789q-2 4 2 10l102 132q5 8 14 8h67
q7 0 9.5 -4.5t-2.5 -9.5l-116 -133q-6 -7 -14 -7h-53q-7 0 -9 4zM378 789.5q-2 4.5 2 9.5l107 133q5 7 14 7h68q7 0 9 -4.5t-3 -9.5l-122 -134q-5 -6 -14 -6h-52q-7 0 -9 4.5z" />
    <glyph glyph-name="uhungarumlaut" unicode="&#x171;" horiz-adv-x="551" 
d="M483 505v-463q0 -11 -8 -14q-87 -39 -189 -39q-103 0 -162 53t-59 163v300q0 12 12 12h59q11 0 11 -12v-298q0 -76 35.5 -110.5t103.5 -34.5q61 0 115 19v424q0 12 12 12h59q11 0 11 -12zM160.5 601q-2.5 4 0.5 10l72 132q6 8 14 8h50q7 0 9 -4t-2 -10l-84 -133
q-6 -7 -14 -7h-36q-7 0 -9.5 4zM305 601q-2 4 1 10l79 133q5 7 14 7h50q7 0 9.5 -4t-1.5 -10l-93 -133q-5 -7 -14 -7h-36q-7 0 -9 4z" />
    <glyph glyph-name="Uogonek" unicode="&#x172;" horiz-adv-x="693" 
d="M397 -199q-41 0 -66 20.5t-25 53.5q0 65 75 120v1q-7 -3 -17.5 -5t-19.5 -2q-72 0 -131.5 28.5t-94.5 85t-35 136.5v465q0 11 12 11h64q12 0 12 -11v-465q0 -80 49.5 -125t125.5 -45t126.5 45t50.5 125v465q0 11 12 11h64q11 0 11 -11v-465q0 -86 -33 -133.5t-86 -79.5
q-108 -66 -108 -120q0 -19 10.5 -27.5t32.5 -8.5q28 0 52 10q4 2 6 2q7 0 8 -9l10 -39q1 -2 1 -5q0 -6 -5 -8q-42 -20 -101 -20z" />
    <glyph glyph-name="uogonek" unicode="&#x173;" horiz-adv-x="550" 
d="M367 -199q-49 0 -76 22t-27 61q0 32 20.5 60t56.5 51q-30 -6 -48 -6q-107 0 -167.5 50t-60.5 149v317q0 12 11 12h59q5 0 8.5 -3.5t3.5 -8.5v-317q0 -126 143 -126q28 0 58 5t52 14v424q0 5 3.5 8.5t8.5 3.5h59q11 0 11 -12v-465q0 -10 -9 -13q-139 -55 -139 -118
q0 -20 11 -28.5t35 -8.5q27 0 52 11q2 1 6 1q7 0 8 -8l13 -42l1 -5q0 -6 -8 -9q-37 -19 -85 -19z" />
    <glyph glyph-name="Wcircumflex" unicode="&#x174;" horiz-adv-x="951" 
d="M206 10l-193 692l-1 3q0 10 11 10h67q11 0 12 -10l104 -391q29 -109 50 -211h2q25 100 61 223l110 368q3 10 12 10h68q9 0 12 -10l111 -368q40 -139 61 -223h2q28 130 49 211l104 391q3 10 12 10h68q6 0 9 -4t1 -9l-194 -692q-3 -10 -12 -10h-73q-11 0 -12 10l-115 373
q-37 126 -55 211h-3q-24 -110 -55 -211l-115 -373q-3 -10 -12 -10h-73q-10 0 -13 10zM309 791q0 4 3 8l123 133q6 7 14 7h52q7 0 14 -7l123 -133q3 -4 3 -8q0 -6 -9 -6h-59q-8 0 -14 7l-84 86l-84 -86q-6 -7 -14 -7h-59q-9 0 -9 6z" />
    <glyph glyph-name="wcircumflex" unicode="&#x175;" horiz-adv-x="756" 
d="M167 10l-149 493l-1 5q0 4 3 6.5t7 2.5h62q10 0 13 -10l66 -237l45 -177h2q28 116 42 162l76 243q3 10 12 10h66q9 0 12 -10l76 -243q19 -61 43 -162h1l45 177l67 237q1 10 12 10h62q6 0 8.5 -4t0.5 -10l-148 -493q-3 -10 -13 -10h-70q-11 0 -12 10l-84 272
q-16 54 -31 125h-3q-17 -69 -32 -125l-84 -272q-1 -10 -12 -10h-70q-11 0 -12 10zM226 604q0 3 3 7l113 133q7 7 14 7h43q9 0 14 -7l112 -133q4 -4 4 -8q0 -6 -9 -6h-52q-9 0 -14 7l-76 91l-78 -91q-7 -7 -14 -7h-50q-10 0 -10 7z" />
    <glyph glyph-name="Ycircumflex" unicode="&#x176;" horiz-adv-x="568" 
d="M241 11v261l-235 429q-2 4 -2 6q0 8 10 8h72q10 0 13 -8l185 -357l184 357q3 8 13 8h72q7 0 9 -4t-1 -10l-234 -431v-259q0 -11 -12 -11h-63q-11 0 -11 11zM118 791q0 4 3 8l123 133q6 7 14 7h52q7 0 14 -7l123 -133q3 -4 3 -8q0 -6 -9 -6h-59q-8 0 -14 7l-84 86l-84 -86
q-6 -7 -14 -7h-59q-9 0 -9 6z" />
    <glyph glyph-name="ycircumflex" unicode="&#x177;" horiz-adv-x="551" 
d="M411 517h59q12 0 12 -12v-491q0 -103 -52 -158t-159 -56q-59 0 -105.5 17.5t-87.5 51.5q-4 4 -4 8t3 9l30 41q7 10 16 3q72 -55 148 -56q66 1 98.5 35.5t30.5 109.5v23q-62 -26 -124 -26q-56 0 -104.5 22.5t-78 67t-29.5 109.5v290q0 12 11 12h59q12 0 12 -12v-286
q0 -65 38.5 -96t101.5 -31q31 0 61 7t53 20v386q0 12 11 12zM122 604q0 3 3 7l113 133q7 7 14 7h43q9 0 14 -7l112 -133q4 -4 4 -8q0 -6 -9 -6h-52q-9 0 -14 7l-76 91l-78 -91q-7 -7 -14 -7h-50q-10 0 -10 7z" />
    <glyph glyph-name="Ydieresis" unicode="&#x178;" horiz-adv-x="568" 
d="M241 11v261l-235 429q-2 4 -2 6q0 8 10 8h72q10 0 13 -8l185 -357l184 357q3 8 13 8h72q7 0 9 -4t-1 -10l-234 -431v-259q0 -11 -12 -11h-63q-11 0 -11 11zM217 811.5q-14 -13.5 -35 -13.5q-22 0 -35.5 13.5t-13.5 35.5t13.5 36t35.5 14q21 0 35 -14t14 -36t-14 -35.5z
M421 811.5q-14 -13.5 -36 -13.5t-35.5 13.5t-13.5 35.5t13.5 36t35.5 14t36 -14t14 -36t-14 -35.5z" />
    <glyph glyph-name="Zacute" unicode="&#x179;" horiz-adv-x="588" 
d="M36 11v39q0 9 4 14l388 573h-364q-12 0 -12 11v56q0 11 12 11h467q11 0 11 -11v-38q0 -8 -4 -15l-387 -573h389q11 0 11 -11v-56q0 -11 -11 -11h-493q-11 0 -11 11zM292 785h-52q-7 0 -9 4t2 10l105 133q4 7 13 7h70q7 0 9 -4.5t-3 -9.5l-121 -133q-6 -7 -14 -7z" />
    <glyph glyph-name="zacute" unicode="&#x17a;" horiz-adv-x="467" 
d="M31 11v30q0 9 5 14l278 388h-257q-11 0 -11 12v50q0 12 11 12h359q12 0 12 -12v-27q0 -7 -5 -14l-280 -391h279q11 0 11 -11v-51q0 -11 -11 -11h-380q-11 0 -11 11zM173 601q-3 4 1 10l81 133q5 7 14 7h63q9 0 9 -6q0 -3 -3 -8l-96 -133q-5 -7 -14 -7h-45q-7 0 -10 4z
" />
    <glyph glyph-name="Zdotaccent" unicode="&#x17b;" horiz-adv-x="588" 
d="M36 11v39q0 9 4 14l388 573h-364q-12 0 -12 11v56q0 11 12 11h467q11 0 11 -11v-38q0 -8 -4 -15l-387 -573h389q11 0 11 -11v-56q0 -11 -11 -11h-493q-11 0 -11 11zM332 813q-16 -16 -39 -16t-39 16.5t-16 38.5q0 23 16 39t39 16t39 -16t16 -39t-16 -39z" />
    <glyph glyph-name="zdotaccent" unicode="&#x17c;" horiz-adv-x="467" 
d="M31 11v30q0 9 5 14l278 388h-257q-11 0 -11 12v50q0 12 11 12h359q12 0 12 -12v-27q0 -7 -5 -14l-280 -391h279q11 0 11 -11v-51q0 -11 -11 -11h-380q-11 0 -11 11zM269 626.5q-14 -14.5 -36 -14.5q-21 0 -35.5 14.5t-14.5 35.5q0 22 14.5 36t35.5 14q22 0 36 -14t14 -36
q0 -21 -14 -35.5z" />
    <glyph glyph-name="Zcaron" unicode="&#x17d;" horiz-adv-x="588" 
d="M195 939q8 0 14 -7l84 -86l84 86q6 7 14 7h59q9 0 9 -6q0 -3 -3 -8l-123 -133q-7 -7 -14 -7h-52q-8 0 -14 7l-123 133q-3 5 -3 8q0 6 9 6h59zM36 11v39q0 9 4 14l388 573h-364q-12 0 -12 11v56q0 11 12 11h467q11 0 11 -11v-38q0 -8 -4 -15l-387 -573h389q11 0 11 -11
v-56q0 -11 -11 -11h-493q-11 0 -11 11z" />
    <glyph glyph-name="zcaron" unicode="&#x17e;" horiz-adv-x="467" 
d="M146 751q7 0 14 -7l78 -91l76 91q5 7 14 7h52q9 0 9 -6q0 -4 -4 -8l-112 -133q-5 -7 -14 -7h-43q-7 0 -14 7l-113 133q-3 5 -3 7q0 7 10 7h50zM31 11v30q0 9 5 14l278 388h-257q-11 0 -11 12v50q0 12 11 12h359q12 0 12 -12v-27q0 -7 -5 -14l-280 -391h279q11 0 11 -11
v-51q0 -11 -11 -11h-380q-11 0 -11 11z" />
    <glyph glyph-name="florin" unicode="&#x192;" horiz-adv-x="452" 
d="M147.5 -89q-30.5 -39 -95.5 -39q-32 0 -62 11q-10 4 -7 15l11 43q3 10 14 8q15 -5 36 -5q27 0 42 20t23 66l55 289h-81q-12 0 -12 11v52q0 12 12 12h94l37 192q12 64 44 102t97 38q40 0 75 -11q5 -1 7.5 -5t0.5 -9l-9 -41q-3 -10 -14 -8q-21 7 -45 7q-34 0 -51 -22.5
t-26 -69.5l-33 -173h97q11 0 11 -12v-52q0 -11 -11 -11h-111l-56 -307q-12 -62 -42.5 -101z" />
    <glyph glyph-name="uni0218" unicode="&#x218;" horiz-adv-x="606" 
d="M490 40.5q-74 -51.5 -188 -51.5q-72 0 -130.5 23t-119.5 72q-5 5 -5 8q0 4 3 8l34 47q3 4 7 5t8 -2q53 -40 102 -59.5t104 -20.5q74 0 123.5 31t49.5 91q0 40 -22 65t-61 40t-104 29q-108 24 -173.5 72t-65.5 139q0 94 72 141.5t183 47.5q66 0 120.5 -19t112.5 -61
q10 -6 3 -15l-33 -47q-3 -5 -8 -5q-4 0 -8 3q-90 62 -194 65q-73 0 -117.5 -29.5t-44.5 -82.5t43 -80t132 -47q79 -18 132 -40.5t86 -64.5t33 -109q0 -102 -74 -153.5zM231 -232l37 146q3 10 13 10h54q6 0 8.5 -3.5t1.5 -9.5l-52 -146q-3 -9 -13 -9h-38q-14 0 -11 12z" />
    <glyph glyph-name="uni0219" unicode="&#x219;" horiz-adv-x="475" 
d="M385 30.5q-56 -41.5 -147 -41.5q-111 0 -198 64q-8 5 -3 16l27 46q3 6 8 6q3 0 8 -3q75 -56 160 -56q52 0 85 21t33 59q0 37 -30.5 53t-87.5 27q-52 11 -92.5 26t-71.5 47.5t-31 85.5q0 72 57.5 109.5t139.5 37.5q91 0 174 -47q5 -2 6 -6t-2 -9l-27 -45q-2 -5 -6.5 -6
t-8.5 2q-69 37 -140 37q-52 0 -82 -19.5t-30 -53.5q0 -37 32.5 -54t97.5 -30q55 -11 92.5 -24.5t65 -44t27.5 -82.5q0 -74 -56 -115.5zM174 -224l34 139q3 10 13 10h51q12 0 9 -13l-48 -139q-3 -9 -13 -9h-36q-13 0 -10 12z" />
    <glyph glyph-name="uni021A" unicode="&#x21a;" horiz-adv-x="561" 
d="M549 704v-56q0 -11 -12 -11h-214v-626q0 -11 -12 -11h-62q-12 0 -12 11v626h-214q-11 0 -11 11v56q0 11 11 11h514q12 0 12 -11zM209 -232l37 146q3 10 13 10h54q6 0 8.5 -3.5t1.5 -9.5l-52 -146q-3 -9 -13 -9h-38q-14 0 -11 12z" />
    <glyph glyph-name="uni021B" unicode="&#x21b;" horiz-adv-x="321" 
d="M173 92.5q25 -27.5 71 -27.5l48 2q12 0 12 -11v-53q0 -11 -10 -12l-54 -2q-79 0 -126.5 44t-47.5 133v466q0 12 12 12h52q9 0 11 -11l7 -121h130q11 0 11 -11v-50q0 -12 -11 -12h-130v-269q0 -50 25 -77.5zM130 -224l34 139q3 10 13 10h51q12 0 9 -13l-48 -139
q-3 -9 -13 -9h-36q-13 0 -10 12z" />
    <glyph glyph-name="uni0237" unicode="&#x237;" horiz-adv-x="228" 
d="M120 -154q-39 -47 -111 -47q-27 0 -49 3q-11 1 -11 13v50q0 12 12 12q21 -3 39 -3q39 0 58 25t19 83v523q0 12 12 12h59q11 0 11 -12v-522q0 -90 -39 -137z" />
    <glyph glyph-name="circumflex" unicode="&#x2c6;" horiz-adv-x="335" 
d="M16 604q0 3 3 7l113 133q7 7 14 7h43q9 0 14 -7l112 -133q4 -4 4 -8q0 -6 -9 -6h-52q-9 0 -14 7l-76 91l-78 -91q-7 -7 -14 -7h-50q-10 0 -10 7z" />
    <glyph glyph-name="caron" unicode="&#x2c7;" horiz-adv-x="290" 
d="M76 751q7 0 14 -7l78 -91l76 91q5 7 14 7h52q9 0 9 -6q0 -4 -4 -8l-112 -133q-5 -7 -14 -7h-43q-7 0 -14 7l-113 133q-3 5 -3 7q0 7 10 7h50z" />
    <glyph glyph-name="breve" unicode="&#x2d8;" horiz-adv-x="263" 
d="M261.5 634q-40.5 -37 -107.5 -37q-66 0 -105.5 36.5t-47.5 97.5v2q0 4 3 7t7 4l40 5h2q8 0 11 -9q14 -80 90 -80q78 0 92 80q1 10 13 9l39 -5q12 -2 11 -12q-7 -61 -47.5 -98z" />
    <glyph glyph-name="dotaccent" unicode="&#x2d9;" horiz-adv-x="105" 
d="M89 626.5q-14 -14.5 -36 -14.5q-21 0 -35.5 14.5t-14.5 35.5q0 22 14.5 36t35.5 14q22 0 36 -14t14 -36q0 -21 -14 -35.5z" />
    <glyph glyph-name="ring" unicode="&#x2da;" horiz-adv-x="226" 
d="M185.5 610.5q-29.5 -27.5 -75.5 -27.5q-48 0 -78.5 28t-30.5 75q0 46 30.5 74t78.5 28q46 0 75.5 -28t29.5 -75t-29.5 -74.5zM67 646q16 -15 42 -15q25 0 40.5 15t15.5 39q0 25 -15.5 40t-40.5 15q-26 0 -42 -15t-16 -40q0 -24 16 -39z" />
    <glyph glyph-name="ogonek" unicode="&#x2db;" horiz-adv-x="216" 
d="M108 -200q-44 0 -69.5 22t-25.5 60q0 31 21.5 61t60.5 53q5 4 13 4h38q8 0 8 -4t-7 -8q-29 -18 -45.5 -41t-16.5 -43q0 -32 41 -32q29 0 49 8l5 1q7 0 9 -9l9 -41q1 -2 1 -5q0 -6 -7 -9q-39 -17 -84 -17z" />
    <glyph glyph-name="tilde" unicode="&#x2dc;" horiz-adv-x="331" 
d="M289 630.5q-23 -22.5 -53 -22.5q-25 0 -71 24q-4 2 -17 9.5t-23.5 11t-19.5 3.5q-26 0 -41 -34q-5 -9 -16 -5l-33 19q-10 6 -5 15q11 28 33 49t51 21t73 -25q22 -12 35.5 -17.5t25.5 -5.5q13 0 21 7.5t18 26.5q5 11 15 5l33 -18q9 -5 6 -13q-9 -28 -32 -50.5z" />
    <glyph glyph-name="hungarumlaut" unicode="&#x2dd;" horiz-adv-x="293" 
d="M-0.5 601q-2.5 4 0.5 10l72 132q6 8 14 8h50q7 0 9 -4t-2 -10l-84 -133q-6 -7 -14 -7h-36q-7 0 -9.5 4zM144 601q-2 4 1 10l79 133q5 7 14 7h50q7 0 9.5 -4t-1.5 -10l-93 -133q-5 -7 -14 -7h-36q-7 0 -9 4z" />
    <glyph glyph-name="gravecomb" unicode="&#x300;" 
d="M-52 597q-9 0 -14 7l-96 133q-3 5 -3 8q0 6 9 6h63q9 0 14 -7l81 -133q2 -4 2 -6q0 -8 -11 -8h-45z" />
    <glyph glyph-name="acutecomb" unicode="&#x301;" 
d="M-175 601q-3 4 1 10l81 133q5 7 14 7h63q9 0 9 -6q0 -3 -3 -8l-96 -133q-5 -7 -14 -7h-45q-7 0 -10 4z" />
    <glyph glyph-name="uni0302" unicode="&#x302;" 
d="M-319 604q0 3 3 7l113 133q7 7 14 7h43q9 0 14 -7l112 -133q4 -4 4 -8q0 -6 -9 -6h-52q-9 0 -14 7l-76 91l-78 -91q-7 -7 -14 -7h-50q-10 0 -10 7z" />
    <glyph glyph-name="tildecomb" unicode="&#x303;" 
d="M-41 630.5q-23 -22.5 -53 -22.5q-25 0 -71 24q-4 2 -17 9.5t-23.5 11t-19.5 3.5q-26 0 -41 -34q-5 -9 -16 -5l-33 19q-10 6 -5 15q11 28 33 49t51 21t73 -25q22 -12 35.5 -17.5t25.5 -5.5q13 0 21 7.5t18 26.5q5 11 15 5l33 -18q9 -5 6 -13q-9 -28 -32 -50.5z" />
    <glyph glyph-name="uni0304" unicode="&#x304;" 
d="M-263 686h252q11 0 11 -12v-43q0 -11 -11 -11h-252q-11 0 -11 11v43q0 12 11 12z" />
    <glyph glyph-name="uni0306" unicode="&#x306;" 
d="M-48.5 634q-40.5 -37 -107.5 -37q-66 0 -105.5 36.5t-47.5 97.5v2q0 4 3 7t7 4l40 5h2q8 0 11 -9q14 -80 90 -80q78 0 92 80q1 10 13 9l39 -5q12 -2 11 -12q-7 -61 -47.5 -98z" />
    <glyph glyph-name="uni0307" unicode="&#x307;" 
d="M-25 626.5q-14 -14.5 -36 -14.5q-21 0 -35.5 14.5t-14.5 35.5q0 22 14.5 36t35.5 14q22 0 36 -14t14 -36q0 -21 -14 -35.5z" />
    <glyph glyph-name="uni0308" unicode="&#x308;" 
d="M-208 627.5q-13 -12.5 -34 -12.5t-34 13t-13 34q0 22 13 35t34 13t34 -13t13 -35t-13 -34.5zM-16 628q-13 -13 -34 -13t-34.5 13t-13.5 34q0 22 13.5 35t34.5 13t34 -13t13 -35q0 -21 -13 -34z" />
    <glyph glyph-name="uni030A" unicode="&#x30a;" 
d="M-31.5 610.5q-29.5 -27.5 -75.5 -27.5q-48 0 -78.5 28t-30.5 75q0 46 30.5 74t78.5 28q46 0 75.5 -28t29.5 -75t-29.5 -74.5zM-150 646q16 -15 42 -15q25 0 40.5 15t15.5 39q0 25 -15.5 40t-40.5 15q-26 0 -42 -15t-16 -40q0 -24 16 -39z" />
    <glyph glyph-name="uni030B" unicode="&#x30b;" 
d="M-299.5 601q-2.5 4 0.5 10l72 132q6 8 14 8h50q7 0 9 -4t-2 -10l-84 -133q-6 -7 -14 -7h-36q-7 0 -9.5 4zM-155 601q-2 4 1 10l79 133q5 7 14 7h50q7 0 9.5 -4t-1.5 -10l-93 -133q-5 -7 -14 -7h-36q-7 0 -9 4z" />
    <glyph glyph-name="uni030C" unicode="&#x30c;" 
d="M-235 751q7 0 14 -7l78 -91l76 91q5 7 14 7h52q9 0 9 -6q0 -4 -4 -8l-112 -133q-5 -7 -14 -7h-43q-7 0 -14 7l-113 133q-3 5 -3 7q0 7 10 7h50z" />
    <glyph glyph-name="uni0312" unicode="&#x312;" 
d="M-119 601q-3 4 0 9l55 137q3 9 13 9h38q6 0 8.5 -3.5t0.5 -9.5l-39 -136q-3 -10 -12 -10h-55q-6 0 -9 4z" />
    <glyph glyph-name="uni0326" unicode="&#x326;" 
d="M-111 -224l34 139q3 10 13 10h51q12 0 9 -13l-48 -139q-3 -9 -13 -9h-36q-13 0 -10 12z" />
    <glyph glyph-name="uni0327" unicode="&#x327;" 
d="M-35.5 -183.5q-31.5 -21.5 -84.5 -21.5q-31 0 -58 9q-9 3 -9 13v24q0 12 13 10q22 -7 45 -7q27 0 43.5 9.5t16.5 29.5q0 36 -63 37q-10 0 -14 8q-2 4 1 11l23 56q3 9 13 9h27q6 0 8.5 -4t0.5 -9l-17 -41q39 -2 62.5 -21.5t23.5 -50.5q0 -40 -31.5 -61.5z" />
    <glyph glyph-name="uni0328" unicode="&#x328;" 
d="M-90 -200q-44 0 -69.5 22t-25.5 60q0 31 21.5 61t60.5 53q5 4 13 4h38q8 0 8 -4t-7 -8q-29 -18 -45.5 -41t-16.5 -43q0 -32 41 -32q29 0 49 8l5 1q7 0 9 -9l9 -41q1 -2 1 -5q0 -6 -7 -9q-39 -17 -84 -17z" />
    <glyph glyph-name="uni0335" unicode="&#x335;" 
d="M-338 596v36q0 11 11 11h316q11 0 11 -11v-36q0 -11 -11 -11h-316q-11 0 -11 11z" />
    <glyph glyph-name="uni0336" unicode="&#x336;" 
d="M-518 293h507q11 0 11 -11v-36q0 -12 -11 -12h-507q-11 0 -11 12v36q0 11 11 11z" />
    <glyph glyph-name="uni0337" unicode="&#x337;" 
d="M-7 562q7 0 7 -10v-52q0 -8 -7 -14l-261 -233q-4 -4 -7 -4q-7 0 -7 10v53q0 8 7 14l261 233q3 3 7 3z" />
    <glyph glyph-name="uni0338" unicode="&#x338;" 
d="M-514 -37q-2 4 1 10l412 769q3 8 13 8h50q7 0 9 -4t-1 -10l-412 -769q-3 -8 -13 -8h-50q-7 0 -9 4z" />
    <glyph glyph-name="tonos" unicode="&#x384;" horiz-adv-x="180" 
d="M6 601q-3 4 1 10l81 133q5 7 14 7h63q9 0 9 -6q0 -3 -3 -8l-96 -133q-5 -7 -14 -7h-45q-7 0 -10 4z" />
    <glyph glyph-name="dieresistonos" unicode="&#x385;" horiz-adv-x="332" 
d="M112.5 601.5q-2.5 3.5 -1.5 9.5l53 131q3 9 13 9h51q6 0 8 -4t0 -9l-68 -132q-3 -8 -13 -8h-34q-6 0 -8.5 3.5zM76 631q-12 -12 -32 -12q-19 0 -31.5 12t-12.5 31q0 20 12.5 32t31.5 12q20 0 32 -12t12 -32q0 -19 -12 -31zM320 631q-12 -12 -31 -12q-20 0 -32.5 12
t-12.5 31q0 20 12.5 32t32.5 12q19 0 31 -12t12 -32q0 -19 -12 -31z" />
    <glyph glyph-name="Alphatonos" unicode="&#x386;" horiz-adv-x="658" 
d="M36 565q-3 4 1 10l81 133q5 7 14 7h63q9 0 9 -6q0 -3 -3 -8l-96 -133q-5 -7 -14 -7h-45q-7 0 -10 4zM48 13l249 693q3 9 12 9h79q10 0 13 -9l248 -693q1 -2 1 -5q0 -8 -10 -8h-67q-10 0 -13 9l-61 178h-300l-62 -178q-3 -9 -13 -9h-67q-12 0 -9 13zM473 266l-122 354h-4
l-122 -354h248z" />
    <glyph glyph-name="Epsilontonos" unicode="&#x388;" horiz-adv-x="736" 
d="M10 565q-3 4 1 10l81 133q5 7 14 7h63q9 0 9 -6q0 -3 -3 -8l-96 -133q-5 -7 -14 -7h-45q-7 0 -10 4zM676 78q11 0 11 -11v-56q0 -11 -11 -11h-418q-12 0 -12 11v693q0 11 12 11h404q11 0 11 -11v-56q0 -11 -11 -11h-330v-234h307q11 0 11 -12v-55q0 -12 -11 -12h-307
v-246h344z" />
    <glyph glyph-name="Etatonos" unicode="&#x389;" horiz-adv-x="844" 
d="M10 565q-3 4 1 10l81 133q5 7 14 7h63q9 0 9 -6q0 -3 -3 -8l-96 -133q-5 -7 -14 -7h-45q-7 0 -10 4zM682 715h62q11 0 11 -11v-693q0 -11 -11 -11h-62q-12 0 -12 11v313h-334v-313q0 -11 -11 -11h-62q-12 0 -12 11v693q0 11 12 11h62q11 0 11 -11v-302h334v302
q0 11 12 11z" />
    <glyph glyph-name="Iotatonos" unicode="&#x38a;" horiz-adv-x="432" 
d="M10 565q-3 4 1 10l81 133q5 7 14 7h63q9 0 9 -6q0 -3 -3 -8l-96 -133q-5 -7 -14 -7h-45q-7 0 -10 4zM332 0h-62q-12 0 -12 11v693q0 11 12 11h62q11 0 11 -11v-693q0 -11 -11 -11z" />
    <glyph glyph-name="Omicrontonos" unicode="&#x38c;" horiz-adv-x="797" 
d="M12 565q-3 4 1 10l81 133q5 7 14 7h63q9 0 9 -6q0 -3 -3 -8l-96 -133q-5 -7 -14 -7h-45q-7 0 -10 4zM700 112q-33 -59 -94.5 -91t-145.5 -32t-145.5 32t-94.5 91t-33 139v211q0 123 73 193.5t200 70.5t200 -70.5t73 -193.5v-211q0 -80 -33 -139zM322 118q49 -48 138 -48
t137.5 48t48.5 133v211q0 88 -48.5 136.5t-137.5 48.5t-138 -48.5t-49 -136.5v-211q0 -85 49 -133z" />
    <glyph glyph-name="Upsilontonos" unicode="&#x38e;" horiz-adv-x="800" 
d="M20 565q-3 4 1 10l81 133q5 7 14 7h63q9 0 9 -6q0 -3 -3 -8l-96 -133q-5 -7 -14 -7h-45q-7 0 -10 4zM473 11v261l-235 429q-2 4 -2 6q0 8 10 8h72q10 0 13 -8l185 -357l184 357q3 8 13 8h72q7 0 9 -4t-1 -10l-234 -431v-259q0 -11 -12 -11h-63q-11 0 -11 11z" />
    <glyph glyph-name="Omegatonos" unicode="&#x38f;" horiz-adv-x="797" 
d="M162 11v53q0 12 12 12h84q-42 38 -65.5 88.5t-23.5 109.5v180q0 128 73 200t203 72t202.5 -72t72.5 -200v-180q0 -59 -23.5 -109.5t-65.5 -88.5h85q11 0 11 -12v-53q0 -11 -11 -11h-210q-11 0 -11 11v43q0 9 9 13q60 24 94 77.5t34 129.5v180q0 94 -48 143.5t-139 49.5
t-139.5 -49.5t-48.5 -143.5v-180q0 -76 33.5 -129.5t94.5 -77.5q10 -5 10 -13v-43q0 -11 -12 -11h-209q-12 0 -12 11zM14 565q-3 4 1 10l81 133q5 7 14 7h63q9 0 9 -6q0 -3 -3 -8l-96 -133q-5 -7 -14 -7h-45q-7 0 -10 4z" />
    <glyph glyph-name="iotadieresistonos" unicode="&#x390;" horiz-adv-x="220" 
d="M67.5 601.5q-2.5 3.5 -0.5 9.5l47 120q3 9 13 9h47q7 0 9 -4t-1 -10l-62 -120q-4 -8 -13 -8h-31q-6 0 -8.5 3.5zM43.5 634.5q-11.5 -11.5 -30.5 -11.5q-18 0 -30 11.5t-12 30.5t12 30.5t30 11.5q19 0 30.5 -11.5t11.5 -30.5t-11.5 -30.5zM261 634.5q-11 -11.5 -30 -11.5
t-30.5 11.5t-11.5 30.5t11.5 30.5t30.5 11.5t30 -11.5t11 -30.5t-11 -30.5zM69 11v494q0 5 3.5 8.5t8.5 3.5h59q11 0 11 -12v-494q0 -11 -11 -11h-59q-12 0 -12 11z" />
    <glyph glyph-name="Alpha" unicode="&#x391;" horiz-adv-x="619" 
d="M9 13l249 693q3 9 12 9h79q10 0 13 -9l248 -693q1 -2 1 -5q0 -8 -10 -8h-67q-10 0 -13 9l-61 178h-300l-62 -178q-3 -9 -13 -9h-67q-12 0 -9 13zM434 266l-122 354h-4l-122 -354h248z" />
    <glyph glyph-name="Beta" unicode="&#x392;" horiz-adv-x="637" 
d="M535.5 438.5q-22.5 -38.5 -62.5 -57.5q55 -20 85 -65.5t30 -108.5q0 -98 -64.5 -152.5t-181.5 -54.5h-241q-12 0 -12 11v693q0 11 12 11h242q105 0 160 -50.5t55 -137.5q0 -50 -22.5 -88.5zM439 608.5q-33 29.5 -96 29.5h-169v-222h175q57 0 90 28t33 83q0 52 -33 81.5z
M460.5 109.5q41.5 32.5 41.5 97.5q0 61 -38.5 96.5t-114.5 35.5h-175v-262h169q76 0 117.5 32.5z" />
    <glyph glyph-name="Gamma" unicode="&#x393;" horiz-adv-x="510" 
d="M89 11v693q0 11 12 11h385q12 0 12 -11v-56q0 -11 -12 -11h-311v-626q0 -11 -12 -11h-62q-12 0 -12 11z" />
    <glyph glyph-name="uni0394" unicode="&#x394;" horiz-adv-x="624" 
d="M9 13l248 693q3 9 13 9h85q10 0 13 -9l247 -693q1 -2 1 -5q0 -8 -10 -8h-588q-12 0 -9 13zM503 78l-189 542h-3l-189 -542h381z" />
    <glyph glyph-name="Epsilon" unicode="&#x395;" horiz-adv-x="579" 
d="M519 78q11 0 11 -11v-56q0 -11 -11 -11h-418q-12 0 -12 11v693q0 11 12 11h404q11 0 11 -11v-56q0 -11 -11 -11h-330v-234h307q11 0 11 -12v-55q0 -12 -11 -12h-307v-246h344z" />
    <glyph glyph-name="Zeta" unicode="&#x396;" horiz-adv-x="588" 
d="M36 11v39q0 9 4 14l388 573h-364q-12 0 -12 11v56q0 11 12 11h467q11 0 11 -11v-38q0 -8 -4 -15l-387 -573h389q11 0 11 -11v-56q0 -11 -11 -11h-493q-11 0 -11 11z" />
    <glyph glyph-name="Eta" unicode="&#x397;" horiz-adv-x="682" 
d="M520 715h62q11 0 11 -11v-693q0 -11 -11 -11h-62q-12 0 -12 11v313h-334v-313q0 -11 -11 -11h-62q-12 0 -12 11v693q0 11 12 11h62q11 0 11 -11v-302h334v302q0 11 12 11z" />
    <glyph glyph-name="Theta" unicode="&#x398;" horiz-adv-x="680" 
d="M582.5 112q-33.5 -59 -95.5 -91t-147 -32t-147 32t-95.5 91t-33.5 139v211q0 123 74 193.5t202 70.5t202 -70.5t74 -193.5v-211q0 -80 -33.5 -139zM200 118q50 -48 140 -48t139.5 48t49.5 133v211q0 88 -49.5 136.5t-139.5 48.5q-91 0 -140.5 -48.5t-49.5 -136.5v-211
q0 -85 50 -133zM195 340v47q0 11 12 11h266q12 0 12 -11v-47q0 -12 -12 -12h-266q-12 0 -12 12z" />
    <glyph glyph-name="Iota" unicode="&#x399;" horiz-adv-x="263" 
d="M163 0h-62q-12 0 -12 11v693q0 11 12 11h62q11 0 11 -11v-693q0 -11 -11 -11z" />
    <glyph glyph-name="Kappa" unicode="&#x39a;" horiz-adv-x="614" 
d="M89 11v693q0 11 12 11h62q11 0 11 -11v-331l309 335q7 7 15 7h80q8 0 10 -4.5t-3 -9.5l-287 -308l307 -379q3 -4 3 -7q0 -7 -10 -7h-81q-10 0 -14 7l-262 326l-67 -69v-253q0 -11 -11 -11h-62q-12 0 -12 11z" />
    <glyph glyph-name="Lambda" unicode="&#x39b;" horiz-adv-x="624" 
d="M9 13l248 693q3 9 13 9h85q10 0 13 -9l247 -693q1 -2 1 -5q0 -8 -10 -8h-67q-11 0 -13 9l-149 425l-63 187h-3l-63 -186l-149 -426q-3 -9 -13 -9h-68q-12 0 -9 13z" />
    <glyph glyph-name="Mu" unicode="&#x39c;" horiz-adv-x="853" 
d="M89 11v693q0 11 12 11h76q9 0 13 -8l155 -282q40 -74 80 -158h3q42 88 80 157l156 283q3 8 13 8h76q11 0 11 -11v-693q0 -11 -11 -11h-63q-11 0 -11 11v302q0 101 6 271l-2 1q-25 -50 -91 -176l-125 -232q-5 -8 -14 -8h-53q-10 0 -13 8l-125 232q-58 108 -91 176l-2 -1
l1 -49q4 -146 4 -222v-302q0 -11 -11 -11h-62q-12 0 -12 11z" />
    <glyph glyph-name="Nu" unicode="&#x39d;" horiz-adv-x="704" 
d="M89 11v693q0 11 12 11h70q9 0 14 -8l265 -432l17 -28q46 -77 67 -118l3 1q-6 125 -6 271v303q0 11 11 11h62q11 0 11 -11v-693q0 -11 -11 -11h-70q-10 0 -14 7l-263 417q-50 81 -87 152l-2 -1q6 -158 6 -261v-303q0 -11 -12 -11h-61q-12 0 -12 11z" />
    <glyph glyph-name="Xi" unicode="&#x39e;" horiz-adv-x="558" 
d="M60 648v56q0 11 11 11h415q12 0 12 -11v-56q0 -11 -12 -11h-415q-11 0 -11 11zM83 335v55q0 11 11 11h370q12 0 12 -11v-55q0 -12 -12 -12h-370q-11 0 -11 12zM48 11v57q0 11 11 11h439q12 0 12 -11v-57q0 -11 -12 -11h-439q-11 0 -11 11z" />
    <glyph glyph-name="Omicron" unicode="&#x39f;" horiz-adv-x="674" 
d="M577 112q-33 -59 -94.5 -91t-145.5 -32t-145.5 32t-94.5 91t-33 139v211q0 123 73 193.5t200 70.5t200 -70.5t73 -193.5v-211q0 -80 -33 -139zM199 118q49 -48 138 -48t137.5 48t48.5 133v211q0 88 -48.5 136.5t-137.5 48.5t-138 -48.5t-49 -136.5v-211q0 -85 49 -133z
" />
    <glyph glyph-name="Pi" unicode="&#x3a0;" horiz-adv-x="685" 
d="M89 11v693q0 11 12 11h483q12 0 12 -11v-693q0 -11 -12 -11h-63q-11 0 -11 11v626h-335v-626q0 -11 -11 -11h-63q-12 0 -12 11z" />
    <glyph glyph-name="Rho" unicode="&#x3a1;" horiz-adv-x="625" 
d="M524 653q65 -62 65 -172q0 -111 -65 -173t-183 -62h-167v-235q0 -11 -11 -11h-63q-11 0 -11 11v693q0 11 11 11h241q118 0 183 -62zM503 481q0 155 -171 155h-158v-311h158q171 0 171 156z" />
    <glyph glyph-name="Sigma" unicode="&#x3a3;" horiz-adv-x="552" 
d="M508 704v-55q0 -11 -12 -11h-331l114 -151l81 -110q2 -2 2 -8t-2 -9l-140 -197q-33 -49 -64 -85h340q12 0 12 -12v-55q0 -11 -12 -11h-445q-11 0 -11 11v35q0 9 4 14l221 309l-220 290q-5 7 -5 15v30q0 11 11 11h445q12 0 12 -11z" />
    <glyph glyph-name="Tau" unicode="&#x3a4;" horiz-adv-x="561" 
d="M549 704v-56q0 -11 -12 -11h-214v-626q0 -11 -12 -11h-62q-12 0 -12 11v626h-214q-11 0 -11 11v56q0 11 11 11h514q12 0 12 -11z" />
    <glyph glyph-name="Upsilon" unicode="&#x3a5;" horiz-adv-x="568" 
d="M241 11v261l-235 429q-2 4 -2 6q0 8 10 8h72q10 0 13 -8l185 -357l184 357q3 8 13 8h72q7 0 9 -4t-1 -10l-234 -431v-259q0 -11 -12 -11h-63q-11 0 -11 11z" />
    <glyph glyph-name="Phi" unicode="&#x3a6;" horiz-adv-x="857" 
d="M386 -55v77h-59q-70 0 -130.5 29t-97.5 90t-37 152v126q0 91 37 152t97.5 89.5t130.5 28.5h59v71q0 12 11 12h63q11 0 11 -12v-71h59q70 0 130.5 -28.5t97.5 -89.5t37 -152v-126q0 -91 -37 -152t-97.5 -90t-130.5 -29h-59v-77q0 -11 -11 -11h-63q-11 0 -11 11zM201.5 149
q51.5 -47 129.5 -47h55v507h-55q-79 0 -130 -45.5t-51 -144.5v-126q0 -97 51.5 -144zM526 102q78 0 130 47t52 144v126q0 99 -51.5 144.5t-130.5 45.5h-55v-507h55z" />
    <glyph glyph-name="Chi" unicode="&#x3a7;" horiz-adv-x="590" 
d="M571 7q0 -7 -9 -7h-77q-9 0 -14 8l-175 284l-176 -284q-5 -8 -14 -8h-77q-7 0 -9.5 4.5t1.5 9.5l225 345l-214 342q-2 4 -2 6q0 8 10 8h76q8 0 13 -8l167 -279l166 279q5 8 13 8h76q6 0 8.5 -4.5t-1.5 -9.5l-213 -342l224 -345q2 -2 2 -7z" />
    <glyph glyph-name="Psi" unicode="&#x3a8;" horiz-adv-x="816" 
d="M364 11v146h-56q-66 0 -123 28t-91.5 83t-34.5 131v305q0 11 11 11h64q12 0 12 -11v-305q0 -78 48 -120t123 -42h47v467q0 11 12 11h63q11 0 11 -11v-467h49q75 0 123 42t48 120v305q0 11 11 11h65q11 0 11 -11v-305q0 -76 -34.5 -131t-91.5 -83t-123 -28h-58v-146
q0 -11 -11 -11h-63q-12 0 -12 11z" />
    <glyph glyph-name="uni03A9" unicode="&#x3a9;" horiz-adv-x="705" 
d="M70 11v53q0 12 12 12h84q-42 38 -65.5 88.5t-23.5 109.5v180q0 128 73 200t203 72t202.5 -72t72.5 -200v-180q0 -59 -23.5 -109.5t-65.5 -88.5h85q11 0 11 -12v-53q0 -11 -11 -11h-210q-11 0 -11 11v43q0 9 9 13q60 24 94 77.5t34 129.5v180q0 94 -48 143.5t-139 49.5
t-139.5 -49.5t-48.5 -143.5v-180q0 -76 33.5 -129.5t94.5 -77.5q10 -5 10 -13v-43q0 -11 -12 -11h-209q-12 0 -12 11z" />
    <glyph glyph-name="Iotadieresis" unicode="&#x3aa;" horiz-adv-x="263" 
d="M78 821.5q-14 -13.5 -35 -13.5t-35 13.5t-14 35.5t14 36t35 14t35 -14t14 -36t-14 -35.5zM255 821.5q-14 -13.5 -36 -13.5t-35.5 13.5t-13.5 35.5t13.5 36t35.5 14t36 -14t14 -36t-14 -35.5zM89 11v693q0 11 11 11h62q12 0 12 -11v-693q0 -11 -12 -11h-62q-11 0 -11 11z
" />
    <glyph glyph-name="Upsilondieresis" unicode="&#x3ab;" horiz-adv-x="568" 
d="M217 811.5q-14 -13.5 -35 -13.5q-22 0 -35.5 13.5t-13.5 35.5t13.5 36t35.5 14q21 0 35 -14t14 -36t-14 -35.5zM421 811.5q-14 -13.5 -36 -13.5t-35.5 13.5t-13.5 35.5t13.5 36t35.5 14t36 -14t14 -36t-14 -35.5zM241 11v261l-235 429q-2 4 -2 6q0 8 10 8h72q10 0 13 -8
l185 -357l184 357q3 8 13 8h72q7 0 9 -4t-1 -10l-234 -431v-259q0 -11 -12 -11h-63q-11 0 -11 11z" />
    <glyph glyph-name="alphatonos" unicode="&#x3ac;" horiz-adv-x="541" 
d="M328 6.5q-40 -17.5 -84 -17.5q-86 0 -140 51t-54 155v124q0 68 30 115t80 70.5t112 23.5q87 0 192 -36q9 -3 9 -13v-468q0 -11 -11 -11h-49q-10 0 -12 11l-4 46q-29 -33 -69 -50.5zM163.5 94q30.5 -32 92.5 -32q34 0 70.5 17t64.5 48v311q-60 17 -122 17q-60 0 -98 -35.5
t-38 -100.5v-124q0 -69 30.5 -101zM215 601q-3 4 1 10l81 133q5 7 14 7h63q9 0 9 -6q0 -3 -3 -8l-96 -133q-5 -7 -14 -7h-45q-7 0 -10 4z" />
    <glyph glyph-name="epsilontonos" unicode="&#x3ad;" horiz-adv-x="486" 
d="M408 125q5 3 8 3q4 0 8 -4l32 -38q4 -4 4 -8t-4 -8q-47 -45 -96.5 -63t-110.5 -18q-59 0 -106 21t-73.5 58.5t-26.5 83.5q0 43 22 74t66 47q-70 33 -70 105q0 43 24.5 77t68 53.5t100.5 19.5t104.5 -18.5t83.5 -48.5q4 -3 4 -8q0 -4 -3 -9l-30 -38q-4 -4 -9 -4q-3 0 -8 3
q-61 51 -141 51q-51 0 -81.5 -20t-30.5 -59q0 -36 26 -57t71 -21h99q11 0 11 -12v-40q0 -12 -11 -12h-100q-54 0 -83.5 -21t-29.5 -61q0 -43 34 -67t93 -24q82 0 155 63zM192 601q-3 4 1 10l81 133q5 7 14 7h63q9 0 9 -6q0 -3 -3 -8l-96 -133q-5 -7 -14 -7h-45q-7 0 -10 4z
" />
    <glyph glyph-name="etatonos" unicode="&#x3ae;" horiz-adv-x="557" 
d="M225 601q-3 4 1 10l81 133q5 7 14 7h63q9 0 9 -6q0 -3 -3 -8l-96 -133q-5 -7 -14 -7h-45q-7 0 -10 4zM68 11v464q0 10 8 14q93 39 192 39q105 0 165 -53t60 -163v-301q0 -11 -12 -11h-59q-11 0 -11 11v299q0 76 -36.5 110t-106.5 34q-62 0 -118 -18v-425q0 -11 -12 -11
h-59q-11 0 -11 11z" />
    <glyph glyph-name="iotatonos" unicode="&#x3af;" horiz-adv-x="220" 
d="M59 601q-3 4 1 10l81 133q5 7 14 7h63q9 0 9 -6q0 -3 -3 -8l-96 -133q-5 -7 -14 -7h-45q-7 0 -10 4zM69 11v494q0 12 11 12h59q12 0 12 -12v-494q0 -11 -12 -11h-59q-11 0 -11 11z" />
    <glyph glyph-name="upsilondieresistonos" unicode="&#x3b0;" horiz-adv-x="558" 
d="M465.5 84q-27.5 -45 -76 -70t-108.5 -25q-61 0 -110.5 24.5t-77.5 69.5t-28 104v318q0 12 12 12h59q11 0 11 -12v-318q0 -60 36 -92t96 -33q60 0 96 32.5t36 92.5v318q0 12 11 12h59q12 0 12 -12v-318q0 -58 -27.5 -103zM226.5 601.5q-2.5 3.5 -1.5 9.5l53 131q3 9 13 9
h51q6 0 8 -4t0 -9l-68 -132q-3 -8 -13 -8h-34q-6 0 -8.5 3.5zM190 631q-12 -12 -32 -12q-19 0 -31.5 12t-12.5 31q0 20 12.5 32t31.5 12q20 0 32 -12t12 -32q0 -19 -12 -31zM434 631q-12 -12 -31 -12q-20 0 -32.5 12t-12.5 31q0 20 12.5 32t32.5 12q19 0 31 -12t12 -32
q0 -19 -12 -31z" />
    <glyph glyph-name="alpha" unicode="&#x3b1;" horiz-adv-x="541" 
d="M328 6.5q-40 -17.5 -84 -17.5q-86 0 -140 51t-54 155v124q0 68 30 115t80 70.5t112 23.5q87 0 192 -36q9 -3 9 -13v-468q0 -11 -11 -11h-49q-10 0 -12 11l-4 46q-29 -33 -69 -50.5zM163.5 94q30.5 -32 92.5 -32q34 0 70.5 17t64.5 48v311q-60 17 -122 17q-60 0 -98 -35.5
t-38 -100.5v-124q0 -69 30.5 -101z" />
    <glyph glyph-name="beta" unicode="&#x3b2;" horiz-adv-x="539" 
d="M444.5 438q-25.5 -40 -68.5 -63q57 -18 88 -63t31 -113q0 -102 -60.5 -156t-161.5 -54q-66 0 -124 29v-196q0 -12 -11 -12h-58q-11 0 -11 12v707q0 96 55 146.5t144 50.5q91 0 146 -51.5t55 -142.5q1 -54 -24.5 -94zM208 70q32 -8 63 -8q72 0 107.5 33.5t35.5 104.5
q0 65 -35 97t-108 32h-60q-12 0 -12 11v50q0 5 3.5 8.5t8.5 3.5h61q53 0 85 34.5t32 91.5q0 62 -33 93.5t-88 31.5q-57 0 -88 -34.5t-31 -91.5v-433q27 -16 59 -24z" />
    <glyph glyph-name="gamma" unicode="&#x3b3;" horiz-adv-x="499" 
d="M209 -180v188l-193 495q-1 2 -1 5q0 4 3 6.5t7 2.5h64q5 0 8.5 -2.5t4.5 -6.5l85 -235q27 -73 62 -185h2l14 43q28 91 47 142l84 235q4 9 13 9h65q6 0 8.5 -4t0.5 -10l-193 -495v-188q0 -11 -11 -11h-58q-12 0 -12 11z" />
    <glyph glyph-name="delta" unicode="&#x3b4;" horiz-adv-x="535" 
d="M196 520.5q44 -25.5 120 -50.5q81 -27 126 -73t45 -120v-97q0 -60 -30.5 -103.5t-80.5 -65.5t-107 -22q-58 0 -108.5 22t-81.5 65t-31 103v102q0 64 35.5 109t95.5 67q-52 26 -80 56.5t-28 71.5q0 40 23.5 72t70 50.5t110.5 18.5q93 0 170 -44q9 -6 5 -15l-25 -48
q-6 -9 -17 -4q-69 38 -138 38q-54 0 -86 -19t-32 -52q0 -36 44 -61.5zM365.5 92.5q39.5 30.5 39.5 90.5v91q0 58 -39 92t-102 47q-61 -5 -97 -40.5t-36 -93.5v-98q0 -56 39.5 -87.5t98.5 -31.5q57 0 96.5 30.5z" />
    <glyph glyph-name="epsilon" unicode="&#x3b5;" horiz-adv-x="486" 
d="M408 125q5 3 8 3q4 0 8 -4l32 -38q4 -4 4 -8t-4 -8q-47 -45 -96.5 -63t-110.5 -18q-59 0 -106 21t-73.5 58.5t-26.5 83.5q0 43 22 74t66 47q-70 33 -70 105q0 43 24.5 77t68 53.5t100.5 19.5t104.5 -18.5t83.5 -48.5q4 -3 4 -8q0 -4 -3 -9l-30 -38q-4 -4 -9 -4q-3 0 -8 3
q-61 51 -141 51q-51 0 -81.5 -20t-30.5 -59q0 -36 26 -57t71 -21h99q11 0 11 -12v-40q0 -12 -11 -12h-100q-54 0 -83.5 -21t-29.5 -61q0 -43 34 -67t93 -24q82 0 155 63z" />
    <glyph glyph-name="zeta" unicode="&#x3b6;" horiz-adv-x="465" 
d="M342 -182q-4 -4 -8 -4q-3 0 -8 3l-38 30q-5 5 -5 9q0 2 4 8q23 26 36 48.5t13 36.5q0 18 -19.5 28t-64.5 23q-62 19 -104 40t-73.5 65t-31.5 116q0 107 74 217.5t211 201.5l-1 1h-246q-12 0 -12 12v51q0 11 12 11h367q11 0 11 -11v-33q0 -10 -8 -14q-154 -96 -240 -209.5
t-86 -212.5q0 -64 32.5 -100t89.5 -59q15 -6 27.5 -10.5t21.5 -7.5q60 -20 89.5 -40t29.5 -58q0 -59 -73 -142z" />
    <glyph glyph-name="eta" unicode="&#x3b7;" horiz-adv-x="557" 
d="M68 11v464q0 10 8 14q93 39 192 39q105 0 165 -53t60 -163v-301q0 -11 -12 -11h-59q-11 0 -11 11v299q0 76 -36.5 110t-106.5 34q-62 0 -118 -18v-425q0 -11 -12 -11h-59q-11 0 -11 11z" />
    <glyph glyph-name="theta" unicode="&#x3b8;" horiz-adv-x="578" 
d="M452.5 45.5q-61.5 -56.5 -160.5 -56.5q-101 0 -164.5 56t-63.5 158v307q0 68 29.5 116.5t81 74t116.5 25.5q64 0 115 -25.5t79.5 -74.5t28.5 -116v-307q0 -101 -61.5 -157.5zM431 401v109q0 69 -38 106t-101 37q-65 0 -105 -37t-40 -106v-109h284zM185 97.5
q38 -35.5 107 -35.5q66 0 103 36t37 102v129h-285v-129q0 -67 38 -102.5z" />
    <glyph glyph-name="iota" unicode="&#x3b9;" horiz-adv-x="220" 
d="M69 11v494q0 12 11 12h59q12 0 12 -12v-494q0 -11 -12 -11h-59q-11 0 -11 11z" />
    <glyph glyph-name="kappa" unicode="&#x3ba;" horiz-adv-x="495" 
d="M395 7l-189 227l-57 -57v-166q0 -11 -12 -11h-57q-11 0 -11 11v494q0 12 11 12h57q5 0 8.5 -3.5t3.5 -8.5v-227l230 233q5 6 14 6h72q7 0 9 -4.5t-3 -9.5l-210 -212l226 -277q3 -4 3 -7q0 -7 -10 -7h-70q-9 0 -15 7z" />
    <glyph glyph-name="lambda" unicode="&#x3bb;" horiz-adv-x="557" 
d="M65 11v282q0 103 59.5 151.5t157.5 48.5q61 0 127 -25v70q0 56 -35.5 85.5t-96.5 29.5q-40 0 -78.5 -13t-64.5 -34q-6 -4 -8 -4q-4 0 -9 5l-28 41q-3 3 -3 7q0 5 4 9q33 29 83 45.5t105 16.5q91 0 150.5 -49t59.5 -144v-522q0 -11 -11 -11h-59q-12 0 -12 11v383
q-63 26 -123 26q-66 0 -101 -30t-35 -98v-281q0 -11 -11 -11h-59q-12 0 -12 11z" />
    <glyph glyph-name="uni03BC" unicode="&#x3bc;" horiz-adv-x="567" 
d="M69 -180v685q0 12 11 12h59q12 0 12 -12v-309q0 -58 35 -96t97 -38q63 0 98 37.5t35 96.5v309q0 12 12 12h59q11 0 11 -12v-494q0 -11 -11 -11h-46q-10 0 -13 10l-5 55q-15 -34 -53.5 -55t-86.5 -21q-46 0 -81 19.5t-53 51.5q0 -13 1 -22l1 -41v-177q0 -11 -12 -11h-59
q-11 0 -11 11z" />
    <glyph glyph-name="nu" unicode="&#x3bd;" horiz-adv-x="500" 
d="M199 9l-183 494q-1 2 -1 5q0 4 3 6.5t7 2.5h64q9 0 13 -9l99 -285q11 -28 17 -50q26 -73 31 -86h1q20 61 47 136l100 285q1 4 4.5 6.5t8.5 2.5h64q6 0 8.5 -4t0.5 -10l-184 -494q-4 -9 -14 -9h-73q-8 0 -13 9z" />
    <glyph glyph-name="xi" unicode="&#x3be;" horiz-adv-x="461" 
d="M347 -181q-3 -5 -8 -5q-3 0 -8 3l-38 30q-5 5 -5 9q0 3 3 8q49 52 49 83q0 17 -20 27.5t-67 25.5q-63 21 -105 42t-74 63t-32 108q0 62 35 106t97 61q-56 22 -85 63.5t-29 97.5q0 53 26 95t73.5 66t109.5 24q105 0 184 -64q9 -6 3 -16l-27 -39q-7 -11 -16 -3
q-33 25 -68.5 37t-77.5 12q-53 0 -89 -30.5t-36 -82.5q0 -53 39 -87.5t99 -34.5h80q11 0 11 -12v-51q0 -12 -11 -12h-90q-62 0 -103.5 -36.5t-41.5 -92.5q0 -49 30 -79t84 -52q17 -7 51 -19q45 -16 70.5 -28t42.5 -30.5t17 -45.5q0 -59 -73 -141z" />
    <glyph glyph-name="omicron" unicode="&#x3bf;" horiz-adv-x="540" 
d="M430.5 42.5q-59.5 -53.5 -160.5 -53.5q-67 0 -116.5 24.5t-76.5 69t-27 102.5v144q0 58 27 103.5t77 70.5t116 25q67 0 116.5 -25t76.5 -70.5t27 -103.5v-144q0 -89 -59.5 -142.5zM168.5 95q35.5 -33 101.5 -33t102 33t36 90v144q0 58 -36 91.5t-102 33.5t-101.5 -33.5
t-35.5 -91.5v-144q0 -57 35.5 -90z" />
    <glyph glyph-name="pi" unicode="&#x3c0;" horiz-adv-x="546" 
d="M477 505v-494q0 -11 -11 -11h-59q-12 0 -12 11v432h-244v-432q0 -11 -11 -11h-59q-12 0 -12 11v494q0 12 12 12h385q11 0 11 -12z" />
    <glyph glyph-name="rho" unicode="&#x3c1;" horiz-adv-x="545" 
d="M65 -178v495q0 102 59.5 156.5t151.5 54.5q60 0 110 -23.5t79.5 -71t29.5 -115.5v-133q0 -95 -60.5 -145.5t-159.5 -50.5q-65 0 -129 38v-205q0 -12 -12 -12h-57q-12 0 -12 12zM272 62q65 0 103 31.5t38 94.5v128q0 70 -36.5 104.5t-100.5 34.5q-62 0 -96 -35t-34 -105
v-210q59 -43 126 -43z" />
    <glyph glyph-name="uni03C2" unicode="&#x3c2;" horiz-adv-x="454" 
d="M152.5 138.5q22.5 -27.5 54 -43t83.5 -33.5q65 -22 97 -43t32 -59q0 -60 -73 -142q-8 -9 -16 -2l-38 31q-5 5 -5 8q0 4 4 8q22 25 35.5 48t13.5 36q0 16 -20 26.5t-64 24.5q-61 20 -102.5 40.5t-72.5 61t-31 104.5v142q0 57 27.5 98.5t73 62.5t98.5 21q106 0 181 -51
q9 -6 2 -15l-28 -43q-7 -10 -15 -3q-63 38 -139 38q-50 0 -85 -30t-35 -80v-137q0 -41 22.5 -68.5z" />
    <glyph glyph-name="sigma" unicode="&#x3c3;" horiz-adv-x="559" 
d="M430.5 43.5q-58.5 -54.5 -158.5 -54.5q-103 0 -163 54t-60 146v124q0 61 27 107t76.5 71.5t116.5 25.5h252q11 0 11 -12v-50q0 -12 -11 -12h-93q29 -20 45 -54t16 -76v-124q0 -91 -58.5 -145.5zM166.5 96q35.5 -33 102.5 -33q68 0 103.5 33t35.5 93v124q0 62 -36.5 95.5
t-102.5 34.5q-67 0 -102.5 -34.5t-35.5 -95.5v-124q0 -60 35.5 -93z" />
    <glyph glyph-name="tau" unicode="&#x3c4;" horiz-adv-x="449" 
d="M184 11v432h-156q-5 0 -8.5 3.5t-3.5 8.5v50q0 5 3.5 8.5t8.5 3.5h393q12 0 12 -12v-50q0 -12 -12 -12h-155v-432q0 -11 -11 -11h-60q-11 0 -11 11z" />
    <glyph glyph-name="upsilon" unicode="&#x3c5;" horiz-adv-x="558" 
d="M465.5 84q-27.5 -45 -76 -70t-108.5 -25q-61 0 -110.5 24.5t-77.5 69.5t-28 104v318q0 12 12 12h59q11 0 11 -12v-318q0 -60 36 -92t96 -33q60 0 96 32.5t36 92.5v318q0 12 11 12h59q12 0 12 -12v-318q0 -58 -27.5 -103z" />
    <glyph glyph-name="phi" unicode="&#x3c6;" horiz-adv-x="735" 
d="M327 -178v178h-80q-86 0 -141.5 51.5t-55.5 147.5v119q0 62 26.5 107t72.5 68.5t105 23.5h73v187q0 11 11 11h59q11 0 11 -11v-187h80q90 0 143.5 -53t53.5 -146v-119q0 -64 -26 -109t-69 -67.5t-94 -22.5h-88v-178q0 -12 -11 -12h-59q-11 0 -11 12zM260 74h67v369h-70
q-61 0 -93 -32t-32 -96v-114q0 -127 128 -127zM604 201v114q0 64 -32.5 96t-92.5 32h-71v-369h67q129 0 129 127z" />
    <glyph glyph-name="chi" unicode="&#x3c7;" horiz-adv-x="487" 
d="M470 7q0 -7 -9 -7h-74q-9 0 -13 7l-130 197l-130 -197q-4 -7 -14 -7h-74q-7 0 -9 4t2 10l174 247l-163 242q-2 2 -2 7q0 7 9 7h70q8 0 14 -8l123 -190l123 190q6 8 13 8h70q7 0 9.5 -4.5t-1.5 -9.5l-164 -242l174 -247q2 -3 2 -7z" />
    <glyph glyph-name="psi" unicode="&#x3c8;" horiz-adv-x="759" 
d="M339 -180v180h-59q-59 0 -108 23t-78.5 69.5t-29.5 113.5v299q0 12 11 12h59q12 0 12 -12v-296q0 -135 148 -135h45v431q0 12 11 12h58q5 0 8.5 -3.5t3.5 -8.5v-431h45q148 0 148 135v296q0 12 11 12h60q11 0 11 -12v-299q0 -67 -29.5 -113.5t-79 -69.5t-107.5 -23h-59
v-180q0 -11 -12 -11h-58q-11 0 -11 11z" />
    <glyph glyph-name="omega" unicode="&#x3c9;" horiz-adv-x="759" 
d="M538 527q4 2 8 1q73 -14 117 -63.5t44 -125.5v-165q0 -56 -26 -98t-67 -64.5t-87 -22.5q-104 0 -147 95q-21 -45 -58 -70t-90 -25q-46 0 -87.5 22.5t-67.5 64.5t-26 98v165q0 76 44.5 125.5t116.5 63.5l4 1q8 0 10 -9l13 -52l1 -4q0 -6 -9 -9q-46 -8 -72 -39.5t-26 -79.5
v-159q0 -51 30 -82.5t72 -31.5q49 0 76.5 30.5t27.5 83.5v148q0 11 11 11h59q11 0 11 -11v-148q0 -53 27.5 -83.5t76.5 -30.5q42 0 71.5 31.5t29.5 82.5v159q0 48 -26 79.5t-71 39.5q-10 3 -9 13l14 52q1 5 5 7z" />
    <glyph glyph-name="iotadieresis" unicode="&#x3ca;" horiz-adv-x="220" 
d="M73 629q-13 -13 -33 -13q-19 0 -32.5 13.5t-13.5 32.5q0 20 13 33.5t33 13.5t33 -13.5t13 -33.5t-13 -33zM211.5 629q-13.5 -13 -33.5 -13t-33 13t-13 33t13 33.5t33 13.5t33.5 -13.5t13.5 -33.5t-13.5 -33zM69 11v494q0 12 11 12h59q12 0 12 -12v-494q0 -11 -12 -11h-59
q-11 0 -11 11z" />
    <glyph glyph-name="upsilondieresis" unicode="&#x3cb;" horiz-adv-x="558" 
d="M465.5 84q-27.5 -45 -76 -70t-108.5 -25q-61 0 -110.5 24.5t-77.5 69.5t-28 104v318q0 12 12 12h59q11 0 11 -12v-318q0 -60 36 -92t96 -33q60 0 96 32.5t36 92.5v318q0 12 11 12h59q12 0 12 -12v-318q0 -58 -27.5 -103zM218 627.5q-13 -12.5 -34 -12.5t-34 13t-13 34
q0 22 13 35t34 13t34 -13t13 -35t-13 -34.5zM410 628q-13 -13 -34 -13t-34.5 13t-13.5 34q0 22 13.5 35t34.5 13t34 -13t13 -35q0 -21 -13 -34z" />
    <glyph glyph-name="omicrontonos" unicode="&#x3cc;" horiz-adv-x="540" 
d="M199 601q-3 4 1 10l81 133q5 7 14 7h63q9 0 9 -6q0 -3 -3 -8l-96 -133q-5 -7 -14 -7h-45q-7 0 -10 4zM430.5 42.5q-59.5 -53.5 -160.5 -53.5q-67 0 -116.5 24.5t-76.5 69t-27 102.5v144q0 58 27 103.5t77 70.5t116 25q67 0 116.5 -25t76.5 -70.5t27 -103.5v-144
q0 -89 -59.5 -142.5zM168.5 95q35.5 -33 101.5 -33t102 33t36 90v144q0 58 -36 91.5t-102 33.5t-101.5 -33.5t-35.5 -91.5v-144q0 -57 35.5 -90z" />
    <glyph glyph-name="upsilontonos" unicode="&#x3cd;" horiz-adv-x="558" 
d="M465.5 84q-27.5 -45 -76 -70t-108.5 -25q-61 0 -110.5 24.5t-77.5 69.5t-28 104v318q0 12 12 12h59q11 0 11 -12v-318q0 -60 36 -92t96 -33q60 0 96 32.5t36 92.5v318q0 12 11 12h59q12 0 12 -12v-318q0 -58 -27.5 -103zM229 601q-3 4 1 10l81 133q5 7 14 7h63q9 0 9 -6
q0 -3 -3 -8l-96 -133q-5 -7 -14 -7h-45q-7 0 -10 4z" />
    <glyph glyph-name="omegatonos" unicode="&#x3ce;" horiz-adv-x="759" 
d="M538 527q4 2 8 1q73 -14 117 -63.5t44 -125.5v-165q0 -56 -26 -98t-67 -64.5t-87 -22.5q-104 0 -147 95q-21 -45 -58 -70t-90 -25q-46 0 -87.5 22.5t-67.5 64.5t-26 98v165q0 76 44.5 125.5t116.5 63.5l4 1q8 0 10 -9l13 -52l1 -4q0 -6 -9 -9q-46 -8 -72 -39.5t-26 -79.5
v-159q0 -51 30 -82.5t72 -31.5q49 0 76.5 30.5t27.5 83.5v148q0 11 11 11h59q11 0 11 -11v-148q0 -53 27.5 -83.5t76.5 -30.5q42 0 71.5 31.5t29.5 82.5v159q0 48 -26 79.5t-71 39.5q-10 3 -9 13l14 52q1 5 5 7zM329 601q-3 4 1 10l81 133q5 7 14 7h63q9 0 9 -6q0 -3 -3 -8
l-96 -133q-5 -7 -14 -7h-45q-7 0 -10 4z" />
    <glyph glyph-name="uni0401" unicode="&#x401;" horiz-adv-x="579" 
d="M247 821q-14 -14 -35 -14q-22 0 -36 14t-14 36t14 36t36 14q21 0 35 -14t14 -36t-14 -36zM451 821q-14 -14 -36 -14t-36 14t-14 36t14 36t36 14t36 -14t14 -36t-14 -36zM519 78q11 0 11 -11v-56q0 -11 -11 -11h-418q-12 0 -12 11v693q0 11 12 11h404q11 0 11 -11v-56
q0 -11 -11 -11h-330v-234h307q11 0 11 -12v-55q0 -12 -11 -12h-307v-246h344z" />
    <glyph glyph-name="uni0402" unicode="&#x402;" horiz-adv-x="716" 
d="M447 519q100 0 159.5 -53.5t59.5 -164.5v-128q0 -90 -39.5 -137t-112.5 -47q-26 0 -49 3q-11 2 -11 13v52q0 5 3.5 8.5t9.5 2.5q26 -2 39 -2q39 0 57 24.5t18 81.5v123q0 79 -34.5 113t-104.5 34q-66 0 -120 -26v-405q0 -11 -11 -11h-63q-11 0 -11 11v626h-214
q-11 0 -11 11v56q0 11 11 11h513q12 0 12 -11v-56q0 -11 -12 -11h-214v-142q62 24 125 24z" />
    <glyph glyph-name="uni0403" unicode="&#x403;" horiz-adv-x="510" 
d="M89 11v693q0 11 12 11h385q12 0 12 -11v-56q0 -11 -12 -11h-311v-626q0 -11 -12 -11h-62q-12 0 -12 11zM273 785h-52q-7 0 -9 4t2 10l105 133q4 7 13 7h70q7 0 9 -4.5t-3 -9.5l-121 -133q-6 -7 -14 -7z" />
    <glyph glyph-name="uni0404" unicode="&#x404;" horiz-adv-x="591" 
d="M450 8q-59 -19 -122 -19q-75 0 -134.5 28t-94 83.5t-34.5 135.5v242q0 80 34.5 136t93.5 84t133 28q57 0 112 -18t101 -52q8 -6 2 -15l-32 -47q-3 -5 -8 -5q-4 0 -9 3q-36 26 -79.5 40t-87.5 14q-84 0 -129.5 -45t-45.5 -123v-82h273q12 0 12 -12v-57q0 -12 -12 -12h-273
v-78q0 -78 46 -123t130 -45q49 0 97 16t87 46q3 3 7 3q5 0 8 -6l33 -46q3 -4 3 -8t-6 -9q-46 -38 -105 -57z" />
    <glyph glyph-name="uni0405" unicode="&#x405;" horiz-adv-x="612" 
d="M493 40.5q-74 -51.5 -188 -51.5q-72 0 -130.5 23t-119.5 72q-5 5 -5 8q0 4 3 8l34 47q3 4 7 5t8 -2q53 -40 102 -59.5t104 -20.5q74 0 123.5 31t49.5 91q0 40 -22 65t-61 40t-104 29q-108 24 -173.5 72t-65.5 139q0 94 72 141.5t183 47.5q66 0 120.5 -19t112.5 -61
q10 -6 3 -15l-33 -47q-3 -5 -8 -5q-4 0 -8 3q-90 62 -194 65q-73 0 -117.5 -29.5t-44.5 -82.5t43 -80t132 -47q79 -18 132 -40.5t86 -64.5t33 -109q0 -102 -74 -153.5z" />
    <glyph glyph-name="uni0406" unicode="&#x406;" horiz-adv-x="263" 
d="M163 0h-62q-12 0 -12 11v693q0 11 12 11h62q11 0 11 -11v-693q0 -11 -11 -11z" />
    <glyph glyph-name="uni0407" unicode="&#x407;" horiz-adv-x="263" 
d="M79 821.5q-14 -13.5 -35 -13.5q-22 0 -35.5 13.5t-13.5 35.5t13.5 36t35.5 14q21 0 35 -14t14 -36t-14 -35.5zM256 821.5q-14 -13.5 -36 -13.5t-36 13.5t-14 35.5t14 36t36 14t36 -14t14 -36t-14 -35.5zM163 0h-63q-11 0 -11 11v693q0 11 11 11h63q11 0 11 -11v-693
q0 -11 -11 -11z" />
    <glyph glyph-name="uni0408" unicode="&#x408;" horiz-adv-x="506" 
d="M363.5 51.5q-57.5 -62.5 -151.5 -62.5q-58 0 -104.5 19.5t-92.5 58.5q-5 3 -5 8q0 4 3 8l28 46q3 6 8 6q2 0 8 -4q38 -30 74.5 -45.5t80.5 -15.5q60 0 92 39t32 120v475q0 11 12 11h62q11 0 11 -11v-476q0 -114 -57.5 -176.5z" />
    <glyph glyph-name="uni0409" unicode="&#x409;" horiz-adv-x="997" 
d="M140 33.5q-44 -36.5 -117 -36.5q-14 0 -14 11v57q0 11 11 11q44 1 69.5 26t40.5 90q16 63 25.5 181t18.5 330q2 12 12 12h374q11 0 11 -11v-254h142q120 0 184.5 -56.5t64.5 -167.5q0 -109 -65.5 -167.5t-179.5 -58.5h-220q-12 0 -12 11v625h-228q-6 -183 -17 -296.5
t-32 -183.5q-24 -86 -68 -122.5zM717 80q157 0 157 146q0 144 -160 144h-143v-290h146z" />
    <glyph glyph-name="uni040A" unicode="&#x40a;" horiz-adv-x="990" 
d="M89 11v693q0 11 11 11h63q12 0 12 -11v-276h311v276q0 11 11 11h63q12 0 12 -11v-276h134q122 0 186.5 -52.5t64.5 -158.5q0 -104 -66.5 -160.5t-179.5 -56.5h-214q-11 0 -11 11v338h-311v-338q0 -11 -12 -11h-63q-11 0 -11 11zM712 80q75 0 116 34t41 103
q0 131 -162 131h-135v-268h140z" />
    <glyph glyph-name="uni040B" unicode="&#x40b;" horiz-adv-x="716" 
d="M442 519q100 0 159.5 -53.5t59.5 -164.5v-290q0 -11 -11 -11h-62q-9 0 -11 11v284q0 79 -35 113t-105 34q-67 0 -119 -26v-405q0 -11 -12 -11h-62q-12 0 -12 11v626h-209q-11 0 -11 11v56q0 11 11 11h503q12 0 12 -11v-56q0 -11 -12 -11h-208v-142q60 24 124 24z" />
    <glyph glyph-name="uni040C" unicode="&#x40c;" horiz-adv-x="614" 
d="M319 785h-52q-7 0 -9 4t2 10l105 133q4 7 13 7h70q7 0 9 -4.5t-3 -9.5l-121 -133q-6 -7 -14 -7zM89 11v693q0 11 12 11h62q11 0 11 -11v-331l309 335q7 7 15 7h80q8 0 10 -4.5t-3 -9.5l-287 -308l307 -379q3 -4 3 -7q0 -7 -10 -7h-81q-10 0 -14 7l-262 326l-67 -69v-253
q0 -11 -11 -11h-62q-12 0 -12 11z" />
    <glyph glyph-name="uni040E" unicode="&#x40e;" horiz-adv-x="546" 
d="M142 4q-2 4 0 9l98 214l-232 475q-1 2 -1 5q0 8 9 8h70q10 0 14 -9l183 -390l166 390q3 9 13 9h69q6 0 8.5 -4t0.5 -9l-307 -693q-4 -9 -14 -9h-69q-6 0 -8 4zM388 809.5q-42 -37.5 -113 -37.5q-70 0 -112 37.5t-51 99.5v2q0 8 10 11l44 11h3q7 0 10 -9q14 -84 96 -84
q41 0 65.5 22t30.5 62q3 10 13 9l44 -11q11 -3 10 -12q-8 -63 -50 -100.5z" />
    <glyph glyph-name="uni040F" unicode="&#x40f;" horiz-adv-x="684" 
d="M595 704v-693q0 -11 -11 -11h-201v-123q0 -12 -11 -12h-59q-11 0 -11 12v123h-201q-12 0 -12 11v693q0 11 12 11h62q12 0 12 -11v-626h335v626q0 11 11 11h63q11 0 11 -11z" />
    <glyph glyph-name="uni0410" unicode="&#x410;" horiz-adv-x="619" 
d="M9 13l249 693q3 9 12 9h79q10 0 13 -9l248 -693q1 -2 1 -5q0 -8 -10 -8h-67q-10 0 -13 9l-61 178h-300l-62 -178q-3 -9 -13 -9h-67q-12 0 -9 13zM434 266l-122 354h-4l-122 -354h248z" />
    <glyph glyph-name="uni0411" unicode="&#x411;" horiz-adv-x="636" 
d="M532.5 380.5q60.5 -51.5 60.5 -162.5q0 -107 -65 -162.5t-176 -55.5h-251q-12 0 -12 11v693q0 11 12 11h427q12 0 12 -11v-56q0 -11 -12 -11h-353v-205h172q125 0 185.5 -51.5zM466 111.5q40 33.5 40 106.5q0 70 -37.5 103t-120.5 33h-173v-276h174q77 0 117 33.5z" />
    <glyph glyph-name="uni0412" unicode="&#x412;" horiz-adv-x="637" 
d="M535.5 438.5q-22.5 -38.5 -62.5 -57.5q55 -20 85 -65.5t30 -108.5q0 -98 -64.5 -152.5t-181.5 -54.5h-241q-12 0 -12 11v693q0 11 12 11h242q105 0 160 -50.5t55 -137.5q0 -50 -22.5 -88.5zM439 608.5q-33 29.5 -96 29.5h-169v-222h175q57 0 90 28t33 83q0 52 -33 81.5z
M460.5 109.5q41.5 32.5 41.5 97.5q0 61 -38.5 96.5t-114.5 35.5h-175v-262h169q76 0 117.5 32.5z" />
    <glyph glyph-name="uni0413" unicode="&#x413;" horiz-adv-x="510" 
d="M89 11v693q0 11 12 11h385q12 0 12 -11v-56q0 -11 -12 -11h-311v-626q0 -11 -12 -11h-62q-12 0 -12 11z" />
    <glyph glyph-name="uni0414" unicode="&#x414;" horiz-adv-x="687" 
d="M11 -125v193q0 11 12 11h28q38 13 60.5 69t37.5 184.5t27 370.5q0 12 12 12h377q12 0 12 -11v-625h59q12 0 12 -11v-193q0 -12 -12 -12h-61q-5 0 -8.5 3.5t-3.5 8.5v125h-467v-125q0 -12 -12 -12h-61q-12 0 -12 12zM231.5 256q-18.5 -125 -59.5 -177h319v558h-232
q-9 -256 -27.5 -381z" />
    <glyph glyph-name="uni0415" unicode="&#x415;" horiz-adv-x="579" 
d="M519 78q11 0 11 -11v-56q0 -11 -11 -11h-418q-12 0 -12 11v693q0 11 12 11h404q11 0 11 -11v-56q0 -11 -11 -11h-330v-234h307q11 0 11 -12v-55q0 -12 -11 -12h-307v-246h344z" />
    <glyph glyph-name="uni0416" unicode="&#x416;" horiz-adv-x="917" 
d="M803 7l-239 326l-63 -71v-251q0 -11 -12 -11h-61q-12 0 -12 11v251l-63 71l-239 -326q-4 -7 -14 -7h-80q-7 0 -9 4t2 10l286 382l-265 305q-3 5 -3 7q0 7 10 7h79q10 0 14 -7l282 -339v335q0 11 12 11h61q12 0 12 -11v-335l282 339q4 7 14 7h79q10 0 10 -6q0 -4 -4 -8
l-264 -305l286 -382q3 -4 3 -7q0 -7 -10 -7h-81q-9 0 -13 7z" />
    <glyph glyph-name="uni0417" unicode="&#x417;" horiz-adv-x="590" 
d="M491 438q-26 -42 -76 -59q58 -21 89.5 -67t31.5 -105q0 -69 -32.5 -118t-90 -74.5t-131.5 -25.5q-80 0 -142.5 23t-106.5 63q-8 8 -2 17l33 47q3 5 7 5.5t8 -3.5q37 -33 88 -52.5t115 -19.5q75 0 120.5 37.5t45.5 100.5q0 56 -42.5 91t-128.5 35h-97q-11 0 -11 11v55
q0 11 11 11h100q72 0 111 34t39 83q0 51 -40 85t-111 34q-111 0 -185 -65q-6 -4 -8 -4q-5 0 -9 6l-32 45q-3 5 -3 8t4 9q91 81 233 81q71 0 125 -26.5t83.5 -71t29.5 -97.5q0 -51 -26 -93z" />
    <glyph glyph-name="uni0418" unicode="&#x418;" horiz-adv-x="704" 
d="M615 11v693q0 11 -12 11h-70q-9 0 -14 -8l-265 -432l-17 -28q-46 -77 -67 -118l-3 3q6 125 6 269v303q0 11 -11 11h-62q-11 0 -11 -11v-693q0 -11 11 -11h70q10 0 14 7l263 417q50 81 87 152l2 -2q-6 -158 -6 -260v-303q0 -11 12 -11h61q12 0 12 11z" />
    <glyph glyph-name="uni0419" unicode="&#x419;" horiz-adv-x="704" 
d="M469 809.5q-42 -37.5 -113 -37.5q-70 0 -112 37.5t-51 99.5v2q0 8 10 11l44 11h3q7 0 10 -9q14 -84 96 -84q41 0 65.5 22t30.5 62q3 10 13 9l44 -11q11 -3 10 -12q-8 -63 -50 -100.5zM542 0q-12 0 -12 11v303q0 103 6 261l-2 1q-37 -71 -87 -152l-263 -417q-4 -7 -14 -7
h-70q-11 0 -11 11v693q0 11 11 11h62q11 0 11 -11v-303q0 -146 -6 -271l3 -1q21 41 67 118l17 28l265 432q5 8 14 8h70q12 0 12 -11v-693q0 -11 -12 -11h-61z" />
    <glyph glyph-name="uni041A" unicode="&#x41a;" horiz-adv-x="614" 
d="M89 11v693q0 11 12 11h62q11 0 11 -11v-331l309 335q7 7 15 7h80q8 0 10 -4.5t-3 -9.5l-287 -308l307 -379q3 -4 3 -7q0 -7 -10 -7h-81q-10 0 -14 7l-262 326l-67 -69v-253q0 -11 -11 -11h-62q-12 0 -12 11z" />
    <glyph glyph-name="uni041B" unicode="&#x41b;" horiz-adv-x="664" 
d="M174 90q-24 -48 -61 -69.5t-92 -23.5q-11 0 -11 11v57q0 11 11 11q32 2 52.5 17t34 49.5t23.5 97.5q22 132 32 464q0 11 11 11h390q11 0 11 -11v-693q0 -11 -11 -11h-63q-11 0 -11 11v625h-246q-7 -262 -32 -416q-14 -82 -38 -130z" />
    <glyph glyph-name="uni041C" unicode="&#x41c;" horiz-adv-x="853" 
d="M89 11v693q0 11 12 11h76q9 0 13 -8l155 -282q40 -74 80 -158h3q42 88 80 157l156 283q3 8 13 8h76q11 0 11 -11v-693q0 -11 -11 -11h-63q-11 0 -11 11v302q0 101 6 271l-2 1q-25 -50 -91 -176l-125 -232q-5 -8 -14 -8h-53q-10 0 -13 8l-125 232q-58 108 -91 176l-2 -1
l1 -49q4 -146 4 -222v-302q0 -11 -11 -11h-62q-12 0 -12 11z" />
    <glyph glyph-name="uni041D" unicode="&#x41d;" horiz-adv-x="682" 
d="M520 715h62q11 0 11 -11v-693q0 -11 -11 -11h-62q-12 0 -12 11v313h-334v-313q0 -11 -11 -11h-62q-12 0 -12 11v693q0 11 12 11h62q11 0 11 -11v-302h334v302q0 11 12 11z" />
    <glyph glyph-name="uni041E" unicode="&#x41e;" horiz-adv-x="674" 
d="M577 112q-33 -59 -94.5 -91t-145.5 -32t-145.5 32t-94.5 91t-33 139v211q0 123 73 193.5t200 70.5t200 -70.5t73 -193.5v-211q0 -80 -33 -139zM199 118q49 -48 138 -48t137.5 48t48.5 133v211q0 88 -48.5 136.5t-137.5 48.5t-138 -48.5t-49 -136.5v-211q0 -85 49 -133z
" />
    <glyph glyph-name="uni041F" unicode="&#x41f;" horiz-adv-x="685" 
d="M89 11v693q0 11 12 11h483q12 0 12 -11v-693q0 -11 -12 -11h-63q-11 0 -11 11v626h-335v-626q0 -11 -11 -11h-63q-12 0 -12 11z" />
    <glyph glyph-name="uni0420" unicode="&#x420;" horiz-adv-x="625" 
d="M524 653q65 -62 65 -172q0 -111 -65 -173t-183 -62h-167v-235q0 -11 -11 -11h-63q-11 0 -11 11v693q0 11 11 11h241q118 0 183 -62zM503 481q0 155 -171 155h-158v-311h158q171 0 171 156z" />
    <glyph glyph-name="uni0421" unicode="&#x421;" horiz-adv-x="587" 
d="M450 8q-59 -19 -122 -19q-75 0 -134.5 28t-94 84t-34.5 135v242q0 80 34.5 136t93.5 84t133 28q57 0 112 -18t101 -52q8 -6 2 -15l-32 -47q-3 -5 -8 -5q-4 0 -9 3q-36 26 -79.5 40t-87.5 14q-84 0 -129.5 -45t-45.5 -123v-241q0 -78 46 -123t130 -45q49 0 97 16t87 46
q3 3 7 3q5 0 8 -6l33 -46q3 -4 3 -8t-6 -9q-46 -38 -105 -57z" />
    <glyph glyph-name="uni0422" unicode="&#x422;" horiz-adv-x="561" 
d="M549 704v-56q0 -11 -12 -11h-214v-626q0 -11 -12 -11h-62q-12 0 -12 11v626h-214q-11 0 -11 11v56q0 11 11 11h514q12 0 12 -11z" />
    <glyph glyph-name="uni0423" unicode="&#x423;" horiz-adv-x="546" 
d="M142 4q-2 4 0 9l98 214l-232 475q-1 2 -1 5q0 8 9 8h70q10 0 14 -9l183 -390l166 390q3 9 13 9h69q6 0 8.5 -4t0.5 -9l-307 -693q-4 -9 -14 -9h-69q-6 0 -8 4z" />
    <glyph glyph-name="uni0424" unicode="&#x424;" horiz-adv-x="857" 
d="M386 -55v77h-59q-70 0 -130.5 29t-97.5 90t-37 152v126q0 91 37 152t97.5 89.5t130.5 28.5h59v71q0 12 11 12h63q11 0 11 -12v-71h59q70 0 130.5 -28.5t97.5 -89.5t37 -152v-126q0 -91 -37 -152t-97.5 -90t-130.5 -29h-59v-77q0 -11 -11 -11h-63q-11 0 -11 11zM201.5 149
q51.5 -47 129.5 -47h55v507h-55q-79 0 -130 -45.5t-51 -144.5v-126q0 -97 51.5 -144zM526 102q78 0 130 47t52 144v126q0 99 -51.5 144.5t-130.5 45.5h-55v-507h55z" />
    <glyph glyph-name="uni0425" unicode="&#x425;" horiz-adv-x="590" 
d="M571 7q0 -7 -9 -7h-77q-9 0 -14 8l-175 284l-176 -284q-5 -8 -14 -8h-77q-7 0 -9.5 4.5t1.5 9.5l225 345l-214 342q-2 4 -2 6q0 8 10 8h76q8 0 13 -8l167 -279l166 279q5 8 13 8h76q6 0 8.5 -4.5t-1.5 -9.5l-213 -342l224 -345q2 -2 2 -7z" />
    <glyph glyph-name="uni0426" unicode="&#x426;" horiz-adv-x="697" 
d="M577 -120v120h-476q-12 0 -12 11v693q0 11 12 11h62q11 0 11 -11v-625h328v625q0 11 11 11h62q12 0 12 -11v-625h60q12 0 12 -11v-188q0 -11 -12 -11h-59q-11 0 -11 11z" />
    <glyph glyph-name="uni0427" unicode="&#x427;" horiz-adv-x="630" 
d="M455 11v271q-80 -35 -155 -35q-112 0 -180 60t-68 173v224q0 11 11 11h64q11 0 11 -11v-220q0 -78 46.5 -117.5t122.5 -39.5q77 0 148 37v340q0 11 11 11h63q12 0 12 -11v-693q0 -11 -12 -11h-63q-11 0 -11 11z" />
    <glyph glyph-name="uni0428" unicode="&#x428;" horiz-adv-x="954" 
d="M89 11v693q0 11 11 11h63q12 0 12 -11v-625h259v625q0 11 11 11h63q12 0 12 -11v-625h259v625q0 11 12 11h63q11 0 11 -11v-693q0 -11 -11 -11h-754q-11 0 -11 11z" />
    <glyph glyph-name="uni0429" unicode="&#x429;" horiz-adv-x="974" 
d="M854 -120v120h-753q-12 0 -12 11v693q0 11 12 11h63q11 0 11 -11v-625h259v625q0 11 11 11h63q12 0 12 -11v-625h258v625q0 11 12 11h63q11 0 11 -11v-625h61q11 0 11 -11v-188q0 -11 -11 -11h-59q-12 0 -12 11z" />
    <glyph glyph-name="uni042A" unicode="&#x42a;" horiz-adv-x="692" 
d="M165 11v624h-138q-11 0 -11 12v57q0 11 11 11h212q12 0 12 -11v-248h157q120 0 184.5 -56.5t64.5 -168.5q0 -111 -65.5 -171t-179.5 -60h-236q-11 0 -11 11zM413 80q156 0 156 151q0 146 -160 146h-158v-297h162z" />
    <glyph glyph-name="uni042B" unicode="&#x42b;" horiz-adv-x="874" 
d="M89 11v693q0 11 12 11h63q11 0 11 -11v-247h158q119 0 184 -59.5t65 -167.5q0 -109 -64 -169.5t-181 -60.5h-236q-12 0 -12 11zM699 11v693q0 11 12 11h63q11 0 11 -11v-693q0 -11 -11 -11h-63q-12 0 -12 11zM337 80q80 0 118.5 37.5t38.5 112.5q0 147 -157 147h-162
v-297h162z" />
    <glyph glyph-name="uni042C" unicode="&#x42c;" horiz-adv-x="617" 
d="M89 11v693q0 11 12 11h63q11 0 11 -11v-247h158q119 0 184 -59.5t65 -166.5q0 -110 -64 -170.5t-181 -60.5h-236q-12 0 -12 11zM337 80q80 0 118.5 37.5t38.5 113.5q0 73 -38.5 109.5t-118.5 36.5h-162v-297h162z" />
    <glyph glyph-name="uni042D" unicode="&#x42d;" horiz-adv-x="591" 
d="M30 74q0 4 3 8l33 46q3 5 7 6t8 -3q39 -30 87 -46t97 -16q84 0 130 45t46 123v78h-273q-12 0 -12 12v57q0 12 12 12h273v82q0 78 -45.5 123t-129.5 45q-44 0 -87.5 -14t-79.5 -40q-4 -3 -9 -3t-8 5l-32 47q-3 5 -3 7q0 5 5 8q46 34 101 52t112 18q74 0 133 -28t93.5 -84
t34.5 -136v-242q0 -80 -34.5 -135.5t-94 -83.5t-134.5 -28q-63 0 -122 19t-105 57q-6 5 -6 9z" />
    <glyph glyph-name="uni042E" unicode="&#x42e;" horiz-adv-x="904" 
d="M803.5 102q-35.5 -56 -95 -84.5t-131.5 -28.5t-132 28.5t-95.5 84t-35.5 135.5v90h-140v-316q0 -11 -11 -11h-63q-11 0 -11 11v693q0 11 11 11h63q11 0 11 -11v-298h140v71q0 80 35.5 136.5t95 84.5t132.5 28q72 0 131.5 -28t95 -84.5t35.5 -136.5v-240q0 -79 -35.5 -135
zM451 113q50 -44 126 -44t125.5 44t49.5 124v240q0 84 -49 126.5t-126 42.5q-78 0 -127 -42.5t-49 -126.5v-240q0 -80 50 -124z" />
    <glyph glyph-name="uni042F" unicode="&#x42f;" horiz-adv-x="644" 
d="M120 655.5q65 59.5 181 59.5h242q11 0 11 -11v-693q0 -11 -11 -11h-62q-12 0 -12 11v259h-140l-192 -263q-6 -7 -14 -7h-80q-7 0 -9 4t2 10l200 264q-85 14 -133 69.5t-48 143.5q0 105 65 164.5zM469 635h-167q-78 0 -119 -37t-41 -108q0 -69 41 -105t119 -36h167v286z
" />
    <glyph glyph-name="uni0430" unicode="&#x430;" horiz-adv-x="511" 
d="M145.5 514.5q48.5 13.5 104.5 13.5q94 0 146.5 -49.5t52.5 -144.5v-300q0 -10 -9 -13q-38 -14 -89 -23t-104 -9q-93 0 -154 40t-61 124q0 77 58 118t157 41q52 0 120 -12v32q0 62 -28 92t-92 30q-40 0 -77 -10t-65 -27q-2 -2 -7 -2t-8 5l-29 42q-5 9 0 14
q36 25 84.5 38.5zM150.5 85.5q36.5 -23.5 96.5 -23.5t120 18v150q-64 12 -120 12q-67 0 -100 -23.5t-33 -65.5q0 -44 36.5 -67.5z" />
    <glyph glyph-name="uni0431" unicode="&#x431;" horiz-adv-x="541" 
d="M210.5 482q35.5 9 72.5 9q95 0 152 -53.5t57 -152.5v-90q0 -67 -29 -113.5t-77.5 -69.5t-108.5 -23q-58 0 -106.5 23t-77 69.5t-28.5 113.5v308q0 86 56.5 138.5t137.5 67.5l32 6q43 8 73.5 15t52.5 19q4 2 6 2q6 0 9 -7l25 -44q2 -4 2 -6q0 -6 -6 -9q-23 -13 -53 -21
t-80 -19q-2 -1 -31 -7q-142 -32 -142 -137v-45q28 17 63.5 26zM372 96q37 34 37 99v88q0 66 -33.5 101t-97.5 35q-33 0 -69 -9.5t-62 -26.5v-188q0 -65 36.5 -99t93.5 -34q58 0 95 34z" />
    <glyph glyph-name="uni0432" unicode="&#x432;" horiz-adv-x="524" 
d="M69 11v494q0 12 11 12h204q84 0 131 -38t47 -97q0 -40 -20 -67.5t-55 -41.5q94 -34 94 -130q0 -63 -53 -103t-144 -40h-204q-11 0 -11 11zM281 298q46 0 72.5 20t26.5 57q0 35 -25.5 54.5t-73.5 19.5h-130v-151h130zM281 67q58 0 87.5 21.5t29.5 63.5q0 82 -117 82h-130
v-167h130z" />
    <glyph glyph-name="uni0433" unicode="&#x433;" horiz-adv-x="406" 
d="M69 11v494q0 12 11 12h299q11 0 11 -12v-50q0 -12 -11 -12h-228v-432q0 -11 -12 -11h-59q-11 0 -11 11z" />
    <glyph glyph-name="uni0434" unicode="&#x434;" horiz-adv-x="574" 
d="M19 -125v187q0 11 11 11h22q24 14 39.5 54t27.5 128.5t22 249.5q0 5 3 8.5t8 3.5h319q12 0 12 -12v-432h52q12 0 12 -11v-187q0 -12 -12 -12h-55q-12 0 -12 12v125h-371v-125q0 -12 -11 -12h-56q-11 0 -11 12zM190.5 193.5q-17.5 -88.5 -47.5 -120.5h258v370h-184
q-9 -161 -26.5 -249.5z" />
    <glyph glyph-name="uni0435" unicode="&#x435;" horiz-adv-x="518" 
d="M461 219h-327v-42q0 -55 36.5 -85t93.5 -30q47 0 83.5 15t69.5 41q2 2 7 2q7 0 9 -5l29 -38q3 -4 3 -7q0 -4 -5 -9q-86 -72 -198 -72q-56 0 -104 21.5t-77.5 64t-29.5 102.5v152q0 66 29 110.5t77.5 66.5t105.5 22t104.5 -22t76 -66.5t28.5 -110.5v-98q0 -12 -11 -12z
M356.5 422q-35.5 32 -93.5 32q-59 0 -94 -31.5t-35 -93.5v-42h258v42q0 61 -35.5 93z" />
    <glyph glyph-name="uni0436" unicode="&#x436;" horiz-adv-x="730" 
d="M622 7l-159 229l-58 -65v-160q0 -11 -12 -11h-57q-11 0 -11 11v160l-58 65l-159 -229q-6 -7 -14 -7h-71q-7 0 -9 4t2 10l197 278l-179 211q-3 3 -3 7q0 7 9 7h72q9 0 14 -8l199 -240v236q0 12 11 12h57q12 0 12 -12v-236l199 240q5 8 14 8h71q7 0 9.5 -4.5t-2.5 -9.5
l-180 -211l198 -278q2 -3 2 -7q0 -7 -9 -7h-71q-10 0 -14 7z" />
    <glyph glyph-name="uni0437" unicode="&#x437;" horiz-adv-x="482" 
d="M352 273q87 -31 87 -122q0 -46 -26.5 -83t-73.5 -58t-106 -21q-60 0 -109 16.5t-96 58.5q-4 4 -4 8t3 7l31 39q4 4 9 4q4 0 8 -3q72 -57 155 -57q58 0 92 24t34 67q0 40 -29 61t-83 21h-100q-12 0 -12 12v40q0 12 12 12h99q44 0 70 21t26 57q0 39 -30 59t-81 20
q-80 0 -142 -49q-3 -3 -7 -3q-6 0 -9 5l-30 38q-3 5 -3 9q0 5 4 8q36 29 84 46.5t104 17.5t99.5 -19.5t68 -53.5t24.5 -76q0 -72 -69 -106z" />
    <glyph glyph-name="uni0438" unicode="&#x438;" horiz-adv-x="562" 
d="M69 11v494q0 12 11 12h59q11 0 11 -12v-266l-1 -122q17 31 45.5 80t42.5 70l161 242q5 8 14 8h70q11 0 11 -12v-494q0 -11 -11 -11h-58q-12 0 -12 11v258q0 53 2 125h-1q-17 -31 -43 -75.5t-43 -69.5l-162 -242q-4 -7 -14 -7h-71q-11 0 -11 11z" />
    <glyph glyph-name="uni0439" unicode="&#x439;" horiz-adv-x="562" 
d="M69 11v494q0 12 11 12h59q11 0 11 -12v-266l-1 -122q17 31 45.5 80t42.5 70l161 242q5 8 14 8h70q11 0 11 -12v-494q0 -11 -11 -11h-58q-12 0 -12 11v258q0 53 2 125h-1q-17 -31 -43 -75.5t-43 -69.5l-162 -242q-4 -7 -14 -7h-71q-11 0 -11 11zM384.5 635
q-40.5 -37 -107.5 -37q-66 0 -105.5 36.5t-47.5 97.5v2q0 4 3 7t7 4l40 5h2q8 0 11 -9q14 -80 90 -80q78 0 92 80q1 10 13 9l39 -5q12 -2 11 -12q-7 -61 -47.5 -98z" />
    <glyph glyph-name="uni043A" unicode="&#x43a;" horiz-adv-x="495" 
d="M395 7l-189 227l-57 -57v-166q0 -11 -12 -11h-57q-11 0 -11 11v494q0 12 11 12h57q5 0 8.5 -3.5t3.5 -8.5v-227l230 233q5 6 14 6h72q7 0 9 -4.5t-3 -9.5l-210 -212l226 -277q3 -4 3 -7q0 -7 -10 -7h-70q-9 0 -15 7z" />
    <glyph glyph-name="uni043B" unicode="&#x43b;" horiz-adv-x="556" 
d="M159.5 70.5q-18.5 -38.5 -50 -55.5t-82.5 -19q-11 0 -11 11v51q0 10 11 12q35 2 54 28t30 100q16 110 25 307q0 5 3.5 8.5t8.5 3.5h327q12 0 12 -12v-494q0 -11 -12 -11h-59q-11 0 -11 11v432h-192q-5 -127 -23 -265q-12 -69 -30.5 -107.5z" />
    <glyph glyph-name="uni043C" unicode="&#x43c;" horiz-adv-x="663" 
d="M69 11v494q0 12 11 12h68q8 0 13 -8l115 -211q21 -39 55 -107h1q25 53 54 107l116 211q3 8 13 8h67q12 0 12 -12v-494q0 -11 -12 -11h-58q-11 0 -11 11v239q0 94 1 138h-1q-36 -76 -57 -114l-93 -173q-3 -8 -13 -8h-38q-9 0 -13 8l-95 176q-20 37 -44 89l-11 22l1 -138
v-239q0 -11 -11 -11h-59q-11 0 -11 11z" />
    <glyph glyph-name="uni043D" unicode="&#x43d;" horiz-adv-x="546" 
d="M69 11v494q0 12 11 12h59q12 0 12 -12v-200h244v200q0 12 11 12h59q5 0 8.5 -3.5t3.5 -8.5v-494q0 -11 -12 -11h-59q-11 0 -11 11v221h-244v-221q0 -11 -12 -11h-59q-11 0 -11 11z" />
    <glyph glyph-name="uni043E" unicode="&#x43e;" horiz-adv-x="540" 
d="M430.5 42.5q-59.5 -53.5 -160.5 -53.5q-67 0 -116.5 24.5t-76.5 69t-27 102.5v144q0 58 27 103.5t77 70.5t116 25q67 0 116.5 -25t76.5 -70.5t27 -103.5v-144q0 -89 -59.5 -142.5zM168.5 95q35.5 -33 101.5 -33t102 33t36 90v144q0 58 -36 91.5t-102 33.5t-101.5 -33.5
t-35.5 -91.5v-144q0 -57 35.5 -90z" />
    <glyph glyph-name="uni043F" unicode="&#x43f;" horiz-adv-x="546" 
d="M477 505v-494q0 -11 -11 -11h-59q-12 0 -12 11v432h-244v-432q0 -11 -11 -11h-59q-12 0 -12 11v494q0 12 12 12h385q11 0 11 -12z" />
    <glyph glyph-name="uni0440" unicode="&#x440;" horiz-adv-x="542" 
d="M170.5 518.5q51.5 9.5 99.5 9.5q103 0 163 -53.5t60 -163.5v-110q0 -99 -60 -155.5t-159 -56.5q-69 0 -124 31v-199q0 -11 -12 -11h-59q-11 0 -11 11v658q0 10 8 13q43 17 94.5 26.5zM410 201v110q0 76 -36.5 110.5t-105.5 34.5q-70 0 -118 -20v-338q52 -36 119 -36
q141 0 141 139z" />
    <glyph glyph-name="uni0441" unicode="&#x441;" horiz-adv-x="470" 
d="M359 3.5q-43 -14.5 -94 -14.5q-65 0 -113.5 24.5t-74.5 68.5t-26 100v152q0 57 26 101t74.5 68.5t112.5 24.5q87 0 163 -50q6 -4 6 -9q0 -3 -3 -8l-26 -41q-7 -9 -16 -3q-57 37 -122 37q-63 0 -98 -33t-35 -87v-152q0 -55 35 -87.5t97 -32.5q69 0 134 44q5 3 8 3
q5 0 8 -5l29 -41q3 -4 3 -8q0 -5 -5 -8q-40 -29 -83 -43.5z" />
    <glyph glyph-name="uni0442" unicode="&#x442;" horiz-adv-x="449" 
d="M184 11v432h-156q-5 0 -8.5 3.5t-3.5 8.5v50q0 5 3.5 8.5t8.5 3.5h393q12 0 12 -12v-50q0 -12 -12 -12h-155v-432q0 -11 -11 -11h-60q-11 0 -11 11z" />
    <glyph glyph-name="uni0443" unicode="&#x443;" horiz-adv-x="551" 
d="M411 517h59q12 0 12 -12v-491q0 -103 -52 -158t-159 -56q-59 0 -105.5 17.5t-87.5 51.5q-4 4 -4 8t3 9l30 41q7 10 16 3q72 -55 148 -56q66 1 98.5 35.5t30.5 109.5v23q-62 -26 -124 -26q-56 0 -104.5 22.5t-78 67t-29.5 109.5v290q0 12 11 12h59q12 0 12 -12v-286
q0 -65 38.5 -96t101.5 -31q31 0 61 7t53 20v386q0 12 11 12z" />
    <glyph glyph-name="uni0444" unicode="&#x444;" horiz-adv-x="735" 
d="M327 -178v178h-80q-86 0 -141.5 51.5t-55.5 147.5v119q0 62 26.5 107t72.5 68.5t105 23.5h73v187q0 11 11 11h59q11 0 11 -11v-187h80q90 0 143.5 -53t53.5 -146v-119q0 -64 -26 -109t-69 -67.5t-94 -22.5h-88v-178q0 -12 -11 -12h-59q-11 0 -11 12zM260 74h67v369h-70
q-61 0 -93 -32t-32 -96v-114q0 -127 128 -127zM604 201v114q0 64 -32.5 96t-92.5 32h-71v-369h67q129 0 129 127z" />
    <glyph glyph-name="uni0445" unicode="&#x445;" horiz-adv-x="487" 
d="M470 7q0 -7 -9 -7h-74q-9 0 -13 7l-130 197l-130 -197q-4 -7 -14 -7h-74q-7 0 -9 4t2 10l174 247l-163 242q-2 2 -2 7q0 7 9 7h70q8 0 14 -8l123 -190l123 190q6 8 13 8h70q7 0 9.5 -4.5t-1.5 -9.5l-164 -242l174 -247q2 -3 2 -7z" />
    <glyph glyph-name="uni0446" unicode="&#x446;" horiz-adv-x="568" 
d="M462 -120v120h-382q-11 0 -11 11v494q0 12 11 12h59q12 0 12 -12v-431h244v431q0 12 11 12h59q5 0 8.5 -3.5t3.5 -8.5v-432h50q12 0 12 -11v-182q0 -11 -12 -11h-53q-12 0 -12 11z" />
    <glyph glyph-name="uni0447" unicode="&#x447;" horiz-adv-x="518" 
d="M367 11v175q-62 -24 -123 -24q-93 0 -146.5 52t-53.5 158v133q0 12 11 12h60q11 0 11 -12v-131q0 -72 30 -105t89 -33q31 0 63.5 7t58.5 17v245q0 12 12 12h59q11 0 11 -12v-494q0 -11 -11 -11h-59q-12 0 -12 11z" />
    <glyph glyph-name="uni0448" unicode="&#x448;" horiz-adv-x="779" 
d="M69 11v494q0 12 11 12h59q11 0 11 -12v-431h199v431q0 12 11 12h59q11 0 11 -12v-431h199v431q0 12 11 12h59q11 0 11 -12v-494q0 -11 -11 -11h-619q-11 0 -11 11z" />
    <glyph glyph-name="uni0449" unicode="&#x449;" horiz-adv-x="801" 
d="M696 -120v120h-616q-11 0 -11 11v494q0 12 11 12h59q11 0 11 -12v-431h199v431q0 12 11 12h59q11 0 11 -12v-431h199v431q0 12 11 12h59q11 0 11 -12v-432h51q11 0 11 -11v-182q0 -11 -11 -11h-54q-11 0 -11 11z" />
    <glyph glyph-name="uni044A" unicode="&#x44a;" horiz-adv-x="577" 
d="M139 11v433h-109q-12 0 -12 12v49q0 12 12 12h180q11 0 11 -12v-161h127q92 0 145.5 -47t53.5 -128q0 -86 -52 -127.5t-147 -41.5h-197q-12 0 -12 11zM336 70q65 0 97 25t32 76q0 103 -129 103h-115v-204h115z" />
    <glyph glyph-name="uni044B" unicode="&#x44b;" horiz-adv-x="691" 
d="M69 11v494q0 12 11 12h59q12 0 12 -12v-161h127q92 0 145.5 -47t53.5 -128q0 -86 -52 -127.5t-147 -41.5h-198q-11 0 -11 11zM265 70q65 0 97 25.5t32 77.5q0 50 -32.5 75.5t-96.5 25.5h-114v-204h114zM540 11v494q0 12 11 12h59q12 0 12 -12v-494q0 -11 -12 -11h-59
q-11 0 -11 11z" />
    <glyph glyph-name="uni044C" unicode="&#x44c;" horiz-adv-x="507" 
d="M69 11v494q0 12 11 12h59q12 0 12 -12v-161h127q92 0 145.5 -47t53.5 -128q0 -86 -52 -127.5t-147 -41.5h-198q-11 0 -11 11zM265 70q65 0 97 25.5t32 77.5q0 50 -32.5 75.5t-96.5 25.5h-114v-204h114z" />
    <glyph glyph-name="uni044D" unicode="&#x44d;" horiz-adv-x="477" 
d="M308.5 94.5q35.5 32.5 35.5 85.5v52h-209q-11 0 -11 12v43q0 11 11 11h209v38q0 53 -35.5 85.5t-97.5 32.5q-71 0 -133 -38q-2 -1 -5 -1q-5 0 -10 5l-27 41q-2 2 -2 7q0 7 5 9q81 51 174 51q64 0 112.5 -24.5t74.5 -68t26 -99.5v-156q0 -55 -26 -98.5t-74.5 -68
t-113.5 -24.5q-53 0 -97 14.5t-85 43.5q-9 6 -3 16l29 41q3 6 8 6q4 0 8 -3q66 -45 139 -45q62 0 97.5 32.5z" />
    <glyph glyph-name="uni044E" unicode="&#x44e;" horiz-adv-x="724" 
d="M278.5 433q25.5 45 73 70t110.5 25q64 0 111.5 -25t73.5 -70t26 -101v-150q0 -56 -26 -100t-73.5 -68.5t-111.5 -24.5q-63 0 -110.5 24.5t-73 68.5t-25.5 100v51h-104v-222q0 -11 -12 -11h-57q-11 0 -11 11v494q0 12 11 12h57q12 0 12 -12v-199h104v26q0 56 25.5 101z
M557.5 95.5q33.5 32.5 33.5 86.5v150q0 55 -33.5 88.5t-94.5 33.5t-94.5 -33.5t-33.5 -88.5v-150q0 -54 33.5 -86.5t94.5 -32.5t94.5 32.5z" />
    <glyph glyph-name="uni044F" unicode="&#x44f;" horiz-adv-x="515" 
d="M34 6q0 4 3 8l146 184q-68 11 -104.5 52.5t-36.5 103.5q0 80 53 121.5t143 41.5h196q12 0 12 -12v-494q0 -11 -12 -11h-59q-11 0 -11 11v181h-91l-144 -185q-4 -7 -13 -7h-73q-9 0 -9 6zM153 284.5q29 -23.5 85 -23.5h126v186h-126q-114 0 -114 -93q0 -46 29 -69.5z" />
    <glyph glyph-name="uni0451" unicode="&#x451;" horiz-adv-x="518" 
d="M199 627.5q-13 -12.5 -34 -12.5t-34 13t-13 34q0 22 13 35t34 13t34 -13t13 -35t-13 -34.5zM391 628q-13 -13 -34 -13t-34.5 13t-13.5 34q0 22 13.5 35t34.5 13t34 -13t13 -35q0 -21 -13 -34zM461 219h-327v-42q0 -55 36.5 -85t93.5 -30q47 0 83.5 15t69.5 41q2 2 7 2
q7 0 9 -5l29 -38q3 -4 3 -7q0 -4 -5 -9q-86 -72 -198 -72q-56 0 -104 21.5t-77.5 64t-29.5 102.5v152q0 66 29 110.5t77.5 66.5t105.5 22t104.5 -22t76 -66.5t28.5 -110.5v-98q0 -12 -11 -12zM356.5 422q-35.5 32 -93.5 32q-59 0 -94 -31.5t-35 -93.5v-42h258v42
q0 61 -35.5 93z" />
    <glyph glyph-name="uni0452" unicode="&#x452;" horiz-adv-x="558" 
d="M276 516q99 0 158.5 -53.5t59.5 -164.5v-309q0 -99 -36.5 -144t-110.5 -45q-21 0 -44 3q-10 1 -10 13v51q0 11 12 11l35 -2q36 0 54 27t18 85v307q0 78 -35.5 112.5t-105.5 34.5q-65 0 -120 -26v-405q0 -11 -12 -11h-59q-11 0 -11 11v575h-68q-12 0 -12 11v34q0 11 12 11
h68v62q0 11 11 11h59q12 0 12 -11v-62h139q11 0 11 -11v-34q0 -11 -11 -11h-139v-95q58 25 125 25z" />
    <glyph glyph-name="uni0453" unicode="&#x453;" horiz-adv-x="406" 
d="M69 11v494q0 12 11 12h299q11 0 11 -12v-50q0 -12 -11 -12h-228v-432q0 -11 -12 -11h-59q-11 0 -11 11zM166 601q-3 4 1 10l81 133q5 7 14 7h63q9 0 9 -6q0 -3 -3 -8l-96 -133q-5 -7 -14 -7h-45q-7 0 -10 4z" />
    <glyph glyph-name="uni0454" unicode="&#x454;" horiz-adv-x="477" 
d="M405 107q5 3 8 3q5 0 8 -6l29 -41q2 -2 2 -7q0 -6 -5 -9q-41 -29 -85 -43.5t-97 -14.5q-65 0 -113.5 24.5t-74.5 68t-26 98.5v156q0 56 26 99.5t74.5 68t112.5 24.5q93 0 174 -51q9 -6 3 -16l-27 -41q-7 -8 -15 -4q-62 38 -133 38q-62 0 -97.5 -32.5t-35.5 -85.5v-38h209
q11 0 11 -11v-43q0 -12 -11 -12h-209v-52q0 -53 35.5 -85.5t97.5 -32.5q73 0 139 45z" />
    <glyph glyph-name="uni0455" unicode="&#x455;" horiz-adv-x="475" 
d="M385 30.5q-56 -41.5 -147 -41.5q-111 0 -198 64q-8 5 -3 16l27 46q3 6 8 6q3 0 8 -3q75 -56 160 -56q52 0 85 21t33 59q0 37 -30.5 53t-87.5 27q-52 11 -92.5 26t-71.5 47.5t-31 85.5q0 72 57.5 109.5t139.5 37.5q91 0 174 -47q5 -2 6 -6t-2 -9l-27 -45q-2 -5 -6.5 -6
t-8.5 2q-69 37 -140 37q-52 0 -82 -19.5t-30 -53.5q0 -37 32.5 -54t97.5 -30q55 -11 92.5 -24.5t65 -44t27.5 -82.5q0 -74 -56 -115.5z" />
    <glyph glyph-name="uni0456" unicode="&#x456;" horiz-adv-x="220" 
d="M146 627q-14 -14 -35 -14t-35.5 14t-14.5 35t14.5 35t35.5 14t35 -13.5t14 -35.5q0 -21 -14 -35zM69 11v494q0 12 12 12h59q11 0 11 -12v-494q0 -11 -11 -11h-59q-12 0 -12 11z" />
    <glyph glyph-name="uni0457" unicode="&#x457;" horiz-adv-x="220" 
d="M73 629q-13 -13 -33 -13q-19 0 -32.5 13.5t-13.5 32.5q0 20 13 33.5t33 13.5t33 -13.5t13 -33.5t-13 -33zM211.5 629q-13.5 -13 -33.5 -13t-33 13t-13 33t13 33.5t33 13.5t33.5 -13.5t13.5 -33.5t-13.5 -33zM69 11v494q0 12 11 12h59q12 0 12 -12v-494q0 -11 -12 -11h-59
q-11 0 -11 11z" />
    <glyph glyph-name="uni0458" unicode="&#x458;" horiz-adv-x="228" 
d="M154 627q-14 -14 -35 -14t-35.5 14t-14.5 35t14.5 35t35.5 14t35 -13.5t14 -35.5q0 -21 -14 -35zM120 -154q-39 -47 -111 -47q-27 0 -49 3q-11 1 -11 13v50q0 12 12 12q21 -3 39 -3q39 0 58 25t19 84v522q0 12 12 12h59q11 0 11 -12v-522q0 -90 -39 -137z" />
    <glyph glyph-name="uni0459" unicode="&#x459;" horiz-adv-x="839" 
d="M157 70q-18 -38 -49 -55t-82 -19q-11 0 -11 11v51q0 10 11 12q23 1 38 12t26 38t19 78q14 90 26 307q0 5 3.5 8.5t8.5 3.5h326q11 0 11 -12v-161h126q92 0 145.5 -47t53.5 -128q0 -86 -52 -127.5t-147 -41.5h-196q-12 0 -12 11v432h-190q-6 -152 -25 -265
q-12 -70 -30 -108zM597 70q66 0 97.5 25t31.5 78q0 50 -32.5 75.5t-96.5 25.5h-113v-204h113z" />
    <glyph glyph-name="uni045A" unicode="&#x45a;" horiz-adv-x="819" 
d="M69 11v494q0 12 11 12h59q12 0 12 -12v-180h237v180q0 12 11 12h59q5 0 8.5 -3.5t3.5 -8.5v-181h122q92 0 145 -43t53 -122t-52.5 -119t-145.5 -40h-193q-11 0 -11 11v240h-237v-240q0 -11 -12 -11h-59q-11 0 -11 11zM579 70q64 0 96 23t32 71q0 90 -128 90h-109v-184
h109z" />
    <glyph glyph-name="uni045B" unicode="&#x45b;" horiz-adv-x="558" 
d="M277 516q99 0 158 -53.5t59 -164.5v-287q0 -11 -11 -11h-59q-12 0 -12 11v284q0 78 -35.5 112.5t-104.5 34.5q-64 0 -121 -26v-405q0 -11 -11 -11h-59q-12 0 -12 11v575h-68q-11 0 -11 11v34q0 12 11 12h68v61q0 11 12 11h59q11 0 11 -11v-61h140q11 0 11 -12v-34
q0 -11 -11 -11h-140v-95q60 25 126 25z" />
    <glyph glyph-name="uni045C" unicode="&#x45c;" horiz-adv-x="495" 
d="M395 7l-189 227l-57 -57v-166q0 -11 -12 -11h-57q-11 0 -11 11v494q0 12 11 12h57q5 0 8.5 -3.5t3.5 -8.5v-227l230 233q5 6 14 6h72q7 0 9 -4.5t-3 -9.5l-210 -212l226 -277q3 -4 3 -7q0 -7 -10 -7h-70q-9 0 -15 7zM201 601q-3 4 1 10l81 133q5 7 14 7h63q9 0 9 -6
q0 -3 -3 -8l-96 -133q-5 -7 -14 -7h-45q-7 0 -10 4z" />
    <glyph glyph-name="uni045D" unicode="&#x45d;" horiz-adv-x="562" 
d="M276 598q-9 0 -14 7l-96 133q-3 5 -3 8q0 6 9 6h63q9 0 14 -7l81 -133q2 -4 2 -6q0 -8 -11 -8h-45zM69 11v494q0 12 11 12h59q11 0 11 -12v-266l-1 -122q17 31 45.5 80t42.5 70l161 242q5 8 14 8h70q11 0 11 -12v-494q0 -11 -11 -11h-58q-12 0 -12 11v258q0 53 2 125h-1
q-17 -31 -43 -75.5t-43 -69.5l-162 -242q-4 -7 -14 -7h-71q-11 0 -11 11z" />
    <glyph glyph-name="uni045E" unicode="&#x45e;" horiz-adv-x="551" 
d="M380.5 634q-40.5 -37 -107.5 -37q-66 0 -105.5 36.5t-47.5 97.5v2q0 4 3 7t7 4l40 5h2q8 0 11 -9q14 -80 90 -80q78 0 92 80q1 10 13 9l39 -5q12 -2 11 -12q-7 -61 -47.5 -98zM411 517h59q12 0 12 -12v-491q0 -103 -52 -158t-159 -56q-59 0 -105.5 17.5t-87.5 51.5
q-4 4 -4 8t3 9l30 41q7 10 16 3q72 -55 148 -56q66 1 98.5 35.5t30.5 109.5v23q-62 -26 -124 -26q-56 0 -104.5 22.5t-78 67t-29.5 109.5v290q0 12 11 12h59q12 0 12 -12v-286q0 -65 38.5 -96t101.5 -31q31 0 61 7t53 20v386q0 12 11 12z" />
    <glyph glyph-name="uni045F" unicode="&#x45f;" horiz-adv-x="546" 
d="M477 505v-494q0 -11 -11 -11h-155v-120q0 -11 -12 -11h-52q-12 0 -12 11v120h-154q-12 0 -12 11v494q0 12 12 12h59q11 0 11 -12v-431h244v431q0 5 3.5 8.5t8.5 3.5h59q11 0 11 -12z" />
    <glyph glyph-name="uni0490" unicode="&#x490;" horiz-adv-x="493" 
d="M89 11v693q0 11 12 11h299v143q0 11 12 11h57q12 0 12 -11v-210q0 -11 -12 -11h-294v-626q0 -11 -12 -11h-62q-12 0 -12 11z" />
    <glyph glyph-name="uni0491" unicode="&#x491;" horiz-adv-x="406" 
d="M326 636h53q11 0 11 -11v-170q0 -12 -11 -12h-228v-432q0 -11 -12 -11h-59q-11 0 -11 11v494q0 12 11 12h235v108q0 11 11 11z" />
    <glyph glyph-name="Wgrave" unicode="&#x1e80;" horiz-adv-x="951" 
d="M323 925q-4 4 -4 7q0 7 10 7h70q9 0 13 -7l105 -133q2 -3 2 -7q0 -7 -9 -7h-52q-8 0 -14 7zM206 10l-193 692l-1 3q0 10 11 10h67q11 0 12 -10l104 -391q29 -109 50 -211h2q25 100 61 223l110 368q3 10 12 10h68q9 0 12 -10l111 -368q40 -139 61 -223h2q28 130 49 211
l104 391q3 10 12 10h68q6 0 9 -4t1 -9l-194 -692q-3 -10 -12 -10h-73q-11 0 -12 10l-115 373q-37 126 -55 211h-3q-24 -110 -55 -211l-115 -373q-3 -10 -12 -10h-73q-10 0 -13 10z" />
    <glyph glyph-name="wgrave" unicode="&#x1e81;" horiz-adv-x="756" 
d="M374 597q-9 0 -14 7l-96 133q-3 5 -3 8q0 6 9 6h63q9 0 14 -7l81 -133q2 -4 2 -6q0 -8 -11 -8h-45zM167 10l-149 493l-1 5q0 4 3 6.5t7 2.5h62q10 0 13 -10l66 -237l45 -177h2q28 116 42 162l76 243q3 10 12 10h66q9 0 12 -10l76 -243q19 -61 43 -162h1l45 177l67 237
q1 10 12 10h62q6 0 8.5 -4t0.5 -10l-148 -493q-3 -10 -13 -10h-70q-11 0 -12 10l-84 272q-16 54 -31 125h-3q-17 -69 -32 -125l-84 -272q-1 -10 -12 -10h-70q-11 0 -12 10z" />
    <glyph glyph-name="Wacute" unicode="&#x1e82;" horiz-adv-x="951" 
d="M206 10l-193 692l-1 3q0 10 11 10h67q11 0 12 -10l104 -391q29 -109 50 -211h2q25 100 61 223l110 368q3 10 12 10h68q9 0 12 -10l111 -368q40 -139 61 -223h2q28 130 49 211l104 391q3 10 12 10h68q6 0 9 -4t1 -9l-194 -692q-3 -10 -12 -10h-73q-11 0 -12 10l-115 373
q-37 126 -55 211h-3q-24 -110 -55 -211l-115 -373q-3 -10 -12 -10h-73q-10 0 -13 10zM482 785h-52q-7 0 -9 4t2 10l105 133q4 7 13 7h70q7 0 9 -4.5t-3 -9.5l-121 -133q-6 -7 -14 -7z" />
    <glyph glyph-name="wacute" unicode="&#x1e83;" horiz-adv-x="756" 
d="M167 10l-149 493l-1 5q0 4 3 6.5t7 2.5h62q10 0 13 -10l66 -237l45 -177h2q28 116 42 162l76 243q3 10 12 10h66q9 0 12 -10l76 -243q19 -61 43 -162h1l45 177l67 237q1 10 12 10h62q6 0 8.5 -4t0.5 -10l-148 -493q-3 -10 -13 -10h-70q-11 0 -12 10l-84 272
q-16 54 -31 125h-3q-17 -69 -32 -125l-84 -272q-1 -10 -12 -10h-70q-11 0 -12 10zM316 601q-3 4 1 10l81 133q5 7 14 7h63q9 0 9 -6q0 -3 -3 -8l-96 -133q-5 -7 -14 -7h-45q-7 0 -10 4z" />
    <glyph glyph-name="Wdieresis" unicode="&#x1e84;" horiz-adv-x="951" 
d="M395 831.5q-14 -13.5 -35 -13.5q-22 0 -35.5 13.5t-13.5 35.5t13.5 36t35.5 14q21 0 35 -14t14 -36t-14 -35.5zM626 831.5q-14 -13.5 -36 -13.5t-35.5 13.5t-13.5 35.5t13.5 36t35.5 14t36 -14t14 -36t-14 -35.5zM206 10l-193 692l-1 3q0 10 11 10h67q11 0 12 -10
l104 -391q29 -109 50 -211h2q25 100 61 223l110 368q3 10 12 10h68q9 0 12 -10l111 -368q40 -139 61 -223h2q28 130 49 211l104 391q3 10 12 10h68q6 0 9 -4t1 -9l-194 -692q-3 -10 -12 -10h-73q-11 0 -12 10l-115 373q-37 126 -55 211h-3q-24 -110 -55 -211l-115 -373
q-3 -10 -12 -10h-73q-10 0 -13 10z" />
    <glyph glyph-name="wdieresis" unicode="&#x1e85;" horiz-adv-x="756" 
d="M304 627.5q-13 -12.5 -34 -12.5t-34.5 13t-13.5 34q0 22 13.5 35t34.5 13t34 -13t13 -35t-13 -34.5zM521 628q-13 -13 -34 -13t-34.5 13t-13.5 34q0 22 13.5 35t34.5 13t34 -13t13 -35q0 -21 -13 -34zM167 10l-149 493l-1 5q0 4 3 6.5t7 2.5h62q10 0 13 -10l66 -237
l45 -177h2q28 116 42 162l76 243q3 10 12 10h66q9 0 12 -10l76 -243q19 -61 43 -162h1l45 177l67 237q1 10 12 10h62q6 0 8.5 -4t0.5 -10l-148 -493q-3 -10 -13 -10h-70q-11 0 -12 10l-84 272q-16 54 -31 125h-3q-17 -69 -32 -125l-84 -272q-1 -10 -12 -10h-70q-11 0 -12 10
z" />
    <glyph glyph-name="Ygrave" unicode="&#x1ef2;" horiz-adv-x="568" 
d="M138 925q-4 4 -4 7q0 7 10 7h70q9 0 13 -7l105 -133q2 -3 2 -7q0 -7 -9 -7h-52q-8 0 -14 7zM241 11v261l-235 429q-2 4 -2 6q0 8 10 8h72q10 0 13 -8l185 -357l184 357q3 8 13 8h72q7 0 9 -4t-1 -10l-234 -431v-259q0 -11 -12 -11h-63q-11 0 -11 11z" />
    <glyph glyph-name="ygrave" unicode="&#x1ef3;" horiz-adv-x="551" 
d="M273 597q-9 0 -14 7l-96 133q-3 5 -3 8q0 6 9 6h63q9 0 14 -7l81 -133q2 -4 2 -6q0 -8 -11 -8h-45zM411 517h59q12 0 12 -12v-491q0 -103 -52 -158t-159 -56q-59 0 -105.5 17.5t-87.5 51.5q-4 4 -4 8t3 9l30 41q7 10 16 3q72 -55 148 -56q66 1 98.5 35.5t30.5 109.5v23
q-62 -26 -124 -26q-56 0 -104.5 22.5t-78 67t-29.5 109.5v290q0 12 11 12h59q12 0 12 -12v-286q0 -65 38.5 -96t101.5 -31q31 0 61 7t53 20v386q0 12 11 12z" />
    <glyph glyph-name="endash" unicode="&#x2013;" horiz-adv-x="591" 
d="M514 263h-437q-11 0 -11 11v54q0 11 11 11h437q11 0 11 -11v-54q0 -11 -11 -11z" />
    <glyph glyph-name="emdash" unicode="&#x2014;" horiz-adv-x="963" 
d="M885 263h-807q-12 0 -12 11v54q0 11 12 11h807q12 0 12 -11v-54q0 -11 -12 -11z" />
    <glyph glyph-name="quoteleft" unicode="&#x2018;" horiz-adv-x="219" 
d="M123 715h49q6 0 9 -4t1 -9l-52 -198q-3 -10 -12 -10h-64q-6 0 -8.5 4t-0.5 9l66 199q2 9 12 9z" />
    <glyph glyph-name="quoteright" unicode="&#x2019;" horiz-adv-x="217" 
d="M106 494h-49q-6 0 -9 4t-1 9l52 198q3 10 13 10h63q6 0 9 -4t1 -9l-66 -199q-3 -9 -13 -9z" />
    <glyph glyph-name="quotesinglbase" unicode="&#x201a;" horiz-adv-x="215" 
d="M79 -117h-49q-12 0 -10 13l53 198q2 10 12 10h63q6 0 9 -4t1 -9l-66 -199q-1 -9 -13 -9z" />
    <glyph glyph-name="quotedblleft" unicode="&#x201c;" horiz-adv-x="371" 
d="M46 498q-3 4 -1 9l66 198q3 10 13 10h49q6 0 9 -3.5t1 -9.5l-52 -198q-3 -10 -12 -10h-64q-6 0 -9 4zM197.5 498q-2.5 4 -0.5 9l66 198q2 10 13 10h49q6 0 8.5 -3.5t1.5 -9.5l-53 -198q-3 -10 -12 -10h-64q-6 0 -8.5 4z" />
    <glyph glyph-name="quotedblright" unicode="&#x201d;" horiz-adv-x="368" 
d="M48 497.5q-3 3.5 -1 9.5l52 198q3 10 12 10h64q6 0 8.5 -4t0.5 -9l-65 -198q-3 -10 -13 -10h-49q-6 0 -9 3.5zM199.5 497.5q-2.5 3.5 -1.5 9.5l52 198q3 10 13 10h63q6 0 9 -4t1 -9l-66 -198q-3 -10 -13 -10h-49q-6 0 -8.5 3.5z" />
    <glyph glyph-name="quotedblbase" unicode="&#x201e;" horiz-adv-x="365" 
d="M21 -113.5q-3 3.5 -1 9.5l52 198q3 10 12 10h63q6 0 9 -3.5t1 -9.5l-66 -198q-1 -4 -4 -7t-8 -3h-49q-6 0 -9 3.5zM172 -113.5q-3 3.5 -1 9.5l52 198q3 10 12 10h64q6 0 8.5 -3.5t0.5 -9.5l-65 -198q-3 -10 -13 -10h-49q-6 0 -9 3.5z" />
    <glyph glyph-name="dagger" unicode="&#x2020;" horiz-adv-x="550" 
d="M235 -128v568h-174q-12 0 -12 11v53q0 11 12 11h174v219q0 11 11 11h59q11 0 11 -11v-219h174q11 0 11 -11v-53q0 -11 -11 -11h-174v-568q0 -11 -11 -11h-59q-11 0 -11 11z" />
    <glyph glyph-name="daggerdbl" unicode="&#x2021;" horiz-adv-x="550" 
d="M235 -128v222h-174q-12 0 -12 12v52q0 12 12 12h174v270h-174q-12 0 -12 11v53q0 11 12 11h174v219q0 11 11 11h59q11 0 11 -11v-219h174q11 0 11 -11v-53q0 -11 -11 -11h-174v-270h174q11 0 11 -12v-52q0 -12 -11 -12h-174v-222q0 -11 -11 -11h-59q-11 0 -11 11z" />
    <glyph glyph-name="bullet" unicode="&#x2022;" horiz-adv-x="360" 
d="M110.5 254.5q-27.5 27.5 -27.5 70.5t27.5 70t69.5 27t69.5 -27t27.5 -70t-27.5 -70.5t-69.5 -27.5t-69.5 27.5z" />
    <glyph glyph-name="ellipsis" unicode="&#x2026;" horiz-adv-x="601" 
d="M145.5 10.5q-15.5 -15.5 -39.5 -15.5q-25 0 -40 15.5t-15 39.5q0 25 15 40.5t40 15.5q24 0 39.5 -15.5t15.5 -40.5q0 -24 -15.5 -39.5zM340.5 10.5q-15.5 -15.5 -39.5 -15.5q-25 0 -40 15.5t-15 39.5q0 25 15 40.5t40 15.5q24 0 39.5 -15.5t15.5 -40.5q0 -24 -15.5 -39.5
zM535.5 10.5q-15.5 -15.5 -40.5 -15.5t-40 15.5t-15 39.5q0 25 15 40.5t40 15.5t40.5 -15.5t15.5 -40.5q0 -24 -15.5 -39.5z" />
    <glyph glyph-name="perthousand" unicode="&#x2030;" horiz-adv-x="1067" 
d="M266.5 382.5q-37.5 -32.5 -90.5 -32.5t-90.5 32.5t-37.5 90.5v123q0 60 37.5 92t90.5 32t90.5 -32t37.5 -92v-123q0 -58 -37.5 -90.5zM102 4.5q-2 4.5 1 9.5l464 687q6 7 14 7h52q7 0 9 -4.5t-1 -9.5l-464 -687q-6 -7 -14 -7h-52q-7 0 -9 4.5zM127.5 425
q19.5 -18 48.5 -18q28 0 47.5 18t19.5 53v111q0 36 -19.5 55t-47.5 19q-29 0 -48.5 -19t-19.5 -55v-111q0 -35 19.5 -53zM669.5 23.5q-37.5 -32.5 -90.5 -32.5q-52 0 -90 32.5t-38 90.5v123q0 60 37.5 92t90.5 32q54 0 91 -32t37 -92v-123q0 -58 -37.5 -90.5zM988.5 23.5
q-37.5 -32.5 -90.5 -32.5t-90.5 32.5t-37.5 90.5v123q0 60 37.5 92t90.5 32t90.5 -32t37.5 -92v-123q0 -58 -37.5 -90.5zM531.5 66q19.5 -18 47.5 -18t47.5 18t19.5 53v111q0 36 -19.5 55t-47.5 19t-47.5 -19t-19.5 -55v-111q0 -35 19.5 -53zM849.5 66q19.5 -18 48.5 -18
q28 0 47.5 18t19.5 53v111q0 36 -19.5 55t-47.5 19q-29 0 -48.5 -19t-19.5 -55v-111q0 -35 19.5 -53z" />
    <glyph glyph-name="guilsinglleft" unicode="&#x2039;" horiz-adv-x="309" 
d="M178 78l-138 205l-2 8q0 2 2 8l138 205q4 7 14 7h64q7 0 9 -4t-2 -10l-140 -206l140 -206q2 -3 2 -7q0 -7 -9 -7h-64q-10 0 -14 7z" />
    <glyph glyph-name="guilsinglright" unicode="&#x203a;" horiz-adv-x="309" 
d="M52 71q-7 0 -9 4t2 10l140 206l-140 206q-2 3 -2 7q0 7 9 7h64q10 0 14 -7l138 -205q2 -3 2 -8t-2 -8l-138 -205q-4 -7 -14 -7h-64z" />
    <glyph glyph-name="fraction" unicode="&#x2044;" horiz-adv-x="189" 
d="M-152 0h-41q-7 0 -9 4.5t1 9.5l529 694q4 7 14 7h41q7 0 9 -4.5t-2 -9.5l-528 -694q-4 -7 -14 -7z" />
    <glyph glyph-name="zero.sups" unicode="&#x2070;" horiz-adv-x="350" 
d="M270 440q-40 -35 -95 -35t-95 35t-40 97v133q0 63 40 98t95 35q56 0 95.5 -35t39.5 -98v-133q0 -62 -40 -97zM120.5 481.5q22.5 -19.5 54.5 -19.5t54.5 19.5t22.5 58.5v127q0 39 -22.5 59t-54.5 20t-54.5 -20t-22.5 -59v-127q0 -39 22.5 -58.5z" />
    <glyph glyph-name="four.sups" unicode="&#x2074;" horiz-adv-x="328" 
d="M206 421v73h-174q-11 0 -11 11v22q0 7 3 14l138 249q5 8 13 8h37q7 0 9 -4t-1 -10l-129 -233h115v72q0 12 11 12h36q11 0 11 -12v-72h29q12 0 12 -12v-34q0 -11 -12 -11h-29v-73q0 -11 -11 -11h-36q-11 0 -11 11z" />
    <glyph glyph-name="five.sups" unicode="&#x2075;" horiz-adv-x="333" 
d="M264.5 440q-37.5 -35 -99.5 -35q-43 0 -73.5 14.5t-53.5 41.5q-3 3 -3 7q0 5 5 10l19 23q4 4 7 4q4 0 9 -5q35 -38 89 -38q37 0 57.5 19.5t21.5 56.5q0 38 -20.5 56.5t-56.5 18.5q-45 0 -77 -32q-7 -7 -16 -4l-24 8q-9 2 -9 13l6 189q0 11 12 11h211q11 0 11 -11v-33
q0 -12 -11 -12h-173l-3 -104q32 29 81 29q54 0 91 -33t37 -96t-37.5 -98z" />
    <glyph glyph-name="six.sups" unicode="&#x2076;" horiz-adv-x="336" 
d="M269 441.5q-36 -36.5 -94 -36.5q-61 0 -98 36t-37 96v143q0 57 38 90t96 33q65 0 117 -45q5 -5 5 -8q0 -2 -4 -8l-18 -23q-4 -5 -8.5 -5.5t-7.5 3.5q-20 15 -39 23t-43 8q-36 0 -57 -19t-21 -51v-56q29 37 81 37q54 0 90 -32t36 -90q0 -59 -36 -95.5zM119 482.5
q21 -20.5 53 -20.5q34 0 54.5 20.5t20.5 54.5q0 32 -19.5 50.5t-54.5 18.5q-33 0 -54 -19t-21 -50q0 -34 21 -54.5z" />
    <glyph glyph-name="seven.sups" unicode="&#x2077;" horiz-adv-x="304" 
d="M61 414q-2 4 0 9l151 318h-179q-11 0 -11 11v35q0 11 11 11h239q12 0 12 -11v-24q0 -6 -3 -14l-158 -331q-4 -8 -13 -8h-41q-6 0 -8 4z" />
    <glyph glyph-name="eight.sups" unicode="&#x2078;" horiz-adv-x="346" 
d="M273 437q-38 -32 -100 -32t-100 32t-38 87q0 30 16 54.5t47 36.5q-26 12 -40 33.5t-14 49.5q0 47 35.5 76t93.5 29q57 0 93 -29t36 -76q0 -28 -14 -49.5t-40 -33.5q31 -12 47 -36.5t16 -54.5q0 -55 -38 -87zM120.5 656q18.5 -16 52.5 -16t52.5 16t18.5 40t-19.5 38.5
t-51.5 14.5t-51.5 -14.5t-19.5 -38.5t18.5 -40zM115 479.5q21 -17.5 58 -17.5t58 17.5t21 45.5q0 26 -21 42t-58 16t-58 -16t-21 -42q0 -28 21 -45.5z" />
    <glyph glyph-name="nine.sups" unicode="&#x2079;" horiz-adv-x="338" 
d="M68.5 768q36.5 35 95.5 35q60 0 97 -35.5t37 -94.5v-145q0 -58 -37.5 -90.5t-95.5 -32.5q-68 0 -120 50q-4 4 -4 9q0 4 3 8l19 24q3 5 7.5 5.5t8.5 -3.5q39 -37 84 -37q36 0 56.5 18.5t20.5 50.5v58q-13 -18 -34.5 -28t-47.5 -10q-54 0 -90 33t-36 93q0 57 36.5 92z
M219 727.5q-21 20.5 -54 20.5t-53.5 -20t-20.5 -52q0 -34 19.5 -53.5t53.5 -19.5q35 0 55.5 19.5t20.5 51.5q0 33 -21 53.5z" />
    <glyph glyph-name="zero.sinf" unicode="&#x2080;" horiz-adv-x="350" 
d="M270 -70q-40 -35 -95 -35t-95 35t-40 97v133q0 63 40 98t95 35q56 0 95.5 -35t39.5 -98v-133q0 -62 -40 -97zM120.5 -28.5q22.5 -19.5 54.5 -19.5t54.5 19.5t22.5 58.5v127q0 39 -22.5 59t-54.5 20t-54.5 -20t-22.5 -59v-127q0 -39 22.5 -58.5z" />
    <glyph glyph-name="one.sinf" unicode="&#x2081;" horiz-adv-x="211" 
d="M100 -89v307l-50 -35q-3 -3 -7 -3q-5 0 -8 6l-17 24q-2 2 -2 6q0 5 5 9l82 58q7 5 14 5h30q11 0 11 -11v-366q0 -11 -11 -11h-36q-11 0 -11 11z" />
    <glyph glyph-name="two.sinf" unicode="&#x2082;" horiz-adv-x="319" 
d="M27 -89v30q0 9 5 14l107 103q45 48 64 74.5t19 54.5q0 24 -16.5 37t-46.5 13q-46 0 -85 -39q-4 -4 -8 -4q-5 0 -8 5l-19 25q-3 5 -3 8q0 4 4 8q22 23 53 38t69 15q55 0 86.5 -29t31.5 -76q0 -42 -24.5 -80t-82.5 -94l-60 -57h164q11 0 11 -11v-35q0 -11 -11 -11h-239
q-11 0 -11 11z" />
    <glyph glyph-name="three.sinf" unicode="&#x2083;" horiz-adv-x="321" 
d="M252.5 -69.5q-37.5 -35.5 -92.5 -35.5q-44 0 -76 15t-58 41q-7 9 -1 15l20 24q5 5 8 5q2 0 8 -4q38 -40 97 -40q33 0 53.5 21t20.5 56q0 30 -20 49t-56 19q-19 0 -34 -3h-3q-8 0 -11 8l-6 13q-1 2 -1 6q0 6 4 10l71 80l24 25h-146q-12 0 -12 11v31q0 11 12 11h215
q11 0 11 -11v-19q0 -7 -6 -13l-100 -111h13q46 0 74.5 -32t28.5 -80q0 -56 -37.5 -91.5z" />
    <glyph glyph-name="four.sinf" unicode="&#x2084;" horiz-adv-x="328" 
d="M206 -89v73h-174q-11 0 -11 11v22q0 7 3 14l138 249q5 8 13 8h37q7 0 9 -4t-1 -10l-129 -233h115v72q0 12 11 12h36q11 0 11 -12v-72h29q12 0 12 -12v-34q0 -11 -12 -11h-29v-73q0 -11 -11 -11h-36q-11 0 -11 11z" />
    <glyph glyph-name="five.sinf" unicode="&#x2085;" horiz-adv-x="333" 
d="M265.5 -70q-37.5 -35 -99.5 -35q-44 0 -74 14.5t-53 43.5q-3 3 -3 7t5 9l19 22q4 4 7 4q4 0 9 -5q35 -38 89 -38q37 0 57.5 19.5t21.5 56.5q0 38 -20.5 56.5t-56.5 18.5q-47 0 -77 -32q-7 -7 -16 -4l-24 8q-10 2 -10 13l7 189q0 11 12 11h211q11 0 11 -11v-33
q0 -12 -11 -12h-173l-3 -104q32 29 81 29q54 0 91 -33.5t37 -95.5q0 -63 -37.5 -98z" />
    <glyph glyph-name="six.sinf" unicode="&#x2086;" horiz-adv-x="336" 
d="M269 -69q-36 -36 -94 -36q-61 0 -98 36t-37 96v143q0 57 37.5 90t95.5 33q65 0 115 -45q5 -5 5 -8t-3 -8l-19 -23q-3 -5 -7.5 -5.5t-8.5 3.5q-19 15 -38 23t-43 8q-35 0 -55.5 -19t-20.5 -51v-56q29 37 81 37q54 0 90 -32t36 -90q0 -60 -36 -96zM119 -27.5
q21 -20.5 53 -20.5q34 0 54.5 20.5t20.5 54.5q0 32 -19.5 50.5t-54.5 18.5q-33 0 -54 -19t-21 -50q0 -34 21 -54.5z" />
    <glyph glyph-name="seven.sinf" unicode="&#x2087;" horiz-adv-x="304" 
d="M61 -96q-2 4 0 9l151 318h-179q-11 0 -11 11v35q0 11 11 11h240q11 0 11 -11v-24q0 -6 -3 -14l-158 -331q-4 -8 -13 -8h-41q-6 0 -8 4z" />
    <glyph glyph-name="eight.sinf" unicode="&#x2088;" horiz-adv-x="346" 
d="M273 -73q-38 -32 -100 -32t-100 32t-38 87q0 30 16 54.5t46 36.5q-53 24 -53 83q0 47 35.5 76t93.5 29q57 0 92.5 -29t35.5 -76q0 -59 -53 -83q31 -12 47 -36.5t16 -54.5q0 -55 -38 -87zM120 146q19 -16 53 -16t52.5 16t18.5 40t-19.5 38.5t-51.5 14.5t-52 -14.5
t-20 -38.5t19 -40zM115 -30.5q21 -17.5 58 -17.5t58 17.5t21 45.5q0 26 -21 42t-58 16t-58 -16t-21 -42q0 -28 21 -45.5z" />
    <glyph glyph-name="nine.sinf" unicode="&#x2089;" horiz-adv-x="338" 
d="M68.5 257q36.5 36 93.5 36q61 0 98 -36t37 -96v-143q0 -58 -37.5 -90.5t-95.5 -32.5q-65 0 -117 45q-5 5 -5 8t3 8l19 23q3 5 7.5 5.5t8.5 -3.5q19 -15 38.5 -23t44.5 -8q35 0 55.5 19t20.5 51v57q-30 -38 -81 -38q-54 0 -90 32.5t-36 91.5q0 58 36.5 94zM218 215.5
q-21 20.5 -53 20.5q-34 0 -54.5 -20t-20.5 -53t20 -52t54 -19q33 0 54 19t21 50q0 34 -21 54.5z" />
    <glyph glyph-name="Euro" unicode="&#x20ac;" horiz-adv-x="646" 
d="M460.5 85.5q51.5 16.5 93.5 46.5q2 2 7 2q6 0 8 -5l33 -47q2 -2 2 -7t-5 -8q-48 -39 -111 -58.5t-129 -19.5q-73 0 -131.5 28t-93 83t-34.5 134v20h-46q-11 0 -11 11v40q0 11 11 11h46v77h-46q-11 0 -11 11v40q0 11 11 11h46v23q0 80 34 136t92 84t131 28q62 0 122.5 -18
t110.5 -52q9 -6 3 -16l-32 -46q-2 -5 -9 -5l-8 2q-41 27 -90 41t-98 14q-80 0 -124.5 -45.5t-44.5 -122.5v-23h252q12 0 12 -11v-40q0 -11 -12 -11h-252v-77h252q12 0 12 -11v-40q0 -11 -12 -11h-252v-19q1 -77 45.5 -121.5t124.5 -44.5q52 0 103.5 16.5z" />
    <glyph glyph-name="uni20BD" unicode="&#x20bd;" horiz-adv-x="635" 
d="M535 315.5q-64 -58.5 -180 -58.5h-161v-82h181q12 0 12 -11v-43q0 -12 -12 -12h-181v-98q0 -11 -12 -11h-58q-12 0 -12 11v98h-64q-12 0 -12 12v43q0 11 12 11h64v529q0 11 12 11h231q116 0 180 -62t64 -172q0 -107 -64 -165.5zM346 641h-152v-311h152q86 0 128 38.5
t42 117.5q0 155 -170 155z" />
    <glyph glyph-name="uni2113" unicode="&#x2113;" horiz-adv-x="392" 
d="M298 4q-29 -14 -64 -14q-74 0 -111.5 50t-37.5 135v49l-14 -7t-19 -8l-5 -2q-8 0 -8 11v46q0 10 9 14l37 20v230q0 101 36.5 149.5t101.5 48.5q64 0 100.5 -46.5t36.5 -127.5q0 -92 -51.5 -161t-153.5 -130v-81q0 -60 22 -90.5t57 -30.5q43 0 81 40q4 4 8 4q5 0 9 -4
l25 -36q3 -4 3 -8t-5 -9q-28 -28 -57 -42zM256 429q33 48 33 114q0 54 -16.5 84.5t-49.5 30.5q-68 0 -68 -130v-191q68 44 101 92z" />
    <glyph glyph-name="uni2116" unicode="&#x2116;" horiz-adv-x="1100" 
d="M997 344.5q-48 -45.5 -129 -45.5t-129 45.5t-48 119.5v93q0 75 48 122t129 47t129 -47t48 -122v-93q0 -74 -48 -119.5zM88 11v693q0 11 11 11h71q8 0 13 -8l246 -403q20 -34 31 -51l73 -124l2 2q-5 142 -5 270v303q0 11 11 11h62q11 0 11 -11v-693q0 -11 -11 -11h-71
q-8 0 -14 7l-242 387q-55 87 -107 183l-2 -2l1 -48q4 -140 4 -213v-303q0 -11 -11 -11h-62q-11 0 -11 11zM790 392.5q27 -26.5 78 -26.5q50 0 77 26.5t27 71.5v93q0 47 -26.5 74.5t-77.5 27.5t-78 -27.5t-27 -74.5v-93q0 -45 27 -71.5zM712 191v47q0 12 11 12h295
q11 0 11 -12v-47q0 -11 -11 -11h-295q-11 0 -11 11z" />
    <glyph glyph-name="trademark" unicode="&#x2122;" horiz-adv-x="643" 
d="M126 422v255h-85q-2 0 -4 2t-2 4v26q0 6 6 6h212q6 0 6 -6v-26q0 -6 -6 -6h-85v-255q0 -7 -7 -7h-28q-7 0 -7 7zM294 417q-2 2 -2 5v287q0 2 2 4t4 2h31q7 0 9 -6l72 -152l20 -43l19 42l71 153q3 6 9 6h31q3 0 5 -2t2 -4v-287q0 -7 -7 -7h-27q-6 0 -6 7v128l2 94h-1
l-27 -65l-51 -102q-2 -6 -8 -6h-25q-7 0 -8 6l-52 103l-26 64h-2l3 -94v-128q0 -3 -2 -5t-4 -2h-28q-2 0 -4 2z" />
    <glyph glyph-name="estimated" unicode="&#x212e;" horiz-adv-x="852" 
d="M318 80q57 -23 114 -23q78 0 144.5 24t103.5 83q2 3 6 3h78q3 0 4 -2t-1 -4q-54 -86 -146 -129t-190 -43q-103 0 -190.5 47.5t-138.5 129.5t-51 180q0 103 51.5 190.5t138.5 138.5t190 51q104 0 191.5 -51t138.5 -138.5t51 -190.5v-31q0 -5 -5 -5h-581v-169
q35 -38 92 -61zM432 659q-60 0 -113.5 -23t-92.5 -62v-193h412v201q-89 77 -206 77z" />
    <glyph glyph-name="uni2153" unicode="&#x2153;" horiz-adv-x="848" 
d="M113 338v307l-50 -35q-3 -3 -7 -3q-5 0 -8 6l-17 23q-2 2 -2 7t5 9l82 58q7 5 14 5h30q11 0 11 -12v-365q0 -11 -11 -11h-36q-11 0 -11 11zM125 0h-41q-7 0 -9 4.5t1 9.5l529 694q4 7 14 7h41q7 0 9 -4.5t-2 -9.5l-528 -694q-4 -7 -14 -7zM767 30.5q-37 -35.5 -92 -35.5
q-44 0 -76 15t-59 41q-7 8 0 15l19 24q5 5 8 5q2 0 8 -4q38 -40 97 -40q34 0 54.5 21t20.5 56q0 30 -20.5 49t-56.5 19q-19 0 -34 -3h-3q-8 0 -11 8l-6 13q-1 2 -1 6q0 6 4 10l71 80l24 25h-146q-11 0 -11 11v31q0 11 11 11h216q11 0 11 -11v-19q0 -7 -6 -13l-100 -111h12
q46 0 74.5 -32t28.5 -80q0 -56 -37 -91.5z" />
    <glyph glyph-name="uni2154" unicode="&#x2154;" horiz-adv-x="923" 
d="M43 338v30q0 9 5 14l106 103q44 46 63.5 73.5t19.5 55.5q0 24 -16 37t-46 13q-48 0 -85 -39q-4 -4 -8 -4t-9 5l-18 25q-3 5 -3 8q0 5 3 8q53 53 123 53q55 0 86.5 -29t31.5 -76q0 -42 -24.5 -80t-82.5 -94l-25 -24l-35 -33h163q12 0 12 -11v-35q0 -11 -12 -11h-238
q-11 0 -11 11zM207 0h-41q-7 0 -9 4.5t1 9.5l529 694q4 7 14 7h41q7 0 9 -4.5t-2 -9.5l-528 -694q-4 -7 -14 -7zM842 30.5q-37 -35.5 -92 -35.5q-44 0 -76 15t-59 41q-7 8 0 15l19 24q5 5 8 5q2 0 8 -4q38 -40 97 -40q34 0 54.5 21t20.5 56q0 30 -20.5 49t-56.5 19
q-19 0 -34 -3h-3q-8 0 -11 8l-6 13q-1 2 -1 6q0 6 4 10l71 80l24 25h-146q-11 0 -11 11v31q0 11 11 11h216q11 0 11 -11v-19q0 -7 -6 -13l-100 -111h12q46 0 74.5 -32t28.5 -80q0 -56 -37 -91.5z" />
    <glyph glyph-name="oneeighth" unicode="&#x215b;" horiz-adv-x="883" 
d="M112 338v307l-50 -35q-3 -3 -7 -3q-5 0 -8 6l-17 23q-2 2 -2 7t5 9l82 58q7 5 14 5h30q11 0 11 -12v-365q0 -11 -11 -11h-36q-11 0 -11 11zM128 0h-41q-7 0 -9 4.5t1 9.5l529 694q4 7 14 7h41q7 0 9 -4.5t-2 -9.5l-528 -694q-4 -7 -14 -7zM806 27q-38 -32 -100 -32
t-100 32t-38 87q0 30 16 54.5t47 36.5q-54 24 -54 83q0 47 35.5 76t93.5 29q57 0 92.5 -29t35.5 -76q0 -59 -53 -83q31 -12 47 -36.5t16 -54.5q0 -55 -38 -87zM653.5 246q18.5 -16 52.5 -16t52.5 16t18.5 40t-19.5 38.5t-51.5 14.5t-51.5 -14.5t-19.5 -38.5t18.5 -40z
M648 69.5q21 -17.5 58 -17.5t58 17.5t21 45.5q0 26 -21 42t-58 16t-58 -16t-21 -42q0 -28 21 -45.5z" />
    <glyph glyph-name="threeeighths" unicode="&#x215c;" horiz-adv-x="919" 
d="M264 357.5q-37 -35.5 -92 -35.5q-44 0 -76 15t-59 41q-7 8 0 15l19 24q5 5 8 5q2 0 8 -4q38 -40 97 -40q34 0 54.5 21t20.5 56q0 30 -20.5 49t-56.5 19q-19 0 -34 -3h-3q-8 0 -11 8l-6 13q-1 2 -1 6q0 6 4 10l71 80l24 25h-146q-11 0 -11 11v31q0 11 11 11h216
q11 0 11 -11v-19q0 -7 -6 -13l-100 -111h12q46 0 74.5 -32t28.5 -80q0 -56 -37 -91.5zM202 0h-41q-7 0 -9 4.5t1 9.5l529 694q4 7 14 7h41q7 0 9 -4.5t-2 -9.5l-528 -694q-4 -7 -14 -7zM840 27q-38 -32 -100 -32t-100 32t-38 87q0 30 16 54.5t47 36.5q-54 24 -54 83
q0 47 35.5 76t93.5 29q57 0 92.5 -29t35.5 -76q0 -59 -53 -83q31 -12 47 -36.5t16 -54.5q0 -55 -38 -87zM687.5 246q18.5 -16 52.5 -16t52.5 16t18.5 40t-19.5 38.5t-51.5 14.5t-51.5 -14.5t-19.5 -38.5t18.5 -40zM682 69.5q21 -17.5 58 -17.5t58 17.5t21 45.5q0 26 -21 42
t-58 16t-58 -16t-21 -42q0 -28 21 -45.5z" />
    <glyph glyph-name="fiveeighths" unicode="&#x215d;" horiz-adv-x="924" 
d="M274.5 357q-37.5 -35 -99.5 -35q-43 0 -73.5 14.5t-53.5 41.5q-3 3 -3 7q0 5 5 10l19 23q4 4 7 4q4 0 9 -5q35 -38 89 -38q37 0 57.5 19.5t21.5 56.5q0 38 -20.5 56.5t-56.5 18.5q-45 0 -77 -32q-7 -7 -16 -4l-24 8q-9 2 -9 13l6 189q0 11 12 11h211q11 0 11 -11v-33
q0 -12 -11 -12h-173l-3 -104q32 29 81 29q54 0 91 -33t37 -96t-37.5 -98zM209 0h-41q-7 0 -9 4.5t1 9.5l529 694q4 7 14 7h41q7 0 9 -4.5t-2 -9.5l-528 -694q-4 -7 -14 -7zM845 27q-38 -32 -100 -32t-100 32t-38 87q0 30 16 54.5t47 36.5q-54 24 -54 83q0 47 35.5 76
t93.5 29q57 0 92.5 -29t35.5 -76q0 -59 -53 -83q31 -12 47 -36.5t16 -54.5q0 -55 -38 -87zM692.5 246q18.5 -16 52.5 -16t52.5 16t18.5 40t-19.5 38.5t-51.5 14.5t-51.5 -14.5t-19.5 -38.5t18.5 -40zM687 69.5q21 -17.5 58 -17.5t58 17.5t21 45.5q0 26 -21 42t-58 16
t-58 -16t-21 -42q0 -28 21 -45.5z" />
    <glyph glyph-name="seveneighths" unicode="&#x215e;" horiz-adv-x="831" 
d="M76 331q-2 4 0 9l151 318h-179q-11 0 -11 11v35q0 11 11 11h240q11 0 11 -11v-24q0 -6 -3 -14l-158 -331q-3 -8 -13 -8h-41q-6 0 -8 4zM125 0h-41q-7 0 -9 4.5t1 9.5l529 694q4 7 14 7h41q7 0 9 -4.5t-2 -9.5l-528 -694q-4 -7 -14 -7zM753 27q-38 -32 -100 -32t-100 32
t-38 87q0 30 16 54.5t47 36.5q-54 24 -54 83q0 47 35.5 76t93.5 29q57 0 92.5 -29t35.5 -76q0 -59 -53 -83q31 -12 47 -36.5t16 -54.5q0 -55 -38 -87zM600.5 246q18.5 -16 52.5 -16t52.5 16t18.5 40t-19.5 38.5t-51.5 14.5t-51.5 -14.5t-19.5 -38.5t18.5 -40zM595 69.5
q21 -17.5 58 -17.5t58 17.5t21 45.5q0 26 -21 42t-58 16t-58 -16t-21 -42q0 -28 21 -45.5z" />
    <glyph glyph-name="arrowleft" unicode="&#x2190;" horiz-adv-x="654" 
d="M604 373v-47q0 -12 -11 -12h-440l113 -104q4 -3 4 -8q0 -4 -4 -8l-30 -30q-4 -4 -9 -4t-8 3l-166 160q-6 6 -6 14v25q0 8 6 14l167 166q4 4 8 4q5 0 8 -4l30 -30q4 -4 4 -8q0 -5 -4 -8l-115 -112h442q11 0 11 -11z" />
    <glyph glyph-name="arrowup" unicode="&#x2191;" horiz-adv-x="446" 
d="M419 456q0 -5 -4 -9l-29 -28q-4 -4 -8 -4q-2 0 -8 4l-113 112v-440q0 -12 -12 -12h-47q-11 0 -11 12v440l-110 -109q-6 -4 -8 -4t-8 4l-29 29q-4 4 -4 9q0 4 4 8l163 162q8 6 15 6h24q8 0 14 -6l167 -166q4 -3 4 -8z" />
    <glyph glyph-name="arrowright" unicode="&#x2192;" horiz-adv-x="654" 
d="M427 546q5 0 8 -4l166 -160q6 -5 6 -14v-25q0 -9 -6 -14l-166 -166q-3 -4 -8 -4t-8 4l-31 30q-4 6 -4 8q0 4 4 8l116 112h-442q-12 0 -12 11v47q0 12 12 12h440l-113 104q-4 4 -4 8.5t3 7.5l31 31q3 4 8 4z" />
    <glyph glyph-name="arrowdown" unicode="&#x2193;" horiz-adv-x="445" 
d="M378 292q5 0 8 -3l29 -29q4 -3 4 -8t-4 -9l-166 -166q-6 -6 -14 -6h-25q-8 0 -14 6l-164 163q-4 4 -4 8t4 8l29 29q5 5 8 5q5 0 8 -5l110 -109v441q0 11 12 11h47q11 0 11 -11v-441l113 113q5 3 8 3z" />
    <glyph glyph-name="arrowboth" unicode="&#x2194;" horiz-adv-x="785" 
d="M568 547l167 -160q5 -6 5 -15v-24q0 -9 -5 -15l-167 -166q-4 -4 -8 -4q-5 0 -8 4l-31 30q-3 5 -3 9t3 8l116 111h-489l116 -111q4 -4 4 -9q0 -4 -4 -8l-30 -30q-4 -4 -8 -4q-3 0 -9 4l-166 166q-6 8 -6 15v24q0 8 6 15l166 160q3 3 8 3t9 -4l30 -30q4 -4 4 -8t-5 -9
l-113 -104h485l-113 104q-4 4 -4 9t3 8l31 30q9 9 16 1z" />
    <glyph glyph-name="arrowupdn" unicode="&#x2195;" horiz-adv-x="486" 
d="M390 232q3 3 8 3t8 -3l29 -29q3 -3 3 -8q0 -4 -3 -9l-167 -166q-6 -6 -14 -6h-25q-8 0 -14 6l-163 163q-4 3 -4 8q0 4 4 8l28 29q4 4 9 4q4 0 8 -4l110 -109v480l-110 -109q-4 -4 -8 -4t-8 4l-29 29q-4 4 -4 8q0 5 4 8l163 163q6 6 14 6h25q8 0 14 -6l167 -167q4 -3 4 -8
q0 -4 -4 -8l-29 -29q-3 -3 -8 -3t-8 3l-113 113v-480z" />
    <glyph glyph-name="uni2196" unicode="&#x2196;" horiz-adv-x="520" 
d="M482 168q0 -4 -4 -8l-33 -33q-3 -4 -8 -4t-9 4l-311 312v-160q0 -12 -12 -12h-41q-11 0 -11 12v235q0 8 6 14l17 18q6 6 14 6h231q12 0 12 -11v-41q0 -12 -12 -12h-155l312 -312q4 -3 4 -8z" />
    <glyph glyph-name="uni2197" unicode="&#x2197;" horiz-adv-x="520" 
d="M444 546l17 -18q6 -6 6 -14v-235q0 -11 -12 -11l-41 -1q-11 0 -11 12v160l-312 -312q-4 -4 -9 -4q-4 0 -7 4l-33 33q-4 6 -4 8q0 3 4 9l312 311h-156q-11 0 -11 12v41q0 11 12 11h230q8 0 15 -6z" />
    <glyph glyph-name="uni2198" unicode="&#x2198;" horiz-adv-x="518" 
d="M410 408h42q12 0 12 -11v-230q0 -7 -6 -15l-17 -18q-6 -5 -15 -5h-235q-12 0 -12 11v42q0 11 11 11h160l-311 311q-4 4 -4 8q0 5 4 9l33 33q5 5 8 5q5 0 8 -5l311 -310v153q0 11 11 11z" />
    <glyph glyph-name="uni2199" unicode="&#x2199;" horiz-adv-x="520" 
d="M484 512q0 -4 -4 -8l-311 -311h159q12 0 12 -11v-42q0 -11 -12 -11h-236q-9 0 -14 5l-17 18q-6 8 -6 15v230q0 11 11 11h42q12 0 12 -11v-153l311 310q4 4 8 4q5 0 8 -4l33 -34q4 -4 4 -8z" />
    <glyph glyph-name="partialdiff" unicode="&#x2202;" horiz-adv-x="536" 
d="M139 726q173 -2 257 -109t84 -331v-43q0 -119 -57.5 -186t-159.5 -67q-64 0 -113.5 32t-77 89.5t-27.5 131.5q0 72 27.5 127t74.5 85.5t105 30.5q49 0 84 -19t62 -57q-13 114 -80 178.5t-179 68.5q-11 0 -11 11v47q0 11 11 11zM162 109.5q36 -46.5 101 -46.5
q67 0 101.5 46t34.5 134q0 83 -37.5 126.5t-101.5 43.5q-61 0 -97.5 -44.5t-36.5 -125.5q0 -87 36 -133.5z" />
    </font>
</defs>
</svg>
