<?xml version="1.0" encoding="UTF-8"?>
<!DOCTYPE svg PUBLIC "-//W3C//DTD SVG 1.1//EN" "http://www.w3.org/Graphics/SVG/1.1/DTD/svg11.dtd">
<!-- Creator: CorelDRAW 2020 (64 Bit) -->
<svg xmlns="http://www.w3.org/2000/svg" xml:space="preserve" width="35.5598mm" height="35.5598mm" version="1.1" style="shape-rendering:geometricPrecision; text-rendering:geometricPrecision; image-rendering:optimizeQuality; fill-rule:evenodd; clip-rule:evenodd"
viewBox="0 0 3555.98 3555.98"
 xmlns:xlink="http://www.w3.org/1999/xlink"
 xmlns:xodm="http://www.corel.com/coreldraw/odm/2003">
 <defs>
  <style type="text/css">
   <![CDATA[
    .fil0 {fill:#4DBAEA;fill-rule:nonzero}
    .fil1 {fill:white;fill-rule:nonzero}
   ]]>
  </style>
 </defs>
 <g id="Camada_x0020_1">
  <metadata id="CorelCorpID_0Corel-Layer"/>
  <g id="_2125580817168">
   <path class="fil0" d="M1777.99 3556.11c982,0 1778.06,-796.11 1778.06,-1778.1 0,-982.03 -796.06,-1778.14 -1778.06,-1778.14 -982,0 -1778.06,796.11 -1778.06,1778.14 0,981.99 796.06,1778.1 1778.06,1778.1z"/>
   <path class="fil1" d="M794.55 1460.38l-286.63 634.42 343.22 0 42.57 -101.18 97.23 0 42.6 101.18 377.76 0 0 -77.22 33.63 77.22 195.36 0 33.76 -78.83 0 78.83 785.49 0 95.5 -98.65 89.52 98.65 403.47 0.81 -287.55 -316.31 287.55 -318.92 -397.17 0 -93.08 96.72 -86.66 -96.72 -854.59 0 -73.47 163.8 -75.08 -163.8 -342.39 0 0 74.57 -38.1 -74.57 -292.94 0 0 0zm66.56 90.12l167.25 0 190.08 430.22 0 -430.22 183.29 0 146.83 308.38 135.34 -308.38 182.37 0 0 455.19 -110.95 0 -0.92 -356.74 -161.86 356.74 -99.25 0 -162.67 -356.74 0 356.74 -228.22 0 -43.37 -102.02 -233.58 0 -43.2 101.93 -122.23 0 201.09 -455.1zm1106.68 0l451.11 0 137.87 149.05 142.45 -149.05 137.87 0 -209.61 228.8 209.61 226.19 -144.18 0 -137.95 -150.67 -143.17 150.67 -444.12 0 0 -454.99 0.12 0zm-1025.4 77.02l-77.02 181.77 153.94 0 -76.92 -181.77zm1136.83 17.17l0 83.12 246.1 0 0 92.57 -246.1 0 0 90.72 276.06 0 128.34 -133.61 -122.84 -132.89 -281.56 0.09z"/>
  </g>
 </g>
</svg>
