<?xml version="1.0" encoding="UTF-8"?>
<!DOCTYPE svg PUBLIC "-//W3C//DTD SVG 1.1//EN" "http://www.w3.org/Graphics/SVG/1.1/DTD/svg11.dtd">
<!-- Creator: CorelDRAW 2020 (64 Bit) -->
<svg xmlns="http://www.w3.org/2000/svg" xml:space="preserve" width="35.5598mm" height="35.5598mm" version="1.1" style="shape-rendering:geometricPrecision; text-rendering:geometricPrecision; image-rendering:optimizeQuality; fill-rule:evenodd; clip-rule:evenodd"
viewBox="0 0 3555.98 3555.98"
 xmlns:xlink="http://www.w3.org/1999/xlink"
 xmlns:xodm="http://www.corel.com/coreldraw/odm/2003">
 <defs>
  <style type="text/css">
   <![CDATA[
    .fil1 {fill:#2E3192}
    .fil0 {fill:#F0C419;fill-rule:nonzero}
   ]]>
  </style>
 </defs>
 <g id="Camada_x0020_1">
  <metadata id="CorelCorpID_0Corel-Layer"/>
  <g id="_2125105079456">
   <path class="fil0" d="M1777.99 3556.11c982,0 1778.06,-796.11 1778.06,-1778.1 0,-982.03 -796.06,-1778.14 -1778.06,-1778.14 -982,0 -1778.06,796.11 -1778.06,1778.14 0,981.99 796.06,1778.1 1778.06,1778.1z"/>
   <polygon class="fil1" points="1778.28,770.38 778.31,1440.65 1194.45,1710.93 1691.7,1375.85 1494.5,1246.3 1764.66,1065.22 2351.02,1454.28 1389.15,2100.1 1597.23,2237.77 2794,1440.77 2791.35,1438.12 "/>
   <polygon class="fil1" points="2775.31,770.78 2359.37,1046.33 2567.43,1186.85 2775.31,1046.33 "/>
   <polygon class="fil1" points="771.51,2785.72 1187.45,2510.06 979.48,2369.54 771.51,2510.06 "/>
   <polygon class="fil1" points="1777.79,2785.12 2777.67,2114.82 2361.5,1844.66 1864.25,2179.74 2061.45,2309.29 1791.3,2490.36 1205.05,2101.31 2166.83,1455.49 1958.83,1317.73 761.95,2114.73 764.6,2117.55 "/>
  </g>
 </g>
</svg>
