<?xml version="1.0" encoding="UTF-8"?>
<!DOCTYPE svg PUBLIC "-//W3C//DTD SVG 1.1//EN" "http://www.w3.org/Graphics/SVG/1.1/DTD/svg11.dtd">
<!-- Creator: CorelDRAW 2020 (64 Bit) -->
<svg xmlns="http://www.w3.org/2000/svg" xml:space="preserve" width="35.5598mm" height="35.5598mm" version="1.1" style="shape-rendering:geometricPrecision; text-rendering:geometricPrecision; image-rendering:optimizeQuality; fill-rule:evenodd; clip-rule:evenodd"
viewBox="0 0 3555.98 3555.98"
 xmlns:xlink="http://www.w3.org/1999/xlink"
 xmlns:xodm="http://www.corel.com/coreldraw/odm/2003">
 <defs>
  <style type="text/css">
   <![CDATA[
    .fil1 {fill:black}
    .fil2 {fill:white}
    .fil3 {fill:black;fill-rule:nonzero}
    .fil0 {fill:white;fill-rule:nonzero}
   ]]>
  </style>
 </defs>
 <g id="Camada_x0020_1">
  <metadata id="CorelCorpID_0Corel-Layer"/>
  <g id="_2125568887728">
   <path class="fil0" d="M1777.99 3556.11c982,0 1778.06,-796.11 1778.06,-1778.1 0,-982.03 -796.06,-1778.14 -1778.06,-1778.14 -982,0 -1778.06,796.11 -1778.06,1778.14 0,981.99 796.06,1778.1 1778.06,1778.1z"/>
   <polygon class="fil1" points="732.2,1240.31 847.8,1240.31 847.8,2322.51 732.2,2322.51 "/>
   <polygon class="fil1" points="884.18,1240.31 920.04,1240.31 920.04,2322.51 884.18,2322.51 "/>
   <polygon class="fil1" points="951.26,1240.31 1015.37,1240.31 1015.37,2322.51 951.26,2322.51 "/>
   <polygon class="fil1" points="1077.23,1240.31 1113,1240.31 1113,2322.51 1077.23,2322.51 "/>
   <polygon class="fil1" points="1128.53,1240.31 1156.18,1240.31 1156.18,2322.51 1128.53,2322.51 "/>
   <polygon class="fil1" points="644.3,1240.31 680.15,1240.31 680.15,2322.51 644.3,2322.51 "/>
   <polygon class="fil1" points="565.24,1240.31 629.46,1240.31 629.46,2322.51 565.24,2322.51 "/>
   <polygon class="fil1" points="1347.59,1240.31 1463.22,1240.31 1463.22,2322.51 1347.59,2322.51 "/>
   <polygon class="fil1" points="1499.6,1240.31 1535.46,1240.31 1535.46,2322.51 1499.6,2322.51 "/>
   <polygon class="fil1" points="1566.65,1240.31 1630.76,1240.31 1630.76,2322.51 1566.65,2322.51 "/>
   <polygon class="fil1" points="1692.62,1240.31 1728.39,1240.31 1728.39,2322.51 1692.62,2322.51 "/>
   <polygon class="fil1" points="1744.06,1240.31 1771.68,1240.31 1771.68,2322.51 1744.06,2322.51 "/>
   <polygon class="fil1" points="1259.69,1240.31 1295.57,1240.31 1295.57,2322.51 1259.69,2322.51 "/>
   <polygon class="fil1" points="1180.77,1240.31 1244.88,1240.31 1244.88,2322.51 1180.77,2322.51 "/>
   <polygon class="fil1" points="1817.02,1240.31 1881.21,1240.31 1881.21,2322.51 1817.02,2322.51 "/>
   <polygon class="fil1" points="1942.99,1240.31 1978.85,1240.31 1978.85,2322.51 1942.99,2322.51 "/>
   <polygon class="fil1" points="1994.4,1240.31 2021.93,1240.31 2021.93,2322.51 1994.4,2322.51 "/>
   <polygon class="fil1" points="2125.47,1240.31 2161.22,1240.31 2161.22,2322.51 2125.47,2322.51 "/>
   <polygon class="fil1" points="2046.53,1240.31 2110.56,1240.31 2110.56,2322.51 2046.53,2322.51 "/>
   <polygon class="fil1" points="2208.88,1240.31 2244.74,1240.31 2244.74,2322.51 2208.88,2322.51 "/>
   <polygon class="fil1" points="2260.32,1240.31 2287.94,1240.31 2287.94,2322.51 2260.32,2322.51 "/>
   <polygon class="fil1" points="2391.48,1240.31 2427.34,1240.31 2427.34,2322.51 2391.48,2322.51 "/>
   <polygon class="fil1" points="2312.54,1240.31 2376.65,1240.31 2376.65,2322.51 2312.54,2322.51 "/>
   <polygon class="fil1" points="2458.53,1240.31 2574.17,1240.31 2574.17,2322.51 2458.53,2322.51 "/>
   <polygon class="fil1" points="2610.51,1240.31 2646.37,1240.31 2646.37,2322.51 2610.51,2322.51 "/>
   <polygon class="fil1" points="2677.59,1240.31 2741.7,1240.31 2741.7,2322.51 2677.59,2322.51 "/>
   <polygon class="fil1" points="2803.48,1240.31 2839.25,1240.31 2839.25,2322.51 2803.48,2322.51 "/>
   <polygon class="fil1" points="2854.98,1240.31 2882.51,1240.31 2882.51,2322.51 2854.98,2322.51 "/>
   <polygon class="fil1" points="2927.81,1240.31 2992.04,1240.31 2992.04,2322.51 2927.81,2322.51 "/>
   <polygon class="fil2" points="696.11,2325.04 2911.6,2325.04 2911.6,1718.45 696.11,1718.45 "/>
   <path class="fil3" d="M737.87 2301.77l0 -548.88 205.96 0c41.84,0 75.48,5.5 100.89,16.68 25.28,11.06 45.1,28.23 59.33,51.3 14.43,22.98 21.54,47.06 21.54,72.35 0,23.35 -6.39,45.53 -19.01,66.15 -12.7,20.71 -31.8,37.47 -57.52,50.18 33.24,9.76 58.85,26.44 76.53,49.79 17.88,23.36 26.81,51.1 26.81,83.01 0,25.81 -5.47,49.68 -16.36,71.83 -10.85,22.15 -24.28,39.14 -40.23,51.13 -15.96,11.89 -35.97,20.93 -60.05,27.13 -24.08,6.19 -53.63,9.24 -88.68,9.24l-209.21 0 0 0.09zm72.75 -318.12l118.66 0c32.23,0 55.27,-2.13 69.21,-6.39 18.58,-5.5 32.4,-14.75 41.76,-27.54 9.33,-12.7 14.11,-28.65 14.11,-48.07 0,-18.28 -4.37,-34.36 -13.22,-48.15 -8.64,-13.94 -21.11,-23.48 -37.38,-28.66 -16.24,-5.18 -44.09,-7.63 -83.41,-7.63l-109.73 0 0 166.44 0 0zm0 253.72l136.66 0c23.47,0 40.04,-0.92 49.57,-2.65 16.56,-2.94 30.7,-7.92 41.96,-14.95 11.18,-7 20.42,-17.25 27.65,-30.67 7.32,-13.43 10.86,-28.86 10.86,-46.35 0,-20.62 -5.19,-38.39 -15.84,-53.54 -10.49,-15.12 -25.12,-25.8 -43.69,-31.91 -18.49,-6.08 -45.31,-9.13 -80.27,-9.13l-127.01 0 0 189.2 0.11 0z"/>
   <path class="fil3" d="M1218.44 2102.84c0,-73.48 20.42,-127.94 61.47,-163.2 34.04,-29.46 75.91,-44.18 124.99,-44.18 54.55,0 99.25,17.97 134.01,53.63 34.54,35.69 52.02,85.17 52.02,148.04 0,51.13 -7.72,91.25 -23.07,120.51 -15.32,29.26 -37.7,52.01 -67.05,68.29 -29.26,16.16 -61.38,24.28 -95.91,24.28 -55.7,0 -100.69,-17.77 -135.05,-53.46 -34.33,-35.65 -51.41,-86.95 -51.41,-153.91zm69.01 0.08c0,50.92 11.06,88.91 33.32,114.11 22.35,25.29 50.29,37.91 84.13,37.91 33.53,0 61.35,-12.62 83.73,-37.99 22.23,-25.52 33.32,-64.23 33.32,-116.25 0,-48.99 -11.18,-86.26 -33.64,-111.37 -22.35,-25.29 -50.2,-37.99 -83.41,-37.99 -33.84,0 -61.78,12.5 -84.13,37.7 -22.26,25.29 -33.32,63.19 -33.32,113.88z"/>
   <polygon class="fil3" points="1668.46,2301.77 1668.46,1752.89 1735.91,1752.89 1735.91,2301.77 "/>
   <path class="fil3" d="M2111.65 2173.05l69.81 9.25c-10.88,40.44 -31.3,72.03 -60.85,94.38 -29.67,22.35 -67.48,33.64 -113.59,33.64 -57.92,0 -103.95,-18 -137.9,-53.65 -34.02,-35.66 -51.01,-85.86 -51.01,-150.38 0,-66.65 17.08,-118.49 51.52,-155.27 34.34,-36.87 78.95,-55.36 133.73,-55.36 52.93,0 96.31,18.09 129.83,54.15 33.64,36.18 50.49,86.98 50.49,152.51 0,3.97 -0.09,10.05 -0.4,18l-296.28 0c2.57,43.57 14.83,77.01 37.1,100.08 22.03,23.16 49.79,34.74 82.8,34.74 24.68,0 45.74,-6.4 63.1,-19.5 17.69,-13.22 31.48,-34.04 41.65,-62.59zm-220.79 -108.12l221.51 0c-2.85,-33.52 -11.38,-58.52 -25.4,-75.29 -21.34,-25.92 -49.08,-39.02 -83.21,-39.02 -30.99,0 -56.91,10.48 -78.05,31.1 -20.91,20.71 -32.49,48.36 -34.85,83.21z"/>
   <path class="fil3" d="M2412.99 2241.63l9.25 59.53c-19.01,3.98 -35.97,6.11 -50.8,6.11 -24.28,0 -43.29,-3.86 -56.8,-11.69 -13.51,-7.72 -22.95,-17.89 -28.34,-30.48 -5.59,-12.7 -8.24,-39.31 -8.24,-79.78l0 -229.11 -49.77 0 0 -52.22 49.77 0 0 -98.36 67.48 -40.44 0 138.8 67.45 0 0 52.22 -67.45 0 0 233c0,19.18 1.21,31.68 3.55,37.18 2.24,5.48 6.19,9.85 11.49,13.11 5.38,3.14 12.99,4.87 23.07,4.87 7.31,-0.09 17.25,-1.01 29.34,-2.74z"/>
   <path class="fil3" d="M2454.27 2102.84c0,-73.48 20.42,-127.94 61.37,-163.2 34.13,-29.46 75.89,-44.18 125.06,-44.18 54.46,0 99.27,17.97 133.92,53.63 34.65,35.69 52.02,85.17 52.02,148.04 0,51.13 -7.61,91.25 -23.07,120.51 -15.24,29.26 -37.59,52.01 -67.05,68.29 -29.15,16.16 -61.38,24.28 -95.82,24.28 -55.76,0 -100.69,-17.77 -135.02,-53.46 -34.33,-35.65 -51.41,-86.95 -51.41,-153.91zm68.98 0.08c0,50.92 11.08,88.91 33.32,114.11 22.35,25.29 50.31,37.91 84.24,37.91 33.41,0 61.26,-12.62 83.61,-37.99 22.26,-25.52 33.32,-64.23 33.32,-116.25 0,-48.99 -11.17,-86.26 -33.61,-111.37 -22.35,-25.29 -50.2,-37.99 -83.32,-37.99 -33.93,0 -61.89,12.5 -84.24,37.7 -22.24,25.29 -33.32,63.19 -33.32,113.88z"/>
  </g>
 </g>
</svg>
