<?xml version="1.0" encoding="UTF-8"?>
<!DOCTYPE svg PUBLIC "-//W3C//DTD SVG 1.1//EN" "http://www.w3.org/Graphics/SVG/1.1/DTD/svg11.dtd">
<!-- Creator: CorelDRAW 2020 (64 Bit) -->
<svg xmlns="http://www.w3.org/2000/svg" xml:space="preserve" width="35.5598mm" height="35.5598mm" version="1.1" style="shape-rendering:geometricPrecision; text-rendering:geometricPrecision; image-rendering:optimizeQuality; fill-rule:evenodd; clip-rule:evenodd"
viewBox="0 0 3555.98 3555.98"
 xmlns:xlink="http://www.w3.org/1999/xlink"
 xmlns:xodm="http://www.corel.com/coreldraw/odm/2003">
 <defs>
  <style type="text/css">
   <![CDATA[
    .fil0 {fill:#CD2031;fill-rule:nonzero}
    .fil1 {fill:white;fill-rule:nonzero}
   ]]>
  </style>
 </defs>
 <g id="Camada_x0020_1">
  <metadata id="CorelCorpID_0Corel-Layer"/>
  <g id="_2125111659840">
   <path class="fil0" d="M1773.76 3560.23c981.94,0 1777.96,-796.06 1777.96,-1777.99 0,-981.96 -796.02,-1778.01 -1777.96,-1778.01 -981.94,0 -1777.96,796.05 -1777.96,1778.01 0,981.93 796.02,1777.99 1777.96,1777.99z"/>
   <polygon class="fil1" points="1664.64,2132.04 1511.54,2132.04 1511.54,2916.29 1664.64,2916.29 "/>
   <polygon class="fil1" points="2054.47,1839.84 1803.83,1839.84 1803.83,2916.29 2054.47,2916.29 "/>
   <path class="fil1" d="M1374.17 1090.12c0,0 252.68,-247.07 678.69,-165.71 0,0 187.45,29.17 331.19,156.67 0,0 21.25,20.02 37.61,3.66 0,0 20.82,-16.36 -2.25,-40.84 0,0 -123.55,-171.3 -367.27,-246.99 0,0 -334.97,-119.89 -678.98,42.17 0,0 -211.82,87.78 -329.29,326.85 0,0 -167.41,54.05 -293.01,124.55 0,0 -37.06,14.75 -23.04,43.49 0,0 11.98,20.74 44.5,5.39 0,0 116.52,-40.24 228.9,-65.32 0,0 -90.32,234.37 3.94,525.25 42.08,129.46 118.68,261.33 235.81,367.29 0,0 19.12,20.01 39.83,6.39 0,0 18.09,-13.1 5.39,-34.65 0,0 -93.37,-140.6 -129.54,-340.44 -30.27,-162.98 -16.05,-388.11 97.22,-566.52 0,0 430.9,-60.16 798.18,78.22 0,0 624,203.61 466.92,581.27 0,0 -45.61,131.35 -217.92,249.81 0,0 -28.86,16.87 -13.19,40.86 0,0 12.99,18.9 42.56,6.68 0,0 263.75,-85.73 377.62,-297.67 0,0 230.86,-353.37 -313.62,-641.6 0,0 -149.76,-80.07 -342.28,-122.72 -0.09,-0.11 -346.95,-85.85 -677.97,-36.09z"/>
  </g>
 </g>
</svg>
