<?xml version="1.0" encoding="UTF-8"?>
<!DOCTYPE svg PUBLIC "-//W3C//DTD SVG 1.1//EN" "http://www.w3.org/Graphics/SVG/1.1/DTD/svg11.dtd">
<!-- Creator: CorelDRAW 2020 (64 Bit) -->
<svg xmlns="http://www.w3.org/2000/svg" xml:space="preserve" width="35.5598mm" height="35.5598mm" version="1.1" style="shape-rendering:geometricPrecision; text-rendering:geometricPrecision; image-rendering:optimizeQuality; fill-rule:evenodd; clip-rule:evenodd"
viewBox="0 0 3555.98 3555.98"
 xmlns:xlink="http://www.w3.org/1999/xlink"
 xmlns:xodm="http://www.corel.com/coreldraw/odm/2003">
 <defs>
  <style type="text/css">
   <![CDATA[
    .fil2 {fill:#F5822B}
    .fil1 {fill:white}
    .fil0 {fill:#0071B0;fill-rule:nonzero}
   ]]>
  </style>
 </defs>
 <g id="Camada_x0020_1">
  <metadata id="CorelCorpID_0Corel-Layer"/>
  <g id="_2125587151216">
   <path class="fil0" d="M1777.99 3556.04c981.97,0 1778,-796.08 1778,-1778.05 0,-981.99 -796.03,-1778.07 -1778,-1778.07 -981.97,0 -1778,796.08 -1778,1778.07 0,981.97 796.03,1778.05 1778,1778.05z"/>
   <polygon class="fil1" points="2613.68,2702.96 1808.6,2702.96 1345.7,1821.25 2150.69,1821.25 "/>
   <polygon class="fil2" points="3048.1,853 2242.94,853 1412.46,1734.71 2217.33,1734.71 "/>
   <polygon class="fil1" points="943.97,853 1748.84,853 2211.72,1734.71 1406.76,1734.71 "/>
   <polygon class="fil2" points="507.99,2702.96 1314.4,2702.96 2144.99,1821.25 1339.91,1821.25 "/>
  </g>
 </g>
</svg>
