<?xml version="1.0" encoding="UTF-8"?>
<!DOCTYPE svg PUBLIC "-//W3C//DTD SVG 1.1//EN" "http://www.w3.org/Graphics/SVG/1.1/DTD/svg11.dtd">
<!-- Creator: CorelDRAW 2020 (64 Bit) -->
<svg xmlns="http://www.w3.org/2000/svg" xml:space="preserve" width="35.5598mm" height="35.5598mm" version="1.1" style="shape-rendering:geometricPrecision; text-rendering:geometricPrecision; image-rendering:optimizeQuality; fill-rule:evenodd; clip-rule:evenodd"
viewBox="0 0 3555.98 3555.98"
 xmlns:xlink="http://www.w3.org/1999/xlink"
 xmlns:xodm="http://www.corel.com/coreldraw/odm/2003">
 <defs>
  <style type="text/css">
   <![CDATA[
    .fil2 {fill:#2E3192}
    .fil1 {fill:#FFF200}
    .fil0 {fill:#2E3192;fill-rule:nonzero}
   ]]>
  </style>
 </defs>
 <g id="Camada_x0020_1">
  <metadata id="CorelCorpID_0Corel-Layer"/>
  <g id="_2125441563136">
   <path class="fil0" d="M1778.01 3555.99c981.93,0 1777.98,-796.05 1777.98,-1777.98 0,-981.96 -796.05,-1778.02 -1777.98,-1778.02 -981.96,0 -1778.02,796.06 -1778.02,1778.02 0,981.93 796.06,1777.98 1778.02,1777.98z"/>
   <path class="fil1" d="M2897.75 1212.29l-226.08 0 -93.17 177.09 158.4 0 160.85 -177.09zm150.24 287.74l-220.26 0 0 475.49c0,145.67 -97.83,187.54 -170.09,187.54 -68.77,0 -144.46,-25.6 -143.25,-152.61l0 -510.33 -220.26 0 -1.21 541.84c0,209.69 120.1,302.86 285.58,302.86 115.31,1.21 205.03,-48.88 255.14,-137.58l2.21 0 0 115.34 212.14 0 0 -822.55z"/>
   <path class="fil1" d="M2121.71 1717.85c0,-203.79 -214.27,-239.96 -333.16,-239.96 -171.27,0 -349.6,36.17 -376.41,287.82l213.26 0c6.91,-47.86 26.81,-114.19 136.34,-114.19 57.11,0 145.7,4.67 145.7,95.5 0,46.63 -43.18,60.54 -78.23,65.32l-198.02 29.06c-140.92,19.81 -245.87,102.52 -245.87,263.34 0,170.09 130.55,239.99 255.2,239.99 151.4,0 222.51,-68.8 271.49,-118.88 4.76,45.41 8.13,57.19 21.03,96.62l189.88 -1.01c0,-91.03 -1.21,-157.39 -1.21,-158.6l0 -445.01 0 0z"/>
   <path class="fil1" d="M1182.63 1212.29l-220.26 0 0 286.62 -114.11 0 0 154.94 112.9 0 0 499.77c0,105.95 33.81,178.21 224.93,178.21l29.17 0c34.93,0 69.9,-2.16 103.71,-3.37l0 -164.27c-15.12,1.21 -31.48,3.54 -45.39,3.54 -89.74,0 -92.07,-18.69 -92.07,-67.65l1.24 -446.23 137.46 0 0 -154.94 -137.58 0 0 -286.62z"/>
   <polygon class="fil1" points="746.86,1211.08 509.12,1211.08 507.99,2321.55 745.65,2321.55 "/>
   <path class="fil2" d="M1907.32 2027.82l0 -105.96c-22.23,17.49 -59.53,31.4 -150.36,44.3 -82.6,13.91 -150.25,34.96 -150.25,124.67 0,74.57 60.53,99.05 102.41,99.05 98.03,-0.09 198.2,-61.87 198.2,-162.06z"/>
  </g>
 </g>
</svg>
