<?xml version="1.0" encoding="UTF-8"?>
<!DOCTYPE svg PUBLIC "-//W3C//DTD SVG 1.1//EN" "http://www.w3.org/Graphics/SVG/1.1/DTD/svg11.dtd">
<!-- Creator: CorelDRAW 2020 (64 Bit) -->
<svg xmlns="http://www.w3.org/2000/svg" xml:space="preserve" width="35.5598mm" height="35.5598mm" version="1.1" style="shape-rendering:geometricPrecision; text-rendering:geometricPrecision; image-rendering:optimizeQuality; fill-rule:evenodd; clip-rule:evenodd"
viewBox="0 0 3555.98 3555.98"
 xmlns:xlink="http://www.w3.org/1999/xlink"
 xmlns:xodm="http://www.corel.com/coreldraw/odm/2003">
 <defs>
  <style type="text/css">
   <![CDATA[
    .fil0 {fill:#4963AD;fill-rule:nonzero}
    .fil1 {fill:#ED2026;fill-rule:nonzero}
    .fil2 {fill:#F26A21;fill-rule:nonzero}
    .fil3 {fill:#F99F1D;fill-rule:nonzero}
   ]]>
  </style>
 </defs>
 <g id="Camada_x0020_1">
  <metadata id="CorelCorpID_0Corel-Layer"/>
  <g id="_2125594818176">
   <path class="fil0" d="M1777.99 3556.11c982,0 1778.06,-796.11 1778.06,-1778.1 0,-982.03 -796.06,-1778.14 -1778.06,-1778.14 -982,0 -1778.06,796.11 -1778.06,1778.14 0,981.99 796.06,1778.1 1778.06,1778.1z"/>
   <path class="fil1" d="M1504.15 1778.01c0,-229.23 107.11,-433.35 273.93,-565.47 -123.04,-97.32 -278.28,-155.64 -447.37,-155.64 -398.26,-0.12 -721.18,322.81 -721.18,721.11 0,398.27 322.92,721.19 721.18,721.19 169.09,0 324.33,-58.32 447.37,-155.76 -166.82,-131.99 -273.93,-336.23 -273.93,-565.43z"/>
   <path class="fil2" d="M1504.15 1777.98c0,229.23 107.08,433.47 273.93,565.46 166.73,-131.99 273.72,-336.23 273.72,-565.46 0,-229.2 -107.08,-433.32 -273.72,-565.44 -166.85,132 -273.93,336.24 -273.93,565.44z"/>
   <path class="fil3" d="M2225.33 1056.78c-169.06,0 -324.42,58.33 -447.25,155.68 166.73,132.08 273.72,336.2 273.72,565.43 0,229.24 -107.08,433.44 -273.72,565.44 122.83,97.44 278.19,155.76 447.25,155.76 398.29,0 721.09,-322.9 721.09,-721.2 0,-398.18 -322.8,-721.11 -721.09,-721.11z"/>
  </g>
 </g>
</svg>
