<?xml version="1.0" encoding="utf-8"?>
<!-- Generator: Adobe Illustrator 17.1.0, SVG Export Plug-In . SVG Version: 6.00 Build 0)  -->
<!DOCTYPE svg PUBLIC "-//W3C//DTD SVG 1.1//EN" "http://www.w3.org/Graphics/SVG/1.1/DTD/svg11.dtd">
<svg version="1.1" id="Layer_1" xmlns="http://www.w3.org/2000/svg" xmlns:xlink="http://www.w3.org/1999/xlink" x="0px" y="0px"
	 viewBox="0 0 466 461" enable-background="new 0 0 466 461" xml:space="preserve">
<ellipse fill="#32BCAD" cx="235.3" cy="229.1" rx="220.5" ry="214"/>
<g>
	<g>
		<path fill="#FFFFFF" d="M185.4,292.6c-1.3,0-2.3-1.1-2.3-2.3v-76.3c0-15.3,12.5-27.8,27.8-27.8l22.5,0c15.3,0,27.7,12.5,27.7,27.7
			v16.2c0,15.3-12.5,27.8-27.8,27.8h-31.8c-1.3,0-2.3-1.1-2.3-2.3s1.1-2.3,2.3-2.3h31.8c12.7,0,23.1-10.3,23.1-23.1v-16.2
			c0-12.7-10.3-23-23-23l-22.5,0c-12.7,0-23.1,10.3-23.1,23.1v76.3C187.8,291.5,186.7,292.6,185.4,292.6z M285.2,258.3
			c-1.3,0-2.3-1.1-2.3-2.3v-57c0-4.5-3.6-8.1-8.1-8.1H265c-1.3,0-2.3-1.1-2.3-2.3s1.1-2.3,2.3-2.3h9.8c7,0,12.8,5.7,12.8,12.8v57
			C287.5,257.2,286.5,258.3,285.2,258.3z"/>
	</g>
	<g>
		<path fill="#FFFFFF" d="M283.1,179.7l-4.4-4.4c-1.1-1.1-1.1-2.9,0-4l4.4-4.4c1.1-1.1,2.9-1.1,4,0l4.4,4.4c1.1,1.1,1.1,2.9,0,4
			l-4.4,4.4C286,180.8,284.2,180.8,283.1,179.7L283.1,179.7z"/>
	</g>
	<g>
		<path fill="#FFFFFF" d="M313.6,257.8h-9.7c-1.3,0-2.3-1.1-2.3-2.3s1.1-2.3,2.3-2.3h9.7c4.4,0,8.5-1.7,11.6-4.8l22.7-22.7
			c1.9-1.9,4.3-2.9,7-2.9s5.1,1,7,2.9l22.6,22.6c3.1,3.1,7.2,4.8,11.6,4.8h7.9c1.3,0,2.3,1.1,2.3,2.3s-1.1,2.3-2.3,2.3h-7.9
			c-5.6,0-11-2.2-15-6.2l-22.6-22.6c-1-1-2.3-1.5-3.7-1.5c-1.4,0-2.7,0.5-3.7,1.5l-22.7,22.7C324.6,255.6,319.3,257.8,313.6,257.8z
			 M354.9,221.2c-2.6,0-5.1-1-7-2.9l-22.7-22.7c-3.1-3.1-7.2-4.8-11.6-4.8h-9.7c-1.3,0-2.3-1.1-2.3-2.3s1.1-2.3,2.3-2.3h9.7
			c5.6,0,11,2.2,15,6.2l22.7,22.7c1,1,2.3,1.5,3.7,1.5c1.4,0,2.7-0.5,3.7-1.5l22.6-22.6c4-4,9.3-6.2,15-6.2l7.9,0
			c1.3,0,2.3,1.1,2.3,2.3s-1.1,2.3-2.3,2.3l0,0l-7.9,0c-4.4,0-8.5,1.7-11.6,4.8l-22.6,22.6C360,220.1,357.5,221.2,354.9,221.2z"/>
	</g>
	<g>
		<path fill="#FFFFFF" d="M127.7,269.9c-4.9,0-9.4-1.9-12.9-5.3L96.2,246c-1.3-1.3-3.6-1.3-4.9,0l-18.7,18.7
			c-3.4,3.4-8,5.3-12.9,5.3h-3.7l23.5,23.5c7.4,7.4,19.3,7.4,26.6,0l23.6-23.6H127.7L127.7,269.9z"/>
	</g>
	<g>
		<path fill="#FFFFFF" d="M59.8,204.1c4.9,0,9.4,1.9,12.9,5.3l18.7,18.7c1.3,1.3,3.5,1.3,4.9,0l18.6-18.6c3.4-3.4,8-5.3,12.9-5.3
			h2.2l-23.6-23.6c-7.4-7.4-19.3-7.4-26.6,0l-23.5,23.5H59.8L59.8,204.1z"/>
	</g>
	<g>
		<path fill="#FFFFFF" d="M149.4,223.7l-14.3-14.3c-0.3,0.1-0.7,0.2-1,0.2h-6.5c-3.4,0-6.6,1.4-9,3.7L100.1,232
			c-1.7,1.7-4,2.6-6.3,2.6c-2.3,0-4.6-0.9-6.3-2.6l-18.7-18.7c-2.4-2.4-5.7-3.7-9-3.7h-8c-0.3,0-0.7-0.1-1-0.2l-14.3,14.3
			c-7.4,7.4-7.4,19.3,0,26.6l14.3,14.3c0.3-0.1,0.6-0.2,1-0.2l8,0c3.4,0,6.6-1.4,9-3.7l18.7-18.7c3.4-3.4,9.3-3.4,12.6,0l18.6,18.6
			c2.4,2.4,5.7,3.7,9,3.7h6.5c0.4,0,0.7,0.1,1,0.2l14.3-14.3C156.8,243,156.8,231.1,149.4,223.7L149.4,223.7z"/>
	</g>
</g>
</svg>
