<?xml version="1.0" encoding="utf-8"?>
<!-- Generator: Adobe Illustrator 17.1.0, SVG Export Plug-In . SVG Version: 6.00 Build 0)  -->
<!DOCTYPE svg PUBLIC "-//W3C//DTD SVG 1.1//EN" "http://www.w3.org/Graphics/SVG/1.1/DTD/svg11.dtd">
<svg version="1.1" id="Layer_1" xmlns="http://www.w3.org/2000/svg" xmlns:xlink="http://www.w3.org/1999/xlink" x="0px" y="0px"
	 viewBox="0 0 466 461" enable-background="new 0 0 466 461" xml:space="preserve">
<ellipse fill="#EE3E33" cx="235.3" cy="229.1" rx="220.5" ry="214"/>
<path fill-rule="evenodd" clip-rule="evenodd" fill="#FFFFFF" d="M232.7,287.3c0,0,0.5-2.6,0-5.7c-2.6-17.6-46.6-61.1-46.6-74.6
	c-39.9,10.4-73.6,30.6-73,55.4c0,33.2,54.9,60.1,122.2,59.6c67.9-0.5,122.2-27.5,122.2-60.6c0-24.9-30.6-46.1-73.6-54.9
	c0,0,1-3.6,1-6.7c0-30.6-46.1-61.1-46.1-88.1c0-4.1,0-10.4,0-10.4s-12.9,6.2-12.9,28.5c0,38.8,44,58,44,92.2
	c0,20.2-10.9,24.3-10.9,24.3s0-4.7,0-7.8c0-24.9-48.2-55.4-48.2-82.4c0-4.1,0-10.9,0-10.9s-12.4,6.2-12.4,28.5
	c0,37.3,44,53.9,44,92.2C242.6,282.1,232.7,287.3,232.7,287.3z"/>
</svg>
