<?xml version="1.0" encoding="UTF-8"?>
<!DOCTYPE svg PUBLIC "-//W3C//DTD SVG 1.1//EN" "http://www.w3.org/Graphics/SVG/1.1/DTD/svg11.dtd">
<!-- Creator: CorelDRAW 2020 (64 Bit) -->
<svg xmlns="http://www.w3.org/2000/svg" xml:space="preserve" width="35.5598mm" height="35.5598mm" version="1.1" style="shape-rendering:geometricPrecision; text-rendering:geometricPrecision; image-rendering:optimizeQuality; fill-rule:evenodd; clip-rule:evenodd"
viewBox="0 0 3555.98 3555.98"
 xmlns:xlink="http://www.w3.org/1999/xlink"
 xmlns:xodm="http://www.corel.com/coreldraw/odm/2003">
 <defs>
  <style type="text/css">
   <![CDATA[
    .fil0 {fill:#4963AD;fill-rule:nonzero}
    .fil2 {fill:#FBAA19;fill-rule:nonzero}
    .fil1 {fill:white;fill-rule:nonzero}
   ]]>
  </style>
 </defs>
 <g id="Camada_x0020_1">
  <metadata id="CorelCorpID_0Corel-Layer"/>
  <g id="_2125441609696">
   <path class="fil0" d="M1777.99 3556.05c981.97,0 1778,-796.08 1778,-1778.04 0,-981.99 -796.03,-1778.08 -1778,-1778.08 -981.97,0 -1778,796.09 -1778,1778.08 0,981.96 796.03,1778.04 1778,1778.04z"/>
   <path class="fil1" d="M2169.55 1366.91c-203.5,0 -346.34,108.2 -347.55,262.86 -1.44,114.48 102.18,178.39 179.91,216.5 80.38,38.91 107.19,63.91 106.99,98.87 -0.92,53.34 -64.31,77.62 -123.35,77.62 -82.28,0 -125.97,-11.9 -193.33,-41.45l-26.82 -12.7 -28.77 178.19c48.27,22.27 136.98,41.48 229.42,42.48 215.89,0 356.4,-106.99 357.93,-272.08 0.92,-90.95 -54.03,-159.73 -172.8,-216.43 -71.74,-36.99 -116.15,-61.35 -115.43,-98.85 0.12,-33.12 37.18,-68.49 117.76,-68.49 67.45,-1.12 115.92,14.35 154.03,30.59l18.37 9.16 27.94 -172.75c-40.44,-16.16 -104.63,-33.52 -184.3,-33.52zm-638.66 13.82l-128.71 796.46 205.52 0 128.85 -796.46 -205.66 0 0 0zm-301.14 0.81l-201.25 542.86 -21.46 -110.33c-50.17,-135.25 -158.69,-277.18 -285.09,-334.7l184.21 697.01 217.72 0 323.8 -794.93 -217.93 0 0 0.09zm1492.82 0.11c-49.19,0 -86.17,14.03 -108,66.04l-305.22 730.02 215.91 0c0,0 35.34,-98.47 43.38,-119.9 23.47,0 233.36,0.4 263.34,0.4 6.4,27.74 25.12,119.29 25.12,119.29l190.88 0 -166.52 -795.85 -158.89 0 0 0zm14.43 214.68l13.8 68.69c0,0 39.54,190 47.78,229.8l-170.7 0c17.08,-45.59 81.99,-222.6 81.99,-222.6 -1.44,2.13 16.85,-46.11 27.13,-75.89z"/>
   <path class="fil2" d="M841.64 1381.13l-331.71 0 -1.93 13.71c257.96,65.96 428.02,227.9 498.96,419.43l-72.03 -366.09c-12.5,-50.28 -48.59,-65.32 -93.29,-67.05z"/>
  </g>
 </g>
</svg>
