<svg id="Icons" xmlns="http://www.w3.org/2000/svg" viewBox="0 0 100 100"><defs><style>.cls-1,.cls-2{fill:none;stroke-linecap:round;stroke-linejoin:round;stroke-width:4px;}.cls-1{stroke:#312784;}.cls-2{stroke:#e31f3e;}</style></defs><title>pamgrafPrancheta 66 cópia 3</title><path class="cls-1" d="M62.76,31.8l-1-1.86A6.49,6.49,0,0,0,56,26.46H44a6.49,6.49,0,0,0-5.75,3.49l-1,1.86a6.49,6.49,0,0,1-5.75,3.49H27.3a6.49,6.49,0,0,0-6.49,6.49V67.06a6.49,6.49,0,0,0,6.49,6.49H72.7a6.49,6.49,0,0,0,6.49-6.49V41.78a6.49,6.49,0,0,0-6.49-6.49H68.51A6.49,6.49,0,0,1,62.76,31.8Z"/><circle class="cls-2" cx="50" cy="52.23" r="10.86"/></svg>