<svg id="Icons" xmlns="http://www.w3.org/2000/svg" viewBox="0 0 100 100"><defs><style>.cls-1,.cls-2{fill:none;stroke-linecap:round;stroke-linejoin:round;stroke-width:4px;}.cls-1{stroke:#312784;}.cls-2{stroke:#e31f3e;}</style></defs><title>pamgrafPrancheta 66</title><path class="cls-1" d="M50.73,73.85l5.34,5.34,2.46-2.46A9.73,9.73,0,0,0,61.38,70l.17-10.57,8.36-8.36A31.69,31.69,0,0,0,78.4,21.6a31.69,31.69,0,0,0-29.47,8.5l-8.36,8.36L30,38.62a9.73,9.73,0,0,0-6.73,2.85l-2.46,2.46,5.45,5.45"/><path class="cls-2" d="M65.06,34.94a5.44,5.44,0,0,1-1.41,8.7,5.27,5.27,0,0,1-4.85,0,5.44,5.44,0,0,1-1-9.11"/><line class="cls-1" x1="37.71" y1="53.79" x2="28.14" y2="63.36"/><line class="cls-2" x1="46.1" y1="62.4" x2="38.64" y2="69.86"/></svg>