<?xml version="1.0" encoding="UTF-8"?><svg id="Camada_1" xmlns="http://www.w3.org/2000/svg" viewBox="0 0 1347 2500"><defs><style>.cls-1{fill:#07ff00;}.cls-2{fill:none;}</style></defs><rect class="cls-2" width="1347" height="2500"/><path class="cls-1" d="M1059.2,52H288.8c-110.4,0-199.8,89.5-199.8,199.8v1990.3c0,110.4,89.5,199.8,199.8,199.8h770.3c110.4,0,199.8-89.5,199.8-199.8V251.8c0-110.4-89.5-199.8-199.8-199.8Zm-323.7,446.7c0,110.4-89.5,199.8-199.8,199.8h-241.8c-110.4,0-199.8-89.5-199.8-199.8v-241.8c0-110.4,89.5-199.8,199.8-199.8h241.8c110.4,0,199.8,89.5,199.8,199.8v241.8Z"/></svg>