<svg width="12" height="19" viewBox="0 0 12 19" fill="none" xmlns="http://www.w3.org/2000/svg">
<g clip-path="url(#clip0_13_895)">
<path d="M1.63998 17.32H1.91998C1.9979 17.2065 2.08485 17.0995 2.17998 17C2.41953 16.8311 2.70694 16.7435 2.99998 16.75H7.99998C8.28635 16.7571 8.56302 16.8552 8.78998 17.03C8.89799 17.101 8.9872 17.197 9.04998 17.31H9.32998C9.39315 17.3107 9.45582 17.2987 9.51424 17.2746C9.57265 17.2506 9.62562 17.215 9.66998 17.17C9.72268 17.1237 9.76506 17.0668 9.79435 17.0031C9.82364 16.9393 9.83918 16.8701 9.83998 16.8V1.63999C9.84194 1.56941 9.82763 1.49932 9.79815 1.43516C9.76867 1.371 9.72481 1.31448 9.66998 1.26999C9.62562 1.225 9.57265 1.18942 9.51424 1.16536C9.45582 1.14131 9.39315 1.12928 9.32998 1.12999H1.63998C1.5768 1.12928 1.51414 1.14131 1.45572 1.16536C1.3973 1.18942 1.34433 1.225 1.29998 1.26999C1.24514 1.31448 1.20129 1.371 1.17181 1.43516C1.14233 1.49932 1.12802 1.56941 1.12998 1.63999V16.81C1.13077 16.8801 1.14632 16.9493 1.17561 17.0131C1.2049 17.0768 1.24727 17.1337 1.29998 17.18C1.34433 17.225 1.3973 17.2606 1.45572 17.2846C1.51414 17.3087 1.5768 17.3207 1.63998 17.32V17.32ZM2.46998 1.69999H5.18998C5.28613 1.70179 5.38092 1.72311 5.46859 1.76264C5.55626 1.80218 5.63498 1.85911 5.69998 1.92999C5.76898 1.9949 5.82272 2.07432 5.8573 2.16251C5.89189 2.25071 5.90646 2.34548 5.89998 2.43999V5.15999C5.90646 5.2545 5.89189 5.34928 5.8573 5.43747C5.82272 5.52567 5.76898 5.60508 5.69998 5.66999V5.66999C5.63498 5.74087 5.55626 5.79781 5.46859 5.83734C5.38092 5.87688 5.28613 5.89819 5.18998 5.89999H2.46998C2.26667 5.89763 2.07255 5.81495 1.92998 5.66999C1.80223 5.53077 1.73093 5.34894 1.72998 5.15999V2.43999C1.73093 2.25104 1.80223 2.06922 1.92998 1.92999V1.92999C2.07255 1.78504 2.26667 1.70236 2.46998 1.69999ZM4.76998 2.85999H2.85998V4.75999H4.75998L4.76998 2.85999ZM2.94998 12.81L3.71998 8.55999C3.74237 8.41347 3.79705 8.27376 3.88006 8.15096C3.96308 8.02817 4.07235 7.92537 4.19998 7.84999L4.79998 7.53999L8.61998 9.66999L2.94998 12.81ZM5.12998 12.13L4.72998 14.4L3.36998 13.63C3.32404 13.6051 3.28567 13.5683 3.25894 13.5234C3.2322 13.4785 3.21809 13.4272 3.21809 13.375C3.21809 13.3227 3.2322 13.2715 3.25894 13.2266C3.28567 13.1817 3.32404 13.1449 3.36998 13.12L5.12998 12.13ZM11 5.26999C11.0574 5.29045 11.1065 5.32907 11.14 5.37999C11.2109 5.44499 11.2678 5.52372 11.3073 5.61138C11.3469 5.69905 11.3682 5.79384 11.37 5.88999V8.61999C11.3713 8.71666 11.3514 8.81244 11.3117 8.90057C11.2719 8.9887 11.2133 9.06702 11.14 9.12999V9.12999C11.14 9.18999 11.05 9.21999 11 9.26999V16.81C10.9985 17.0323 10.9526 17.2521 10.865 17.4564C10.7774 17.6608 10.6499 17.8456 10.49 18C10.3386 18.1536 10.158 18.2753 9.95869 18.3577C9.75942 18.4402 9.54562 18.4818 9.32998 18.48H8.18998L8.10998 18C8.10998 18 8.10998 17.94 8.04998 17.91C8.03045 17.9039 8.00951 17.9039 7.98998 17.91H2.99998C2.97111 17.8983 2.93884 17.8983 2.90998 17.91C2.90998 17.91 2.84998 17.97 2.84998 18L2.75998 18.45H1.63998C1.42644 18.4557 1.2139 18.4188 1.01475 18.3416C0.815597 18.2643 0.633809 18.1482 0.479977 18C0.32546 17.8431 0.203502 17.6572 0.121123 17.4529C0.0387451 17.2487 -0.00242691 17.0302 -2.25212e-05 16.81V1.63999C0.00302266 1.20561 0.175201 0.789516 0.479977 0.479992C0.631329 0.326374 0.811999 0.204727 1.01127 0.122272C1.21053 0.0398169 1.42433 -0.00176564 1.63998 -7.52612e-06H9.32998C9.54562 -0.00176564 9.75942 0.0398169 9.95869 0.122272C10.158 0.204727 10.3386 0.326374 10.49 0.479992C10.8058 0.784643 10.989 1.20134 11 1.63999V5.26999Z" fill="#DADADA"/>
</g>
<defs>
<clipPath id="clip0_13_895">
<rect width="11.34" height="18.45" fill="white"/>
</clipPath>
</defs>
</svg>
