<svg width="21" height="27" viewBox="0 0 21 27" fill="none" xmlns="http://www.w3.org/2000/svg">
<g clip-path="url(#clip0_13_857)">
<path d="M5.88726e-05 25.6323L1.74801 8.10508C1.79996 7.80089 1.95417 7.52517 2.18367 7.32609C2.41318 7.12701 2.70338 7.01724 3.00358 7.01596H5.78552V5.06568C5.78552 3.7692 6.28612 2.52582 7.17719 1.60908C8.06827 0.69233 9.27682 0.177307 10.537 0.177307C11.7972 0.177307 13.0057 0.69233 13.8968 1.60908C14.7879 2.52582 15.2885 3.7692 15.2885 5.06568V7.1426H17.9965C18.2967 7.14388 18.5869 7.25365 18.8164 7.45273C19.046 7.65181 19.2002 7.92753 19.2521 8.23172L21.0001 25.7589C21.0123 25.9315 20.9878 26.1048 20.9282 26.2666C20.8687 26.4285 20.7756 26.575 20.6554 26.6961C20.5515 26.8414 20.4134 26.9572 20.2541 27.0325C20.0947 27.1079 19.9194 27.1402 19.7445 27.1267H1.18177C1.01848 27.1319 0.856477 27.0954 0.710355 27.0202C0.564232 26.945 0.438582 26.8336 0.344725 26.6961C0.206757 26.5615 0.103135 26.3941 0.0430209 26.2085C-0.0170936 26.023 -0.0318492 25.8251 5.88726e-05 25.6323ZM7.60733 7.04129H13.4666V5.06568C13.484 4.66622 13.4183 4.26756 13.2739 3.89631C13.1296 3.52505 12.9099 3.18975 12.6296 2.91277C12.3604 2.61996 12.036 2.38673 11.6762 2.22733C11.3164 2.06794 10.9287 1.98572 10.537 1.98572C10.1452 1.98572 9.75761 2.06794 9.3978 2.22733C9.03799 2.38673 8.71357 2.61996 8.44437 2.91277C8.16407 3.18975 7.94441 3.52505 7.80007 3.89631C7.65573 4.26756 7.59002 4.66622 7.60733 5.06568V7.04129ZM7.60733 8.91558V11.4484C7.78487 11.5939 7.92806 11.7788 8.02613 11.9894C8.1242 12.2 8.17461 12.4307 8.17356 12.6642C8.17377 13.072 8.01973 13.464 7.74404 13.7571C7.46836 14.0501 7.09265 14.2214 6.69642 14.2345C6.29358 14.228 5.90902 14.0605 5.62413 13.7674C5.33924 13.4743 5.17639 13.0786 5.17005 12.6642C5.16706 12.4222 5.22431 12.1834 5.33635 11.9706C5.44839 11.7578 5.61149 11.578 5.81014 11.4484V8.91558H3.49596L1.89572 25.1257H19.129L17.5042 8.89025H15.2885V11.4231C15.4862 11.558 15.6467 11.7431 15.7545 11.9605C15.8623 12.1779 15.9138 12.4203 15.9039 12.6642C15.9039 13.0739 15.7457 13.4669 15.4641 13.7567C15.1824 14.0464 14.8005 14.2092 14.4022 14.2092C14.0039 14.2092 13.6219 14.0464 13.3403 13.7567C13.0586 13.4669 12.9004 13.0739 12.9004 12.6642C12.8994 12.4307 12.9498 12.2 13.0478 11.9894C13.1459 11.7788 13.2891 11.5939 13.4666 11.4484V8.91558H7.60733Z" fill="#E8E8E8"/>
</g>
<defs>
<clipPath id="clip0_13_857">
<rect width="21" height="27" fill="white"/>
</clipPath>
</defs>
</svg>
