<svg width="33" height="33" viewBox="0 0 33 33" fill="none" xmlns="http://www.w3.org/2000/svg">
<path d="M16.5 -1.83219e-05C18.6895 -0.0236442 20.8617 0.389829 22.8894 1.21619C24.9171 2.04254 26.7596 3.26518 28.3088 4.81248C30.6107 7.12232 32.1765 10.0624 32.8085 13.2616C33.4405 16.4607 33.1104 19.7753 31.8599 22.787C30.6093 25.7986 28.4945 28.3722 25.7823 30.1827C23.0701 31.9932 19.8823 32.9595 16.6213 32.9595C13.3604 32.9595 10.1726 31.9932 7.46039 30.1827C4.74822 28.3722 2.63335 25.7986 1.38282 22.787C0.132293 19.7753 -0.197805 16.4607 0.434211 13.2616C1.06623 10.0624 2.63201 7.12232 4.93385 4.81248C8.01643 1.76484 12.1654 0.0385194 16.5 -1.83219e-05ZM9.05885 15.489C8.61795 14.9622 8.39712 14.2857 8.44232 13.6002C8.48751 12.9148 8.79525 12.2731 9.30149 11.8088C9.53932 11.5605 9.82495 11.3628 10.1412 11.2278C10.4574 11.0928 10.7977 11.0232 11.1416 11.0232C11.4854 11.0232 11.8257 11.0928 12.1419 11.2278C12.4582 11.3628 12.7438 11.5605 12.9816 11.8088L17.0258 16.5L25.114 9.26101L24.3052 8.45219C23.2427 7.39287 21.9809 6.55443 20.5927 5.98526C19.2045 5.41609 17.7173 5.12746 16.2169 5.13601C14.7127 5.09936 13.2173 5.37515 11.8251 5.94594C10.4329 6.51674 9.17424 7.37014 8.1287 8.45219C7.04665 9.49773 6.19325 10.7564 5.62245 12.1486C5.05166 13.5408 4.77587 15.0362 4.81252 16.5404C4.80397 18.0408 5.0926 19.5279 5.66177 20.9162C6.23094 22.3044 7.06938 23.5661 8.1287 24.6287C9.17424 25.7107 10.4329 26.5641 11.8251 27.1349C13.2173 27.7057 14.7127 27.9815 16.2169 27.9448C17.7173 27.9534 19.2045 27.6648 20.5927 27.0956C21.9809 26.5264 23.2427 25.688 24.3052 24.6287C25.3645 23.5661 26.2029 22.3044 26.7721 20.9162C27.3413 19.5279 27.6299 18.0408 27.6213 16.5404C27.5977 15.8073 27.5165 15.0771 27.3787 14.3566L18.4412 22.4448C17.9144 22.8857 17.2379 23.1066 16.5525 23.0614C15.867 23.0162 15.2254 22.7084 14.7611 22.2022L9.05885 15.489Z" fill="#FEFEFE"/>
</svg>
