<?xml version="1.0" encoding="utf-8"?>
<!-- Generator: Adobe Illustrator 16.0.0, SVG Export Plug-In . SVG Version: 6.00 Build 0)  -->
<!DOCTYPE svg PUBLIC "-//W3C//DTD SVG 1.1//EN" "http://www.w3.org/Graphics/SVG/1.1/DTD/svg11.dtd">
<svg version="1.1" id="Camada_1" xmlns="http://www.w3.org/2000/svg" xmlns:xlink="http://www.w3.org/1999/xlink" x="0px" y="0px"
	 width="115px" height="35px" viewBox="0 0 115 35" enable-background="new 0 0 115 35" xml:space="preserve">
<g>
	<g>
		<g>
			<path fill-rule="evenodd" clip-rule="evenodd" fill="#A9A9A9" d="M106.115,17.762c0.367-0.152,0.396-0.18,0.26-0.566
				c-0.775-2.213-3.693-3.408-6.178-2.371c-1.961,0.817-3.381,2.891-3.381,5.208c0,3.125,2.254,5.902,5.318,5.902
				c1.404,0,2.402-0.193,3.291-0.758c0.191-0.178,1.266-1.037,1.275-1.221c0.002-0.041-0.15,0.092-0.385,0.221
				c-0.693,0.363-1.73,0.504-2.543,0.518c-1.646,0.031-2.963-1.092-3.82-2.422c-0.551-0.859-0.908-1.838-0.996-2.891
				c-0.137-1.618,0.258-3.478,2.086-3.935c1.215-0.304,2.367,0.377,2.814,1.548c0.203,0.531,0.08,0.808-0.412,1.01l-4.395,1.836
				l1.498,0.096C102.333,19.197,104.33,18.502,106.115,17.762L106.115,17.762z"/>
			<path fill-rule="evenodd" clip-rule="evenodd" fill="#A9A9A9" d="M92.583,8.752c1.115,0,2.164,0,3.281,0
				c-0.457,0.296-0.611,0.418-0.807,0.729c-0.141,0.223-0.178,0.646-0.203,1.026c-0.191,4.381-0.074,8.796-0.102,13.179
				c0.018,1.193,0.486,1.053,2.041,1.008c-0.234,0.199-0.615,0.59-0.908,0.76c-1.402,0-2.74-0.031-4.141-0.031
				c0.527-0.543,0.799-0.895,0.762-2.258c0.029-4.58-0.152-8.974,0.127-13.384C91.976,9.8,91.38,9.791,90.722,9.809
				C91.343,9.49,91.931,9.04,92.583,8.752L92.583,8.752z"/>
			<path fill-rule="evenodd" clip-rule="evenodd" fill="#A9A9A9" d="M86.65,26.205c0.236,0.172,0.482,0.34,0.736,0.5
				c1.379,0.873,1.818,1.941,1.705,2.926c-0.135,1.188-1.273,2.125-3.225,2.242c-2.084,0.127-4.889-0.697-4.369-3.438
				c0.275-1.461,2.213-2.215,3.814-2.268C85.755,26.152,86.207,26.189,86.65,26.205L86.65,26.205z M91.361,14.797l-1.402,0.908
				h-1.598c0.674,0.472,1.191,1.15,1.477,1.907c0.303,0.806,0.346,1.698,0.037,2.52c-0.291,0.775-0.881,1.443-1.746,1.951
				c-0.492,0.289-0.742,0.654-0.77,1.006c-0.08,1.023,1.17,1.768,1.895,2.309c1.582,1.184,2.199,3.127,1.152,5.004
				c-1,1.793-3.383,2.594-5.912,2.602c-3.143-0.014-5.125-1.453-5.23-3.414c-0.135-2.531,2.465-3.738,4.813-4.012
				c0.658-0.078,1.246-0.066,1.799-0.025c-0.832-0.549-1.143-1.662-0.719-2.408c0.111-0.193,0.041-0.127-0.168-0.096
				c-1.922,0.291-3.9-0.963-4.363-2.857c-0.234-0.961-0.088-1.966,0.277-2.753c0.795-1.708,2.564-2.657,4.527-2.657
				C87.47,14.781,89.361,14.782,91.361,14.797L91.361,14.797z M87.83,18.963c0.25,1.518-0.135,2.955-1.506,3.334
				c-1.404,0.389-2.957-0.703-3.455-2.658c-0.547-2.144,0.018-3.504,1.34-3.916C85.775,15.236,87.449,16.648,87.83,18.963
				L87.83,18.963z"/>
			<path fill-rule="evenodd" clip-rule="evenodd" fill="#A9A9A9" d="M73.513,14.481c3.766,0,5.73,2.503,5.906,5.435
				c0.174,2.922-2.234,5.537-5.184,5.85c-3.545,0.377-6.641-2.066-6.641-5.629C67.595,17.022,70.253,14.481,73.513,14.481
				L73.513,14.481z M77.072,20.293c0.217,2.148-0.506,4.145-2.434,4.592c-1.973,0.457-4.066-1.182-4.588-3.963
				c-0.574-3.05,0.375-5.059,2.236-5.553C74.494,14.784,76.742,17.011,77.072,20.293L77.072,20.293z"/>
			<path fill-rule="evenodd" clip-rule="evenodd" fill="#A9A9A9" d="M60.605,14.481c3.811,0,5.799,2.503,5.977,5.435
				c0.176,2.922-2.262,5.537-5.244,5.85c-3.588,0.377-6.721-2.066-6.721-5.629C54.617,17.022,57.306,14.481,60.605,14.481
				L60.605,14.481z M64.207,20.293c0.219,2.148-0.512,4.145-2.463,4.592c-1.996,0.457-4.113-1.182-4.643-3.963
				c-0.58-3.05,0.379-5.059,2.264-5.553C61.597,14.784,63.873,17.011,64.207,20.293L64.207,20.293z"/>
			<path fill-rule="evenodd" clip-rule="evenodd" fill="#A9A9A9" d="M51.137,12.914l1.713-1.747
				c-2.907-2.406-7.894-2.723-11.198-1.052c-2.873,1.453-4.963,4.339-5.065,7.563c-0.108,3.391,1.864,6.075,3.864,7.424
				c3.303,2.227,9.029,1.732,12.479-0.01l-0.002-0.322h0.001v-3.557l0.804-0.939h-5.025l-1.861,1.047l3.614-0.107
				c0,1.014,0,2.121,0,3.135c0,0.443,0.006,0.516-0.727,0.752c-1.031,0.271-2.196,0.324-3.259,0.234
				c-3.609-0.301-6.36-3.15-7.012-6.708c-0.618-3.374,0.973-6.567,3.664-7.884c1.314-0.644,2.891-0.945,4.6-0.398
				c1.07,0.343,2.043,0.961,2.891,1.812l-0.59,1.074L51.137,12.914L51.137,12.914z"/>
		</g>
	</g>
	<path opacity="0.3" fill="#303030" d="M33.91,7.997v-0.07c0.005-0.043,0.008-0.087,0.008-0.131c0-0.057-0.005-0.111-0.012-0.16
		c-0.07-0.717-0.588-1.302-1.287-1.455L32.42,6.152c-1.801-0.219-7.875-1.137-10.796-3.789c-0.126-0.158-0.276-0.3-0.446-0.422
		c-0.399-0.287-0.873-0.438-1.37-0.438c-0.5,0-0.974,0.153-1.374,0.44c-0.167,0.121-0.314,0.261-0.439,0.416
		c-2.949,2.682-9.078,3.59-10.894,3.805L7.021,6.176C6.305,6.324,5.768,6.934,5.709,7.665C5.704,7.708,5.7,7.751,5.7,7.797
		c0,0.034,0.002,0.068,0.006,0.104l0,0.086c0,0.059,0,0.117,0,0.176C5.704,8.191,5.703,8.22,5.703,8.25
		c0,0.058,0.002,0.115,0.007,0.172c0.165,11.764,3.897,17.792,7,20.776c3.442,3.311,6.858,3.736,7.002,3.754l0.094,0.01l0.095-0.01
		c0.144-0.018,3.558-0.441,7-3.75c3.102-2.982,6.834-9.004,7.002-20.757c0.007-0.063,0.01-0.129,0.01-0.194
		c0-0.034-0.002-0.067-0.004-0.108C33.91,8.094,33.91,8.044,33.91,7.997z"/>
	<path d="M7.135,6.077c0.003,0,0.007-0.001,0.011-0.001C7.143,6.077,7.139,6.076,7.135,6.077z"/>
	<g>
		<defs>
			<path id="XMLID_1_" d="M33.062,7.846c0.003-0.027,0.008-0.054,0.008-0.081s-0.005-0.054-0.008-0.08
				c-0.035-0.358-0.295-0.649-0.64-0.726c-0.038-0.004-0.078-0.009-0.12-0.014c-2.14-0.261-8.265-1.229-11.31-4.051
				c-0.087-0.118-0.194-0.223-0.316-0.311c-0.245-0.177-0.552-0.282-0.886-0.282c-0.335,0-0.643,0.106-0.888,0.284
				c-0.12,0.086-0.226,0.188-0.312,0.306C15.5,5.758,9.231,6.714,7.182,6.958c-0.004,0-0.007,0.001-0.011,0.001
				C6.812,7.032,6.542,7.339,6.518,7.712C6.517,7.731,6.512,7.749,6.512,7.767s0.004,0.036,0.006,0.055c0,0.111-0.001,0.225,0,0.335
				C6.517,8.177,6.515,8.198,6.515,8.219c0,0.044,0.002,0.087,0.007,0.129c0.3,22.261,13.268,23.75,13.268,23.75
				s12.962-1.486,13.269-23.732c0.005-0.049,0.008-0.097,0.008-0.146c0-0.027-0.002-0.055-0.004-0.082
				C33.063,8.042,33.062,7.942,33.062,7.846z"/>
		</defs>
		<use xlink:href="#XMLID_1_"  overflow="visible" fill="#828282"/>
		<clipPath id="XMLID_3_">
			<use xlink:href="#XMLID_1_"  overflow="visible"/>
		</clipPath>
		<rect x="19.657" y="-6.633" clip-path="url(#XMLID_3_)" fill="#C4C4C4" width="18.132" height="43.241"/>
	</g>
	<path fill="#E6E7E8" d="M26.757,9.959c-0.3,0-0.575,0.107-0.789,0.285l-0.162,0.162l-9.688,9.687l-3.015-3.015
		c-0.059-0.074-0.126-0.142-0.201-0.2c-0.211-0.169-0.479-0.27-0.771-0.27c-0.254,0-0.49,0.076-0.686,0.208
		c-0.137,0.091-0.254,0.208-0.345,0.345c-0.131,0.196-0.208,0.433-0.208,0.687c0,0.294,0.103,0.564,0.274,0.776l0.189,0.19
		l3.021,3.021l-0.003,0.002l0.809,0.809l0.184,0.184c0.207,0.166,0.467,0.266,0.752,0.266c0.282,0,0.541-0.098,0.746-0.26
		c0.073-0.057,0.139-0.123,0.197-0.197l0.801-0.801l-0.003-0.002l9.682-9.682l0.173-0.174c0.175-0.213,0.28-0.486,0.28-0.783
		C27.994,10.513,27.441,9.959,26.757,9.959z"/>
	<g>
		<g>
			<path fill="#7B7B7B" d="M54.978,10.534c0.23,0.142,0.568,0.26,0.924,0.26c0.527,0,0.834-0.278,0.834-0.681
				c0-0.373-0.213-0.586-0.752-0.793c-0.65-0.23-1.053-0.568-1.053-1.131c0-0.621,0.514-1.082,1.291-1.082
				c0.408,0,0.703,0.094,0.881,0.195l-0.143,0.42c-0.129-0.071-0.396-0.189-0.758-0.189c-0.543,0-0.75,0.325-0.75,0.598
				c0,0.373,0.242,0.557,0.793,0.77c0.674,0.26,1.018,0.586,1.018,1.172c0,0.615-0.455,1.148-1.396,1.148
				c-0.385,0-0.805-0.113-1.02-0.255L54.978,10.534z"/>
			<path fill="#7B7B7B" d="M59.552,11.161l-0.041-0.361h-0.018c-0.16,0.225-0.467,0.427-0.875,0.427
				c-0.58,0-0.877-0.408-0.877-0.823c0-0.692,0.615-1.071,1.723-1.065V9.279c0-0.237-0.064-0.663-0.65-0.663
				c-0.268,0-0.545,0.083-0.746,0.213l-0.119-0.343c0.236-0.154,0.58-0.255,0.941-0.255c0.875,0,1.09,0.598,1.09,1.172v1.071
				c0,0.248,0.012,0.491,0.047,0.687H59.552z M59.476,9.699c-0.568-0.012-1.213,0.089-1.213,0.646c0,0.337,0.225,0.497,0.49,0.497
				c0.373,0,0.609-0.236,0.693-0.48c0.018-0.053,0.029-0.112,0.029-0.165V9.699z"/>
			<path fill="#7B7B7B" d="M60.873,11.161V8.693H60.47V8.296h0.402V8.16c0-0.402,0.088-0.77,0.332-1
				C61.4,6.97,61.66,6.893,61.902,6.893c0.184,0,0.344,0.042,0.443,0.083l-0.07,0.402c-0.076-0.035-0.184-0.065-0.332-0.065
				c-0.443,0-0.555,0.392-0.555,0.829v0.154h0.691v0.396h-0.691v2.468H60.873z"/>
			<path fill="#7B7B7B" d="M62.761,9.823c0.012,0.705,0.461,0.995,0.982,0.995c0.373,0,0.598-0.065,0.793-0.148l0.088,0.373
				c-0.184,0.083-0.496,0.178-0.953,0.178c-0.881,0-1.408-0.58-1.408-1.444s0.51-1.545,1.344-1.545c0.936,0,1.184,0.822,1.184,1.35
				c0,0.106-0.012,0.189-0.018,0.242H62.761z M64.289,9.451c0.004-0.332-0.137-0.847-0.723-0.847c-0.527,0-0.758,0.485-0.799,0.847
				H64.289z"/>
			<path fill="#7B7B7B" d="M66.708,7.225c0.225-0.048,0.58-0.083,0.939-0.083c0.516,0,0.848,0.089,1.096,0.29
				c0.207,0.153,0.332,0.391,0.332,0.704c0,0.385-0.256,0.722-0.676,0.876v0.012c0.379,0.095,0.824,0.408,0.824,1
				c0,0.344-0.137,0.604-0.338,0.799c-0.279,0.255-0.729,0.374-1.379,0.374c-0.355,0-0.627-0.024-0.799-0.048V7.225z M67.222,8.858
				h0.469c0.545,0,0.863-0.283,0.863-0.669c0-0.467-0.355-0.65-0.875-0.65c-0.238,0-0.373,0.018-0.457,0.035V8.858z M67.222,10.77
				c0.102,0.018,0.25,0.023,0.434,0.023c0.531,0,1.023-0.195,1.023-0.775c0-0.544-0.469-0.769-1.031-0.769h-0.426V10.77z"/>
			<path fill="#7B7B7B" d="M69.898,9.19c0-0.338-0.006-0.628-0.023-0.894h0.455l0.018,0.562h0.023
				c0.131-0.384,0.443-0.627,0.793-0.627c0.061,0,0.102,0.006,0.148,0.018V8.74c-0.053-0.012-0.105-0.018-0.178-0.018
				c-0.367,0-0.627,0.278-0.697,0.669c-0.012,0.071-0.025,0.154-0.025,0.242v1.527h-0.514V9.19z"/>
			<path fill="#7B7B7B" d="M74.367,9.705c0,1.06-0.734,1.521-1.428,1.521c-0.775,0-1.373-0.568-1.373-1.474
				c0-0.96,0.629-1.521,1.422-1.521C73.81,8.231,74.367,8.829,74.367,9.705z M72.093,9.734c0,0.627,0.361,1.102,0.869,1.102
				c0.498,0,0.871-0.468,0.871-1.113c0-0.485-0.242-1.101-0.857-1.101C72.359,8.622,72.093,9.19,72.093,9.734z"/>
			<path fill="#7B7B7B" d="M75.189,8.296l0.379,1.456c0.082,0.319,0.16,0.615,0.213,0.911h0.018c0.064-0.29,0.16-0.598,0.254-0.905
				l0.469-1.462h0.438l0.443,1.432c0.107,0.344,0.189,0.646,0.254,0.936h0.02c0.047-0.29,0.123-0.592,0.219-0.93l0.408-1.438h0.514
				l-0.922,2.864h-0.475l-0.438-1.367c-0.102-0.319-0.184-0.604-0.254-0.941h-0.012c-0.072,0.344-0.16,0.64-0.262,0.947
				l-0.461,1.361h-0.473l-0.865-2.864H75.189z"/>
			<path fill="#7B7B7B" d="M79.23,10.627c0.154,0.101,0.428,0.208,0.688,0.208c0.379,0,0.557-0.189,0.557-0.427
				c0-0.248-0.148-0.385-0.533-0.526c-0.516-0.184-0.758-0.468-0.758-0.811c0-0.462,0.373-0.841,0.988-0.841
				c0.291,0,0.545,0.083,0.705,0.178l-0.131,0.379c-0.113-0.071-0.32-0.166-0.586-0.166c-0.307,0-0.48,0.178-0.48,0.391
				c0,0.237,0.174,0.344,0.545,0.485c0.498,0.189,0.752,0.438,0.752,0.863c0,0.504-0.391,0.859-1.07,0.859
				c-0.314,0-0.604-0.077-0.805-0.196L79.23,10.627z"/>
			<path fill="#7B7B7B" d="M82.224,7.491c0.008,0.178-0.123,0.32-0.33,0.32c-0.184,0-0.314-0.143-0.314-0.32
				c0-0.184,0.137-0.325,0.326-0.325C82.101,7.166,82.224,7.307,82.224,7.491z M81.646,11.161V8.296h0.52v2.864H81.646z"/>
			<path fill="#7B7B7B" d="M83.031,9.072c0-0.297-0.008-0.539-0.025-0.775h0.463l0.029,0.474h0.012
				c0.143-0.272,0.473-0.539,0.947-0.539c0.396,0,1.012,0.236,1.012,1.22v1.71h-0.521V9.509c0-0.462-0.172-0.847-0.662-0.847
				c-0.344,0-0.609,0.243-0.699,0.533c-0.023,0.065-0.035,0.153-0.035,0.242v1.723h-0.52V9.072z"/>
			<path fill="#7B7B7B" d="M88.783,8.296c-0.012,0.207-0.023,0.438-0.023,0.787v1.663c0,0.656-0.131,1.06-0.408,1.308
				c-0.279,0.261-0.682,0.344-1.043,0.344c-0.344,0-0.721-0.083-0.953-0.237l0.131-0.396c0.189,0.119,0.486,0.225,0.84,0.225
				c0.533,0,0.924-0.277,0.924-1v-0.319h-0.012c-0.16,0.267-0.467,0.479-0.912,0.479c-0.709,0-1.219-0.604-1.219-1.396
				c0-0.972,0.633-1.521,1.291-1.521c0.496,0,0.77,0.26,0.893,0.497h0.012l0.025-0.432H88.783z M88.244,9.426
				c0-0.089-0.006-0.165-0.029-0.236c-0.096-0.302-0.35-0.551-0.729-0.551c-0.496,0-0.852,0.421-0.852,1.083
				c0,0.563,0.283,1.03,0.846,1.03c0.32,0,0.609-0.202,0.723-0.533c0.029-0.089,0.041-0.189,0.041-0.277V9.426z"/>
		</g>
	</g>
</g>
</svg>
