<?xml version="1.0" encoding="utf-8"?>
<!-- Generator: Adobe Illustrator 26.3.1, SVG Export Plug-In . SVG Version: 6.00 Build 0)  -->
<svg version="1.1" id="Camada_1" xmlns="http://www.w3.org/2000/svg" xmlns:xlink="http://www.w3.org/1999/xlink" x="0px" y="0px"
	 viewBox="0 0 1240.6 297.3" style="enable-background:new 0 0 1240.6 297.3;" xml:space="preserve">
<style type="text/css">
	.st0{fill:#312784;}
	.st1{fill-rule:evenodd;clip-rule:evenodd;fill:#312784;}
</style>
<g>
	<path class="st0" d="M1116.1,165.2c-5.2,29.3-10.4,58.7-15.6,88.1l34.6-4.8c6.3-0.9,11.3-5.7,12.4-11.9l12.7-71.3h19.5
		c7.7,0,11.5-2.9,13.8-10.5l5.9-18.9h-34.1l1.2-6.5c0.7-4.2,3.9-8.2,10.6-8.2h16.5c7.8,0,11.3-2.9,13.7-10.5l5.9-18.9h-39.5
		c-29.1,0-47.2,14.5-52,42.2l-0.3,1.9h-5.2c-7.8,0-11.5,2.9-13.9,10.5l-5.9,18.9H1116.1z"/>
	<path class="st0" d="M857.4,253.3h44.1l13.2-76.6c1.4-8.1,5.2-11.5,14.1-11.5H946c7.7,0,11.5-2.9,13.8-10.5l5.9-18.9h-17.1h-36.1
		c-22.9,0-36.7,11.1-40.5,32.5L857.4,253.3z"/>
	<path class="st0" d="M786.4,297.3h-78.2l7.3-23.5c2.4-7.6,6.1-10.5,13.9-10.5h44.2c11.3,0,17.2-5.3,19.1-14.3l2.3-10.9
		c-7,5.7-16.4,8.6-25.4,8.6H755c-28.5,0-40.9-15.7-35.7-45.5l3.5-19.9c5.2-29.8,23.3-45.5,51.8-45.5c15,0,29.9,0,44.8,0
		c24.3,0,34.9,15.7,29.6,45.5c-4,22.4-9.4,51.3-13.3,73.6C830,287.5,805.1,297.3,786.4,297.3L786.4,297.3z M805.8,177.6
		c1.6-9.5-3.7-12.4-12.3-12.4h-9.2c-10.3,0-15,3.8-16.8,13.4l-3.8,20.7c-1.8,9.6,1.2,17.2,11.5,17.2h9.2c10.3,0,15-3.8,16.8-13.4
		L805.8,177.6z"/>
	<path class="st0" d="M507.1,253.3h44.1l13.4-75.3c1.7-9.4,5-12.8,14.9-12.8h2.1c9.8,0,12.4,3.3,10.7,12.8l-13.4,75.3h44.1
		l13.4-75.3c1.7-9.4,5-12.8,14.9-12.8h2.1c9.9,0,12.4,3.4,10.7,12.8l-13.4,75.3h44.1l12.8-71.9c5.3-29.8-5.2-45.5-29.6-45.5H666
		c-14.1,0-25.4,5.2-33.3,15.3c-5.4-11.3-14.5-15.3-26.6-15.3h-7.7h-1.7h-34.1c-22.9,0-36.7,11.1-40.5,32.5l-0.7,4.2L507.1,253.3z"/>
	<path class="st0" d="M371.4,225.7c-3.3,18.5,12,29.7,24.2,29.7h22.3c13.6,0,23.9-4.2,30.2-12.8l0.8,4c0.9,5,3.4,6.7,10.3,6.7h26.8
		l14.3-81.3c3.2-18.4-12.8-36.1-31.1-36.1h-76.6l3.3,18.9c1.3,7.4,4.6,10.5,12.4,10.5H452c3.8,0,5.3,1.5,4.6,5.2l-1.6,9.4h-43
		c-22.6,0-35.3,16.2-37.7,29.8L371.4,225.7z M421.4,223.9c-3.8,0-5.2-1.5-4.6-5.2l0.7-4.2c0.6-3.8,2.7-5.2,6.5-5.2h25.8l-0.7,4
		c-1.3,7.3-5.9,10.7-14.7,10.7H421.4z"/>
	<path class="st0" d="M242.3,172.5l-21.9,124.8l34.6-4.8c6.3-0.9,11.3-5.7,12.4-12l6.3-35.4c3.5,8.2,13.8,10.3,21.8,10.3h14.7
		c28.5,0,46.4-15.8,51.8-45.5l5.2-28.5c5.4-29.7-7.3-45.5-35.9-45.5h-12h-1.6h-37.4c-19.5,0-33.8,14.2-36.7,30.3L242.3,172.5
		L242.3,172.5z M285.3,178.6c1.7-9.6,6.5-13.4,16.8-13.4h9.2c10.3,0,13.9,3.8,12.2,13.4l-5.6,31.9c-1.7,9.7-6.5,13.4-16.8,13.4h-9.2
		c-10.3,0-13.9-3.8-12.2-13.4L285.3,178.6z"/>
	<path class="st0" d="M953.1,225.7c-3.3,18.5,12,29.7,24.2,29.7h22.3c13.6,0,23.9-4.2,30.2-12.8l0.8,4c0.9,5,3.4,6.7,10.3,6.7h26.8
		L1082,172c3.2-18.4-12.8-36.1-31.1-36.1h-76.6l3.3,18.9c1.3,7.4,4.6,10.5,12.4,10.5h43.7c3.8,0,5.3,1.5,4.6,5.2l-1.6,9.4h-43
		c-22.6,0-35.3,16.2-37.7,29.8L953.1,225.7z M1003.1,223.9c-3.8,0-5.2-1.5-4.6-5.2l0.7-4.2c0.6-3.8,2.7-5.2,6.5-5.2h25.8l-0.7,4
		c-1.3,7.3-5.9,10.7-14.7,10.7H1003.1z"/>
	<path class="st1" d="M93.1,198.5l-17,96.8l-58.9-32.6c-9-5.2-8.5-17.3-0.2-21.9L93.1,198.5z"/>
	<path class="st1" d="M0,227.4l28.7-163l3.5-20C34.6,30.6,42.8,20.1,53.5,14L78.7,0l165.4,91.8L0,227.4z"/>
	<path class="st0" d="M1240.6,99.2c0,1.5-0.3,2.8-1,3.9c-0.7,1.1-1.5,2-2.6,2.6c-1.1,0.6-2.4,0.9-3.7,0.9c-1.4,0-2.6-0.3-3.7-0.9
		c-1.1-0.6-2-1.4-2.6-2.6c-0.7-1.1-1-2.4-1-3.9c0-1.5,0.3-2.8,1-3.9c0.7-1.1,1.5-2,2.6-2.6c1.1-0.6,2.4-0.9,3.7-0.9
		c1.4,0,2.6,0.3,3.7,0.9c1.1,0.6,2,1.4,2.6,2.6C1240.2,96.3,1240.6,97.7,1240.6,99.2L1240.6,99.2z M1227.1,99.2
		c0,1.9,0.6,3.4,1.8,4.5c1.2,1.1,2.6,1.6,4.4,1.6c1.7,0,3.2-0.5,4.4-1.6c1.2-1.1,1.7-2.6,1.7-4.5c0-2-0.6-3.5-1.7-4.5
		c-1.1-1.1-2.6-1.6-4.4-1.6c-1.8,0-3.3,0.5-4.4,1.6C1227.7,95.7,1227.1,97.2,1227.1,99.2L1227.1,99.2z M1231.2,102.6
		c-0.3,0-0.4-0.1-0.4-0.4v-6.3c0-0.3,0.1-0.4,0.4-0.4h2.4c0.8,0,1.4,0.2,1.9,0.6c0.5,0.4,0.7,0.9,0.7,1.6c0,1.2-0.6,2-1.9,2.2
		l1.8,2.3c0.1,0.1,0.1,0.2,0.1,0.3c0,0.1-0.1,0.2-0.3,0.2h-0.5c-0.2,0-0.4-0.1-0.5-0.3l-1.8-2.4h-1.2v2.2c0,0.3-0.1,0.4-0.4,0.4
		H1231.2z M1233.6,98.9c1,0,1.4-0.4,1.4-1.2c0-0.4-0.1-0.7-0.4-0.9s-0.6-0.3-1.1-0.3h-1.6v2.3H1233.6z"/>
</g>
</svg>
