<?xml version="1.0" encoding="utf-8"?>
<!-- Generator: Adobe Illustrator 26.3.1, SVG Export Plug-In . SVG Version: 6.00 Build 0)  -->
<svg version="1.1" id="Layer_1" xmlns="http://www.w3.org/2000/svg" xmlns:xlink="http://www.w3.org/1999/xlink" x="0px" y="0px"
	 viewBox="0 0 155 37" style="enable-background:new 0 0 155 37;" xml:space="preserve">
<style type="text/css">
	.st0{fill:#312784;}
	.st1{fill-rule:evenodd;clip-rule:evenodd;fill:#312784;}
</style>
<g>
	<path class="st0" d="M139.2,20.6c-0.6,3.7-1.3,7.3-1.9,11l4.3-0.6c0.8-0.1,1.4-0.7,1.5-1.5l1.6-8.9h2.4c1,0,1.4-0.4,1.7-1.3
		l0.7-2.3h-4.2l0.1-0.8c0.1-0.5,0.5-1,1.3-1h2.1c1,0,1.4-0.4,1.7-1.3l0.7-2.3h-4.9c-3.6,0-5.9,1.8-6.5,5.2l0,0.2h-0.6
		c-1,0-1.4,0.4-1.7,1.3l-0.7,2.3H139.2z"/>
	<path class="st0" d="M107,31.5h5.5l1.6-9.5c0.2-1,0.7-1.4,1.7-1.4h2.2c1,0,1.4-0.4,1.7-1.3l0.7-2.3h-2.1h-4.5c-2.8,0-4.6,1.4-5,4
		L107,31.5z"/>
	<path class="st0" d="M98.2,37h-9.7l0.9-2.9c0.3-0.9,0.8-1.3,1.7-1.3h5.5c1.4,0,2.1-0.7,2.4-1.8l0.3-1.4c-0.9,0.7-2,1.1-3.2,1.1
		h-1.8c-3.6,0-5.1-2-4.4-5.7l0.4-2.5c0.7-3.7,2.9-5.7,6.4-5.7c1.9,0,3.7,0,5.6,0c3,0,4.3,2,3.7,5.7c-0.5,2.8-1.2,6.4-1.7,9.2
		C103.6,35.8,100.5,37,98.2,37L98.2,37z M100.6,22.1c0.2-1.2-0.5-1.5-1.5-1.5h-1.1c-1.3,0-1.9,0.5-2.1,1.7l-0.5,2.6
		C95.1,26,95.5,27,96.8,27h1.1c1.3,0,1.9-0.5,2.1-1.7L100.6,22.1z"/>
	<path class="st0" d="M63.4,31.5h5.5l1.7-9.4c0.2-1.2,0.6-1.6,1.9-1.6h0.3c1.2,0,1.5,0.4,1.3,1.6l-1.7,9.4h5.5l1.7-9.4
		c0.2-1.2,0.6-1.6,1.9-1.6h0.3c1.2,0,1.5,0.4,1.3,1.6l-1.7,9.4h5.5l1.6-9c0.7-3.7-0.7-5.7-3.7-5.7h-1.5c-1.7,0-3.2,0.7-4.1,1.9
		c-0.7-1.4-1.8-1.9-3.3-1.9h-1h-0.2h-4.2c-2.8,0-4.6,1.4-5,4l-0.1,0.5L63.4,31.5z"/>
	<path class="st0" d="M46.5,28.1c-0.4,2.3,1.5,3.7,3,3.7h2.8c1.7,0,3-0.5,3.8-1.6l0.1,0.5c0.1,0.6,0.4,0.8,1.3,0.8h3.3l1.8-10.1
		c0.4-2.3-1.6-4.5-3.9-4.5h-9.5l0.4,2.3c0.2,0.9,0.6,1.3,1.5,1.3h5.4c0.5,0,0.7,0.2,0.6,0.6l-0.2,1.2h-5.4c-2.8,0-4.4,2-4.7,3.7
		L46.5,28.1z M52.8,27.9c-0.5,0-0.7-0.2-0.6-0.7l0.1-0.5c0.1-0.5,0.3-0.7,0.8-0.7h3.2l-0.1,0.5c-0.2,0.9-0.7,1.3-1.8,1.3H52.8z"/>
	<path class="st0" d="M30.5,21.5L27.7,37l4.3-0.6c0.8-0.1,1.4-0.7,1.5-1.5l0.8-4.4c0.4,1,1.7,1.3,2.7,1.3h1.8c3.6,0,5.8-2,6.4-5.7
		l0.6-3.6c0.7-3.7-0.9-5.7-4.5-5.7H40h-0.2h-4.7c-2.4,0-4.2,1.8-4.6,3.8L30.5,21.5L30.5,21.5z M35.8,22.2c0.2-1.2,0.8-1.7,2.1-1.7
		H39c1.3,0,1.7,0.5,1.5,1.7l-0.7,4c-0.2,1.2-0.8,1.7-2.1,1.7h-1.1c-1.3,0-1.7-0.5-1.5-1.7L35.8,22.2z"/>
	<path class="st0" d="M118.9,28.1c-0.4,2.3,1.5,3.7,3,3.7h2.8c1.7,0,3-0.5,3.8-1.6l0.1,0.5c0.1,0.6,0.4,0.8,1.3,0.8h3.3l1.8-10.1
		c0.4-2.3-1.6-4.5-3.9-4.5h-9.5l0.4,2.3c0.2,0.9,0.6,1.3,1.5,1.3h5.4c0.5,0,0.7,0.2,0.6,0.6l-0.2,1.2H124c-2.8,0-4.4,2-4.7,3.7
		L118.9,28.1z M125.1,27.9c-0.5,0-0.7-0.2-0.6-0.7l0.1-0.5c0.1-0.5,0.3-0.7,0.8-0.7h3.2l-0.1,0.5c-0.2,0.9-0.7,1.3-1.8,1.3H125.1z"
		/>
	<path class="st1" d="M11.9,24.7l-2.1,12l-7.3-4.1c-1.1-0.7-1.1-2.2,0-2.7L11.9,24.7z"/>
	<path class="st1" d="M0.3,28.3L3.9,8l0.4-2.5c0.3-1.7,1.3-3,2.7-3.8L10.1,0l20.6,11.4L0.3,28.3z"/>
	<path class="st0" d="M154.7,12.3c0,0.2,0,0.3-0.1,0.5c-0.1,0.1-0.2,0.2-0.3,0.3c-0.1,0.1-0.3,0.1-0.5,0.1c-0.2,0-0.3,0-0.5-0.1
		s-0.2-0.2-0.3-0.3c-0.1-0.1-0.1-0.3-0.1-0.5c0-0.2,0-0.3,0.1-0.5c0.1-0.1,0.2-0.2,0.3-0.3c0.1-0.1,0.3-0.1,0.5-0.1
		c0.2,0,0.3,0,0.5,0.1c0.1,0.1,0.2,0.2,0.3,0.3C154.6,12,154.7,12.2,154.7,12.3L154.7,12.3z M153,12.3c0,0.2,0.1,0.4,0.2,0.6
		c0.1,0.1,0.3,0.2,0.6,0.2c0.2,0,0.4-0.1,0.5-0.2c0.1-0.1,0.2-0.3,0.2-0.6c0-0.2-0.1-0.4-0.2-0.6c-0.1-0.1-0.3-0.2-0.5-0.2
		c-0.2,0-0.4,0.1-0.6,0.2C153.1,11.9,153,12.1,153,12.3L153,12.3z M153.5,12.8C153.5,12.8,153.5,12.8,153.5,12.8l0-0.8
		c0,0,0-0.1,0-0.1h0.3c0.1,0,0.2,0,0.2,0.1c0.1,0,0.1,0.1,0.1,0.2c0,0.2-0.1,0.2-0.2,0.3l0.2,0.3c0,0,0,0,0,0c0,0,0,0,0,0H154
		c0,0,0,0-0.1,0l-0.2-0.3h-0.1L153.5,12.8C153.6,12.8,153.6,12.8,153.5,12.8L153.5,12.8z M153.8,12.3c0.1,0,0.2,0,0.2-0.1
		c0,0,0-0.1,0-0.1s-0.1,0-0.1,0h-0.2v0.3H153.8z"/>
</g>
</svg>
