<svg width="19" height="17" viewBox="0 0 19 17" fill="none" xmlns="http://www.w3.org/2000/svg">
<g clip-path="url(#clip0_13_891)">
<path fill-rule="evenodd" clip-rule="evenodd" d="M0.820001 10.81C0.553962 10.685 0.328642 10.4874 0.170001 10.24C0.0584646 10.0524 -0.000275409 9.83821 9.70818e-07 9.61999V5.99999C0.00264708 5.8458 0.033137 5.69335 0.090001 5.54999C0.223697 5.22185 0.477665 4.95715 0.800001 4.80999C1.04167 4.69924 1.30417 4.64128 1.57 4.63999H2.81C2.57738 4.0238 2.52875 3.35331 2.67 2.70999C2.8159 1.98629 3.20386 1.33382 3.77 0.859992C4.32573 0.365499 5.0283 0.0669079 5.77 0.0099924C6.33539 -0.041372 6.90482 0.0443862 7.43 0.259992C7.94239 0.475528 8.39025 0.820037 8.73 1.25999C8.73 1.25999 8.73 1.31999 8.79 1.34999C8.85 1.37999 9.05 1.68999 9.16 1.82999C9.28234 1.65165 9.41595 1.4813 9.56 1.31999C9.94417 0.807807 10.4637 0.412999 11.06 0.179992C11.6878 -0.015573 12.3541 -0.0533544 13 0.0699924C13.6892 0.200762 14.3173 0.551674 14.79 1.06999C15.279 1.5726 15.5973 2.21634 15.7 2.90999C15.8035 3.50124 15.7447 4.10948 15.53 4.66999H16.78C16.991 4.6563 17.2025 4.6883 17.4 4.76378C17.5975 4.83927 17.7764 4.95648 17.9245 5.10741C18.0725 5.25834 18.1863 5.43944 18.258 5.63834C18.3297 5.83725 18.3577 6.04929 18.34 6.25999V9.25999C18.3701 9.48287 18.3467 9.7097 18.272 9.9218C18.1972 10.1339 18.0732 10.3252 17.91 10.48C17.7949 10.6068 17.6544 10.708 17.4976 10.7769C17.3408 10.8458 17.1713 10.8809 17 10.88V10.88V14.08C17.0067 14.6576 16.792 15.2158 16.4 15.64C16.1945 15.8422 15.9506 16.0013 15.6827 16.1077C15.4148 16.2142 15.1282 16.266 14.84 16.26H3.49C3.32666 16.2695 3.16282 16.2662 3 16.25C2.83341 16.214 2.6721 16.1569 2.52 16.08C2.13394 15.9007 1.81515 15.6029 1.61 15.23C1.4369 14.8857 1.3478 14.5053 1.35 14.12V11C1.1738 10.9799 1.00177 10.9327 0.840001 10.86L0.820001 10.81ZM9.27 11.29L8.87 13.47L7.54 12.73C7.49858 12.7051 7.46431 12.6699 7.44052 12.6279C7.41673 12.5858 7.40422 12.5383 7.40422 12.49C7.40422 12.4417 7.41673 12.3942 7.44052 12.3521C7.46431 12.3101 7.49858 12.2749 7.54 12.25L9.27 11.29ZM7.17 11.94L7.88 7.79999C7.94375 7.51876 8.11635 7.27424 8.36 7.11999L8.93 6.80999L12.67 8.87999L7.17 11.94ZM2.44 9.84999V14.13C2.42042 14.3351 2.46467 14.5412 2.5667 14.7202C2.66873 14.8992 2.82355 15.0423 3.01 15.13C3.15721 15.2091 3.32302 15.2471 3.49 15.24H14.83C14.9683 15.2404 15.1053 15.2122 15.2321 15.157C15.359 15.1018 15.473 15.0209 15.567 14.9194C15.661 14.8179 15.7329 14.698 15.7781 14.5673C15.8234 14.4366 15.8411 14.2979 15.83 14.16V9.84999H16.62C17.1 9.84999 17.16 9.75999 17.16 9.30999V6.30999C17.16 5.93999 17.05 5.85999 16.71 5.85999H12.7C12.964 5.76406 13.2213 5.65047 13.47 5.51999C13.8714 5.28692 14.1924 4.93739 14.3907 4.51771C14.5889 4.09804 14.6549 3.62804 14.58 3.16999C14.5288 2.68797 14.326 2.23462 14.0007 1.87521C13.6755 1.51581 13.2445 1.26889 12.77 1.16999C12.3419 1.05235 11.888 1.06884 11.4696 1.21726C11.0511 1.36568 10.6883 1.63888 10.43 1.99999L9.27 3.49999C9.27 3.55999 9.18 3.58999 9.16 3.63999L9.07 3.52999C8.67 3.04999 8.28 2.52999 7.91 2.02999C7.67389 1.7114 7.35878 1.45989 6.99576 1.3003C6.63274 1.14071 6.23438 1.07857 5.84 1.11999C5.27329 1.16491 4.74208 1.41374 4.34479 1.82037C3.94751 2.227 3.7111 2.76385 3.67936 3.33145C3.64762 3.89905 3.82272 4.45892 4.17219 4.9073C4.52167 5.35568 5.02183 5.66217 5.58 5.76999C5.58 5.76999 5.58 5.76999 5.64 5.82999H1.56C1.36 5.82999 1.19 5.82999 1.11 6.05999V9.61999C1.15437 9.69807 1.22062 9.76145 1.30059 9.80232C1.38055 9.8432 1.47073 9.85977 1.56 9.84999C1.84 9.84999 2.13 9.84999 2.44 9.84999ZM8.08 4.45999H5.92C5.67609 4.43052 5.45157 4.31228 5.28926 4.12784C5.12696 3.9434 5.03823 3.70567 5.04 3.45999C5.03954 3.20485 5.13662 2.95918 5.31137 2.77328C5.48612 2.58738 5.72532 2.4753 5.98 2.45999C6.13448 2.43995 6.29152 2.4608 6.43542 2.52046C6.57931 2.58013 6.70503 2.67651 6.8 2.79999L8 4.36999C8 4.36999 8 4.42999 8.06 4.45999H8.08ZM10.35 4.45999H10.24C10.3 4.39999 10.3 4.36999 10.33 4.34999L11.49 2.84999C11.6142 2.67655 11.7943 2.55109 12 2.49465C12.2058 2.43821 12.4247 2.45422 12.62 2.53999C12.8214 2.61476 12.9933 2.75238 13.1104 2.93248C13.2275 3.11259 13.2834 3.3256 13.27 3.53999C13.2645 3.75551 13.1894 3.96346 13.0561 4.13285C12.9227 4.30225 12.7382 4.42401 12.53 4.47999C12.4271 4.49265 12.3229 4.49265 12.22 4.47999L10.35 4.45999Z" fill="#DADADA"/>
</g>
<defs>
<clipPath id="clip0_13_891">
<rect width="18.31" height="16.31" fill="white"/>
</clipPath>
</defs>
</svg>
