<svg width="22" height="21" viewBox="0 0 22 21" fill="none" xmlns="http://www.w3.org/2000/svg">
<g clip-path="url(#clip0_13_870)">
<path d="M10.9516 11.7852C12.1135 11.7852 13.2494 11.4396 14.2155 10.7921C15.1815 10.1446 15.9345 9.22435 16.3792 8.14762C16.8238 7.07088 16.9402 5.88608 16.7135 4.74302C16.4868 3.59997 15.9273 2.55 15.1057 1.72591C14.2841 0.901812 13.2373 0.340595 12.0977 0.113227C10.9581 -0.11414 9.77694 0.00255315 8.70347 0.448551C7.63 0.894549 6.7125 1.64982 6.06697 2.61885C5.42145 3.58789 5.0769 4.72716 5.0769 5.89261C5.0769 7.45543 5.69585 8.95424 6.79757 10.0593C7.8993 11.1644 9.39356 11.7852 10.9516 11.7852ZM10.9516 1.52772C11.8065 1.52773 12.6422 1.7817 13.3533 2.2576C14.0644 2.73349 14.6191 3.40998 14.9473 4.20172C15.2756 4.99345 15.3627 5.86497 15.1976 6.7063C15.0326 7.54764 14.6229 8.3211 14.0201 8.9291C13.4173 9.53711 12.6484 9.95241 11.8106 10.1226C10.9728 10.2928 10.1034 10.2103 9.31226 9.88552C8.52111 9.5607 7.84359 9.00812 7.36519 8.2975C6.88679 7.58688 6.62893 6.75006 6.62416 5.89261C6.62414 4.73916 7.0793 3.63259 7.89017 2.81471C8.70104 1.99682 9.8017 1.53412 10.9516 1.52772Z" fill="#E8E8E8"/>
<path d="M0.773626 21H21.2022C21.4074 21 21.6042 20.9182 21.7492 20.7727C21.8943 20.6272 21.9758 20.4298 21.9758 20.224C21.9727 19.2454 21.7766 18.2772 21.3989 17.3749C21.0212 16.4727 20.4692 15.6543 19.7749 14.9669C19.0806 14.2794 18.2575 13.7366 17.3532 13.3695C16.4489 13.0024 15.481 12.8183 14.5055 12.8279H7.25275C5.32015 12.8659 3.47915 13.6612 2.12368 15.0434C0.768209 16.4257 0.00594544 18.2852 0 20.224C0 20.4298 0.0815068 20.6272 0.22659 20.7727C0.371673 20.9182 0.568448 21 0.773626 21ZM7.37363 14.3799H14.5055C15.9266 14.3538 17.3082 14.8497 18.3902 15.7742C19.4722 16.6987 20.1799 17.9881 20.3802 19.3995H1.5956C1.79854 18.0069 2.4937 16.7338 3.55435 15.8124C4.61499 14.8909 5.97047 14.3825 7.37363 14.3799Z" fill="#E8E8E8"/>
</g>
<defs>
<clipPath id="clip0_13_870">
<rect width="22" height="21" fill="white"/>
</clipPath>
</defs>
</svg>
